<?xml version="1.0" encoding="UTF-8"?>
<svg xmlns="http://www.w3.org/2000/svg" xmlns:xlink="http://www.w3.org/1999/xlink" width="518pt" height="388pt" viewBox="0 0 518 388">
<defs>
<g>
<g id="glyph-0-0">
<path d="M 4.53125 -2.246094 L 5.726562 -1.867188 C 5.542969 -1.199219 5.238281 -0.703125 4.8125 -0.382812 C 4.386719 -0.0585938 3.84375 0.105469 3.1875 0.105469 C 2.378906 0.105469 1.710938 -0.171875 1.1875 -0.726562 C 0.664062 -1.28125 0.402344 -2.039062 0.402344 -3 C 0.402344 -4.019531 0.667969 -4.808594 1.191406 -5.371094 C 1.71875 -5.933594 2.40625 -6.214844 3.261719 -6.214844 C 4.011719 -6.214844 4.617188 -5.992188 5.085938 -5.550781 C 5.363281 -5.289062 5.570312 -4.914062 5.710938 -4.425781 L 4.488281 -4.132812 C 4.417969 -4.453125 4.265625 -4.703125 4.035156 -4.882812 C 3.808594 -5.066406 3.527344 -5.160156 3.199219 -5.160156 C 2.746094 -5.160156 2.378906 -4.996094 2.097656 -4.671875 C 1.816406 -4.347656 1.675781 -3.820312 1.675781 -3.09375 C 1.675781 -2.320312 1.8125 -1.769531 2.09375 -1.441406 C 2.371094 -1.113281 2.730469 -0.949219 3.175781 -0.949219 C 3.503906 -0.949219 3.785156 -1.054688 4.023438 -1.261719 C 4.257812 -1.472656 4.425781 -1.800781 4.53125 -2.246094 Z M 4.53125 -2.246094 "/>
</g>
<g id="glyph-0-1">
<path d="M 0.613281 0 L 0.613281 -6.109375 L 1.785156 -6.109375 L 1.785156 0 Z M 0.613281 0 "/>
</g>
<g id="glyph-0-2">
<path d="M 0.613281 -5.027344 L 0.613281 -6.109375 L 1.785156 -6.109375 L 1.785156 -5.027344 L 0.613281 -5.027344 M 0.613281 0 L 0.613281 -4.425781 L 1.785156 -4.425781 L 1.785156 0 Z M 0.613281 0 "/>
</g>
<g id="glyph-0-3">
<path d="M 3.175781 -1.410156 L 4.34375 -1.210938 C 4.191406 -0.785156 3.957031 -0.460938 3.632812 -0.234375 C 3.308594 -0.0117188 2.902344 0.101562 2.417969 0.101562 C 1.648438 0.101562 1.078125 -0.152344 0.707031 -0.65625 C 0.417969 -1.058594 0.269531 -1.566406 0.269531 -2.179688 C 0.269531 -2.914062 0.460938 -3.488281 0.847656 -3.902344 C 1.230469 -4.320312 1.714844 -4.527344 2.300781 -4.527344 C 2.960938 -4.527344 3.480469 -4.308594 3.859375 -3.875 C 4.238281 -3.4375 4.421875 -2.773438 4.40625 -1.875 L 1.472656 -1.875 C 1.480469 -1.527344 1.574219 -1.257812 1.753906 -1.066406 C 1.933594 -0.871094 2.160156 -0.773438 2.429688 -0.773438 C 2.613281 -0.773438 2.765625 -0.824219 2.890625 -0.925781 C 3.015625 -1.023438 3.113281 -1.1875 3.175781 -1.410156 M 3.242188 -2.59375 C 3.234375 -2.929688 3.148438 -3.1875 2.980469 -3.367188 C 2.8125 -3.542969 2.609375 -3.628906 2.371094 -3.628906 C 2.117188 -3.628906 1.90625 -3.539062 1.738281 -3.351562 C 1.570312 -3.164062 1.488281 -2.910156 1.492188 -2.59375 Z M 3.242188 -2.59375 "/>
</g>
<g id="glyph-0-4">
<path d="M 4.640625 0 L 3.46875 0 L 3.46875 -2.257812 C 3.46875 -2.738281 3.441406 -3.046875 3.394531 -3.1875 C 3.34375 -3.328125 3.261719 -3.4375 3.148438 -3.511719 C 3.035156 -3.589844 2.902344 -3.628906 2.742188 -3.628906 C 2.539062 -3.628906 2.359375 -3.574219 2.195312 -3.464844 C 2.035156 -3.351562 1.925781 -3.207031 1.863281 -3.023438 C 1.804688 -2.839844 1.777344 -2.5 1.777344 -2.003906 L 1.777344 0 L 0.605469 0 L 0.605469 -4.425781 L 1.691406 -4.425781 L 1.691406 -3.777344 C 2.078125 -4.277344 2.566406 -4.527344 3.152344 -4.527344 C 3.410156 -4.527344 3.644531 -4.480469 3.859375 -4.386719 C 4.074219 -4.292969 4.234375 -4.175781 4.34375 -4.03125 C 4.453125 -3.886719 4.53125 -3.722656 4.574219 -3.539062 C 4.617188 -3.355469 4.640625 -3.09375 4.640625 -2.75 Z M 4.640625 0 "/>
</g>
<g id="glyph-0-5">
<path d="M 2.640625 -4.425781 L 2.640625 -3.492188 L 1.84375 -3.492188 L 1.84375 -1.707031 C 1.84375 -1.347656 1.851562 -1.136719 1.863281 -1.078125 C 1.878906 -1.019531 1.914062 -0.96875 1.96875 -0.929688 C 2.023438 -0.890625 2.089844 -0.871094 2.167969 -0.871094 C 2.277344 -0.871094 2.433594 -0.910156 2.636719 -0.984375 L 2.738281 -0.0742188 C 2.464844 0.0429688 2.15625 0.101562 1.8125 0.101562 C 1.601562 0.101562 1.410156 0.0664062 1.242188 -0.0078125 C 1.074219 -0.078125 0.949219 -0.167969 0.867188 -0.28125 C 0.789062 -0.394531 0.734375 -0.546875 0.703125 -0.738281 C 0.679688 -0.875 0.667969 -1.148438 0.667969 -1.5625 L 0.667969 -3.492188 L 0.128906 -3.492188 L 0.128906 -4.425781 L 0.667969 -4.425781 L 0.667969 -5.304688 L 1.84375 -5.988281 L 1.84375 -4.425781 Z M 2.640625 -4.425781 "/>
</g>
<g id="glyph-0-6">
<path d="M 2.179688 0 L -0.00390625 -6.109375 L 1.332031 -6.109375 L 2.878906 -1.589844 L 4.375 -6.109375 L 5.683594 -6.109375 L 3.496094 0 Z M 2.179688 0 "/>
</g>
<g id="glyph-0-7">
<path d="M 1.488281 -3.074219 L 0.425781 -3.269531 C 0.542969 -3.695312 0.75 -4.011719 1.042969 -4.21875 C 1.332031 -4.421875 1.765625 -4.527344 2.34375 -4.527344 C 2.863281 -4.527344 3.253906 -4.464844 3.507812 -4.339844 C 3.765625 -4.21875 3.945312 -4.058594 4.050781 -3.871094 C 4.152344 -3.679688 4.207031 -3.332031 4.207031 -2.820312 L 4.191406 -1.453125 C 4.191406 -1.066406 4.210938 -0.777344 4.25 -0.59375 C 4.285156 -0.410156 4.355469 -0.210938 4.460938 0 L 3.300781 0 C 3.269531 -0.078125 3.234375 -0.191406 3.1875 -0.347656 C 3.167969 -0.414062 3.15625 -0.460938 3.148438 -0.484375 C 2.945312 -0.289062 2.734375 -0.144531 2.503906 -0.046875 C 2.277344 0.0507812 2.035156 0.101562 1.777344 0.101562 C 1.320312 0.101562 0.960938 -0.0234375 0.699219 -0.269531 C 0.433594 -0.519531 0.304688 -0.832031 0.304688 -1.207031 C 0.304688 -1.457031 0.363281 -1.683594 0.484375 -1.878906 C 0.601562 -2.074219 0.769531 -2.222656 0.984375 -2.328125 C 1.199219 -2.433594 1.511719 -2.523438 1.917969 -2.601562 C 2.464844 -2.703125 2.84375 -2.800781 3.054688 -2.886719 L 3.054688 -3.003906 C 3.054688 -3.230469 3 -3.390625 2.886719 -3.488281 C 2.777344 -3.582031 2.566406 -3.628906 2.257812 -3.628906 C 2.050781 -3.628906 1.886719 -3.589844 1.769531 -3.507812 C 1.65625 -3.425781 1.558594 -3.28125 1.488281 -3.074219 M 3.054688 -2.125 C 2.90625 -2.074219 2.667969 -2.015625 2.34375 -1.945312 C 2.015625 -1.875 1.804688 -1.808594 1.703125 -1.742188 C 1.550781 -1.632812 1.476562 -1.496094 1.476562 -1.328125 C 1.476562 -1.164062 1.535156 -1.023438 1.660156 -0.90625 C 1.78125 -0.785156 1.9375 -0.726562 2.125 -0.726562 C 2.335938 -0.726562 2.539062 -0.792969 2.730469 -0.933594 C 2.871094 -1.039062 2.964844 -1.167969 3.007812 -1.320312 C 3.039062 -1.421875 3.054688 -1.613281 3.054688 -1.890625 Z M 3.054688 -2.125 "/>
</g>
<g id="glyph-0-8">
<path d="M 0.199219 -1.261719 L 1.375 -1.441406 C 1.425781 -1.214844 1.527344 -1.042969 1.679688 -0.921875 C 1.832031 -0.804688 2.046875 -0.746094 2.320312 -0.746094 C 2.625 -0.746094 2.851562 -0.800781 3.003906 -0.914062 C 3.109375 -0.992188 3.160156 -1.09375 3.160156 -1.226562 C 3.160156 -1.3125 3.132812 -1.386719 3.074219 -1.445312 C 3.015625 -1.5 2.886719 -1.554688 2.683594 -1.601562 C 1.738281 -1.808594 1.140625 -2 0.886719 -2.171875 C 0.539062 -2.410156 0.363281 -2.742188 0.363281 -3.167969 C 0.363281 -3.550781 0.515625 -3.875 0.816406 -4.132812 C 1.121094 -4.394531 1.589844 -4.527344 2.226562 -4.527344 C 2.832031 -4.527344 3.28125 -4.425781 3.574219 -4.230469 C 3.871094 -4.03125 4.074219 -3.742188 4.183594 -3.355469 L 3.078125 -3.152344 C 3.03125 -3.324219 2.941406 -3.457031 2.8125 -3.546875 C 2.679688 -3.636719 2.492188 -3.683594 2.246094 -3.683594 C 1.9375 -3.683594 1.71875 -3.640625 1.582031 -3.554688 C 1.496094 -3.492188 1.449219 -3.414062 1.449219 -3.316406 C 1.449219 -3.234375 1.488281 -3.164062 1.566406 -3.105469 C 1.671875 -3.027344 2.039062 -2.917969 2.660156 -2.777344 C 3.285156 -2.632812 3.71875 -2.460938 3.96875 -2.253906 C 4.210938 -2.046875 4.335938 -1.757812 4.335938 -1.382812 C 4.335938 -0.976562 4.164062 -0.628906 3.824219 -0.335938 C 3.488281 -0.046875 2.984375 0.101562 2.320312 0.101562 C 1.71875 0.101562 1.242188 -0.0234375 0.890625 -0.265625 C 0.539062 -0.511719 0.308594 -0.84375 0.199219 -1.261719 Z M 0.199219 -1.261719 "/>
</g>
<g id="glyph-0-9">
<path d="M 0.308594 -1.988281 L 1.507812 -2.105469 C 1.582031 -1.703125 1.726562 -1.40625 1.949219 -1.21875 C 2.167969 -1.027344 2.46875 -0.933594 2.84375 -0.933594 C 3.238281 -0.933594 3.539062 -1.019531 3.742188 -1.1875 C 3.941406 -1.355469 4.042969 -1.550781 4.042969 -1.777344 C 4.042969 -1.921875 4 -2.042969 3.914062 -2.144531 C 3.832031 -2.246094 3.683594 -2.335938 3.472656 -2.410156 C 3.328125 -2.460938 3 -2.546875 2.484375 -2.675781 C 1.824219 -2.839844 1.359375 -3.042969 1.09375 -3.28125 C 0.71875 -3.617188 0.53125 -4.027344 0.53125 -4.507812 C 0.53125 -4.820312 0.617188 -5.113281 0.792969 -5.382812 C 0.96875 -5.652344 1.226562 -5.859375 1.558594 -6 C 1.890625 -6.144531 2.289062 -6.214844 2.757812 -6.214844 C 3.527344 -6.214844 4.101562 -6.046875 4.492188 -5.710938 C 4.878906 -5.375 5.082031 -4.925781 5.101562 -4.363281 L 3.867188 -4.308594 C 3.816406 -4.625 3.703125 -4.847656 3.527344 -4.988281 C 3.355469 -5.125 3.09375 -5.191406 2.746094 -5.191406 C 2.386719 -5.191406 2.109375 -5.121094 1.90625 -4.972656 C 1.773438 -4.878906 1.707031 -4.75 1.707031 -4.59375 C 1.707031 -4.449219 1.769531 -4.324219 1.890625 -4.222656 C 2.046875 -4.089844 2.425781 -3.957031 3.027344 -3.8125 C 3.625 -3.671875 4.070312 -3.523438 4.359375 -3.375 C 4.644531 -3.222656 4.871094 -3.015625 5.03125 -2.753906 C 5.195312 -2.492188 5.277344 -2.164062 5.277344 -1.78125 C 5.277344 -1.429688 5.179688 -1.101562 4.984375 -0.796875 C 4.789062 -0.492188 4.515625 -0.261719 4.160156 -0.113281 C 3.804688 0.0351562 3.359375 0.109375 2.828125 0.109375 C 2.058594 0.109375 1.464844 -0.0703125 1.050781 -0.425781 C 0.636719 -0.785156 0.390625 -1.304688 0.308594 -1.988281 Z M 0.308594 -1.988281 "/>
</g>
<g id="glyph-0-10">
<path d="M 0.339844 -2.277344 C 0.339844 -2.664062 0.4375 -3.042969 0.628906 -3.40625 C 0.820312 -3.769531 1.09375 -4.046875 1.445312 -4.238281 C 1.796875 -4.429688 2.1875 -4.527344 2.621094 -4.527344 C 3.292969 -4.527344 3.839844 -4.308594 4.269531 -3.875 C 4.695312 -3.4375 4.910156 -2.890625 4.910156 -2.226562 C 4.910156 -1.554688 4.695312 -1 4.261719 -0.5625 C 3.828125 -0.121094 3.285156 0.101562 2.628906 0.101562 C 2.222656 0.101562 1.835938 0.0078125 1.46875 -0.175781 C 1.101562 -0.359375 0.820312 -0.628906 0.628906 -0.980469 C 0.4375 -1.335938 0.339844 -1.765625 0.339844 -2.277344 M 1.542969 -2.214844 C 1.542969 -1.773438 1.644531 -1.4375 1.855469 -1.203125 C 2.0625 -0.972656 2.320312 -0.855469 2.625 -0.855469 C 2.929688 -0.855469 3.1875 -0.972656 3.394531 -1.203125 C 3.601562 -1.4375 3.707031 -1.777344 3.707031 -2.222656 C 3.707031 -2.65625 3.601562 -2.988281 3.394531 -3.222656 C 3.1875 -3.457031 2.929688 -3.570312 2.625 -3.570312 C 2.320312 -3.570312 2.0625 -3.457031 1.855469 -3.222656 C 1.644531 -2.988281 1.542969 -2.652344 1.542969 -2.214844 Z M 1.542969 -2.214844 "/>
</g>
<g id="glyph-0-11">
<path d="M 0.578125 -4.425781 L 1.671875 -4.425781 L 1.671875 -3.777344 C 1.8125 -4 2.003906 -4.179688 2.246094 -4.316406 C 2.488281 -4.457031 2.757812 -4.527344 3.050781 -4.527344 C 3.566406 -4.527344 4 -4.324219 4.359375 -3.921875 C 4.71875 -3.519531 4.898438 -2.957031 4.898438 -2.238281 C 4.898438 -1.5 4.714844 -0.925781 4.355469 -0.515625 C 3.996094 -0.105469 3.554688 0.101562 3.042969 0.101562 C 2.796875 0.101562 2.578125 0.0507812 2.378906 -0.046875 C 2.179688 -0.144531 1.96875 -0.308594 1.75 -0.546875 L 1.75 1.683594 L 0.578125 1.683594 L 0.578125 -4.425781 M 1.738281 -2.289062 C 1.738281 -1.789062 1.835938 -1.421875 2.035156 -1.1875 C 2.230469 -0.949219 2.472656 -0.828125 2.753906 -0.828125 C 3.027344 -0.828125 3.253906 -0.9375 3.433594 -1.15625 C 3.613281 -1.375 3.707031 -1.734375 3.707031 -2.230469 C 3.707031 -2.695312 3.613281 -3.039062 3.425781 -3.261719 C 3.238281 -3.488281 3.007812 -3.601562 2.734375 -3.601562 C 2.449219 -3.601562 2.210938 -3.492188 2.019531 -3.269531 C 1.832031 -3.046875 1.738281 -2.722656 1.738281 -2.289062 Z M 1.738281 -2.289062 "/>
</g>
<g id="glyph-0-12">
<path d="M 1.734375 0 L 0.5625 0 L 0.5625 -4.425781 L 1.652344 -4.425781 L 1.652344 -3.796875 C 1.835938 -4.09375 2.003906 -4.289062 2.152344 -4.382812 C 2.300781 -4.480469 2.46875 -4.527344 2.660156 -4.527344 C 2.925781 -4.527344 3.183594 -4.453125 3.429688 -4.304688 L 3.066406 -3.285156 C 2.871094 -3.410156 2.6875 -3.476562 2.515625 -3.476562 C 2.351562 -3.476562 2.214844 -3.429688 2.101562 -3.339844 C 1.988281 -3.25 1.898438 -3.085938 1.832031 -2.851562 C 1.765625 -2.613281 1.734375 -2.121094 1.734375 -1.367188 Z M 1.734375 0 "/>
</g>
<g id="glyph-0-13">
<path d="M 0.621094 0 L 0.621094 -6.109375 L 2.601562 -6.109375 C 3.351562 -6.109375 3.839844 -6.078125 4.066406 -6.019531 C 4.417969 -5.925781 4.710938 -5.726562 4.949219 -5.421875 C 5.183594 -5.113281 5.300781 -4.714844 5.300781 -4.230469 C 5.300781 -3.855469 5.234375 -3.539062 5.097656 -3.285156 C 4.960938 -3.027344 4.789062 -2.828125 4.578125 -2.683594 C 4.367188 -2.535156 4.15625 -2.441406 3.9375 -2.390625 C 3.644531 -2.335938 3.21875 -2.304688 2.660156 -2.304688 L 1.855469 -2.304688 L 1.855469 0 L 0.621094 0 M 1.855469 -5.078125 L 1.855469 -3.34375 L 2.53125 -3.34375 C 3.015625 -3.34375 3.339844 -3.375 3.503906 -3.4375 C 3.667969 -3.503906 3.796875 -3.601562 3.890625 -3.738281 C 3.984375 -3.875 4.03125 -4.03125 4.03125 -4.214844 C 4.03125 -4.4375 3.964844 -4.621094 3.835938 -4.765625 C 3.703125 -4.910156 3.539062 -5 3.339844 -5.035156 C 3.191406 -5.0625 2.894531 -5.078125 2.449219 -5.078125 Z M 1.855469 -5.078125 "/>
</g>
<g id="glyph-0-14">
<path d="M 4.671875 0 L 3.585938 0 L 3.585938 -0.648438 C 3.402344 -0.398438 3.191406 -0.210938 2.945312 -0.0859375 C 2.699219 0.0390625 2.449219 0.101562 2.199219 0.101562 C 1.691406 0.101562 1.257812 -0.105469 0.894531 -0.515625 C 0.53125 -0.925781 0.351562 -1.496094 0.351562 -2.230469 C 0.351562 -2.980469 0.527344 -3.550781 0.878906 -3.941406 C 1.230469 -4.332031 1.679688 -4.527344 2.21875 -4.527344 C 2.710938 -4.527344 3.140625 -4.320312 3.5 -3.910156 L 3.5 -6.109375 L 4.671875 -6.109375 L 4.671875 0 M 1.546875 -2.308594 C 1.546875 -1.835938 1.613281 -1.496094 1.742188 -1.285156 C 1.929688 -0.976562 2.195312 -0.824219 2.535156 -0.824219 C 2.804688 -0.824219 3.03125 -0.941406 3.222656 -1.167969 C 3.410156 -1.398438 3.503906 -1.742188 3.503906 -2.195312 C 3.503906 -2.703125 3.414062 -3.070312 3.230469 -3.292969 C 3.046875 -3.519531 2.8125 -3.628906 2.527344 -3.628906 C 2.246094 -3.628906 2.015625 -3.519531 1.828125 -3.300781 C 1.640625 -3.078125 1.546875 -2.746094 1.546875 -2.308594 Z M 1.546875 -2.308594 "/>
</g>
<g id="glyph-0-15">
<path d="M 3.527344 0 L 3.527344 -0.664062 C 3.363281 -0.425781 3.152344 -0.242188 2.890625 -0.105469 C 2.628906 0.03125 2.351562 0.101562 2.058594 0.101562 C 1.761719 0.101562 1.496094 0.0351562 1.257812 -0.0976562 C 1.023438 -0.226562 0.851562 -0.410156 0.746094 -0.644531 C 0.640625 -0.882812 0.585938 -1.207031 0.585938 -1.625 L 0.585938 -4.425781 L 1.757812 -4.425781 L 1.757812 -2.390625 C 1.757812 -1.769531 1.78125 -1.386719 1.824219 -1.25 C 1.867188 -1.109375 1.945312 -0.996094 2.058594 -0.914062 C 2.171875 -0.832031 2.316406 -0.792969 2.492188 -0.792969 C 2.691406 -0.792969 2.871094 -0.847656 3.03125 -0.957031 C 3.1875 -1.066406 3.296875 -1.203125 3.355469 -1.363281 C 3.414062 -1.527344 3.441406 -1.925781 3.441406 -2.558594 L 3.441406 -4.425781 L 4.613281 -4.425781 L 4.613281 0 Z M 3.527344 0 "/>
</g>
<g id="glyph-0-16">
<path d="M 4.472656 -3.117188 L 3.316406 -2.910156 C 3.277344 -3.140625 3.191406 -3.3125 3.054688 -3.429688 C 2.914062 -3.546875 2.738281 -3.605469 2.515625 -3.605469 C 2.226562 -3.605469 1.992188 -3.503906 1.820312 -3.304688 C 1.644531 -3.101562 1.558594 -2.765625 1.558594 -2.292969 C 1.558594 -1.765625 1.648438 -1.394531 1.824219 -1.179688 C 2 -0.960938 2.238281 -0.855469 2.535156 -0.855469 C 2.757812 -0.855469 2.9375 -0.917969 3.078125 -1.042969 C 3.222656 -1.171875 3.320312 -1.386719 3.378906 -1.695312 L 4.53125 -1.5 C 4.410156 -0.972656 4.183594 -0.574219 3.84375 -0.304688 C 3.503906 -0.0351562 3.050781 0.101562 2.480469 0.101562 C 1.832031 0.101562 1.316406 -0.105469 0.929688 -0.511719 C 0.546875 -0.921875 0.355469 -1.488281 0.355469 -2.207031 C 0.355469 -2.941406 0.546875 -3.507812 0.933594 -3.914062 C 1.320312 -4.324219 1.84375 -4.527344 2.5 -4.527344 C 3.039062 -4.527344 3.46875 -4.410156 3.785156 -4.179688 C 4.105469 -3.945312 4.332031 -3.59375 4.472656 -3.117188 Z M 4.472656 -3.117188 "/>
</g>
<g id="glyph-0-17">
<path d="M 0.371094 -3.015625 C 0.371094 -3.640625 0.464844 -4.164062 0.648438 -4.585938 C 0.789062 -4.894531 0.980469 -5.175781 1.21875 -5.421875 C 1.460938 -5.667969 1.722656 -5.851562 2.007812 -5.972656 C 2.390625 -6.132812 2.828125 -6.214844 3.324219 -6.214844 C 4.226562 -6.214844 4.945312 -5.933594 5.488281 -5.375 C 6.027344 -4.816406 6.296875 -4.042969 6.296875 -3.046875 C 6.296875 -2.058594 6.03125 -1.289062 5.492188 -0.730469 C 4.957031 -0.175781 4.238281 0.105469 3.34375 0.105469 C 2.433594 0.105469 1.710938 -0.171875 1.175781 -0.726562 C 0.640625 -1.28125 0.371094 -2.046875 0.371094 -3.015625 M 1.640625 -3.058594 C 1.640625 -2.367188 1.800781 -1.84375 2.121094 -1.484375 C 2.441406 -1.128906 2.847656 -0.949219 3.339844 -0.949219 C 3.832031 -0.949219 4.234375 -1.128906 4.550781 -1.480469 C 4.863281 -1.835938 5.023438 -2.367188 5.023438 -3.074219 C 5.023438 -3.777344 4.867188 -4.296875 4.5625 -4.644531 C 4.253906 -4.988281 3.847656 -5.160156 3.339844 -5.160156 C 2.828125 -5.160156 2.421875 -4.984375 2.109375 -4.636719 C 1.796875 -4.289062 1.640625 -3.761719 1.640625 -3.058594 Z M 1.640625 -3.058594 "/>
</g>
<g id="glyph-0-18">
<path d="M 0.628906 0 L 0.628906 -6.109375 L 4.816406 -6.109375 L 4.816406 -5.078125 L 1.863281 -5.078125 L 1.863281 -3.628906 L 4.414062 -3.628906 L 4.414062 -2.597656 L 1.863281 -2.597656 L 1.863281 0 Z M 0.628906 0 "/>
</g>
<g id="glyph-0-19">
<path d="M 0.140625 0 L 0.140625 -0.914062 L 1.800781 -2.816406 C 2.074219 -3.128906 2.273438 -3.347656 2.40625 -3.480469 C 2.269531 -3.472656 2.089844 -3.464844 1.867188 -3.464844 L 0.304688 -3.457031 L 0.304688 -4.425781 L 3.964844 -4.425781 L 3.964844 -3.597656 L 2.273438 -1.644531 L 1.675781 -1 C 2 -1.019531 2.203125 -1.03125 2.28125 -1.03125 L 4.09375 -1.03125 L 4.09375 0 Z M 0.140625 0 "/>
</g>
<g id="glyph-1-0">
<path d="M 0.53125 -3.835938 C 0.53125 -5.140625 0.882812 -6.164062 1.585938 -6.90625 C 2.285156 -7.644531 3.191406 -8.015625 4.300781 -8.015625 C 5.027344 -8.015625 5.683594 -7.839844 6.269531 -7.492188 C 6.851562 -7.144531 7.296875 -6.660156 7.601562 -6.039062 C 7.910156 -5.417969 8.0625 -4.714844 8.0625 -3.925781 C 8.0625 -3.128906 7.902344 -2.414062 7.578125 -1.78125 C 7.257812 -1.152344 6.800781 -0.675781 6.210938 -0.351562 C 5.617188 -0.0273438 4.980469 0.132812 4.296875 0.132812 C 3.554688 0.132812 2.894531 -0.0429688 2.308594 -0.402344 C 1.726562 -0.761719 1.285156 -1.25 0.984375 -1.867188 C 0.683594 -2.488281 0.53125 -3.144531 0.53125 -3.835938 M 1.605469 -3.820312 C 1.605469 -2.871094 1.859375 -2.121094 2.371094 -1.578125 C 2.882812 -1.03125 3.523438 -0.757812 4.292969 -0.757812 C 5.074219 -0.757812 5.722656 -1.03125 6.226562 -1.585938 C 6.734375 -2.136719 6.988281 -2.917969 6.988281 -3.929688 C 6.988281 -4.574219 6.878906 -5.132812 6.664062 -5.609375 C 6.445312 -6.089844 6.128906 -6.457031 5.710938 -6.722656 C 5.296875 -6.984375 4.828125 -7.117188 4.308594 -7.117188 C 3.570312 -7.117188 2.933594 -6.863281 2.402344 -6.355469 C 1.871094 -5.851562 1.605469 -5.003906 1.605469 -3.820312 Z M 1.605469 -3.820312 "/>
</g>
<g id="glyph-1-1">
<path d="M 0.714844 0 L 0.714844 -5.703125 L 1.585938 -5.703125 L 1.585938 -4.839844 C 1.804688 -5.242188 2.011719 -5.511719 2.199219 -5.640625 C 2.386719 -5.769531 2.59375 -5.832031 2.820312 -5.832031 C 3.144531 -5.832031 3.476562 -5.730469 3.8125 -5.523438 L 3.480469 -4.625 C 3.242188 -4.765625 3.007812 -4.832031 2.773438 -4.835938 C 2.558594 -4.832031 2.371094 -4.769531 2.203125 -4.644531 C 2.035156 -4.515625 1.914062 -4.339844 1.84375 -4.113281 C 1.734375 -3.769531 1.679688 -3.394531 1.679688 -2.984375 L 1.679688 0 Z M 0.714844 0 "/>
</g>
<g id="glyph-1-2">
<path d="M 4.425781 0 L 4.425781 -0.71875 C 4.0625 -0.152344 3.53125 0.128906 2.832031 0.128906 C 2.375 0.128906 1.957031 0.00390625 1.578125 -0.246094 C 1.195312 -0.496094 0.898438 -0.847656 0.691406 -1.296875 C 0.480469 -1.746094 0.375 -2.261719 0.375 -2.847656 C 0.375 -3.414062 0.472656 -3.933594 0.660156 -4.394531 C 0.851562 -4.859375 1.136719 -5.214844 1.515625 -5.460938 C 1.894531 -5.710938 2.320312 -5.832031 2.789062 -5.832031 C 3.132812 -5.832031 3.4375 -5.761719 3.707031 -5.617188 C 3.976562 -5.46875 4.191406 -5.28125 4.359375 -5.046875 L 4.359375 -7.875 L 5.324219 -7.875 L 5.324219 0 L 4.425781 0 M 1.371094 -2.847656 C 1.371094 -2.117188 1.523438 -1.570312 1.832031 -1.207031 C 2.140625 -0.847656 2.503906 -0.664062 2.921875 -0.664062 C 3.34375 -0.664062 3.703125 -0.839844 4 -1.183594 C 4.292969 -1.53125 4.441406 -2.058594 4.441406 -2.765625 C 4.441406 -3.546875 4.292969 -4.121094 3.992188 -4.484375 C 3.691406 -4.851562 3.320312 -5.03125 2.878906 -5.03125 C 2.449219 -5.03125 2.089844 -4.855469 1.800781 -4.507812 C 1.515625 -4.15625 1.371094 -3.601562 1.371094 -2.847656 Z M 1.371094 -2.847656 "/>
</g>
<g id="glyph-1-3">
<path d="M 4.628906 -1.835938 L 5.628906 -1.714844 C 5.472656 -1.128906 5.179688 -0.675781 4.753906 -0.355469 C 4.328125 -0.03125 3.78125 0.128906 3.121094 0.128906 C 2.285156 0.128906 1.625 -0.128906 1.136719 -0.640625 C 0.648438 -1.15625 0.402344 -1.875 0.402344 -2.804688 C 0.402344 -3.761719 0.648438 -4.507812 1.144531 -5.039062 C 1.636719 -5.566406 2.277344 -5.832031 3.066406 -5.832031 C 3.828125 -5.832031 4.453125 -5.574219 4.9375 -5.054688 C 5.417969 -4.535156 5.660156 -3.804688 5.660156 -2.863281 C 5.660156 -2.804688 5.660156 -2.71875 5.65625 -2.605469 L 1.402344 -2.605469 C 1.4375 -1.976562 1.613281 -1.5 1.933594 -1.164062 C 2.253906 -0.832031 2.648438 -0.664062 3.125 -0.664062 C 3.480469 -0.664062 3.78125 -0.757812 4.035156 -0.945312 C 4.285156 -1.132812 4.484375 -1.429688 4.628906 -1.835938 M 1.457031 -3.398438 L 4.640625 -3.398438 C 4.597656 -3.878906 4.476562 -4.238281 4.273438 -4.480469 C 3.96875 -4.851562 3.566406 -5.039062 3.078125 -5.039062 C 2.632812 -5.039062 2.261719 -4.890625 1.957031 -4.59375 C 1.65625 -4.296875 1.488281 -3.898438 1.457031 -3.398438 Z M 1.457031 -3.398438 "/>
</g>
<g id="glyph-1-4">
<path d="M 0.726562 0 L 0.726562 -5.703125 L 1.59375 -5.703125 L 1.59375 -4.894531 C 2.015625 -5.519531 2.621094 -5.832031 3.410156 -5.832031 C 3.753906 -5.832031 4.070312 -5.769531 4.359375 -5.648438 C 4.648438 -5.523438 4.863281 -5.363281 5.007812 -5.160156 C 5.148438 -4.960938 5.25 -4.722656 5.304688 -4.445312 C 5.34375 -4.269531 5.359375 -3.953125 5.359375 -3.507812 L 5.359375 0 L 4.394531 0 L 4.394531 -3.46875 C 4.394531 -3.863281 4.355469 -4.15625 4.28125 -4.351562 C 4.207031 -4.546875 4.070312 -4.703125 3.878906 -4.820312 C 3.6875 -4.9375 3.464844 -4.996094 3.207031 -4.996094 C 2.792969 -4.996094 2.4375 -4.863281 2.140625 -4.601562 C 1.839844 -4.339844 1.691406 -3.84375 1.691406 -3.117188 L 1.691406 0 Z M 0.726562 0 "/>
</g>
<g id="glyph-1-5">
<path d="M 4.445312 -0.703125 C 4.089844 -0.398438 3.746094 -0.183594 3.414062 -0.0585938 C 3.082031 0.0664062 2.726562 0.128906 2.347656 0.128906 C 1.71875 0.128906 1.238281 -0.0234375 0.902344 -0.332031 C 0.566406 -0.636719 0.398438 -1.027344 0.398438 -1.503906 C 0.398438 -1.78125 0.460938 -2.039062 0.589844 -2.269531 C 0.714844 -2.5 0.882812 -2.6875 1.085938 -2.824219 C 1.292969 -2.964844 1.523438 -3.070312 1.78125 -3.140625 C 1.972656 -3.191406 2.257812 -3.242188 2.640625 -3.289062 C 3.421875 -3.378906 3.996094 -3.492188 4.367188 -3.621094 C 4.371094 -3.753906 4.371094 -3.835938 4.371094 -3.871094 C 4.371094 -4.265625 4.28125 -4.542969 4.097656 -4.703125 C 3.851562 -4.921875 3.484375 -5.03125 2.996094 -5.03125 C 2.542969 -5.03125 2.207031 -4.953125 1.988281 -4.792969 C 1.773438 -4.632812 1.613281 -4.351562 1.507812 -3.949219 L 0.5625 -4.078125 C 0.648438 -4.480469 0.792969 -4.808594 0.988281 -5.058594 C 1.183594 -5.304688 1.46875 -5.496094 1.84375 -5.632812 C 2.214844 -5.765625 2.644531 -5.832031 3.136719 -5.832031 C 3.625 -5.832031 4.019531 -5.777344 4.324219 -5.660156 C 4.628906 -5.546875 4.851562 -5.402344 4.996094 -5.230469 C 5.136719 -5.054688 5.238281 -4.835938 5.296875 -4.570312 C 5.328125 -4.40625 5.34375 -4.109375 5.34375 -3.679688 L 5.34375 -2.390625 C 5.34375 -1.492188 5.363281 -0.921875 5.40625 -0.683594 C 5.445312 -0.445312 5.527344 -0.21875 5.648438 0 L 4.640625 0 C 4.539062 -0.199219 4.476562 -0.433594 4.445312 -0.703125 M 4.367188 -2.863281 C 4.015625 -2.71875 3.488281 -2.597656 2.789062 -2.496094 C 2.390625 -2.441406 2.109375 -2.375 1.945312 -2.304688 C 1.78125 -2.234375 1.652344 -2.128906 1.5625 -1.988281 C 1.472656 -1.851562 1.429688 -1.699219 1.429688 -1.53125 C 1.429688 -1.273438 1.527344 -1.058594 1.722656 -0.886719 C 1.917969 -0.714844 2.203125 -0.628906 2.578125 -0.628906 C 2.949219 -0.628906 3.28125 -0.710938 3.570312 -0.871094 C 3.863281 -1.035156 4.074219 -1.257812 4.210938 -1.542969 C 4.316406 -1.761719 4.367188 -2.082031 4.367188 -2.507812 Z M 4.367188 -2.863281 "/>
</g>
<g id="glyph-1-6">
</g>
<g id="glyph-1-7">
<path d="M 0.367188 -2.851562 C 0.367188 -3.910156 0.660156 -4.691406 1.246094 -5.199219 C 1.738281 -5.621094 2.335938 -5.832031 3.039062 -5.832031 C 3.824219 -5.832031 4.464844 -5.574219 4.960938 -5.0625 C 5.460938 -4.546875 5.710938 -3.839844 5.710938 -2.933594 C 5.710938 -2.199219 5.597656 -1.621094 5.378906 -1.199219 C 5.160156 -0.78125 4.839844 -0.453125 4.417969 -0.21875 C 3.996094 0.0117188 3.539062 0.128906 3.039062 0.128906 C 2.242188 0.128906 1.597656 -0.128906 1.105469 -0.640625 C 0.613281 -1.152344 0.367188 -1.890625 0.367188 -2.851562 M 1.359375 -2.851562 C 1.359375 -2.121094 1.519531 -1.574219 1.835938 -1.210938 C 2.15625 -0.847656 2.554688 -0.664062 3.039062 -0.664062 C 3.519531 -0.664062 3.917969 -0.847656 4.238281 -1.214844 C 4.554688 -1.578125 4.714844 -2.136719 4.714844 -2.882812 C 4.714844 -3.589844 4.554688 -4.125 4.234375 -4.488281 C 3.914062 -4.851562 3.515625 -5.03125 3.039062 -5.03125 C 2.554688 -5.03125 2.15625 -4.851562 1.835938 -4.492188 C 1.519531 -4.128906 1.359375 -3.582031 1.359375 -2.851562 Z M 1.359375 -2.851562 "/>
</g>
<g id="glyph-1-8">
<path d="M 0.339844 -1.703125 L 1.292969 -1.851562 C 1.347656 -1.46875 1.496094 -1.175781 1.742188 -0.972656 C 1.988281 -0.769531 2.332031 -0.664062 2.773438 -0.664062 C 3.214844 -0.664062 3.546875 -0.757812 3.757812 -0.9375 C 3.976562 -1.117188 4.082031 -1.332031 4.082031 -1.574219 C 4.082031 -1.792969 3.988281 -1.964844 3.796875 -2.089844 C 3.664062 -2.175781 3.335938 -2.285156 2.808594 -2.417969 C 2.101562 -2.597656 1.609375 -2.75 1.335938 -2.882812 C 1.0625 -3.011719 0.851562 -3.191406 0.710938 -3.425781 C 0.570312 -3.65625 0.5 -3.910156 0.5 -4.1875 C 0.5 -4.445312 0.558594 -4.679688 0.675781 -4.894531 C 0.789062 -5.113281 0.949219 -5.292969 1.148438 -5.4375 C 1.300781 -5.546875 1.503906 -5.640625 1.765625 -5.71875 C 2.023438 -5.792969 2.300781 -5.832031 2.601562 -5.832031 C 3.046875 -5.832031 3.441406 -5.769531 3.777344 -5.640625 C 4.117188 -5.511719 4.367188 -5.335938 4.527344 -5.117188 C 4.6875 -4.894531 4.800781 -4.601562 4.859375 -4.234375 L 3.914062 -4.101562 C 3.871094 -4.398438 3.75 -4.625 3.542969 -4.789062 C 3.335938 -4.957031 3.046875 -5.039062 2.667969 -5.039062 C 2.226562 -5.039062 1.910156 -4.964844 1.71875 -4.816406 C 1.527344 -4.671875 1.433594 -4.5 1.433594 -4.300781 C 1.433594 -4.175781 1.472656 -4.0625 1.550781 -3.964844 C 1.632812 -3.859375 1.753906 -3.773438 1.921875 -3.707031 C 2.019531 -3.671875 2.304688 -3.585938 2.777344 -3.460938 C 3.460938 -3.277344 3.9375 -3.125 4.207031 -3.011719 C 4.480469 -2.894531 4.691406 -2.726562 4.84375 -2.503906 C 5 -2.28125 5.074219 -2.003906 5.074219 -1.675781 C 5.074219 -1.351562 4.980469 -1.050781 4.792969 -0.765625 C 4.605469 -0.480469 4.335938 -0.261719 3.980469 -0.105469 C 3.625 0.0507812 3.222656 0.128906 2.777344 0.128906 C 2.035156 0.128906 1.472656 -0.0234375 1.082031 -0.332031 C 0.695312 -0.640625 0.445312 -1.097656 0.339844 -1.703125 Z M 0.339844 -1.703125 "/>
</g>
<g id="glyph-1-9">
<path d="M 0.726562 2.1875 L 0.726562 -5.703125 L 1.605469 -5.703125 L 1.605469 -4.960938 C 1.8125 -5.253906 2.046875 -5.46875 2.308594 -5.617188 C 2.570312 -5.761719 2.886719 -5.832031 3.261719 -5.832031 C 3.746094 -5.832031 4.175781 -5.707031 4.550781 -5.457031 C 4.921875 -5.207031 5.203125 -4.851562 5.390625 -4.394531 C 5.582031 -3.941406 5.675781 -3.4375 5.675781 -2.894531 C 5.675781 -2.3125 5.574219 -1.785156 5.363281 -1.320312 C 5.152344 -0.851562 4.847656 -0.492188 4.449219 -0.246094 C 4.050781 0.00390625 3.632812 0.128906 3.191406 0.128906 C 2.867188 0.128906 2.578125 0.0625 2.324219 -0.0742188 C 2.066406 -0.210938 1.855469 -0.382812 1.691406 -0.589844 L 1.691406 2.1875 L 0.726562 2.1875 M 1.601562 -2.820312 C 1.601562 -2.085938 1.75 -1.542969 2.046875 -1.191406 C 2.34375 -0.839844 2.703125 -0.664062 3.125 -0.664062 C 3.554688 -0.664062 3.921875 -0.847656 4.230469 -1.210938 C 4.535156 -1.574219 4.6875 -2.136719 4.6875 -2.898438 C 4.6875 -3.628906 4.539062 -4.171875 4.242188 -4.53125 C 3.941406 -4.894531 3.585938 -5.074219 3.167969 -5.074219 C 2.757812 -5.074219 2.394531 -4.882812 2.074219 -4.5 C 1.757812 -4.113281 1.601562 -3.554688 1.601562 -2.820312 Z M 1.601562 -2.820312 "/>
</g>
<g id="glyph-1-10">
<path d="M 0.71875 -6.75 L 0.71875 -7.875 L 1.6875 -7.875 L 1.6875 -6.75 L 0.71875 -6.75 M -0.503906 2.210938 L -0.320312 1.390625 C -0.128906 1.441406 0.0234375 1.464844 0.132812 1.464844 C 0.332031 1.464844 0.476562 1.402344 0.574219 1.269531 C 0.671875 1.140625 0.71875 0.8125 0.71875 0.289062 L 0.71875 -5.703125 L 1.6875 -5.703125 L 1.6875 0.3125 C 1.6875 1.011719 1.59375 1.503906 1.414062 1.777344 C 1.179688 2.136719 0.792969 2.316406 0.253906 2.316406 C -0.0078125 2.316406 -0.261719 2.28125 -0.503906 2.210938 Z M -0.503906 2.210938 "/>
</g>
<g id="glyph-1-11">
<path d="M 2.835938 -0.863281 L 2.976562 -0.0117188 C 2.703125 0.046875 2.460938 0.0742188 2.246094 0.0742188 C 1.894531 0.0742188 1.621094 0.0195312 1.429688 -0.0898438 C 1.234375 -0.203125 1.097656 -0.347656 1.019531 -0.527344 C 0.941406 -0.710938 0.902344 -1.089844 0.902344 -1.671875 L 0.902344 -4.953125 L 0.195312 -4.953125 L 0.195312 -5.703125 L 0.902344 -5.703125 L 0.902344 -7.117188 L 1.863281 -7.695312 L 1.863281 -5.703125 L 2.835938 -5.703125 L 2.835938 -4.953125 L 1.863281 -4.953125 L 1.863281 -1.617188 C 1.863281 -1.339844 1.878906 -1.164062 1.914062 -1.085938 C 1.949219 -1.007812 2.003906 -0.945312 2.082031 -0.898438 C 2.160156 -0.851562 2.269531 -0.828125 2.410156 -0.828125 C 2.519531 -0.828125 2.660156 -0.839844 2.835938 -0.863281 Z M 2.835938 -0.863281 "/>
</g>
<g id="glyph-1-12">
<path d="M 4.464844 0 L 4.464844 -0.835938 C 4.019531 -0.195312 3.414062 0.128906 2.652344 0.128906 C 2.316406 0.128906 2.003906 0.0625 1.710938 -0.0625 C 1.417969 -0.195312 1.203125 -0.355469 1.0625 -0.550781 C 0.917969 -0.746094 0.820312 -0.984375 0.761719 -1.265625 C 0.722656 -1.457031 0.703125 -1.757812 0.703125 -2.171875 L 0.703125 -5.703125 L 1.671875 -5.703125 L 1.671875 -2.539062 C 1.671875 -2.035156 1.691406 -1.695312 1.730469 -1.519531 C 1.789062 -1.265625 1.917969 -1.066406 2.117188 -0.921875 C 2.3125 -0.777344 2.554688 -0.703125 2.847656 -0.703125 C 3.136719 -0.703125 3.410156 -0.777344 3.664062 -0.925781 C 3.917969 -1.074219 4.097656 -1.277344 4.203125 -1.535156 C 4.308594 -1.789062 4.359375 -2.160156 4.359375 -2.648438 L 4.359375 -5.703125 L 5.328125 -5.703125 L 5.328125 0 Z M 4.464844 0 "/>
</g>
<g id="glyph-1-13">
<path d="M 4.445312 -2.089844 L 5.398438 -1.964844 C 5.292969 -1.3125 5.027344 -0.796875 4.601562 -0.425781 C 4.171875 -0.0546875 3.648438 0.128906 3.023438 0.128906 C 2.242188 0.128906 1.617188 -0.125 1.140625 -0.636719 C 0.667969 -1.148438 0.429688 -1.878906 0.429688 -2.832031 C 0.429688 -3.445312 0.53125 -3.984375 0.734375 -4.445312 C 0.941406 -4.910156 1.25 -5.253906 1.667969 -5.488281 C 2.085938 -5.71875 2.539062 -5.832031 3.03125 -5.832031 C 3.648438 -5.832031 4.15625 -5.675781 4.550781 -5.363281 C 4.941406 -5.050781 5.195312 -4.605469 5.304688 -4.027344 L 4.367188 -3.882812 C 4.277344 -4.265625 4.117188 -4.554688 3.890625 -4.75 C 3.664062 -4.941406 3.390625 -5.039062 3.066406 -5.039062 C 2.578125 -5.039062 2.183594 -4.863281 1.878906 -4.515625 C 1.574219 -4.164062 1.421875 -3.613281 1.421875 -2.859375 C 1.421875 -2.089844 1.570312 -1.535156 1.863281 -1.1875 C 2.15625 -0.839844 2.539062 -0.664062 3.011719 -0.664062 C 3.394531 -0.664062 3.710938 -0.78125 3.964844 -1.015625 C 4.21875 -1.246094 4.378906 -1.605469 4.445312 -2.089844 Z M 4.445312 -2.089844 "/>
</g>
<g id="glyph-1-14">
<path d="M 0.703125 0 L 0.703125 -7.875 L 1.671875 -7.875 L 1.671875 0 Z M 0.703125 0 "/>
</g>
<g id="glyph-1-15">
<path d="M 0.683594 2.195312 L 0.574219 1.289062 C 0.785156 1.347656 0.96875 1.375 1.128906 1.375 C 1.34375 1.375 1.515625 1.339844 1.644531 1.265625 C 1.773438 1.195312 1.878906 1.09375 1.960938 0.96875 C 2.019531 0.871094 2.121094 0.628906 2.257812 0.246094 C 2.273438 0.195312 2.300781 0.113281 2.34375 0.0117188 L 0.175781 -5.703125 L 1.21875 -5.703125 L 2.40625 -2.402344 C 2.558594 -1.980469 2.699219 -1.542969 2.820312 -1.078125 C 2.929688 -1.523438 3.0625 -1.957031 3.21875 -2.378906 L 4.4375 -5.703125 L 5.402344 -5.703125 L 3.234375 0.0976562 C 3 0.722656 2.820312 1.15625 2.691406 1.390625 C 2.519531 1.710938 2.320312 1.945312 2.101562 2.09375 C 1.878906 2.242188 1.613281 2.316406 1.304688 2.316406 C 1.117188 2.316406 0.910156 2.277344 0.683594 2.195312 Z M 0.683594 2.195312 "/>
</g>
<g id="glyph-1-16">
<path d="M 1.617188 0 L 0.71875 0 L 0.71875 -7.875 L 1.6875 -7.875 L 1.6875 -5.066406 C 2.09375 -5.578125 2.617188 -5.832031 3.25 -5.832031 C 3.601562 -5.832031 3.933594 -5.761719 4.246094 -5.621094 C 4.558594 -5.480469 4.816406 -5.28125 5.019531 -5.023438 C 5.222656 -4.769531 5.378906 -4.460938 5.496094 -4.097656 C 5.609375 -3.738281 5.667969 -3.351562 5.667969 -2.9375 C 5.667969 -1.960938 5.425781 -1.203125 4.941406 -0.671875 C 4.457031 -0.136719 3.878906 0.128906 3.203125 0.128906 C 2.527344 0.128906 2 -0.152344 1.617188 -0.714844 L 1.617188 0 M 1.605469 -2.894531 C 1.605469 -2.210938 1.699219 -1.71875 1.886719 -1.414062 C 2.191406 -0.914062 2.601562 -0.664062 3.121094 -0.664062 C 3.542969 -0.664062 3.910156 -0.847656 4.214844 -1.214844 C 4.523438 -1.582031 4.679688 -2.128906 4.679688 -2.859375 C 4.679688 -3.601562 4.53125 -4.152344 4.234375 -4.507812 C 3.941406 -4.859375 3.582031 -5.039062 3.164062 -5.039062 C 2.742188 -5.039062 2.375 -4.855469 2.066406 -4.488281 C 1.761719 -4.121094 1.605469 -3.589844 1.605469 -2.894531 Z M 1.605469 -2.894531 "/>
</g>
<g id="glyph-1-17">
<path d="M 0.730469 -6.761719 L 0.730469 -7.875 L 1.695312 -7.875 L 1.695312 -6.761719 L 0.730469 -6.761719 M 0.730469 0 L 0.730469 -5.703125 L 1.695312 -5.703125 L 1.695312 0 Z M 0.730469 0 "/>
</g>
<g id="glyph-2-0">
<path d="M 1.058594 0 L 1.058594 -9.449219 L 2.308594 -9.449219 L 2.308594 -5.570312 L 7.21875 -5.570312 L 7.21875 -9.449219 L 8.46875 -9.449219 L 8.46875 0 L 7.21875 0 L 7.21875 -4.453125 L 2.308594 -4.453125 L 2.308594 0 Z M 1.058594 0 "/>
</g>
<g id="glyph-2-1">
<path d="M 0.875 -8.113281 L 0.875 -9.449219 L 2.035156 -9.449219 L 2.035156 -8.113281 L 0.875 -8.113281 M 0.875 0 L 0.875 -6.84375 L 2.035156 -6.84375 L 2.035156 0 Z M 0.875 0 "/>
</g>
<g id="glyph-2-2">
<path d="M 2.773438 0 L 0.167969 -6.84375 L 1.390625 -6.84375 L 2.863281 -2.746094 C 3.019531 -2.304688 3.167969 -1.84375 3.300781 -1.367188 C 3.402344 -1.726562 3.546875 -2.160156 3.730469 -2.667969 L 5.253906 -6.84375 L 6.445312 -6.84375 L 3.855469 0 Z M 2.773438 0 "/>
</g>
<g id="glyph-2-3">
<path d="M 5.554688 -2.203125 L 6.753906 -2.054688 C 6.566406 -1.355469 6.214844 -0.8125 5.703125 -0.425781 C 5.191406 -0.0390625 4.539062 0.15625 3.746094 0.15625 C 2.742188 0.15625 1.949219 -0.152344 1.363281 -0.769531 C 0.777344 -1.386719 0.484375 -2.25 0.484375 -3.363281 C 0.484375 -4.515625 0.78125 -5.410156 1.371094 -6.046875 C 1.964844 -6.679688 2.734375 -7 3.679688 -7 C 4.59375 -7 5.34375 -6.6875 5.921875 -6.066406 C 6.503906 -5.441406 6.792969 -4.566406 6.792969 -3.433594 C 6.792969 -3.367188 6.792969 -3.261719 6.785156 -3.125 L 1.683594 -3.125 C 1.726562 -2.375 1.9375 -1.796875 2.320312 -1.398438 C 2.703125 -1 3.179688 -0.800781 3.75 -0.800781 C 4.175781 -0.800781 4.539062 -0.910156 4.839844 -1.132812 C 5.140625 -1.359375 5.378906 -1.714844 5.554688 -2.203125 M 1.746094 -4.078125 L 5.570312 -4.078125 C 5.515625 -4.65625 5.371094 -5.085938 5.128906 -5.375 C 4.761719 -5.820312 4.28125 -6.046875 3.691406 -6.046875 C 3.160156 -6.046875 2.710938 -5.867188 2.347656 -5.511719 C 1.984375 -5.152344 1.785156 -4.675781 1.746094 -4.078125 Z M 1.746094 -4.078125 "/>
</g>
</g>
</defs>
<rect x="-51.8" y="-38.8" width="621.6" height="465.6" fill="rgb(100%, 100%, 100%)" fill-opacity="1"/>
<path fill="none" stroke-width="2.560748" stroke-linecap="butt" stroke-linejoin="round" stroke="rgb(89.019608%, 84.705882%, 78.431373%)" stroke-opacity="1" stroke-miterlimit="10" d="M 259 265.8125 L 259 53.3125 "/>
<path fill="none" stroke-width="2.560748" stroke-linecap="butt" stroke-linejoin="round" stroke="rgb(89.019608%, 84.705882%, 78.431373%)" stroke-opacity="1" stroke-miterlimit="10" d="M 259 265.8125 L 74.96875 372.0625 "/>
<path fill="none" stroke-width="2.560748" stroke-linecap="butt" stroke-linejoin="round" stroke="rgb(89.019608%, 84.705882%, 78.431373%)" stroke-opacity="1" stroke-miterlimit="10" d="M 259 265.8125 L 443.03125 372.0625 "/>
<path fill="none" stroke-width="4.694705" stroke-linecap="butt" stroke-linejoin="round" stroke="rgb(26.666667%, 36.862745%, 27.45098%)" stroke-opacity="0.54902" stroke-miterlimit="10" d="M 259 80.679688 L 258.921875 80.78125 L 258.4375 81.417969 L 257.300781 82.910156 L 255.460938 85.328125 L 253.050781 88.496094 L 250.316406 92.085938 L 247.519531 95.757812 L 244.832031 99.289062 L 242.300781 102.644531 L 239.925781 105.832031 L 237.691406 108.875 L 235.5625 111.835938 L 233.5 114.765625 L 232.058594 116.847656 L 230.054688 119.800781 L 228.097656 122.742188 L 226.214844 125.632812 L 224.425781 128.425781 L 222.742188 131.105469 L 221.152344 133.667969 L 219.617188 136.160156 L 218.078125 138.667969 L 216.492188 141.277344 L 214.84375 144.03125 L 213.140625 146.929688 L 211.402344 149.941406 L 209.660156 153.035156 L 208.441406 155.234375 L 206.738281 158.375 L 205.085938 161.496094 L 203.496094 164.554688 L 201.996094 167.515625 L 200.585938 170.347656 L 199.257812 173.054688 L 197.976562 175.683594 L 196.691406 178.332031 L 195.371094 181.089844 L 194.003906 183.992188 L 192.597656 187.042969 L 191.167969 190.214844 L 189.738281 193.464844 L 188.746094 195.777344 L 187.363281 199.066406 L 186.023438 202.335938 L 184.75 205.539062 L 183.546875 208.632812 L 182.421875 211.589844 L 181.371094 214.417969 L 180.355469 217.160156 L 179.34375 219.925781 L 178.300781 222.796875 L 177.226562 225.824219 L 176.128906 229 L 175.023438 232.296875 L 173.921875 235.671875 L 173.164062 238.066406 L 172.113281 241.480469 L 171.105469 244.867188 L 170.152344 248.179688 L 169.261719 251.378906 L 168.4375 254.433594 L 167.671875 257.347656 L 166.933594 260.179688 L 166.199219 263.03125 L 165.449219 265.992188 L 164.679688 269.109375 L 163.902344 272.378906 L 163.125 275.769531 L 162.367188 279.234375 L 161.847656 281.695312 L 161.140625 285.199219 L 160.464844 288.730469 L 159.8125 292.347656 L 159.164062 296.121094 L 158.511719 300.105469 L 157.84375 304.328125 L 157.148438 308.777344 L 156.4375 313.347656 L 155.757812 317.699219 L 155.183594 321.398438 L 154.765625 324.074219 L 154.527344 325.59375 L 154.445312 326.136719 L 154.4375 326.183594 "/>
<path fill="none" stroke-width="3.094237" stroke-linecap="butt" stroke-linejoin="round" stroke="rgb(26.666667%, 36.862745%, 27.45098%)" stroke-opacity="0.54902" stroke-miterlimit="10" d="M 259 80.679688 L 258.917969 80.765625 L 258.40625 81.324219 L 257.183594 82.644531 L 255.167969 84.832031 L 252.449219 87.773438 L 249.269531 91.21875 L 245.90625 94.859375 L 242.601562 98.441406 L 239.453125 101.867188 L 236.476562 105.128906 L 233.667969 108.246094 L 231.007812 111.246094 L 228.449219 114.179688 L 225.953125 117.097656 L 224.230469 119.148438 L 221.789062 122.101562 L 219.394531 125.046875 L 217.074219 127.949219 L 214.855469 130.777344 L 212.746094 133.5 L 210.753906 136.113281 L 208.839844 138.640625 L 206.957031 141.136719 L 205.035156 143.695312 L 203.050781 146.375 L 200.988281 149.191406 L 198.863281 152.140625 L 196.699219 155.199219 L 194.523438 158.328125 L 193.019531 160.523438 L 190.882812 163.703125 L 188.792969 166.871094 L 186.773438 169.988281 L 184.84375 173.023438 L 183.015625 175.941406 L 181.289062 178.738281 L 179.640625 181.441406 L 178.011719 184.117188 L 176.355469 186.851562 L 174.640625 189.710938 L 172.871094 192.71875 L 171.046875 195.867188 L 169.195312 199.121094 L 167.34375 202.453125 L 166.066406 204.789062 L 164.253906 208.160156 L 162.488281 211.519531 L 160.785156 214.824219 L 159.167969 218.035156 L 157.640625 221.121094 L 156.199219 224.074219 L 154.824219 226.929688 L 153.46875 229.75 L 152.089844 232.636719 L 150.671875 235.652344 L 149.203125 238.820312 L 147.703125 242.132812 L 146.183594 245.558594 L 144.667969 249.054688 L 143.628906 251.503906 L 142.160156 255.042969 L 140.734375 258.558594 L 139.371094 262.015625 L 138.078125 265.371094 L 136.863281 268.589844 L 135.722656 271.675781 L 134.636719 274.652344 L 133.566406 277.59375 L 132.484375 280.601562 L 131.367188 283.742188 L 130.222656 287.042969 L 129.058594 290.484375 L 127.886719 294.042969 L 126.726562 297.671875 L 125.933594 300.214844 L 124.820312 303.882812 L 123.742188 307.578125 L 122.675781 311.351562 L 121.605469 315.269531 L 120.515625 319.382812 L 119.386719 323.726562 L 118.21875 328.300781 L 117.003906 333.074219 L 115.789062 337.839844 L 114.675781 342.226562 L 113.753906 345.835938 L 113.109375 348.382812 L 112.746094 349.796875 L 112.621094 350.289062 L 112.613281 350.328125 "/>
<path fill="none" stroke-width="3.627726" stroke-linecap="butt" stroke-linejoin="round" stroke="rgb(72.156863%, 50.980392%, 15.686275%)" stroke-opacity="0.54902" stroke-miterlimit="10" d="M 154.4375 326.183594 L 154.691406 326.109375 L 155.925781 325.761719 L 157.777344 325.238281 L 159.523438 324.738281 L 161.0625 324.273438 L 162.269531 323.878906 L 163.691406 323.382812 L 165.007812 322.890625 L 166.191406 322.429688 L 167.390625 321.949219 L 168.710938 321.398438 L 169.859375 320.894531 L 171.226562 320.257812 L 172.488281 319.636719 L 173.621094 319.058594 L 174.765625 318.46875 L 176.023438 317.785156 L 177.117188 317.167969 L 178.414062 316.402344 L 179.609375 315.660156 L 180.679688 314.972656 L 181.757812 314.269531 L 182.945312 313.46875 L 183.972656 312.746094 L 185.183594 311.851562 L 186.300781 310.996094 L 187.296875 310.207031 L 188.300781 309.398438 L 189.402344 308.484375 L 190.351562 307.664062 L 191.488281 306.640625 L 192.675781 305.519531 L 194.007812 304.226562 L 195.359375 302.914062 L 196.148438 302.144531 L 196.261719 302.035156 "/>
<path fill="none" stroke-width="2.027259" stroke-linecap="butt" stroke-linejoin="round" stroke="rgb(51.372549%, 57.647059%, 77.647059%)" stroke-opacity="0.54902" stroke-miterlimit="10" d="M 112.613281 350.328125 L 112.804688 350.277344 L 113.890625 349.96875 L 116.011719 349.367188 L 118.652344 348.621094 L 121.222656 347.894531 L 123.566406 347.210938 L 125.714844 346.554688 L 127.769531 345.890625 L 128.273438 345.722656 L 130.296875 345.023438 L 132.246094 344.316406 L 134.054688 343.628906 L 135.726562 342.976562 L 137.378906 342.324219 L 139.136719 341.613281 L 141.023438 340.824219 L 142.976562 339.96875 L 143.457031 339.753906 L 145.402344 338.855469 L 147.269531 337.957031 L 149.003906 337.097656 L 150.601562 336.28125 L 152.179688 335.46875 L 153.859375 334.585938 L 155.65625 333.613281 L 157.515625 332.566406 L 157.972656 332.304688 L 159.820312 331.21875 L 161.589844 330.140625 L 163.230469 329.113281 L 164.738281 328.144531 L 166.230469 327.179688 L 167.8125 326.132812 L 169.503906 324.988281 L 171.25 323.765625 L 171.679688 323.457031 L 173.410156 322.195312 L 175.066406 320.945312 L 176.59375 319.757812 L 178 318.644531 L 179.386719 317.539062 L 180.859375 316.339844 L 182.429688 315.03125 L 184.046875 313.640625 L 184.441406 313.292969 L 186.046875 311.855469 L 187.671875 310.351562 L 189.398438 308.707031 L 191.273438 306.886719 L 193.257812 304.957031 L 194.984375 303.277344 L 195.996094 302.292969 L 196.261719 302.035156 "/>
<path fill="none" stroke-width="4.161216" stroke-linecap="butt" stroke-linejoin="round" stroke="rgb(78.823529%, 42.352941%, 35.686275%)" stroke-opacity="0.54902" stroke-miterlimit="10" d="M 196.261719 302.035156 L 196.410156 302.09375 L 197.304688 302.441406 L 199.269531 303.210938 L 202.144531 304.335938 L 205.460938 305.632812 L 208.742188 306.917969 L 211.816406 308.105469 L 214.6875 309.195312 L 217.402344 310.1875 L 220.039062 311.117188 L 221.796875 311.714844 L 224.433594 312.582031 L 227.035156 313.402344 L 229.535156 314.15625 L 231.898438 314.847656 L 234.132812 315.480469 L 236.324219 316.09375 L 238.601562 316.722656 L 241.03125 317.371094 L 243.605469 318.027344 L 246.277344 318.675781 L 248.074219 319.09375 L 250.785156 319.695312 L 253.453125 320.25 L 256.015625 320.757812 L 258.4375 321.207031 L 260.722656 321.617188 L 262.964844 322.011719 L 265.292969 322.410156 L 267.773438 322.816406 L 270.402344 323.214844 L 273.125 323.59375 L 274.953125 323.832031 L 277.710938 324.160156 L 280.417969 324.453125 L 283.019531 324.699219 L 285.472656 324.910156 L 287.789062 325.089844 L 290.058594 325.261719 L 292.414062 325.425781 L 294.925781 325.582031 L 297.578125 325.71875 L 300.324219 325.828125 L 302.171875 325.882812 L 304.945312 325.9375 L 307.671875 325.957031 L 310.285156 325.949219 L 312.746094 325.914062 L 315.066406 325.863281 L 317.339844 325.808594 L 319.703125 325.742188 L 322.214844 325.648438 L 324.871094 325.519531 L 327.613281 325.355469 L 329.457031 325.226562 L 332.230469 325.003906 L 335.035156 324.742188 L 337.960938 324.433594 L 341.082031 324.070312 L 344.433594 323.664062 L 347.984375 323.222656 L 351.421875 322.796875 L 354.207031 322.453125 L 355.917969 322.242188 L 356.542969 322.164062 L 356.59375 322.15625 "/>
<path fill="none" stroke-width="2.560748" stroke-linecap="butt" stroke-linejoin="round" stroke="rgb(54.117647%, 49.019608%, 72.156863%)" stroke-opacity="0.54902" stroke-miterlimit="10" d="M 356.59375 322.15625 L 356.761719 322.320312 L 357.648438 323.183594 L 359.15625 324.652344 L 360.746094 326.195312 L 362.183594 327.574219 L 363.511719 328.804688 L 364.472656 329.664062 L 365.792969 330.804688 L 367.066406 331.863281 L 368.242188 332.8125 L 369.371094 333.710938 L 370.59375 334.667969 L 371.945312 335.683594 L 372.980469 336.4375 L 374.40625 337.441406 L 375.78125 338.371094 L 377.046875 339.199219 L 378.257812 339.980469 L 379.570312 340.808594 L 381.011719 341.691406 L 382.117188 342.339844 L 383.636719 343.195312 L 385.097656 343.984375 L 386.4375 344.683594 L 387.722656 345.339844 L 389.109375 346.035156 L 390.632812 346.765625 L 391.796875 347.300781 L 393.390625 348.003906 L 394.921875 348.644531 L 396.324219 349.207031 L 397.667969 349.734375 L 399.117188 350.289062 L 400.707031 350.867188 L 401.917969 351.285156 L 403.59375 351.828125 L 405.359375 352.367188 L 407.332031 352.933594 L 409.492188 353.542969 L 411.367188 354.074219 L 412.265625 354.328125 L 412.359375 354.355469 "/>
<path fill="none" stroke-width="1.49377" stroke-linecap="butt" stroke-linejoin="round" stroke="rgb(72.156863%, 50.980392%, 15.686275%)" stroke-opacity="0.54902" stroke-miterlimit="10" d="M 154.4375 326.183594 L 154.558594 326.226562 L 155.3125 326.507812 L 157.085938 327.167969 L 159.945312 328.234375 L 163.664062 329.625 L 167.855469 331.1875 L 172.113281 332.773438 L 176.191406 334.289062 L 180.054688 335.710938 L 183.714844 337.027344 L 187.207031 338.253906 L 190.59375 339.410156 L 193.949219 340.511719 L 195.683594 341.066406 L 199.042969 342.117188 L 202.378906 343.121094 L 205.636719 344.070312 L 208.78125 344.957031 L 211.78125 345.777344 L 214.644531 346.542969 L 217.429688 347.277344 L 220.246094 348.015625 L 223.179688 348.769531 L 226.269531 349.542969 L 229.511719 350.324219 L 232.867188 351.101562 L 236.292969 351.859375 L 238.058594 352.234375 L 241.507812 352.945312 L 244.925781 353.617188 L 248.265625 354.238281 L 251.480469 354.808594 L 254.542969 355.328125 L 257.46875 355.804688 L 260.316406 356.261719 L 263.191406 356.71875 L 266.1875 357.175781 L 269.339844 357.636719 L 272.640625 358.09375 L 276.054688 358.535156 L 279.539062 358.949219 L 281.335938 359.148438 L 284.835938 359.515625 L 288.304688 359.84375 L 291.6875 360.132812 L 294.945312 360.378906 L 298.046875 360.59375 L 301.003906 360.777344 L 303.878906 360.949219 L 306.785156 361.117188 L 309.8125 361.28125 L 312.996094 361.425781 L 316.324219 361.550781 L 319.769531 361.652344 L 323.273438 361.71875 L 325.082031 361.742188 L 328.605469 361.757812 L 332.085938 361.742188 L 335.480469 361.691406 L 338.746094 361.617188 L 341.855469 361.523438 L 344.816406 361.414062 L 347.695312 361.300781 L 350.601562 361.179688 L 353.628906 361.039062 L 356.8125 360.871094 L 360.140625 360.664062 L 363.574219 360.421875 L 367.070312 360.140625 L 368.871094 359.984375 L 372.378906 359.652344 L 375.90625 359.277344 L 379.511719 358.859375 L 383.265625 358.390625 L 387.230469 357.867188 L 391.421875 357.289062 L 395.835938 356.671875 L 400.347656 356.039062 L 404.59375 355.441406 L 408.132812 354.945312 L 410.609375 354.597656 L 411.933594 354.414062 L 412.339844 354.355469 L 412.359375 354.355469 "/>
<path fill-rule="nonzero" fill="rgb(72.156863%, 50.980392%, 15.686275%)" fill-opacity="1" stroke-width="1.275591" stroke-linecap="round" stroke-linejoin="round" stroke="rgb(98.431373%, 96.862745%, 94.117647%)" stroke-opacity="1" stroke-miterlimit="10" d="M 264.972656 80.679688 C 264.972656 83.976562 262.296875 86.652344 259 86.652344 C 255.703125 86.652344 253.027344 83.976562 253.027344 80.679688 C 253.027344 77.382812 255.703125 74.707031 259 74.707031 C 262.296875 74.707031 264.972656 77.382812 264.972656 80.679688 "/>
<path fill-rule="nonzero" fill="rgb(51.372549%, 57.647059%, 77.647059%)" fill-opacity="1" stroke-width="1.275591" stroke-linecap="round" stroke-linejoin="round" stroke="rgb(98.431373%, 96.862745%, 94.117647%)" stroke-opacity="1" stroke-miterlimit="10" d="M 160.410156 326.183594 C 160.410156 329.480469 157.734375 332.15625 154.4375 332.15625 C 151.136719 332.15625 148.464844 329.480469 148.464844 326.183594 C 148.464844 322.882812 151.136719 320.210938 154.4375 320.210938 C 157.734375 320.210938 160.410156 322.882812 160.410156 326.183594 "/>
<path fill-rule="nonzero" fill="rgb(51.372549%, 57.647059%, 77.647059%)" fill-opacity="1" stroke-width="1.275591" stroke-linecap="round" stroke-linejoin="round" stroke="rgb(98.431373%, 96.862745%, 94.117647%)" stroke-opacity="1" stroke-miterlimit="10" d="M 118.585938 350.328125 C 118.585938 353.628906 115.910156 356.300781 112.613281 356.300781 C 109.3125 356.300781 106.640625 353.628906 106.640625 350.328125 C 106.640625 347.03125 109.3125 344.355469 112.613281 344.355469 C 115.910156 344.355469 118.585938 347.03125 118.585938 350.328125 "/>
<path fill-rule="nonzero" fill="rgb(51.372549%, 57.647059%, 77.647059%)" fill-opacity="1" stroke-width="1.275591" stroke-linecap="round" stroke-linejoin="round" stroke="rgb(98.431373%, 96.862745%, 94.117647%)" stroke-opacity="1" stroke-miterlimit="10" d="M 202.234375 302.035156 C 202.234375 305.332031 199.5625 308.007812 196.261719 308.007812 C 192.964844 308.007812 190.289062 305.332031 190.289062 302.035156 C 190.289062 298.734375 192.964844 296.0625 196.261719 296.0625 C 199.5625 296.0625 202.234375 298.734375 202.234375 302.035156 "/>
<path fill-rule="nonzero" fill="rgb(26.666667%, 36.862745%, 27.45098%)" fill-opacity="1" stroke-width="1.275591" stroke-linecap="round" stroke-linejoin="round" stroke="rgb(98.431373%, 96.862745%, 94.117647%)" stroke-opacity="1" stroke-miterlimit="10" d="M 362.566406 322.15625 C 362.566406 325.457031 359.890625 328.128906 356.59375 328.128906 C 353.292969 328.128906 350.621094 325.457031 350.621094 322.15625 C 350.621094 318.859375 353.292969 316.183594 356.59375 316.183594 C 359.890625 316.183594 362.566406 318.859375 362.566406 322.15625 "/>
<path fill-rule="nonzero" fill="rgb(26.666667%, 36.862745%, 27.45098%)" fill-opacity="1" stroke-width="1.275591" stroke-linecap="round" stroke-linejoin="round" stroke="rgb(98.431373%, 96.862745%, 94.117647%)" stroke-opacity="1" stroke-miterlimit="10" d="M 418.332031 354.355469 C 418.332031 357.652344 415.65625 360.328125 412.359375 360.328125 C 409.058594 360.328125 406.386719 357.652344 406.386719 354.355469 C 406.386719 351.054688 409.058594 348.382812 412.359375 348.382812 C 415.65625 348.382812 418.332031 351.054688 418.332031 354.355469 "/>
<g fill="rgb(12.156863%, 10.196078%, 7.45098%)" fill-opacity="1">
<use xlink:href="#glyph-0-0" x="244.769531" y="62.019531"/>
<use xlink:href="#glyph-0-1" x="250.933832" y="62.019531"/>
<use xlink:href="#glyph-0-2" x="253.305358" y="62.019531"/>
<use xlink:href="#glyph-0-3" x="255.676884" y="62.019531"/>
<use xlink:href="#glyph-0-4" x="260.424104" y="62.019531"/>
<use xlink:href="#glyph-0-5" x="265.638127" y="62.019531"/>
<use xlink:href="#glyph-0-3" x="268.480624" y="62.019531"/>
</g>
<g fill="rgb(12.156863%, 10.196078%, 7.45098%)" fill-opacity="1">
<use xlink:href="#glyph-0-6" x="127.894531" y="336.980469"/>
<use xlink:href="#glyph-0-3" x="133.587861" y="336.980469"/>
<use xlink:href="#glyph-0-4" x="138.335081" y="336.980469"/>
<use xlink:href="#glyph-0-5" x="143.549104" y="336.980469"/>
<use xlink:href="#glyph-0-7" x="146.391601" y="336.980469"/>
<use xlink:href="#glyph-0-8" x="151.138821" y="336.980469"/>
</g>
<g fill="rgb(12.156863%, 10.196078%, 7.45098%)" fill-opacity="1">
<use xlink:href="#glyph-0-9" x="78.921875" y="364.027344"/>
<use xlink:href="#glyph-0-10" x="84.615205" y="364.027344"/>
<use xlink:href="#glyph-0-11" x="89.829228" y="364.027344"/>
<use xlink:href="#glyph-0-10" x="95.043251" y="364.027344"/>
<use xlink:href="#glyph-0-12" x="100.257274" y="364.027344"/>
<use xlink:href="#glyph-0-5" x="103.579078" y="364.027344"/>
<use xlink:href="#glyph-0-3" x="106.421575" y="364.027344"/>
</g>
<g fill="rgb(12.156863%, 10.196078%, 7.45098%)" fill-opacity="1">
<use xlink:href="#glyph-0-13" x="170.003906" y="309.9375"/>
<use xlink:href="#glyph-0-12" x="175.697236" y="309.9375"/>
<use xlink:href="#glyph-0-10" x="179.01904" y="309.9375"/>
<use xlink:href="#glyph-0-14" x="184.233063" y="309.9375"/>
<use xlink:href="#glyph-0-15" x="189.447086" y="309.9375"/>
<use xlink:href="#glyph-0-16" x="194.661109" y="309.9375"/>
<use xlink:href="#glyph-0-5" x="199.408329" y="309.9375"/>
<use xlink:href="#glyph-0-10" x="202.250826" y="309.9375"/>
</g>
<g fill="rgb(12.156863%, 10.196078%, 7.45098%)" fill-opacity="1">
<use xlink:href="#glyph-0-17" x="342.449219" y="332.472656"/>
<use xlink:href="#glyph-0-11" x="349.088658" y="332.472656"/>
<use xlink:href="#glyph-0-3" x="354.302681" y="332.472656"/>
<use xlink:href="#glyph-0-12" x="359.049901" y="332.472656"/>
<use xlink:href="#glyph-0-7" x="362.371705" y="332.472656"/>
<use xlink:href="#glyph-0-16" x="367.118925" y="332.472656"/>
<use xlink:href="#glyph-0-2" x="371.866145" y="332.472656"/>
<use xlink:href="#glyph-0-10" x="374.237671" y="332.472656"/>
<use xlink:href="#glyph-0-4" x="379.451694" y="332.472656"/>
<use xlink:href="#glyph-0-3" x="384.665717" y="332.472656"/>
<use xlink:href="#glyph-0-8" x="389.412938" y="332.472656"/>
</g>
<g fill="rgb(12.156863%, 10.196078%, 7.45098%)" fill-opacity="1">
<use xlink:href="#glyph-0-18" x="412.5" y="368.535156"/>
<use xlink:href="#glyph-0-2" x="417.714023" y="368.535156"/>
<use xlink:href="#glyph-0-4" x="420.085549" y="368.535156"/>
<use xlink:href="#glyph-0-7" x="425.299572" y="368.535156"/>
<use xlink:href="#glyph-0-4" x="430.046792" y="368.535156"/>
<use xlink:href="#glyph-0-19" x="435.260815" y="368.535156"/>
<use xlink:href="#glyph-0-7" x="439.528729" y="368.535156"/>
<use xlink:href="#glyph-0-8" x="444.275949" y="368.535156"/>
</g>
<g fill="rgb(0%, 0%, 0%)" fill-opacity="1">
<use xlink:href="#glyph-1-0" x="56.566406" y="34.058594"/>
<use xlink:href="#glyph-1-1" x="65.122559" y="34.058594"/>
<use xlink:href="#glyph-1-2" x="68.785645" y="34.058594"/>
<use xlink:href="#glyph-1-3" x="74.90332" y="34.058594"/>
<use xlink:href="#glyph-1-4" x="81.020996" y="34.058594"/>
<use xlink:href="#glyph-1-5" x="87.138672" y="34.058594"/>
<use xlink:href="#glyph-1-6" x="93.256348" y="34.058594"/>
<use xlink:href="#glyph-1-4" x="96.3125" y="34.058594"/>
<use xlink:href="#glyph-1-7" x="102.430176" y="34.058594"/>
<use xlink:href="#glyph-1-2" x="108.547852" y="34.058594"/>
<use xlink:href="#glyph-1-7" x="114.665527" y="34.058594"/>
<use xlink:href="#glyph-1-8" x="120.783203" y="34.058594"/>
<use xlink:href="#glyph-1-6" x="126.283203" y="34.058594"/>
<use xlink:href="#glyph-1-9" x="129.339355" y="34.058594"/>
<use xlink:href="#glyph-1-7" x="135.457031" y="34.058594"/>
<use xlink:href="#glyph-1-1" x="141.574707" y="34.058594"/>
<use xlink:href="#glyph-1-6" x="145.237793" y="34.058594"/>
<use xlink:href="#glyph-1-3" x="148.293945" y="34.058594"/>
<use xlink:href="#glyph-1-10" x="154.411621" y="34.058594"/>
<use xlink:href="#glyph-1-3" x="156.855469" y="34.058594"/>
<use xlink:href="#glyph-1-8" x="162.973145" y="34.058594"/>
<use xlink:href="#glyph-1-6" x="168.473145" y="34.058594"/>
<use xlink:href="#glyph-1-3" x="171.529297" y="34.058594"/>
<use xlink:href="#glyph-1-8" x="177.646973" y="34.058594"/>
<use xlink:href="#glyph-1-11" x="183.146973" y="34.058594"/>
<use xlink:href="#glyph-1-1" x="186.203125" y="34.058594"/>
<use xlink:href="#glyph-1-12" x="189.866211" y="34.058594"/>
<use xlink:href="#glyph-1-13" x="195.983887" y="34.058594"/>
<use xlink:href="#glyph-1-11" x="201.483887" y="34.058594"/>
<use xlink:href="#glyph-1-12" x="204.540039" y="34.058594"/>
<use xlink:href="#glyph-1-1" x="210.657715" y="34.058594"/>
<use xlink:href="#glyph-1-5" x="214.320801" y="34.058594"/>
<use xlink:href="#glyph-1-14" x="220.438477" y="34.058594"/>
<use xlink:href="#glyph-1-3" x="222.882324" y="34.058594"/>
<use xlink:href="#glyph-1-8" x="229" y="34.058594"/>
<use xlink:href="#glyph-1-6" x="234.5" y="34.058594"/>
<use xlink:href="#glyph-1-15" x="237.556152" y="34.058594"/>
<use xlink:href="#glyph-1-6" x="243.056152" y="34.058594"/>
<use xlink:href="#glyph-1-1" x="246.112305" y="34.058594"/>
<use xlink:href="#glyph-1-3" x="249.775391" y="34.058594"/>
<use xlink:href="#glyph-1-2" x="255.893066" y="34.058594"/>
<use xlink:href="#glyph-1-12" x="262.010742" y="34.058594"/>
<use xlink:href="#glyph-1-13" x="268.128418" y="34.058594"/>
<use xlink:href="#glyph-1-3" x="273.628418" y="34.058594"/>
<use xlink:href="#glyph-1-6" x="279.746094" y="34.058594"/>
<use xlink:href="#glyph-1-13" x="282.802246" y="34.058594"/>
<use xlink:href="#glyph-1-1" x="288.302246" y="34.058594"/>
<use xlink:href="#glyph-1-12" x="291.965332" y="34.058594"/>
<use xlink:href="#glyph-1-13" x="298.083008" y="34.058594"/>
<use xlink:href="#glyph-1-3" x="303.583008" y="34.058594"/>
<use xlink:href="#glyph-1-8" x="309.700684" y="34.058594"/>
<use xlink:href="#glyph-1-6" x="315.200684" y="34.058594"/>
<use xlink:href="#glyph-1-5" x="318.256836" y="34.058594"/>
<use xlink:href="#glyph-1-1" x="324.374512" y="34.058594"/>
<use xlink:href="#glyph-1-16" x="328.037598" y="34.058594"/>
<use xlink:href="#glyph-1-17" x="334.155273" y="34.058594"/>
<use xlink:href="#glyph-1-11" x="336.599121" y="34.058594"/>
<use xlink:href="#glyph-1-1" x="339.655273" y="34.058594"/>
<use xlink:href="#glyph-1-5" x="343.318359" y="34.058594"/>
<use xlink:href="#glyph-1-1" x="349.436035" y="34.058594"/>
<use xlink:href="#glyph-1-17" x="353.099121" y="34.058594"/>
<use xlink:href="#glyph-1-7" x="355.542969" y="34.058594"/>
<use xlink:href="#glyph-1-8" x="361.660645" y="34.058594"/>
</g>
<g fill="rgb(0%, 0%, 0%)" fill-opacity="1">
<use xlink:href="#glyph-2-0" x="56.566406" y="15.929688"/>
<use xlink:href="#glyph-2-1" x="66.099023" y="15.929688"/>
<use xlink:href="#glyph-2-2" x="69.031641" y="15.929688"/>
<use xlink:href="#glyph-2-3" x="75.631641" y="15.929688"/>
</g>
</svg>
