<?xml version="1.0" encoding="UTF-8"?>
<svg xmlns="http://www.w3.org/2000/svg" xmlns:xlink="http://www.w3.org/1999/xlink" width="518pt" height="360pt" viewBox="0 0 518 360">
<defs>
<g>
<g id="glyph-0-0">
<path d="M 3.695312 0 L 3.695312 -38.699219 L 11.507812 -38.699219 L 11.507812 0 Z M 3.695312 0 "/>
</g>
<g id="glyph-0-1">
<path d="M 29.589844 0 L 22.699219 0 L 22.699219 -4.117188 C 21.558594 -2.515625 20.207031 -1.324219 18.648438 -0.542969 C 17.09375 0.242188 15.519531 0.632812 13.9375 0.632812 C 10.71875 0.632812 7.957031 -0.664062 5.660156 -3.261719 C 3.367188 -5.855469 2.21875 -9.476562 2.21875 -14.121094 C 2.21875 -18.875 3.335938 -22.484375 5.570312 -24.957031 C 7.804688 -27.429688 10.628906 -28.667969 14.042969 -28.667969 C 17.175781 -28.667969 19.886719 -27.363281 22.171875 -24.761719 L 22.171875 -38.699219 L 29.589844 -38.699219 L 29.589844 0 M 9.792969 -14.625 C 9.792969 -11.632812 10.207031 -9.46875 11.035156 -8.128906 C 12.230469 -6.195312 13.902344 -5.226562 16.050781 -5.226562 C 17.757812 -5.226562 19.207031 -5.953125 20.40625 -7.402344 C 21.601562 -8.855469 22.199219 -11.023438 22.199219 -13.910156 C 22.199219 -17.132812 21.617188 -19.449219 20.457031 -20.867188 C 19.296875 -22.28125 17.808594 -22.992188 15.996094 -22.992188 C 14.238281 -22.992188 12.761719 -22.292969 11.574219 -20.894531 C 10.386719 -19.492188 9.792969 -17.402344 9.792969 -14.625 Z M 9.792969 -14.625 "/>
</g>
<g id="glyph-0-2">
<path d="M 20.113281 -8.921875 L 27.503906 -7.679688 C 26.554688 -4.972656 25.054688 -2.90625 23.003906 -1.492188 C 20.953125 -0.0742188 18.390625 0.632812 15.308594 0.632812 C 10.433594 0.632812 6.828125 -0.960938 4.488281 -4.144531 C 2.640625 -6.695312 1.714844 -9.917969 1.714844 -13.804688 C 1.714844 -18.453125 2.929688 -22.089844 5.359375 -24.71875 C 7.785156 -27.351562 10.859375 -28.667969 14.570312 -28.667969 C 18.742188 -28.667969 22.03125 -27.289062 24.441406 -24.535156 C 26.855469 -21.78125 28.007812 -17.5625 27.902344 -11.878906 L 9.316406 -11.878906 C 9.371094 -9.679688 9.96875 -7.96875 11.113281 -6.746094 C 12.257812 -5.519531 13.683594 -4.910156 15.390625 -4.910156 C 16.550781 -4.910156 17.527344 -5.226562 18.320312 -5.859375 C 19.109375 -6.492188 19.710938 -7.515625 20.113281 -8.921875 M 20.535156 -16.417969 C 20.484375 -18.566406 19.929688 -20.199219 18.875 -21.316406 C 17.816406 -22.433594 16.53125 -22.992188 15.019531 -22.992188 C 13.402344 -22.992188 12.0625 -22.402344 11.007812 -21.222656 C 9.953125 -20.042969 9.433594 -18.441406 9.449219 -16.417969 Z M 20.535156 -16.417969 "/>
</g>
<g id="glyph-0-3">
<path d="M 9.421875 -19.480469 L 2.691406 -20.695312 C 3.449219 -23.40625 4.75 -25.410156 6.597656 -26.714844 C 8.445312 -28.015625 11.191406 -28.667969 14.835938 -28.667969 C 18.144531 -28.667969 20.605469 -28.273438 22.226562 -27.492188 C 23.84375 -26.707031 24.984375 -25.714844 25.644531 -24.507812 C 26.304688 -23.304688 26.632812 -21.089844 26.632812 -17.871094 L 26.554688 -9.210938 C 26.554688 -6.75 26.671875 -4.933594 26.910156 -3.761719 C 27.148438 -2.589844 27.59375 -1.335938 28.246094 0 L 20.90625 0 C 20.710938 -0.492188 20.476562 -1.222656 20.195312 -2.191406 C 20.070312 -2.632812 19.980469 -2.921875 19.929688 -3.0625 C 18.664062 -1.832031 17.308594 -0.90625 15.863281 -0.289062 C 14.421875 0.324219 12.882812 0.632812 11.246094 0.632812 C 8.359375 0.632812 6.085938 -0.148438 4.421875 -1.714844 C 2.757812 -3.28125 1.925781 -5.261719 1.925781 -7.65625 C 1.925781 -9.238281 2.304688 -10.652344 3.0625 -11.890625 C 3.820312 -13.132812 4.878906 -14.082031 6.242188 -14.742188 C 7.605469 -15.402344 9.574219 -15.980469 12.140625 -16.472656 C 15.609375 -17.121094 18.011719 -17.730469 19.347656 -18.292969 L 19.347656 -19.03125 C 19.347656 -20.457031 18.996094 -21.472656 18.292969 -22.082031 C 17.589844 -22.6875 16.261719 -22.992188 14.308594 -22.992188 C 12.988281 -22.992188 11.957031 -22.730469 11.21875 -22.210938 C 10.480469 -21.695312 9.882812 -20.78125 9.421875 -19.480469 M 19.347656 -13.460938 C 18.398438 -13.144531 16.894531 -12.765625 14.835938 -12.328125 C 12.777344 -11.886719 11.429688 -11.457031 10.796875 -11.035156 C 9.828125 -10.347656 9.34375 -9.476562 9.34375 -8.421875 C 9.34375 -7.382812 9.730469 -6.484375 10.503906 -5.726562 C 11.28125 -4.972656 12.265625 -4.59375 13.460938 -4.59375 C 14.800781 -4.59375 16.074219 -5.03125 17.289062 -5.914062 C 18.1875 -6.582031 18.777344 -7.398438 19.058594 -8.367188 C 19.25 -9 19.347656 -10.207031 19.347656 -11.984375 Z M 19.347656 -13.460938 "/>
</g>
<g id="glyph-0-4">
<path d="M 3.878906 0 L 3.878906 -38.699219 L 11.296875 -38.699219 L 11.296875 0 Z M 3.878906 0 "/>
</g>
<g id="glyph-1-0">
<path d="M 3.527344 0 L 3.527344 -34.695312 L 14.765625 -34.695312 C 19.027344 -34.695312 21.804688 -34.519531 23.097656 -34.171875 C 25.085938 -33.652344 26.75 -32.519531 28.089844 -30.777344 C 29.433594 -29.035156 30.101562 -26.78125 30.101562 -24.019531 C 30.101562 -21.890625 29.714844 -20.101562 28.941406 -18.648438 C 28.167969 -17.195312 27.1875 -16.058594 25.996094 -15.230469 C 24.804688 -14.402344 23.59375 -13.851562 22.363281 -13.582031 C 20.691406 -13.253906 18.269531 -13.085938 15.097656 -13.085938 L 10.53125 -13.085938 L 10.53125 0 L 3.527344 0 M 10.53125 -28.824219 L 10.53125 -18.980469 L 14.363281 -18.980469 C 17.125 -18.980469 18.972656 -19.160156 19.902344 -19.523438 C 20.832031 -19.886719 21.5625 -20.453125 22.089844 -21.226562 C 22.621094 -22 22.882812 -22.898438 22.882812 -23.925781 C 22.882812 -25.1875 22.515625 -26.230469 21.773438 -27.050781 C 21.03125 -27.871094 20.09375 -28.382812 18.957031 -28.585938 C 18.121094 -28.746094 16.441406 -28.824219 13.914062 -28.824219 Z M 10.53125 -28.824219 "/>
</g>
<g id="glyph-1-1">
<path d="M 9.84375 0 L 3.195312 0 L 3.195312 -25.132812 L 9.371094 -25.132812 L 9.371094 -21.558594 C 10.429688 -23.246094 11.378906 -24.359375 12.222656 -24.894531 C 13.066406 -25.433594 14.027344 -25.699219 15.097656 -25.699219 C 16.613281 -25.699219 18.074219 -25.28125 19.476562 -24.445312 L 17.417969 -18.648438 C 16.296875 -19.375 15.257812 -19.738281 14.292969 -19.738281 C 13.363281 -19.738281 12.574219 -19.480469 11.925781 -18.96875 C 11.28125 -18.457031 10.773438 -17.527344 10.402344 -16.1875 C 10.03125 -14.847656 9.84375 -12.039062 9.84375 -7.761719 Z M 9.84375 0 "/>
</g>
<g id="glyph-1-2">
<path d="M 18.03125 -8 L 24.660156 -6.886719 C 23.808594 -4.457031 22.460938 -2.605469 20.625 -1.335938 C 18.785156 -0.0664062 16.488281 0.566406 13.726562 0.566406 C 9.355469 0.566406 6.121094 -0.859375 4.023438 -3.714844 C 2.367188 -6.003906 1.539062 -8.890625 1.539062 -12.378906 C 1.539062 -16.542969 2.625 -19.804688 4.804688 -22.164062 C 6.980469 -24.519531 9.734375 -25.699219 13.0625 -25.699219 C 16.800781 -25.699219 19.753906 -24.464844 21.914062 -21.996094 C 24.074219 -19.527344 25.109375 -15.746094 25.015625 -10.648438 L 8.355469 -10.648438 C 8.402344 -8.675781 8.9375 -7.144531 9.964844 -6.046875 C 10.988281 -4.949219 12.265625 -4.402344 13.796875 -4.402344 C 14.839844 -4.402344 15.714844 -4.6875 16.421875 -5.253906 C 17.132812 -5.820312 17.671875 -6.738281 18.03125 -8 M 18.410156 -14.71875 C 18.363281 -16.644531 17.867188 -18.109375 16.921875 -19.109375 C 15.972656 -20.113281 14.824219 -20.613281 13.464844 -20.613281 C 12.015625 -20.613281 10.816406 -20.085938 9.867188 -19.027344 C 8.921875 -17.96875 8.457031 -16.535156 8.472656 -14.71875 Z M 18.410156 -14.71875 "/>
</g>
<g id="glyph-1-3">
<path d="M 2.980469 -25.132812 L 9.109375 -25.132812 L 9.109375 -21.703125 C 11.304688 -24.367188 13.914062 -25.699219 16.945312 -25.699219 C 18.554688 -25.699219 19.949219 -25.371094 21.132812 -24.707031 C 22.316406 -24.042969 23.285156 -23.042969 24.042969 -21.703125 C 25.148438 -23.042969 26.339844 -24.042969 27.617188 -24.707031 C 28.894531 -25.371094 30.261719 -25.699219 31.710938 -25.699219 C 33.558594 -25.699219 35.121094 -25.324219 36.398438 -24.578125 C 37.675781 -23.828125 38.628906 -22.726562 39.261719 -21.273438 C 39.71875 -20.203125 39.945312 -18.46875 39.945312 -16.070312 L 39.945312 0 L 33.296875 0 L 33.296875 -14.363281 C 33.296875 -16.859375 33.070312 -18.46875 32.609375 -19.191406 C 31.996094 -20.140625 31.050781 -20.613281 29.769531 -20.613281 C 28.839844 -20.613281 27.964844 -20.328125 27.144531 -19.761719 C 26.324219 -19.191406 25.730469 -18.359375 25.371094 -17.265625 C 25.007812 -16.167969 24.824219 -14.4375 24.824219 -12.070312 L 24.824219 0 L 18.175781 0 L 18.175781 -13.773438 C 18.175781 -16.21875 18.058594 -17.796875 17.820312 -18.507812 C 17.582031 -19.214844 17.214844 -19.746094 16.71875 -20.09375 C 16.222656 -20.4375 15.546875 -20.613281 14.695312 -20.613281 C 13.671875 -20.613281 12.746094 -20.335938 11.925781 -19.785156 C 11.105469 -19.230469 10.519531 -18.433594 10.164062 -17.394531 C 9.808594 -16.351562 9.632812 -14.625 9.632812 -12.210938 L 9.632812 0 L 2.980469 0 Z M 2.980469 -25.132812 "/>
</g>
<g id="glyph-1-4">
<path d="M 3.480469 -28.539062 L 3.480469 -34.695312 L 10.128906 -34.695312 L 10.128906 -28.539062 L 3.480469 -28.539062 M 3.480469 0 L 3.480469 -25.132812 L 10.128906 -25.132812 L 10.128906 0 Z M 3.480469 0 "/>
</g>
<g id="glyph-1-5">
<path d="M 20.019531 0 L 20.019531 -3.761719 C 19.105469 -2.421875 17.902344 -1.363281 16.410156 -0.589844 C 14.921875 0.179688 13.347656 0.566406 11.691406 0.566406 C 10.003906 0.566406 8.488281 0.195312 7.148438 -0.542969 C 5.804688 -1.285156 4.835938 -2.328125 4.234375 -3.667969 C 3.636719 -5.007812 3.335938 -6.863281 3.335938 -9.230469 L 3.335938 -25.132812 L 9.988281 -25.132812 L 9.988281 -13.582031 C 9.988281 -10.050781 10.109375 -7.882812 10.355469 -7.085938 C 10.597656 -6.292969 11.042969 -5.660156 11.691406 -5.195312 C 12.335938 -4.730469 13.15625 -4.496094 14.152344 -4.496094 C 15.289062 -4.496094 16.304688 -4.808594 17.203125 -5.429688 C 18.105469 -6.054688 18.71875 -6.828125 19.050781 -7.75 C 19.382812 -8.671875 19.546875 -10.933594 19.546875 -14.53125 L 19.546875 -25.132812 L 26.199219 -25.132812 L 26.199219 0 Z M 20.019531 0 "/>
</g>
<g id="glyph-2-0">
<path d="M 11.886719 1.671875 L 4.660156 -33.328125 L 11.957031 -32.300781 L 16.925781 -6.453125 L 28.550781 -29.96875 L 35.6875 -28.964844 L 19.070312 2.679688 Z M 11.886719 1.671875 "/>
</g>
<g id="glyph-2-1">
<path d="M 18.402344 -5.25 L 24.613281 -3.285156 C 23.46875 -1.066406 21.925781 0.527344 19.988281 1.5 C 18.054688 2.472656 15.757812 2.769531 13.105469 2.398438 C 8.910156 1.808594 5.996094 0 4.367188 -3.027344 C 3.082031 -5.445312 2.675781 -8.332031 3.148438 -11.679688 C 3.710938 -15.679688 5.195312 -18.667969 7.605469 -20.640625 C 10.015625 -22.609375 12.820312 -23.371094 16.015625 -22.921875 C 19.609375 -22.417969 22.273438 -20.832031 24.019531 -18.167969 C 25.761719 -15.507812 26.242188 -11.734375 25.464844 -6.851562 L 9.460938 -9.101562 C 9.242188 -7.199219 9.546875 -5.65625 10.386719 -4.460938 C 11.222656 -3.269531 12.375 -2.570312 13.847656 -2.367188 C 14.847656 -2.226562 15.726562 -2.378906 16.484375 -2.828125 C 17.242188 -3.277344 17.882812 -4.085938 18.402344 -5.25 M 19.671875 -11.652344 C 19.886719 -13.507812 19.605469 -14.980469 18.832031 -16.070312 C 18.058594 -17.160156 17.019531 -17.796875 15.714844 -17.980469 C 14.320312 -18.175781 13.097656 -17.832031 12.046875 -16.941406 C 10.996094 -16.054688 10.355469 -14.738281 10.125 -12.996094 Z M 19.671875 -11.652344 "/>
</g>
<g id="glyph-2-2">
<path d="M 9.457031 1.328125 L 3.070312 0.429688 L 6.460938 -23.707031 L 12.394531 -22.875 L 11.910156 -19.441406 C 13.15625 -20.921875 14.21875 -21.859375 15.101562 -22.261719 C 15.984375 -22.664062 16.941406 -22.792969 17.972656 -22.648438 C 19.425781 -22.441406 20.769531 -21.84375 22.007812 -20.851562 L 19.246094 -15.558594 C 18.269531 -16.410156 17.316406 -16.898438 16.394531 -17.027344 C 15.5 -17.152344 14.707031 -17.015625 14.015625 -16.609375 C 13.324219 -16.203125 12.710938 -15.382812 12.175781 -14.144531 C 11.636719 -12.90625 11.082031 -10.234375 10.503906 -6.125 Z M 9.457031 1.328125 "/>
</g>
<g id="glyph-2-3">
<path d="M 3.710938 -24.09375 L 10.507812 -23.140625 L 13.871094 -5.191406 L 21.917969 -21.535156 L 28.53125 -20.605469 L 16.742188 1.425781 L 14.628906 5.417969 C 13.871094 6.746094 13.1875 7.75 12.574219 8.417969 C 11.960938 9.089844 11.292969 9.609375 10.570312 9.980469 C 9.84375 10.351562 8.984375 10.597656 7.984375 10.71875 C 6.988281 10.839844 5.882812 10.816406 4.667969 10.648438 C 3.441406 10.472656 2.253906 10.175781 1.109375 9.753906 L 1.246094 4.671875 C 2.214844 5.007812 3.105469 5.234375 3.90625 5.347656 C 5.394531 5.554688 6.550781 5.273438 7.386719 4.503906 C 8.222656 3.730469 8.921875 2.699219 9.492188 1.402344 Z M 3.710938 -24.09375 "/>
</g>
<g id="glyph-2-4">
</g>
<g id="glyph-2-5">
<path d="M 20.609375 -9.597656 L 21.398438 -15.210938 L 35.902344 -13.171875 L 34.035156 0.101562 C 32.4375 1.265625 30.226562 2.179688 27.40625 2.84375 C 24.582031 3.503906 21.800781 3.644531 19.058594 3.257812 C 15.574219 2.769531 12.636719 1.609375 10.253906 -0.214844 C 7.867188 -2.042969 6.214844 -4.40625 5.292969 -7.3125 C 4.371094 -10.214844 4.136719 -13.265625 4.585938 -16.460938 C 5.074219 -19.933594 6.234375 -22.914062 8.066406 -25.40625 C 9.902344 -27.898438 12.320312 -29.667969 15.328125 -30.714844 C 17.617188 -31.519531 20.355469 -31.699219 23.539062 -31.253906 C 27.675781 -30.671875 30.785156 -29.347656 32.867188 -27.289062 C 34.949219 -25.226562 36.109375 -22.617188 36.34375 -19.460938 L 29.488281 -19.152344 C 29.246094 -20.855469 28.546875 -22.269531 27.382812 -23.398438 C 26.222656 -24.527344 24.671875 -25.230469 22.730469 -25.5 C 19.789062 -25.914062 17.320312 -25.3125 15.324219 -23.691406 C 13.328125 -22.070312 12.070312 -19.429688 11.554688 -15.761719 C 11 -11.804688 11.460938 -8.714844 12.941406 -6.492188 C 14.421875 -4.265625 16.585938 -2.953125 19.4375 -2.554688 C 20.84375 -2.355469 22.296875 -2.433594 23.792969 -2.789062 C 25.285156 -3.140625 26.597656 -3.640625 27.722656 -4.285156 L 28.316406 -8.515625 Z M 20.609375 -9.597656 "/>
</g>
<g id="glyph-2-6">
<path d="M 3.609375 -12.148438 C 3.90625 -14.269531 4.71875 -16.25 6.042969 -18.089844 C 7.367188 -19.925781 9.0625 -21.234375 11.125 -22.011719 C 13.1875 -22.785156 15.402344 -23.007812 17.765625 -22.675781 C 21.417969 -22.164062 24.246094 -20.554688 26.246094 -17.855469 C 28.246094 -15.15625 28.992188 -11.996094 28.484375 -8.375 C 27.96875 -4.722656 26.367188 -1.863281 23.671875 0.210938 C 20.976562 2.28125 17.84375 3.0625 14.265625 2.5625 C 12.054688 2.25 10.015625 1.453125 8.148438 0.171875 C 6.28125 -1.109375 4.957031 -2.792969 4.183594 -4.871094 C 3.410156 -6.949219 3.21875 -9.375 3.609375 -12.148438 M 10.105469 -10.886719 C 9.769531 -8.492188 10.082031 -6.582031 11.039062 -5.148438 C 11.996094 -3.714844 13.308594 -2.882812 14.976562 -2.648438 C 16.640625 -2.414062 18.128906 -2.851562 19.4375 -3.96875 C 20.746094 -5.082031 21.570312 -6.851562 21.910156 -9.277344 C 22.242188 -11.640625 21.933594 -13.539062 20.984375 -14.96875 C 20.035156 -16.398438 18.726562 -17.234375 17.058594 -17.46875 C 15.390625 -17.703125 13.898438 -17.261719 12.585938 -16.148438 C 11.269531 -15.035156 10.441406 -13.28125 10.105469 -10.886719 Z M 10.105469 -10.886719 "/>
</g>
<g id="glyph-2-7">
<path d="M 25.480469 3.582031 L 19.546875 2.746094 L 20.046875 -0.796875 C 18.867188 0.441406 17.558594 1.304688 16.125 1.789062 C 14.6875 2.277344 13.289062 2.425781 11.925781 2.230469 C 9.152344 1.84375 6.933594 0.390625 5.269531 -2.121094 C 3.605469 -4.636719 3.054688 -7.890625 3.617188 -11.890625 C 4.195312 -15.984375 5.59375 -18.960938 7.816406 -20.816406 C 10.039062 -22.675781 12.621094 -23.398438 15.5625 -22.984375 C 18.257812 -22.605469 20.433594 -21.15625 22.089844 -18.636719 L 23.777344 -30.640625 L 30.164062 -29.742188 L 25.480469 3.582031 M 10.203125 -11.40625 C 9.839844 -8.832031 9.933594 -6.917969 10.484375 -5.664062 C 11.28125 -3.855469 12.605469 -2.816406 14.453125 -2.558594 C 15.921875 -2.351562 17.261719 -2.800781 18.46875 -3.90625 C 19.671875 -5.011719 20.449219 -6.808594 20.800781 -9.292969 C 21.191406 -12.066406 20.96875 -14.132812 20.140625 -15.492188 C 19.3125 -16.851562 18.117188 -17.644531 16.558594 -17.863281 C 15.042969 -18.074219 13.6875 -17.652344 12.496094 -16.589844 C 11.304688 -15.53125 10.539062 -13.800781 10.203125 -11.40625 Z M 10.203125 -11.40625 "/>
</g>
<g id="glyph-3-0">
<path d="M 13.753906 -12.8125 L 12.941406 -17.425781 L 24.863281 -19.53125 L 26.789062 -8.617188 C 25.828125 -7.289062 24.320312 -6.007812 22.273438 -4.765625 C 20.222656 -3.523438 18.074219 -2.703125 15.816406 -2.308594 C 12.953125 -1.800781 10.347656 -1.960938 8.003906 -2.789062 C 5.664062 -3.617188 3.757812 -5.054688 2.292969 -7.101562 C 0.828125 -9.148438 -0.136719 -11.484375 -0.601562 -14.113281 C -1.101562 -16.96875 -0.953125 -19.609375 -0.148438 -22.039062 C 0.65625 -24.464844 2.109375 -26.476562 4.203125 -28.066406 C 5.800781 -29.285156 7.90625 -30.125 10.523438 -30.585938 C 13.925781 -31.183594 16.707031 -30.941406 18.871094 -29.851562 C 21.035156 -28.761719 22.613281 -27.007812 23.605469 -24.585938 L 18.292969 -22.589844 C 17.667969 -23.867188 16.753906 -24.800781 15.554688 -25.394531 C 14.351562 -25.984375 12.953125 -26.140625 11.355469 -25.859375 C 8.941406 -25.429688 7.152344 -24.328125 5.996094 -22.542969 C 4.839844 -20.757812 4.527344 -18.359375 5.058594 -15.34375 C 5.632812 -12.09375 6.785156 -9.78125 8.519531 -8.410156 C 10.25 -7.039062 12.285156 -6.558594 14.628906 -6.972656 C 15.789062 -7.175781 16.910156 -7.609375 17.992188 -8.269531 C 19.078125 -8.929688 19.980469 -9.65625 20.703125 -10.453125 L 20.089844 -13.929688 Z M 13.753906 -12.8125 "/>
</g>
<g id="glyph-3-1">
<path d="M -0.265625 -10.472656 C -0.574219 -12.21875 -0.441406 -13.980469 0.128906 -15.765625 C 0.703125 -17.550781 1.699219 -19.011719 3.125 -20.148438 C 4.546875 -21.285156 6.234375 -22.023438 8.175781 -22.367188 C 11.179688 -22.898438 13.8125 -22.355469 16.074219 -20.746094 C 18.335938 -19.132812 19.730469 -16.839844 20.253906 -13.859375 C 20.785156 -10.859375 20.253906 -8.199219 18.664062 -5.882812 C 17.078125 -3.566406 14.8125 -2.148438 11.871094 -1.628906 C 10.050781 -1.308594 8.246094 -1.414062 6.449219 -1.945312 C 4.652344 -2.476562 3.1875 -3.460938 2.046875 -4.898438 C 0.90625 -6.335938 0.136719 -8.195312 -0.265625 -10.472656 M 5.164062 -11.144531 C 5.511719 -9.175781 6.246094 -7.75 7.363281 -6.867188 C 8.484375 -5.984375 9.726562 -5.664062 11.097656 -5.90625 C 12.46875 -6.148438 13.527344 -6.875 14.269531 -8.085938 C 15.011719 -9.296875 15.207031 -10.898438 14.855469 -12.890625 C 14.515625 -14.832031 13.785156 -16.246094 12.675781 -17.128906 C 11.5625 -18.011719 10.320312 -18.332031 8.949219 -18.089844 C 7.578125 -17.851562 6.519531 -17.125 5.769531 -15.914062 C 5.019531 -14.699219 4.816406 -13.109375 5.164062 -11.144531 Z M 5.164062 -11.144531 "/>
</g>
<g id="glyph-3-2">
<path d="M 20.949219 -3.695312 L 16.070312 -2.832031 L 15.558594 -5.75 C 14.949219 -4.472656 14.140625 -3.460938 13.136719 -2.710938 C 12.128906 -1.960938 11.066406 -1.488281 9.945312 -1.292969 C 7.667969 -0.890625 5.550781 -1.464844 3.601562 -3.015625 C 1.652344 -4.566406 0.386719 -6.984375 -0.191406 -10.273438 C -0.785156 -13.640625 -0.445312 -16.335938 0.828125 -18.363281 C 2.101562 -20.394531 3.945312 -21.621094 6.363281 -22.046875 C 8.582031 -22.4375 10.664062 -21.855469 12.605469 -20.296875 L 10.867188 -30.164062 L 16.117188 -31.089844 L 20.949219 -3.695312 M 5.109375 -11.574219 C 5.480469 -9.457031 6.042969 -7.976562 6.796875 -7.132812 C 7.886719 -5.914062 9.191406 -5.4375 10.710938 -5.703125 C 11.917969 -5.917969 12.855469 -6.613281 13.523438 -7.789062 C 14.1875 -8.964844 14.339844 -10.578125 13.980469 -12.621094 C 13.578125 -14.898438 12.878906 -16.46875 11.878906 -17.328125 C 10.878906 -18.183594 9.738281 -18.5 8.453125 -18.273438 C 7.207031 -18.054688 6.253906 -17.375 5.585938 -16.238281 C 4.921875 -15.097656 4.761719 -13.542969 5.109375 -11.574219 Z M 5.109375 -11.574219 "/>
</g>
<g id="glyph-4-0">
<path d="M 2.097656 0 L 2.097656 -20.367188 L 16.058594 -20.367188 L 16.058594 -16.921875 L 6.210938 -16.921875 L 6.210938 -12.101562 L 14.710938 -12.101562 L 14.710938 -8.65625 L 6.210938 -8.65625 L 6.210938 0 Z M 2.097656 0 "/>
</g>
<g id="glyph-4-1">
<path d="M 4.960938 -10.253906 L 1.417969 -10.890625 C 1.816406 -12.320312 2.5 -13.375 3.472656 -14.058594 C 4.445312 -14.746094 5.890625 -15.085938 7.808594 -15.085938 C 9.550781 -15.085938 10.847656 -14.882812 11.699219 -14.46875 C 12.550781 -14.058594 13.148438 -13.535156 13.496094 -12.898438 C 13.84375 -12.265625 14.019531 -11.101562 14.019531 -9.40625 L 13.976562 -4.847656 C 13.976562 -3.550781 14.039062 -2.59375 14.164062 -1.980469 C 14.289062 -1.363281 14.523438 -0.703125 14.867188 0 L 11.003906 0 C 10.902344 -0.257812 10.777344 -0.644531 10.628906 -1.152344 C 10.5625 -1.382812 10.515625 -1.539062 10.488281 -1.613281 C 9.824219 -0.964844 9.109375 -0.476562 8.351562 -0.152344 C 7.589844 0.171875 6.78125 0.332031 5.917969 0.332031 C 4.398438 0.332031 3.203125 -0.078125 2.328125 -0.902344 C 1.453125 -1.726562 1.015625 -2.769531 1.015625 -4.027344 C 1.015625 -4.863281 1.214844 -5.605469 1.613281 -6.257812 C 2.011719 -6.910156 2.566406 -7.410156 3.285156 -7.757812 C 4.003906 -8.105469 5.039062 -8.410156 6.390625 -8.667969 C 8.214844 -9.011719 9.480469 -9.332031 10.183594 -9.628906 L 10.183594 -10.015625 C 10.183594 -10.765625 10 -11.300781 9.628906 -11.621094 C 9.257812 -11.941406 8.558594 -12.101562 7.53125 -12.101562 C 6.835938 -12.101562 6.292969 -11.964844 5.90625 -11.691406 C 5.515625 -11.417969 5.199219 -10.9375 4.960938 -10.253906 M 10.183594 -7.085938 C 9.683594 -6.917969 8.890625 -6.71875 7.808594 -6.488281 C 6.722656 -6.257812 6.015625 -6.03125 5.683594 -5.808594 C 5.171875 -5.445312 4.917969 -4.988281 4.917969 -4.433594 C 4.917969 -3.886719 5.121094 -3.414062 5.53125 -3.015625 C 5.9375 -2.617188 6.457031 -2.417969 7.085938 -2.417969 C 7.789062 -2.417969 8.460938 -2.648438 9.101562 -3.113281 C 9.570312 -3.464844 9.882812 -3.894531 10.03125 -4.402344 C 10.132812 -4.738281 10.183594 -5.371094 10.183594 -6.308594 Z M 10.183594 -7.085938 "/>
</g>
<g id="glyph-4-2">
<path d="M 2.042969 -16.753906 L 2.042969 -20.367188 L 5.945312 -20.367188 L 5.945312 -16.753906 L 2.042969 -16.753906 M 2.042969 0 L 2.042969 -14.753906 L 5.945312 -14.753906 L 5.945312 0 Z M 2.042969 0 "/>
</g>
<g id="glyph-4-3">
<path d="M 5.78125 0 L 1.875 0 L 1.875 -14.753906 L 5.5 -14.753906 L 5.5 -12.65625 C 6.121094 -13.648438 6.679688 -14.300781 7.175781 -14.617188 C 7.671875 -14.929688 8.234375 -15.085938 8.863281 -15.085938 C 9.753906 -15.085938 10.609375 -14.84375 11.433594 -14.351562 L 10.226562 -10.949219 C 9.566406 -11.375 8.957031 -11.585938 8.390625 -11.585938 C 7.84375 -11.585938 7.382812 -11.4375 7.003906 -11.136719 C 6.621094 -10.835938 6.324219 -10.289062 6.105469 -9.503906 C 5.886719 -8.714844 5.78125 -7.066406 5.78125 -4.558594 Z M 5.78125 0 "/>
</g>
<g id="glyph-5-0">
<path d="M 6.015625 -7.875 L 7.058594 -7.875 L 7.058594 -3.324219 C 7.058594 -2.535156 6.96875 -1.90625 6.789062 -1.4375 C 6.609375 -0.972656 6.285156 -0.59375 5.820312 -0.304688 C 5.351562 -0.0117188 4.738281 0.132812 3.980469 0.132812 C 3.242188 0.132812 2.640625 0.0078125 2.171875 -0.246094 C 1.699219 -0.5 1.367188 -0.871094 1.164062 -1.351562 C 0.964844 -1.832031 0.863281 -2.492188 0.863281 -3.324219 L 0.863281 -7.875 L 1.90625 -7.875 L 1.90625 -3.328125 C 1.90625 -2.644531 1.96875 -2.140625 2.097656 -1.816406 C 2.222656 -1.492188 2.441406 -1.246094 2.753906 -1.070312 C 3.0625 -0.894531 3.441406 -0.804688 3.890625 -0.804688 C 4.65625 -0.804688 5.199219 -0.980469 5.527344 -1.328125 C 5.851562 -1.675781 6.015625 -2.34375 6.015625 -3.328125 L 6.015625 -7.875 M 3.296875 -8.359375 L 4.011719 -9.859375 L 5.28125 -9.859375 L 4.097656 -8.359375 Z M 3.296875 -8.359375 "/>
</g>
<g id="glyph-5-1">
<path d="M 2.835938 -0.863281 L 2.976562 -0.0117188 C 2.703125 0.046875 2.460938 0.0742188 2.246094 0.0742188 C 1.894531 0.0742188 1.621094 0.0195312 1.429688 -0.0898438 C 1.234375 -0.203125 1.097656 -0.347656 1.019531 -0.527344 C 0.941406 -0.710938 0.902344 -1.089844 0.902344 -1.671875 L 0.902344 -4.953125 L 0.195312 -4.953125 L 0.195312 -5.703125 L 0.902344 -5.703125 L 0.902344 -7.117188 L 1.863281 -7.695312 L 1.863281 -5.703125 L 2.835938 -5.703125 L 2.835938 -4.953125 L 1.863281 -4.953125 L 1.863281 -1.617188 C 1.863281 -1.339844 1.878906 -1.164062 1.914062 -1.085938 C 1.949219 -1.007812 2.003906 -0.945312 2.082031 -0.898438 C 2.160156 -0.851562 2.269531 -0.828125 2.410156 -0.828125 C 2.519531 -0.828125 2.660156 -0.839844 2.835938 -0.863281 Z M 2.835938 -0.863281 "/>
</g>
<g id="glyph-5-2">
<path d="M 0.730469 -6.761719 L 0.730469 -7.875 L 1.695312 -7.875 L 1.695312 -6.761719 L 0.730469 -6.761719 M 0.730469 0 L 0.730469 -5.703125 L 1.695312 -5.703125 L 1.695312 0 Z M 0.730469 0 "/>
</g>
<g id="glyph-5-3">
<path d="M 0.703125 0 L 0.703125 -7.875 L 1.671875 -7.875 L 1.671875 0 Z M 0.703125 0 "/>
</g>
<g id="glyph-5-4">
</g>
<g id="glyph-5-5">
<path d="M 4.445312 -2.089844 L 5.398438 -1.964844 C 5.292969 -1.3125 5.027344 -0.796875 4.601562 -0.425781 C 4.171875 -0.0546875 3.648438 0.128906 3.023438 0.128906 C 2.242188 0.128906 1.617188 -0.125 1.140625 -0.636719 C 0.667969 -1.148438 0.429688 -1.878906 0.429688 -2.832031 C 0.429688 -3.445312 0.53125 -3.984375 0.734375 -4.445312 C 0.941406 -4.910156 1.25 -5.253906 1.667969 -5.488281 C 2.085938 -5.71875 2.539062 -5.832031 3.03125 -5.832031 C 3.648438 -5.832031 4.15625 -5.675781 4.550781 -5.363281 C 4.941406 -5.050781 5.195312 -4.605469 5.304688 -4.027344 L 4.367188 -3.882812 C 4.277344 -4.265625 4.117188 -4.554688 3.890625 -4.75 C 3.664062 -4.941406 3.390625 -5.039062 3.066406 -5.039062 C 2.578125 -5.039062 2.183594 -4.863281 1.878906 -4.515625 C 1.574219 -4.164062 1.421875 -3.613281 1.421875 -2.859375 C 1.421875 -2.089844 1.570312 -1.535156 1.863281 -1.1875 C 2.15625 -0.839844 2.539062 -0.664062 3.011719 -0.664062 C 3.394531 -0.664062 3.710938 -0.78125 3.964844 -1.015625 C 4.21875 -1.246094 4.378906 -1.605469 4.445312 -2.089844 Z M 4.445312 -2.089844 "/>
</g>
<g id="glyph-5-6">
<path d="M 0.367188 -2.851562 C 0.367188 -3.910156 0.660156 -4.691406 1.246094 -5.199219 C 1.738281 -5.621094 2.335938 -5.832031 3.039062 -5.832031 C 3.824219 -5.832031 4.464844 -5.574219 4.960938 -5.0625 C 5.460938 -4.546875 5.710938 -3.839844 5.710938 -2.933594 C 5.710938 -2.199219 5.597656 -1.621094 5.378906 -1.199219 C 5.160156 -0.78125 4.839844 -0.453125 4.417969 -0.21875 C 3.996094 0.0117188 3.539062 0.128906 3.039062 0.128906 C 2.242188 0.128906 1.597656 -0.128906 1.105469 -0.640625 C 0.613281 -1.152344 0.367188 -1.890625 0.367188 -2.851562 M 1.359375 -2.851562 C 1.359375 -2.121094 1.519531 -1.574219 1.835938 -1.210938 C 2.15625 -0.847656 2.554688 -0.664062 3.039062 -0.664062 C 3.519531 -0.664062 3.917969 -0.847656 4.238281 -1.214844 C 4.554688 -1.578125 4.714844 -2.136719 4.714844 -2.882812 C 4.714844 -3.589844 4.554688 -4.125 4.234375 -4.488281 C 3.914062 -4.851562 3.515625 -5.03125 3.039062 -5.03125 C 2.554688 -5.03125 2.15625 -4.851562 1.835938 -4.492188 C 1.519531 -4.128906 1.359375 -3.582031 1.359375 -2.851562 Z M 1.359375 -2.851562 "/>
</g>
<g id="glyph-5-7">
<path d="M 0.726562 0 L 0.726562 -5.703125 L 1.589844 -5.703125 L 1.589844 -4.902344 C 1.769531 -5.183594 2.007812 -5.40625 2.304688 -5.578125 C 2.601562 -5.746094 2.941406 -5.832031 3.320312 -5.832031 C 3.742188 -5.832031 4.089844 -5.746094 4.359375 -5.570312 C 4.628906 -5.394531 4.820312 -5.148438 4.929688 -4.835938 C 5.382812 -5.5 5.96875 -5.832031 6.691406 -5.832031 C 7.257812 -5.832031 7.691406 -5.675781 7.996094 -5.363281 C 8.300781 -5.050781 8.453125 -4.566406 8.453125 -3.914062 L 8.453125 0 L 7.492188 0 L 7.492188 -3.59375 C 7.492188 -3.980469 7.460938 -4.257812 7.398438 -4.429688 C 7.335938 -4.597656 7.222656 -4.734375 7.058594 -4.839844 C 6.894531 -4.941406 6.699219 -4.996094 6.476562 -4.996094 C 6.078125 -4.996094 5.742188 -4.863281 5.476562 -4.59375 C 5.214844 -4.328125 5.082031 -3.902344 5.082031 -3.3125 L 5.082031 0 L 4.113281 0 L 4.113281 -3.707031 C 4.113281 -4.136719 4.035156 -4.457031 3.878906 -4.671875 C 3.71875 -4.886719 3.460938 -4.996094 3.105469 -4.996094 C 2.832031 -4.996094 2.582031 -4.921875 2.351562 -4.78125 C 2.117188 -4.636719 1.953125 -4.425781 1.847656 -4.152344 C 1.742188 -3.875 1.691406 -3.480469 1.691406 -2.960938 L 1.691406 0 Z M 0.726562 0 "/>
</g>
<g id="glyph-5-8">
<path d="M 0.714844 0 L 0.714844 -5.703125 L 1.585938 -5.703125 L 1.585938 -4.839844 C 1.804688 -5.242188 2.011719 -5.511719 2.199219 -5.640625 C 2.386719 -5.769531 2.59375 -5.832031 2.820312 -5.832031 C 3.144531 -5.832031 3.476562 -5.730469 3.8125 -5.523438 L 3.480469 -4.625 C 3.242188 -4.765625 3.007812 -4.832031 2.773438 -4.835938 C 2.558594 -4.832031 2.371094 -4.769531 2.203125 -4.644531 C 2.035156 -4.515625 1.914062 -4.339844 1.84375 -4.113281 C 1.734375 -3.769531 1.679688 -3.394531 1.679688 -2.984375 L 1.679688 0 Z M 0.714844 0 "/>
</g>
<g id="glyph-5-9">
<path d="M 4.628906 -1.835938 L 5.628906 -1.714844 C 5.472656 -1.128906 5.179688 -0.675781 4.753906 -0.355469 C 4.328125 -0.03125 3.78125 0.128906 3.121094 0.128906 C 2.285156 0.128906 1.625 -0.128906 1.136719 -0.640625 C 0.648438 -1.15625 0.402344 -1.875 0.402344 -2.804688 C 0.402344 -3.761719 0.648438 -4.507812 1.144531 -5.039062 C 1.636719 -5.566406 2.277344 -5.832031 3.066406 -5.832031 C 3.828125 -5.832031 4.453125 -5.574219 4.9375 -5.054688 C 5.417969 -4.535156 5.660156 -3.804688 5.660156 -2.863281 C 5.660156 -2.804688 5.660156 -2.71875 5.65625 -2.605469 L 1.402344 -2.605469 C 1.4375 -1.976562 1.613281 -1.5 1.933594 -1.164062 C 2.253906 -0.832031 2.648438 -0.664062 3.125 -0.664062 C 3.480469 -0.664062 3.78125 -0.757812 4.035156 -0.945312 C 4.285156 -1.132812 4.484375 -1.429688 4.628906 -1.835938 M 1.457031 -3.398438 L 4.640625 -3.398438 C 4.597656 -3.878906 4.476562 -4.238281 4.273438 -4.480469 C 3.96875 -4.851562 3.566406 -5.039062 3.078125 -5.039062 C 2.632812 -5.039062 2.261719 -4.890625 1.957031 -4.59375 C 1.65625 -4.296875 1.488281 -3.898438 1.457031 -3.398438 Z M 1.457031 -3.398438 "/>
</g>
<g id="glyph-5-10">
<path d="M 4.464844 0 L 4.464844 -0.835938 C 4.019531 -0.195312 3.414062 0.128906 2.652344 0.128906 C 2.316406 0.128906 2.003906 0.0625 1.710938 -0.0625 C 1.417969 -0.195312 1.203125 -0.355469 1.0625 -0.550781 C 0.917969 -0.746094 0.820312 -0.984375 0.761719 -1.265625 C 0.722656 -1.457031 0.703125 -1.757812 0.703125 -2.171875 L 0.703125 -5.703125 L 1.671875 -5.703125 L 1.671875 -2.539062 C 1.671875 -2.035156 1.691406 -1.695312 1.730469 -1.519531 C 1.789062 -1.265625 1.917969 -1.066406 2.117188 -0.921875 C 2.3125 -0.777344 2.554688 -0.703125 2.847656 -0.703125 C 3.136719 -0.703125 3.410156 -0.777344 3.664062 -0.925781 C 3.917969 -1.074219 4.097656 -1.277344 4.203125 -1.535156 C 4.308594 -1.789062 4.359375 -2.160156 4.359375 -2.648438 L 4.359375 -5.703125 L 5.328125 -5.703125 L 5.328125 0 Z M 4.464844 0 "/>
</g>
<g id="glyph-5-11">
<path d="M 0.339844 -1.703125 L 1.292969 -1.851562 C 1.347656 -1.46875 1.496094 -1.175781 1.742188 -0.972656 C 1.988281 -0.769531 2.332031 -0.664062 2.773438 -0.664062 C 3.214844 -0.664062 3.546875 -0.757812 3.757812 -0.9375 C 3.976562 -1.117188 4.082031 -1.332031 4.082031 -1.574219 C 4.082031 -1.792969 3.988281 -1.964844 3.796875 -2.089844 C 3.664062 -2.175781 3.335938 -2.285156 2.808594 -2.417969 C 2.101562 -2.597656 1.609375 -2.75 1.335938 -2.882812 C 1.0625 -3.011719 0.851562 -3.191406 0.710938 -3.425781 C 0.570312 -3.65625 0.5 -3.910156 0.5 -4.1875 C 0.5 -4.445312 0.558594 -4.679688 0.675781 -4.894531 C 0.789062 -5.113281 0.949219 -5.292969 1.148438 -5.4375 C 1.300781 -5.546875 1.503906 -5.640625 1.765625 -5.71875 C 2.023438 -5.792969 2.300781 -5.832031 2.601562 -5.832031 C 3.046875 -5.832031 3.441406 -5.769531 3.777344 -5.640625 C 4.117188 -5.511719 4.367188 -5.335938 4.527344 -5.117188 C 4.6875 -4.894531 4.800781 -4.601562 4.859375 -4.234375 L 3.914062 -4.101562 C 3.871094 -4.398438 3.75 -4.625 3.542969 -4.789062 C 3.335938 -4.957031 3.046875 -5.039062 2.667969 -5.039062 C 2.226562 -5.039062 1.910156 -4.964844 1.71875 -4.816406 C 1.527344 -4.671875 1.433594 -4.5 1.433594 -4.300781 C 1.433594 -4.175781 1.472656 -4.0625 1.550781 -3.964844 C 1.632812 -3.859375 1.753906 -3.773438 1.921875 -3.707031 C 2.019531 -3.671875 2.304688 -3.585938 2.777344 -3.460938 C 3.460938 -3.277344 3.9375 -3.125 4.207031 -3.011719 C 4.480469 -2.894531 4.691406 -2.726562 4.84375 -2.503906 C 5 -2.28125 5.074219 -2.003906 5.074219 -1.675781 C 5.074219 -1.351562 4.980469 -1.050781 4.792969 -0.765625 C 4.605469 -0.480469 4.335938 -0.261719 3.980469 -0.105469 C 3.625 0.0507812 3.222656 0.128906 2.777344 0.128906 C 2.035156 0.128906 1.472656 -0.0234375 1.082031 -0.332031 C 0.695312 -0.640625 0.445312 -1.097656 0.339844 -1.703125 Z M 0.339844 -1.703125 "/>
</g>
<g id="glyph-5-12">
<path d="M 0.0820312 0 L 2.164062 -2.964844 L 0.234375 -5.703125 L 1.445312 -5.703125 L 2.320312 -4.367188 C 2.484375 -4.113281 2.617188 -3.898438 2.71875 -3.726562 C 2.875 -3.964844 3.019531 -4.171875 3.152344 -4.355469 L 4.113281 -5.703125 L 5.269531 -5.703125 L 3.296875 -3.019531 L 5.417969 0 L 4.234375 0 L 3.0625 -1.773438 L 2.75 -2.25 L 1.25 0 Z M 0.0820312 0 "/>
</g>
<g id="glyph-5-13">
<path d="M 0.726562 2.1875 L 0.726562 -5.703125 L 1.605469 -5.703125 L 1.605469 -4.960938 C 1.8125 -5.253906 2.046875 -5.46875 2.308594 -5.617188 C 2.570312 -5.761719 2.886719 -5.832031 3.261719 -5.832031 C 3.746094 -5.832031 4.175781 -5.707031 4.550781 -5.457031 C 4.921875 -5.207031 5.203125 -4.851562 5.390625 -4.394531 C 5.582031 -3.941406 5.675781 -3.4375 5.675781 -2.894531 C 5.675781 -2.3125 5.574219 -1.785156 5.363281 -1.320312 C 5.152344 -0.851562 4.847656 -0.492188 4.449219 -0.246094 C 4.050781 0.00390625 3.632812 0.128906 3.191406 0.128906 C 2.867188 0.128906 2.578125 0.0625 2.324219 -0.0742188 C 2.066406 -0.210938 1.855469 -0.382812 1.691406 -0.589844 L 1.691406 2.1875 L 0.726562 2.1875 M 1.601562 -2.820312 C 1.601562 -2.085938 1.75 -1.542969 2.046875 -1.191406 C 2.34375 -0.839844 2.703125 -0.664062 3.125 -0.664062 C 3.554688 -0.664062 3.921875 -0.847656 4.230469 -1.210938 C 4.535156 -1.574219 4.6875 -2.136719 4.6875 -2.898438 C 4.6875 -3.628906 4.539062 -4.171875 4.242188 -4.53125 C 3.941406 -4.894531 3.585938 -5.074219 3.167969 -5.074219 C 2.757812 -5.074219 2.394531 -4.882812 2.074219 -4.5 C 1.757812 -4.113281 1.601562 -3.554688 1.601562 -2.820312 Z M 1.601562 -2.820312 "/>
</g>
<g id="glyph-5-14">
<path d="M 2.308594 0 L 0.140625 -5.703125 L 1.160156 -5.703125 L 2.382812 -2.289062 C 2.515625 -1.917969 2.640625 -1.535156 2.75 -1.140625 C 2.835938 -1.4375 2.957031 -1.800781 3.109375 -2.222656 L 4.378906 -5.703125 L 5.371094 -5.703125 L 3.210938 0 Z M 2.308594 0 "/>
</g>
<g id="glyph-5-15">
<path d="M 0.976562 0 L 0.976562 -1.101562 L 2.078125 -1.101562 L 2.078125 0 C 2.078125 0.40625 2.007812 0.730469 1.863281 0.980469 C 1.71875 1.230469 1.492188 1.421875 1.179688 1.558594 L 0.914062 1.144531 C 1.117188 1.054688 1.265625 0.921875 1.363281 0.75 C 1.460938 0.574219 1.515625 0.324219 1.523438 0 Z M 0.976562 0 "/>
</g>
<g id="glyph-5-16">
<path d="M 0.726562 0 L 0.726562 -5.703125 L 1.59375 -5.703125 L 1.59375 -4.894531 C 2.015625 -5.519531 2.621094 -5.832031 3.410156 -5.832031 C 3.753906 -5.832031 4.070312 -5.769531 4.359375 -5.648438 C 4.648438 -5.523438 4.863281 -5.363281 5.007812 -5.160156 C 5.148438 -4.960938 5.25 -4.722656 5.304688 -4.445312 C 5.34375 -4.269531 5.359375 -3.953125 5.359375 -3.507812 L 5.359375 0 L 4.394531 0 L 4.394531 -3.46875 C 4.394531 -3.863281 4.355469 -4.15625 4.28125 -4.351562 C 4.207031 -4.546875 4.070312 -4.703125 3.878906 -4.820312 C 3.6875 -4.9375 3.464844 -4.996094 3.207031 -4.996094 C 2.792969 -4.996094 2.4375 -4.863281 2.140625 -4.601562 C 1.839844 -4.339844 1.691406 -3.84375 1.691406 -3.117188 L 1.691406 0 Z M 0.726562 0 "/>
</g>
<g id="glyph-5-17">
<path d="M 0.726562 0 L 0.726562 -7.875 L 1.691406 -7.875 L 1.691406 -5.046875 C 2.144531 -5.570312 2.710938 -5.832031 3.398438 -5.832031 C 3.824219 -5.832031 4.1875 -5.75 4.5 -5.582031 C 4.8125 -5.417969 5.035156 -5.1875 5.167969 -4.894531 C 5.304688 -4.597656 5.371094 -4.171875 5.371094 -3.613281 L 5.371094 0 L 4.40625 0 L 4.40625 -3.613281 C 4.40625 -4.097656 4.300781 -4.449219 4.089844 -4.671875 C 3.878906 -4.890625 3.585938 -5 3.203125 -5 C 2.914062 -5 2.644531 -4.925781 2.394531 -4.777344 C 2.140625 -4.628906 1.960938 -4.425781 1.851562 -4.171875 C 1.746094 -3.917969 1.691406 -3.566406 1.691406 -3.121094 L 1.691406 0 Z M 0.726562 0 "/>
</g>
<g id="glyph-5-18">
<path d="M 4.445312 -0.703125 C 4.089844 -0.398438 3.746094 -0.183594 3.414062 -0.0585938 C 3.082031 0.0664062 2.726562 0.128906 2.347656 0.128906 C 1.71875 0.128906 1.238281 -0.0234375 0.902344 -0.332031 C 0.566406 -0.636719 0.398438 -1.027344 0.398438 -1.503906 C 0.398438 -1.78125 0.460938 -2.039062 0.589844 -2.269531 C 0.714844 -2.5 0.882812 -2.6875 1.085938 -2.824219 C 1.292969 -2.964844 1.523438 -3.070312 1.78125 -3.140625 C 1.972656 -3.191406 2.257812 -3.242188 2.640625 -3.289062 C 3.421875 -3.378906 3.996094 -3.492188 4.367188 -3.621094 C 4.371094 -3.753906 4.371094 -3.835938 4.371094 -3.871094 C 4.371094 -4.265625 4.28125 -4.542969 4.097656 -4.703125 C 3.851562 -4.921875 3.484375 -5.03125 2.996094 -5.03125 C 2.542969 -5.03125 2.207031 -4.953125 1.988281 -4.792969 C 1.773438 -4.632812 1.613281 -4.351562 1.507812 -3.949219 L 0.5625 -4.078125 C 0.648438 -4.480469 0.792969 -4.808594 0.988281 -5.058594 C 1.183594 -5.304688 1.46875 -5.496094 1.84375 -5.632812 C 2.214844 -5.765625 2.644531 -5.832031 3.136719 -5.832031 C 3.625 -5.832031 4.019531 -5.777344 4.324219 -5.660156 C 4.628906 -5.546875 4.851562 -5.402344 4.996094 -5.230469 C 5.136719 -5.054688 5.238281 -4.835938 5.296875 -4.570312 C 5.328125 -4.40625 5.34375 -4.109375 5.34375 -3.679688 L 5.34375 -2.390625 C 5.34375 -1.492188 5.363281 -0.921875 5.40625 -0.683594 C 5.445312 -0.445312 5.527344 -0.21875 5.648438 0 L 4.640625 0 C 4.539062 -0.199219 4.476562 -0.433594 4.445312 -0.703125 M 4.367188 -2.863281 C 4.015625 -2.71875 3.488281 -2.597656 2.789062 -2.496094 C 2.390625 -2.441406 2.109375 -2.375 1.945312 -2.304688 C 1.78125 -2.234375 1.652344 -2.128906 1.5625 -1.988281 C 1.472656 -1.851562 1.429688 -1.699219 1.429688 -1.53125 C 1.429688 -1.273438 1.527344 -1.058594 1.722656 -0.886719 C 1.917969 -0.714844 2.203125 -0.628906 2.578125 -0.628906 C 2.949219 -0.628906 3.28125 -0.710938 3.570312 -0.871094 C 3.863281 -1.035156 4.074219 -1.257812 4.210938 -1.542969 C 4.316406 -1.761719 4.367188 -2.082031 4.367188 -2.507812 Z M 4.367188 -2.863281 "/>
</g>
<g id="glyph-6-0">
<path d="M 2.667969 0 L 0.160156 -9.449219 L 1.445312 -9.449219 L 2.882812 -3.253906 C 3.035156 -2.605469 3.167969 -1.960938 3.28125 -1.320312 C 3.519531 -2.332031 3.664062 -2.914062 3.707031 -3.066406 L 5.503906 -9.449219 L 7.011719 -9.449219 L 8.367188 -4.667969 C 8.707031 -3.480469 8.949219 -2.367188 9.101562 -1.320312 C 9.222656 -1.917969 9.378906 -2.605469 9.570312 -3.378906 L 11.054688 -9.449219 L 12.3125 -9.449219 L 9.71875 0 L 8.515625 0 L 6.523438 -7.199219 C 6.355469 -7.800781 6.257812 -8.171875 6.226562 -8.308594 C 6.128906 -7.875 6.035156 -7.503906 5.949219 -7.199219 L 3.945312 0 Z M 2.667969 0 "/>
</g>
<g id="glyph-6-1">
<path d="M 0.4375 -3.421875 C 0.4375 -4.691406 0.789062 -5.628906 1.496094 -6.238281 C 2.082031 -6.746094 2.800781 -7 3.648438 -7 C 4.589844 -7 5.359375 -6.691406 5.957031 -6.074219 C 6.550781 -5.457031 6.851562 -4.605469 6.851562 -3.519531 C 6.851562 -2.636719 6.71875 -1.945312 6.453125 -1.441406 C 6.191406 -0.9375 5.804688 -0.542969 5.300781 -0.265625 C 4.796875 0.015625 4.246094 0.15625 3.648438 0.15625 C 2.691406 0.15625 1.914062 -0.152344 1.324219 -0.765625 C 0.734375 -1.382812 0.4375 -2.265625 0.4375 -3.421875 M 1.628906 -3.421875 C 1.628906 -2.546875 1.820312 -1.890625 2.203125 -1.453125 C 2.585938 -1.015625 3.066406 -0.800781 3.648438 -0.800781 C 4.222656 -0.800781 4.703125 -1.019531 5.085938 -1.457031 C 5.46875 -1.894531 5.660156 -2.5625 5.660156 -3.460938 C 5.660156 -4.308594 5.464844 -4.949219 5.082031 -5.386719 C 4.699219 -5.820312 4.21875 -6.039062 3.648438 -6.039062 C 3.066406 -6.039062 2.585938 -5.820312 2.203125 -5.386719 C 1.820312 -4.953125 1.628906 -4.300781 1.628906 -3.421875 Z M 1.628906 -3.421875 "/>
</g>
<g id="glyph-6-2">
<path d="M 0.855469 0 L 0.855469 -6.84375 L 1.902344 -6.84375 L 1.902344 -5.808594 C 2.167969 -6.292969 2.414062 -6.613281 2.640625 -6.765625 C 2.863281 -6.921875 3.113281 -7 3.382812 -7 C 3.773438 -7 4.171875 -6.875 4.578125 -6.625 L 4.175781 -5.550781 C 3.894531 -5.71875 3.609375 -5.800781 3.324219 -5.800781 C 3.070312 -5.800781 2.84375 -5.722656 2.640625 -5.570312 C 2.441406 -5.417969 2.296875 -5.207031 2.210938 -4.9375 C 2.082031 -4.523438 2.015625 -4.074219 2.015625 -3.582031 L 2.015625 0 Z M 0.855469 0 "/>
</g>
<g id="glyph-6-3">
<path d="M 5.3125 0 L 5.3125 -0.863281 C 4.875 -0.183594 4.238281 0.15625 3.398438 0.15625 C 2.851562 0.15625 2.347656 0.00390625 1.890625 -0.296875 C 1.433594 -0.597656 1.078125 -1.015625 0.828125 -1.554688 C 0.578125 -2.097656 0.453125 -2.714844 0.453125 -3.414062 C 0.453125 -4.097656 0.566406 -4.71875 0.792969 -5.277344 C 1.019531 -5.832031 1.363281 -6.257812 1.816406 -6.554688 C 2.273438 -6.851562 2.78125 -7 3.34375 -7 C 3.757812 -7 4.125 -6.914062 4.445312 -6.738281 C 4.769531 -6.566406 5.03125 -6.335938 5.234375 -6.058594 L 5.234375 -9.449219 L 6.386719 -9.449219 L 6.386719 0 L 5.3125 0 M 1.644531 -3.414062 C 1.644531 -2.539062 1.828125 -1.882812 2.199219 -1.449219 C 2.566406 -1.015625 3.003906 -0.800781 3.507812 -0.800781 C 4.011719 -0.800781 4.445312 -1.007812 4.796875 -1.421875 C 5.152344 -1.835938 5.332031 -2.46875 5.332031 -3.320312 C 5.332031 -4.257812 5.148438 -4.945312 4.789062 -5.382812 C 4.429688 -5.820312 3.984375 -6.039062 3.453125 -6.039062 C 2.9375 -6.039062 2.507812 -5.828125 2.164062 -5.40625 C 1.816406 -4.988281 1.644531 -4.324219 1.644531 -3.414062 Z M 1.644531 -3.414062 "/>
</g>
<g id="glyph-6-4">
</g>
<g id="glyph-6-5">
<path d="M 5.335938 -2.507812 L 6.476562 -2.359375 C 6.351562 -1.574219 6.035156 -0.957031 5.519531 -0.511719 C 5.007812 -0.0664062 4.375 0.15625 3.628906 0.15625 C 2.691406 0.15625 1.9375 -0.152344 1.371094 -0.765625 C 0.800781 -1.375 0.515625 -2.253906 0.515625 -3.398438 C 0.515625 -4.136719 0.636719 -4.78125 0.882812 -5.335938 C 1.128906 -5.890625 1.5 -6.308594 2 -6.582031 C 2.5 -6.859375 3.046875 -7 3.636719 -7 C 4.378906 -7 4.988281 -6.8125 5.460938 -6.4375 C 5.933594 -6.058594 6.234375 -5.527344 6.367188 -4.835938 L 5.238281 -4.660156 C 5.132812 -5.121094 4.941406 -5.464844 4.667969 -5.699219 C 4.398438 -5.929688 4.066406 -6.046875 3.679688 -6.046875 C 3.097656 -6.046875 2.621094 -5.835938 2.257812 -5.417969 C 1.890625 -5 1.707031 -4.335938 1.707031 -3.429688 C 1.707031 -2.507812 1.882812 -1.839844 2.238281 -1.425781 C 2.589844 -1.007812 3.046875 -0.800781 3.617188 -0.800781 C 4.070312 -0.800781 4.453125 -0.9375 4.757812 -1.21875 C 5.0625 -1.496094 5.253906 -1.925781 5.335938 -2.507812 Z M 5.335938 -2.507812 "/>
</g>
<g id="glyph-6-6">
<path d="M 0.84375 0 L 0.84375 -9.449219 L 2.003906 -9.449219 L 2.003906 0 Z M 0.84375 0 "/>
</g>
<g id="glyph-6-7">
<path d="M 5.355469 0 L 5.355469 -1.003906 C 4.824219 -0.230469 4.097656 0.15625 3.183594 0.15625 C 2.78125 0.15625 2.402344 0.078125 2.054688 -0.078125 C 1.703125 -0.230469 1.441406 -0.425781 1.273438 -0.660156 C 1.101562 -0.894531 0.984375 -1.183594 0.914062 -1.519531 C 0.867188 -1.75 0.84375 -2.109375 0.84375 -2.605469 L 0.84375 -6.84375 L 2.003906 -6.84375 L 2.003906 -3.046875 C 2.003906 -2.441406 2.027344 -2.035156 2.074219 -1.824219 C 2.148438 -1.519531 2.304688 -1.28125 2.539062 -1.105469 C 2.777344 -0.929688 3.066406 -0.84375 3.414062 -0.84375 C 3.765625 -0.84375 4.089844 -0.933594 4.394531 -1.113281 C 4.699219 -1.289062 4.917969 -1.53125 5.042969 -1.839844 C 5.171875 -2.148438 5.234375 -2.59375 5.234375 -3.175781 L 5.234375 -6.84375 L 6.394531 -6.84375 L 6.394531 0 Z M 5.355469 0 "/>
</g>
</g>
<clipPath id="clip-0">
<path clip-rule="nonzero" d="M 65.425781 37.375 L 142 37.375 L 142 74 L 65.425781 74 Z M 65.425781 37.375 "/>
</clipPath>
<clipPath id="clip-1">
<path clip-rule="nonzero" d="M 291 47 L 452.578125 47 L 452.578125 85 L 291 85 Z M 291 47 "/>
</clipPath>
<clipPath id="clip-2">
<path clip-rule="nonzero" d="M 383 280 L 452.578125 280 L 452.578125 328 L 383 328 Z M 383 280 "/>
</clipPath>
</defs>
<rect x="-51.8" y="-36" width="621.6" height="432" fill="rgb(100%, 100%, 100%)" fill-opacity="1"/>
<g clip-path="url(#clip-0)">
<g fill="rgb(26.666667%, 36.862745%, 27.45098%)" fill-opacity="1">
<use xlink:href="#glyph-0-0" x="21.425781" y="71.886719"/>
<use xlink:href="#glyph-0-1" x="36.445446" y="71.886719"/>
<use xlink:href="#glyph-0-2" x="69.467593" y="71.886719"/>
<use xlink:href="#glyph-0-3" x="99.53332" y="71.886719"/>
<use xlink:href="#glyph-0-4" x="129.599047" y="71.886719"/>
</g>
</g>
<g clip-path="url(#clip-1)">
<g fill="rgb(72.156863%, 50.980392%, 15.686275%)" fill-opacity="1">
<use xlink:href="#glyph-1-0" x="289.375" y="83.292969"/>
<use xlink:href="#glyph-1-1" x="321.701977" y="83.292969"/>
<use xlink:href="#glyph-1-2" x="340.563324" y="83.292969"/>
<use xlink:href="#glyph-1-3" x="367.518249" y="83.292969"/>
<use xlink:href="#glyph-1-4" x="410.612996" y="83.292969"/>
<use xlink:href="#glyph-1-5" x="424.078626" y="83.292969"/>
<use xlink:href="#glyph-1-3" x="453.684078" y="83.292969"/>
</g>
</g>
<g fill="rgb(51.372549%, 57.647059%, 77.647059%)" fill-opacity="1">
<use xlink:href="#glyph-2-0" x="88.609375" y="186.730469"/>
<use xlink:href="#glyph-2-1" x="119.659381" y="191.094263"/>
<use xlink:href="#glyph-2-2" x="145.54954" y="194.732887"/>
<use xlink:href="#glyph-2-3" x="163.665832" y="197.278966"/>
<use xlink:href="#glyph-2-4" x="189.55599" y="200.91759"/>
<use xlink:href="#glyph-2-5" x="202.489704" y="202.735305"/>
<use xlink:href="#glyph-2-6" x="238.699558" y="207.824268"/>
<use xlink:href="#glyph-2-6" x="267.135544" y="211.820686"/>
<use xlink:href="#glyph-2-7" x="295.571531" y="215.817103"/>
</g>
<g clip-path="url(#clip-2)">
<g fill="rgb(78.823529%, 42.352941%, 35.686275%)" fill-opacity="1">
<use xlink:href="#glyph-3-0" x="387.527344" y="326.433594"/>
<use xlink:href="#glyph-3-1" x="417.297464" y="321.184318"/>
<use xlink:href="#glyph-3-1" x="440.676259" y="317.062006"/>
<use xlink:href="#glyph-3-2" x="464.055054" y="312.939694"/>
</g>
</g>
<g fill="rgb(54.117647%, 49.019608%, 72.156863%)" fill-opacity="1">
<use xlink:href="#glyph-4-0" x="82.074219" y="356.019531"/>
<use xlink:href="#glyph-4-1" x="99.454296" y="356.019531"/>
<use xlink:href="#glyph-4-2" x="115.278363" y="356.019531"/>
<use xlink:href="#glyph-4-3" x="123.18345" y="356.019531"/>
</g>
<g fill="rgb(0%, 0%, 0%)" fill-opacity="1">
<use xlink:href="#glyph-5-0" x="65.425781" y="34.058594"/>
<use xlink:href="#glyph-5-1" x="73.369629" y="34.058594"/>
<use xlink:href="#glyph-5-2" x="76.425781" y="34.058594"/>
<use xlink:href="#glyph-5-3" x="78.869629" y="34.058594"/>
<use xlink:href="#glyph-5-4" x="81.313477" y="34.058594"/>
<use xlink:href="#glyph-5-5" x="84.369629" y="34.058594"/>
<use xlink:href="#glyph-5-6" x="89.869629" y="34.058594"/>
<use xlink:href="#glyph-5-7" x="95.987305" y="34.058594"/>
<use xlink:href="#glyph-5-6" x="105.150391" y="34.058594"/>
<use xlink:href="#glyph-5-4" x="111.268066" y="34.058594"/>
<use xlink:href="#glyph-5-8" x="114.324219" y="34.058594"/>
<use xlink:href="#glyph-5-9" x="117.987305" y="34.058594"/>
<use xlink:href="#glyph-5-5" x="124.10498" y="34.058594"/>
<use xlink:href="#glyph-5-10" x="129.60498" y="34.058594"/>
<use xlink:href="#glyph-5-8" x="135.722656" y="34.058594"/>
<use xlink:href="#glyph-5-11" x="139.385742" y="34.058594"/>
<use xlink:href="#glyph-5-6" x="144.885742" y="34.058594"/>
<use xlink:href="#glyph-5-4" x="151.003418" y="34.058594"/>
<use xlink:href="#glyph-5-9" x="154.05957" y="34.058594"/>
<use xlink:href="#glyph-5-12" x="160.177246" y="34.058594"/>
<use xlink:href="#glyph-5-13" x="165.677246" y="34.058594"/>
<use xlink:href="#glyph-5-8" x="171.794922" y="34.058594"/>
<use xlink:href="#glyph-5-9" x="175.458008" y="34.058594"/>
<use xlink:href="#glyph-5-11" x="181.575684" y="34.058594"/>
<use xlink:href="#glyph-5-2" x="187.075684" y="34.058594"/>
<use xlink:href="#glyph-5-14" x="189.519531" y="34.058594"/>
<use xlink:href="#glyph-5-6" x="195.019531" y="34.058594"/>
<use xlink:href="#glyph-5-15" x="201.137207" y="34.058594"/>
<use xlink:href="#glyph-5-4" x="204.193359" y="34.058594"/>
<use xlink:href="#glyph-5-16" x="207.249512" y="34.058594"/>
<use xlink:href="#glyph-5-6" x="213.367188" y="34.058594"/>
<use xlink:href="#glyph-5-4" x="219.484863" y="34.058594"/>
<use xlink:href="#glyph-5-5" x="222.541016" y="34.058594"/>
<use xlink:href="#glyph-5-6" x="228.041016" y="34.058594"/>
<use xlink:href="#glyph-5-7" x="234.158691" y="34.058594"/>
<use xlink:href="#glyph-5-6" x="243.321777" y="34.058594"/>
<use xlink:href="#glyph-5-4" x="249.439453" y="34.058594"/>
<use xlink:href="#glyph-5-17" x="252.495605" y="34.058594"/>
<use xlink:href="#glyph-5-9" x="258.613281" y="34.058594"/>
<use xlink:href="#glyph-5-8" x="264.730957" y="34.058594"/>
<use xlink:href="#glyph-5-8" x="268.394043" y="34.058594"/>
<use xlink:href="#glyph-5-18" x="272.057129" y="34.058594"/>
<use xlink:href="#glyph-5-7" x="278.174805" y="34.058594"/>
<use xlink:href="#glyph-5-2" x="287.337891" y="34.058594"/>
<use xlink:href="#glyph-5-9" x="289.781738" y="34.058594"/>
<use xlink:href="#glyph-5-16" x="295.899414" y="34.058594"/>
<use xlink:href="#glyph-5-1" x="302.01709" y="34.058594"/>
<use xlink:href="#glyph-5-18" x="305.073242" y="34.058594"/>
<use xlink:href="#glyph-5-4" x="311.190918" y="34.058594"/>
<use xlink:href="#glyph-5-13" x="314.24707" y="34.058594"/>
<use xlink:href="#glyph-5-8" x="320.364746" y="34.058594"/>
<use xlink:href="#glyph-5-9" x="324.027832" y="34.058594"/>
<use xlink:href="#glyph-5-5" x="330.145508" y="34.058594"/>
<use xlink:href="#glyph-5-2" x="335.645508" y="34.058594"/>
<use xlink:href="#glyph-5-11" x="338.089355" y="34.058594"/>
<use xlink:href="#glyph-5-18" x="343.589355" y="34.058594"/>
</g>
<g fill="rgb(0%, 0%, 0%)" fill-opacity="1">
<use xlink:href="#glyph-6-0" x="65.425781" y="15.929688"/>
<use xlink:href="#glyph-6-1" x="77.88457" y="15.929688"/>
<use xlink:href="#glyph-6-2" x="85.225781" y="15.929688"/>
<use xlink:href="#glyph-6-3" x="89.621484" y="15.929688"/>
<use xlink:href="#glyph-6-4" x="96.962695" y="15.929688"/>
<use xlink:href="#glyph-6-5" x="100.630078" y="15.929688"/>
<use xlink:href="#glyph-6-6" x="107.230078" y="15.929688"/>
<use xlink:href="#glyph-6-1" x="110.162695" y="15.929688"/>
<use xlink:href="#glyph-6-7" x="117.503906" y="15.929688"/>
<use xlink:href="#glyph-6-3" x="124.845117" y="15.929688"/>
</g>
</svg>
