<?xml version="1.0" encoding="UTF-8"?>
<svg xmlns="http://www.w3.org/2000/svg" xmlns:xlink="http://www.w3.org/1999/xlink" width="518pt" height="374pt" viewBox="0 0 518 374">
<defs>
<g>
<g id="glyph-0-0">
<path d="M 4.832031 -2.394531 L 6.109375 -1.992188 C 5.914062 -1.28125 5.585938 -0.753906 5.132812 -0.40625 C 4.675781 -0.0625 4.101562 0.109375 3.402344 0.109375 C 2.535156 0.109375 1.824219 -0.183594 1.265625 -0.777344 C 0.710938 -1.367188 0.429688 -2.175781 0.429688 -3.199219 C 0.429688 -4.285156 0.710938 -5.128906 1.269531 -5.726562 C 1.832031 -6.328125 2.566406 -6.628906 3.480469 -6.628906 C 4.277344 -6.628906 4.925781 -6.394531 5.421875 -5.921875 C 5.71875 -5.644531 5.941406 -5.242188 6.089844 -4.722656 L 4.789062 -4.410156 C 4.710938 -4.75 4.550781 -5.015625 4.304688 -5.210938 C 4.0625 -5.40625 3.765625 -5.503906 3.414062 -5.503906 C 2.929688 -5.503906 2.539062 -5.332031 2.238281 -4.984375 C 1.9375 -4.636719 1.789062 -4.074219 1.789062 -3.296875 C 1.789062 -2.476562 1.933594 -1.886719 2.230469 -1.539062 C 2.527344 -1.1875 2.914062 -1.011719 3.386719 -1.011719 C 3.738281 -1.011719 4.039062 -1.125 4.289062 -1.347656 C 4.542969 -1.570312 4.722656 -1.917969 4.832031 -2.394531 Z M 4.832031 -2.394531 "/>
</g>
<g id="glyph-0-1">
<path d="M 0.652344 0 L 0.652344 -6.515625 L 1.902344 -6.515625 L 1.902344 0 Z M 0.652344 0 "/>
</g>
<g id="glyph-0-2">
<path d="M 0.652344 -5.363281 L 0.652344 -6.515625 L 1.902344 -6.515625 L 1.902344 -5.363281 L 0.652344 -5.363281 M 0.652344 0 L 0.652344 -4.722656 L 1.902344 -4.722656 L 1.902344 0 Z M 0.652344 0 "/>
</g>
<g id="glyph-0-3">
<path d="M 3.386719 -1.503906 L 4.632812 -1.292969 C 4.472656 -0.835938 4.21875 -0.488281 3.875 -0.25 C 3.527344 -0.0117188 3.097656 0.105469 2.578125 0.105469 C 1.757812 0.105469 1.148438 -0.160156 0.753906 -0.699219 C 0.445312 -1.128906 0.289062 -1.671875 0.289062 -2.324219 C 0.289062 -3.109375 0.492188 -3.71875 0.902344 -4.164062 C 1.3125 -4.605469 1.828125 -4.828125 2.453125 -4.828125 C 3.15625 -4.828125 3.710938 -4.597656 4.117188 -4.132812 C 4.523438 -3.667969 4.71875 -2.957031 4.699219 -2 L 1.570312 -2 C 1.578125 -1.628906 1.679688 -1.34375 1.871094 -1.136719 C 2.0625 -0.929688 2.304688 -0.828125 2.59375 -0.828125 C 2.789062 -0.828125 2.953125 -0.878906 3.085938 -0.988281 C 3.21875 -1.09375 3.320312 -1.265625 3.386719 -1.503906 M 3.457031 -2.765625 C 3.449219 -3.125 3.355469 -3.402344 3.179688 -3.589844 C 3 -3.777344 2.785156 -3.871094 2.53125 -3.871094 C 2.257812 -3.871094 2.03125 -3.773438 1.855469 -3.574219 C 1.675781 -3.375 1.589844 -3.105469 1.589844 -2.765625 Z M 3.457031 -2.765625 "/>
</g>
<g id="glyph-0-4">
<path d="M 4.949219 0 L 3.699219 0 L 3.699219 -2.410156 C 3.699219 -2.917969 3.671875 -3.25 3.617188 -3.398438 C 3.566406 -3.546875 3.480469 -3.664062 3.359375 -3.746094 C 3.238281 -3.832031 3.09375 -3.871094 2.925781 -3.871094 C 2.707031 -3.871094 2.515625 -3.8125 2.34375 -3.695312 C 2.171875 -3.574219 2.054688 -3.417969 1.988281 -3.222656 C 1.925781 -3.027344 1.894531 -2.664062 1.894531 -2.136719 L 1.894531 0 L 0.644531 0 L 0.644531 -4.722656 L 1.804688 -4.722656 L 1.804688 -4.027344 C 2.21875 -4.5625 2.734375 -4.828125 3.359375 -4.828125 C 3.636719 -4.828125 3.886719 -4.777344 4.117188 -4.679688 C 4.34375 -4.578125 4.519531 -4.453125 4.632812 -4.300781 C 4.75 -4.144531 4.832031 -3.96875 4.878906 -3.773438 C 4.925781 -3.578125 4.949219 -3.296875 4.949219 -2.933594 Z M 4.949219 0 "/>
</g>
<g id="glyph-0-5">
<path d="M 2.820312 -4.722656 L 2.820312 -3.726562 L 1.964844 -3.726562 L 1.964844 -1.824219 C 1.964844 -1.4375 1.972656 -1.214844 1.988281 -1.148438 C 2.003906 -1.085938 2.042969 -1.03125 2.101562 -0.992188 C 2.160156 -0.949219 2.230469 -0.929688 2.3125 -0.929688 C 2.425781 -0.929688 2.59375 -0.96875 2.8125 -1.050781 L 2.921875 -0.078125 C 2.628906 0.0429688 2.300781 0.105469 1.933594 0.105469 C 1.707031 0.105469 1.503906 0.0703125 1.324219 -0.0078125 C 1.144531 -0.0820312 1.011719 -0.179688 0.925781 -0.300781 C 0.84375 -0.421875 0.785156 -0.582031 0.75 -0.785156 C 0.726562 -0.933594 0.710938 -1.226562 0.710938 -1.667969 L 0.710938 -3.726562 L 0.136719 -3.726562 L 0.136719 -4.722656 L 0.710938 -4.722656 L 0.710938 -5.660156 L 1.964844 -6.386719 L 1.964844 -4.722656 Z M 2.820312 -4.722656 "/>
</g>
<g id="glyph-0-6">
<path d="M 0.214844 -1.347656 L 1.46875 -1.539062 C 1.519531 -1.296875 1.628906 -1.109375 1.792969 -0.984375 C 1.953125 -0.859375 2.183594 -0.796875 2.476562 -0.796875 C 2.800781 -0.796875 3.042969 -0.855469 3.207031 -0.972656 C 3.316406 -1.054688 3.371094 -1.167969 3.371094 -1.308594 C 3.371094 -1.402344 3.339844 -1.480469 3.28125 -1.542969 C 3.21875 -1.601562 3.078125 -1.65625 2.863281 -1.707031 C 1.855469 -1.929688 1.214844 -2.132812 0.945312 -2.316406 C 0.574219 -2.570312 0.386719 -2.925781 0.386719 -3.378906 C 0.386719 -3.789062 0.546875 -4.132812 0.871094 -4.410156 C 1.195312 -4.6875 1.695312 -4.828125 2.375 -4.828125 C 3.019531 -4.828125 3.5 -4.722656 3.8125 -4.511719 C 4.128906 -4.300781 4.34375 -3.992188 4.464844 -3.578125 L 3.285156 -3.359375 C 3.234375 -3.542969 3.140625 -3.683594 3 -3.785156 C 2.859375 -3.882812 2.65625 -3.929688 2.394531 -3.929688 C 2.066406 -3.929688 1.832031 -3.882812 1.6875 -3.792969 C 1.59375 -3.726562 1.546875 -3.640625 1.546875 -3.539062 C 1.546875 -3.449219 1.589844 -3.375 1.671875 -3.3125 C 1.785156 -3.230469 2.171875 -3.113281 2.839844 -2.960938 C 3.503906 -2.808594 3.96875 -2.625 4.230469 -2.40625 C 4.492188 -2.183594 4.625 -1.875 4.625 -1.476562 C 4.625 -1.042969 4.441406 -0.671875 4.082031 -0.359375 C 3.71875 -0.0507812 3.183594 0.105469 2.476562 0.105469 C 1.832031 0.105469 1.324219 -0.0234375 0.949219 -0.285156 C 0.574219 -0.546875 0.328125 -0.898438 0.214844 -1.347656 Z M 0.214844 -1.347656 "/>
</g>
<g id="glyph-0-7">
<path d="M 0.394531 -3.21875 C 0.394531 -3.882812 0.496094 -4.441406 0.695312 -4.890625 C 0.839844 -5.222656 1.042969 -5.519531 1.300781 -5.785156 C 1.558594 -6.046875 1.835938 -6.242188 2.144531 -6.371094 C 2.550781 -6.542969 3.015625 -6.628906 3.546875 -6.628906 C 4.507812 -6.628906 5.277344 -6.332031 5.851562 -5.734375 C 6.429688 -5.140625 6.71875 -4.3125 6.71875 -3.25 C 6.71875 -2.199219 6.429688 -1.375 5.859375 -0.78125 C 5.289062 -0.1875 4.523438 0.109375 3.566406 0.109375 C 2.597656 0.109375 1.824219 -0.183594 1.253906 -0.777344 C 0.683594 -1.367188 0.394531 -2.179688 0.394531 -3.21875 M 1.75 -3.261719 C 1.75 -2.523438 1.921875 -1.964844 2.261719 -1.585938 C 2.605469 -1.203125 3.035156 -1.011719 3.5625 -1.011719 C 4.085938 -1.011719 4.515625 -1.203125 4.851562 -1.582031 C 5.1875 -1.957031 5.355469 -2.523438 5.355469 -3.28125 C 5.355469 -4.027344 5.195312 -4.585938 4.867188 -4.953125 C 4.539062 -5.320312 4.101562 -5.503906 3.5625 -5.503906 C 3.019531 -5.503906 2.582031 -5.316406 2.25 -4.945312 C 1.917969 -4.574219 1.75 -4.011719 1.75 -3.261719 Z M 1.75 -3.261719 "/>
</g>
<g id="glyph-0-8">
<path d="M 0.617188 -4.722656 L 1.78125 -4.722656 L 1.78125 -4.027344 C 1.933594 -4.265625 2.136719 -4.457031 2.394531 -4.605469 C 2.652344 -4.753906 2.941406 -4.828125 3.253906 -4.828125 C 3.800781 -4.828125 4.269531 -4.613281 4.648438 -4.183594 C 5.03125 -3.753906 5.222656 -3.15625 5.222656 -2.386719 C 5.222656 -1.597656 5.03125 -0.984375 4.644531 -0.550781 C 4.261719 -0.113281 3.792969 0.105469 3.246094 0.105469 C 2.984375 0.105469 2.75 0.0546875 2.535156 -0.0507812 C 2.324219 -0.152344 2.101562 -0.332031 1.867188 -0.582031 L 1.867188 1.796875 L 0.617188 1.796875 L 0.617188 -4.722656 M 1.855469 -2.441406 C 1.855469 -1.910156 1.960938 -1.519531 2.167969 -1.265625 C 2.378906 -1.011719 2.636719 -0.882812 2.9375 -0.882812 C 3.230469 -0.882812 3.46875 -1 3.664062 -1.234375 C 3.855469 -1.464844 3.953125 -1.847656 3.953125 -2.378906 C 3.953125 -2.875 3.851562 -3.242188 3.65625 -3.480469 C 3.457031 -3.722656 3.210938 -3.839844 2.917969 -3.839844 C 2.609375 -3.839844 2.359375 -3.722656 2.15625 -3.488281 C 1.953125 -3.253906 1.855469 -2.902344 1.855469 -2.441406 Z M 1.855469 -2.441406 "/>
</g>
<g id="glyph-0-9">
<path d="M 1.847656 0 L 0.601562 0 L 0.601562 -4.722656 L 1.761719 -4.722656 L 1.761719 -4.050781 C 1.960938 -4.367188 2.136719 -4.574219 2.296875 -4.675781 C 2.453125 -4.777344 2.636719 -4.828125 2.835938 -4.828125 C 3.121094 -4.828125 3.394531 -4.75 3.660156 -4.59375 L 3.273438 -3.503906 C 3.0625 -3.640625 2.867188 -3.707031 2.683594 -3.707031 C 2.511719 -3.707031 2.363281 -3.660156 2.242188 -3.5625 C 2.117188 -3.46875 2.023438 -3.292969 1.953125 -3.039062 C 1.882812 -2.789062 1.847656 -2.261719 1.847656 -1.457031 Z M 1.847656 0 "/>
</g>
<g id="glyph-0-10">
<path d="M 1.585938 -3.28125 L 0.453125 -3.484375 C 0.582031 -3.941406 0.800781 -4.28125 1.113281 -4.5 C 1.421875 -4.71875 1.886719 -4.828125 2.5 -4.828125 C 3.054688 -4.828125 3.46875 -4.761719 3.742188 -4.628906 C 4.015625 -4.5 4.207031 -4.332031 4.320312 -4.128906 C 4.429688 -3.925781 4.484375 -3.550781 4.484375 -3.011719 L 4.472656 -1.550781 C 4.472656 -1.136719 4.492188 -0.832031 4.53125 -0.632812 C 4.574219 -0.4375 4.648438 -0.226562 4.757812 0 L 3.519531 0 C 3.488281 -0.0820312 3.449219 -0.207031 3.402344 -0.367188 C 3.378906 -0.441406 3.367188 -0.492188 3.355469 -0.515625 C 3.144531 -0.308594 2.914062 -0.152344 2.671875 -0.0507812 C 2.429688 0.0546875 2.167969 0.105469 1.894531 0.105469 C 1.40625 0.105469 1.023438 -0.0234375 0.746094 -0.289062 C 0.464844 -0.554688 0.324219 -0.886719 0.324219 -1.289062 C 0.324219 -1.554688 0.386719 -1.792969 0.515625 -2.003906 C 0.644531 -2.210938 0.820312 -2.371094 1.050781 -2.484375 C 1.28125 -2.59375 1.613281 -2.691406 2.046875 -2.773438 C 2.628906 -2.882812 3.035156 -2.984375 3.257812 -3.082031 L 3.257812 -3.207031 C 3.257812 -3.445312 3.199219 -3.617188 3.082031 -3.71875 C 2.960938 -3.820312 2.738281 -3.871094 2.410156 -3.871094 C 2.1875 -3.871094 2.015625 -3.828125 1.890625 -3.742188 C 1.765625 -3.652344 1.664062 -3.5 1.585938 -3.28125 M 3.257812 -2.265625 C 3.097656 -2.214844 2.84375 -2.148438 2.5 -2.074219 C 2.152344 -2.003906 1.925781 -1.929688 1.816406 -1.859375 C 1.65625 -1.742188 1.574219 -1.597656 1.574219 -1.417969 C 1.574219 -1.242188 1.640625 -1.09375 1.769531 -0.964844 C 1.898438 -0.835938 2.066406 -0.773438 2.265625 -0.773438 C 2.492188 -0.773438 2.707031 -0.847656 2.910156 -0.996094 C 3.0625 -1.109375 3.164062 -1.246094 3.210938 -1.410156 C 3.242188 -1.515625 3.257812 -1.71875 3.257812 -2.019531 Z M 3.257812 -2.265625 "/>
</g>
<g id="glyph-0-11">
<path d="M 4.769531 -3.324219 L 3.539062 -3.101562 C 3.496094 -3.347656 3.402344 -3.535156 3.257812 -3.660156 C 3.109375 -3.785156 2.917969 -3.84375 2.683594 -3.84375 C 2.375 -3.84375 2.125 -3.738281 1.941406 -3.523438 C 1.753906 -3.308594 1.664062 -2.949219 1.664062 -2.445312 C 1.664062 -1.886719 1.757812 -1.488281 1.945312 -1.257812 C 2.132812 -1.027344 2.386719 -0.910156 2.703125 -0.910156 C 2.941406 -0.910156 3.132812 -0.980469 3.285156 -1.113281 C 3.4375 -1.25 3.542969 -1.480469 3.605469 -1.808594 L 4.832031 -1.601562 C 4.703125 -1.039062 4.460938 -0.613281 4.097656 -0.324219 C 3.738281 -0.0351562 3.253906 0.105469 2.644531 0.105469 C 1.953125 0.105469 1.402344 -0.109375 0.992188 -0.546875 C 0.582031 -0.984375 0.378906 -1.585938 0.378906 -2.355469 C 0.378906 -3.136719 0.582031 -3.742188 0.996094 -4.175781 C 1.40625 -4.609375 1.964844 -4.828125 2.667969 -4.828125 C 3.242188 -4.828125 3.699219 -4.703125 4.039062 -4.457031 C 4.378906 -4.210938 4.621094 -3.832031 4.769531 -3.324219 Z M 4.769531 -3.324219 "/>
</g>
<g id="glyph-0-12">
<path d="M 0.363281 -2.425781 C 0.363281 -2.84375 0.46875 -3.242188 0.671875 -3.632812 C 0.875 -4.019531 1.164062 -4.316406 1.539062 -4.519531 C 1.914062 -4.726562 2.335938 -4.828125 2.796875 -4.828125 C 3.511719 -4.828125 4.097656 -4.597656 4.550781 -4.132812 C 5.007812 -3.667969 5.238281 -3.082031 5.238281 -2.375 C 5.238281 -1.660156 5.007812 -1.066406 4.546875 -0.597656 C 4.085938 -0.128906 3.503906 0.105469 2.804688 0.105469 C 2.371094 0.105469 1.960938 0.0078125 1.566406 -0.1875 C 1.175781 -0.382812 0.875 -0.667969 0.671875 -1.046875 C 0.46875 -1.425781 0.363281 -1.886719 0.363281 -2.425781 M 1.644531 -2.359375 C 1.644531 -1.890625 1.757812 -1.535156 1.976562 -1.285156 C 2.199219 -1.035156 2.476562 -0.910156 2.800781 -0.910156 C 3.125 -0.910156 3.398438 -1.035156 3.621094 -1.285156 C 3.84375 -1.535156 3.953125 -1.894531 3.953125 -2.371094 C 3.953125 -2.832031 3.84375 -3.1875 3.621094 -3.4375 C 3.398438 -3.683594 3.125 -3.808594 2.800781 -3.808594 C 2.476562 -3.808594 2.199219 -3.683594 1.976562 -3.4375 C 1.757812 -3.1875 1.644531 -2.828125 1.644531 -2.359375 M 2.167969 -5.300781 L 2.78125 -6.628906 L 4.183594 -6.628906 L 2.960938 -5.300781 Z M 2.167969 -5.300781 "/>
</g>
<g id="glyph-0-13">
<path d="M 0.671875 0 L 0.671875 -6.515625 L 5.140625 -6.515625 L 5.140625 -5.414062 L 1.988281 -5.414062 L 1.988281 -3.871094 L 4.707031 -3.871094 L 4.707031 -2.769531 L 1.988281 -2.769531 L 1.988281 0 Z M 0.671875 0 "/>
</g>
<g id="glyph-0-14">
<path d="M 0.152344 0 L 0.152344 -0.972656 L 1.921875 -3.003906 C 2.210938 -3.335938 2.425781 -3.574219 2.566406 -3.710938 C 2.421875 -3.703125 2.230469 -3.699219 1.992188 -3.695312 L 0.324219 -3.683594 L 0.324219 -4.722656 L 4.226562 -4.722656 L 4.226562 -3.835938 L 2.421875 -1.757812 L 1.789062 -1.066406 C 2.132812 -1.085938 2.347656 -1.097656 2.433594 -1.097656 L 4.367188 -1.097656 L 4.367188 0 Z M 0.152344 0 "/>
</g>
<g id="glyph-1-0">
<path d="M 0.316406 -2.234375 L 1.257812 -2.363281 C 1.28125 -1.761719 1.394531 -1.351562 1.59375 -1.128906 C 1.796875 -0.90625 2.074219 -0.796875 2.429688 -0.796875 C 2.6875 -0.796875 2.914062 -0.855469 3.105469 -0.976562 C 3.292969 -1.09375 3.425781 -1.257812 3.496094 -1.464844 C 3.566406 -1.667969 3.605469 -2 3.605469 -2.449219 L 3.605469 -7.875 L 4.644531 -7.875 L 4.644531 -2.507812 C 4.644531 -1.847656 4.566406 -1.339844 4.40625 -0.976562 C 4.246094 -0.617188 3.996094 -0.339844 3.648438 -0.148438 C 3.304688 0.0390625 2.898438 0.132812 2.433594 0.132812 C 1.742188 0.132812 1.214844 -0.0664062 0.847656 -0.460938 C 0.480469 -0.859375 0.300781 -1.449219 0.316406 -2.234375 Z M 0.316406 -2.234375 "/>
</g>
<g id="glyph-1-1">
<path d="M 4.628906 -1.835938 L 5.628906 -1.714844 C 5.472656 -1.128906 5.179688 -0.675781 4.753906 -0.355469 C 4.328125 -0.03125 3.78125 0.128906 3.121094 0.128906 C 2.285156 0.128906 1.625 -0.128906 1.136719 -0.640625 C 0.648438 -1.15625 0.402344 -1.875 0.402344 -2.804688 C 0.402344 -3.761719 0.648438 -4.507812 1.144531 -5.039062 C 1.636719 -5.566406 2.277344 -5.832031 3.066406 -5.832031 C 3.828125 -5.832031 4.453125 -5.574219 4.9375 -5.054688 C 5.417969 -4.535156 5.660156 -3.804688 5.660156 -2.863281 C 5.660156 -2.804688 5.660156 -2.71875 5.65625 -2.605469 L 1.402344 -2.605469 C 1.4375 -1.976562 1.613281 -1.5 1.933594 -1.164062 C 2.253906 -0.832031 2.648438 -0.664062 3.125 -0.664062 C 3.480469 -0.664062 3.78125 -0.757812 4.035156 -0.945312 C 4.285156 -1.132812 4.484375 -1.429688 4.628906 -1.835938 M 1.457031 -3.398438 L 4.640625 -3.398438 C 4.597656 -3.878906 4.476562 -4.238281 4.273438 -4.480469 C 3.96875 -4.851562 3.566406 -5.039062 3.078125 -5.039062 C 2.632812 -5.039062 2.261719 -4.890625 1.957031 -4.59375 C 1.65625 -4.296875 1.488281 -3.898438 1.457031 -3.398438 Z M 1.457031 -3.398438 "/>
</g>
<g id="glyph-1-2">
<path d="M 0.714844 0 L 0.714844 -5.703125 L 1.585938 -5.703125 L 1.585938 -4.839844 C 1.804688 -5.242188 2.011719 -5.511719 2.199219 -5.640625 C 2.386719 -5.769531 2.59375 -5.832031 2.820312 -5.832031 C 3.144531 -5.832031 3.476562 -5.730469 3.8125 -5.523438 L 3.480469 -4.625 C 3.242188 -4.765625 3.007812 -4.832031 2.773438 -4.835938 C 2.558594 -4.832031 2.371094 -4.769531 2.203125 -4.644531 C 2.035156 -4.515625 1.914062 -4.339844 1.84375 -4.113281 C 1.734375 -3.769531 1.679688 -3.394531 1.679688 -2.984375 L 1.679688 0 Z M 0.714844 0 "/>
</g>
<g id="glyph-1-3">
<path d="M 4.445312 -0.703125 C 4.089844 -0.398438 3.746094 -0.183594 3.414062 -0.0585938 C 3.082031 0.0664062 2.726562 0.128906 2.347656 0.128906 C 1.71875 0.128906 1.238281 -0.0234375 0.902344 -0.332031 C 0.566406 -0.636719 0.398438 -1.027344 0.398438 -1.503906 C 0.398438 -1.78125 0.460938 -2.039062 0.589844 -2.269531 C 0.714844 -2.5 0.882812 -2.6875 1.085938 -2.824219 C 1.292969 -2.964844 1.523438 -3.070312 1.78125 -3.140625 C 1.972656 -3.191406 2.257812 -3.242188 2.640625 -3.289062 C 3.421875 -3.378906 3.996094 -3.492188 4.367188 -3.621094 C 4.371094 -3.753906 4.371094 -3.835938 4.371094 -3.871094 C 4.371094 -4.265625 4.28125 -4.542969 4.097656 -4.703125 C 3.851562 -4.921875 3.484375 -5.03125 2.996094 -5.03125 C 2.542969 -5.03125 2.207031 -4.953125 1.988281 -4.792969 C 1.773438 -4.632812 1.613281 -4.351562 1.507812 -3.949219 L 0.5625 -4.078125 C 0.648438 -4.480469 0.792969 -4.808594 0.988281 -5.058594 C 1.183594 -5.304688 1.46875 -5.496094 1.84375 -5.632812 C 2.214844 -5.765625 2.644531 -5.832031 3.136719 -5.832031 C 3.625 -5.832031 4.019531 -5.777344 4.324219 -5.660156 C 4.628906 -5.546875 4.851562 -5.402344 4.996094 -5.230469 C 5.136719 -5.054688 5.238281 -4.835938 5.296875 -4.570312 C 5.328125 -4.40625 5.34375 -4.109375 5.34375 -3.679688 L 5.34375 -2.390625 C 5.34375 -1.492188 5.363281 -0.921875 5.40625 -0.683594 C 5.445312 -0.445312 5.527344 -0.21875 5.648438 0 L 4.640625 0 C 4.539062 -0.199219 4.476562 -0.433594 4.445312 -0.703125 M 4.367188 -2.863281 C 4.015625 -2.71875 3.488281 -2.597656 2.789062 -2.496094 C 2.390625 -2.441406 2.109375 -2.375 1.945312 -2.304688 C 1.78125 -2.234375 1.652344 -2.128906 1.5625 -1.988281 C 1.472656 -1.851562 1.429688 -1.699219 1.429688 -1.53125 C 1.429688 -1.273438 1.527344 -1.058594 1.722656 -0.886719 C 1.917969 -0.714844 2.203125 -0.628906 2.578125 -0.628906 C 2.949219 -0.628906 3.28125 -0.710938 3.570312 -0.871094 C 3.863281 -1.035156 4.074219 -1.257812 4.210938 -1.542969 C 4.316406 -1.761719 4.367188 -2.082031 4.367188 -2.507812 Z M 4.367188 -2.863281 "/>
</g>
<g id="glyph-1-4">
<path d="M 4.359375 2.1875 L 4.359375 -0.605469 C 4.210938 -0.394531 4 -0.21875 3.730469 -0.0820312 C 3.460938 0.0585938 3.171875 0.128906 2.867188 0.128906 C 2.191406 0.128906 1.609375 -0.140625 1.121094 -0.683594 C 0.632812 -1.222656 0.386719 -1.964844 0.386719 -2.90625 C 0.386719 -3.480469 0.484375 -3.992188 0.683594 -4.445312 C 0.882812 -4.902344 1.171875 -5.246094 1.550781 -5.480469 C 1.925781 -5.714844 2.34375 -5.832031 2.792969 -5.832031 C 3.5 -5.832031 4.054688 -5.535156 4.457031 -4.941406 L 4.457031 -5.703125 L 5.328125 -5.703125 L 5.328125 2.1875 L 4.359375 2.1875 M 1.378906 -2.867188 C 1.378906 -2.132812 1.535156 -1.582031 1.84375 -1.214844 C 2.148438 -0.847656 2.519531 -0.664062 2.949219 -0.664062 C 3.359375 -0.664062 3.714844 -0.839844 4.011719 -1.191406 C 4.308594 -1.539062 4.457031 -2.070312 4.457031 -2.78125 C 4.457031 -3.542969 4.300781 -4.113281 3.988281 -4.496094 C 3.675781 -4.878906 3.308594 -5.070312 2.882812 -5.070312 C 2.464844 -5.070312 2.109375 -4.890625 1.816406 -4.535156 C 1.527344 -4.179688 1.378906 -3.625 1.378906 -2.867188 Z M 1.378906 -2.867188 "/>
</g>
<g id="glyph-1-5">
<path d="M 4.464844 0 L 4.464844 -0.835938 C 4.019531 -0.195312 3.414062 0.128906 2.652344 0.128906 C 2.316406 0.128906 2.003906 0.0625 1.710938 -0.0625 C 1.417969 -0.195312 1.203125 -0.355469 1.0625 -0.550781 C 0.917969 -0.746094 0.820312 -0.984375 0.761719 -1.265625 C 0.722656 -1.457031 0.703125 -1.757812 0.703125 -2.171875 L 0.703125 -5.703125 L 1.671875 -5.703125 L 1.671875 -2.539062 C 1.671875 -2.035156 1.691406 -1.695312 1.730469 -1.519531 C 1.789062 -1.265625 1.917969 -1.066406 2.117188 -0.921875 C 2.3125 -0.777344 2.554688 -0.703125 2.847656 -0.703125 C 3.136719 -0.703125 3.410156 -0.777344 3.664062 -0.925781 C 3.917969 -1.074219 4.097656 -1.277344 4.203125 -1.535156 C 4.308594 -1.789062 4.359375 -2.160156 4.359375 -2.648438 L 4.359375 -5.703125 L 5.328125 -5.703125 L 5.328125 0 Z M 4.464844 0 "/>
</g>
<g id="glyph-1-6">
<path d="M 1.0625 0 L 1.0625 -5.703125 L 2.03125 -5.703125 L 2.03125 0 L 1.0625 0 M 1.015625 -6.414062 L 1.730469 -7.917969 L 2.996094 -7.917969 L 1.816406 -6.414062 Z M 1.015625 -6.414062 "/>
</g>
<g id="glyph-1-7">
</g>
<g id="glyph-1-8">
<path d="M 4.425781 0 L 4.425781 -0.71875 C 4.0625 -0.152344 3.53125 0.128906 2.832031 0.128906 C 2.375 0.128906 1.957031 0.00390625 1.578125 -0.246094 C 1.195312 -0.496094 0.898438 -0.847656 0.691406 -1.296875 C 0.480469 -1.746094 0.375 -2.261719 0.375 -2.847656 C 0.375 -3.414062 0.472656 -3.933594 0.660156 -4.394531 C 0.851562 -4.859375 1.136719 -5.214844 1.515625 -5.460938 C 1.894531 -5.710938 2.320312 -5.832031 2.789062 -5.832031 C 3.132812 -5.832031 3.4375 -5.761719 3.707031 -5.617188 C 3.976562 -5.46875 4.191406 -5.28125 4.359375 -5.046875 L 4.359375 -7.875 L 5.324219 -7.875 L 5.324219 0 L 4.425781 0 M 1.371094 -2.847656 C 1.371094 -2.117188 1.523438 -1.570312 1.832031 -1.207031 C 2.140625 -0.847656 2.503906 -0.664062 2.921875 -0.664062 C 3.34375 -0.664062 3.703125 -0.839844 4 -1.183594 C 4.292969 -1.53125 4.441406 -2.058594 4.441406 -2.765625 C 4.441406 -3.546875 4.292969 -4.121094 3.992188 -4.484375 C 3.691406 -4.851562 3.320312 -5.03125 2.878906 -5.03125 C 2.449219 -5.03125 2.089844 -4.855469 1.800781 -4.507812 C 1.515625 -4.15625 1.371094 -3.601562 1.371094 -2.847656 Z M 1.371094 -2.847656 "/>
</g>
<g id="glyph-1-9">
<path d="M 0.730469 -6.761719 L 0.730469 -7.875 L 1.695312 -7.875 L 1.695312 -6.761719 L 0.730469 -6.761719 M 0.730469 0 L 0.730469 -5.703125 L 1.695312 -5.703125 L 1.695312 0 Z M 0.730469 0 "/>
</g>
<g id="glyph-1-10">
<path d="M 0.703125 0 L 0.703125 -7.875 L 1.671875 -7.875 L 1.671875 0 Z M 0.703125 0 "/>
</g>
<g id="glyph-1-11">
<path d="M 1.617188 0 L 0.71875 0 L 0.71875 -7.875 L 1.6875 -7.875 L 1.6875 -5.066406 C 2.09375 -5.578125 2.617188 -5.832031 3.25 -5.832031 C 3.601562 -5.832031 3.933594 -5.761719 4.246094 -5.621094 C 4.558594 -5.480469 4.816406 -5.28125 5.019531 -5.023438 C 5.222656 -4.769531 5.378906 -4.460938 5.496094 -4.097656 C 5.609375 -3.738281 5.667969 -3.351562 5.667969 -2.9375 C 5.667969 -1.960938 5.425781 -1.203125 4.941406 -0.671875 C 4.457031 -0.136719 3.878906 0.128906 3.203125 0.128906 C 2.527344 0.128906 2 -0.152344 1.617188 -0.714844 L 1.617188 0 M 1.605469 -2.894531 C 1.605469 -2.210938 1.699219 -1.71875 1.886719 -1.414062 C 2.191406 -0.914062 2.601562 -0.664062 3.121094 -0.664062 C 3.542969 -0.664062 3.910156 -0.847656 4.214844 -1.214844 C 4.523438 -1.582031 4.679688 -2.128906 4.679688 -2.859375 C 4.679688 -3.601562 4.53125 -4.152344 4.234375 -4.507812 C 3.941406 -4.859375 3.582031 -5.039062 3.164062 -5.039062 C 2.742188 -5.039062 2.375 -4.855469 2.066406 -4.488281 C 1.761719 -4.121094 1.605469 -3.589844 1.605469 -2.894531 Z M 1.605469 -2.894531 "/>
</g>
<g id="glyph-1-12">
<path d="M 0.339844 -1.703125 L 1.292969 -1.851562 C 1.347656 -1.46875 1.496094 -1.175781 1.742188 -0.972656 C 1.988281 -0.769531 2.332031 -0.664062 2.773438 -0.664062 C 3.214844 -0.664062 3.546875 -0.757812 3.757812 -0.9375 C 3.976562 -1.117188 4.082031 -1.332031 4.082031 -1.574219 C 4.082031 -1.792969 3.988281 -1.964844 3.796875 -2.089844 C 3.664062 -2.175781 3.335938 -2.285156 2.808594 -2.417969 C 2.101562 -2.597656 1.609375 -2.75 1.335938 -2.882812 C 1.0625 -3.011719 0.851562 -3.191406 0.710938 -3.425781 C 0.570312 -3.65625 0.5 -3.910156 0.5 -4.1875 C 0.5 -4.445312 0.558594 -4.679688 0.675781 -4.894531 C 0.789062 -5.113281 0.949219 -5.292969 1.148438 -5.4375 C 1.300781 -5.546875 1.503906 -5.640625 1.765625 -5.71875 C 2.023438 -5.792969 2.300781 -5.832031 2.601562 -5.832031 C 3.046875 -5.832031 3.441406 -5.769531 3.777344 -5.640625 C 4.117188 -5.511719 4.367188 -5.335938 4.527344 -5.117188 C 4.6875 -4.894531 4.800781 -4.601562 4.859375 -4.234375 L 3.914062 -4.101562 C 3.871094 -4.398438 3.75 -4.625 3.542969 -4.789062 C 3.335938 -4.957031 3.046875 -5.039062 2.667969 -5.039062 C 2.226562 -5.039062 1.910156 -4.964844 1.71875 -4.816406 C 1.527344 -4.671875 1.433594 -4.5 1.433594 -4.300781 C 1.433594 -4.175781 1.472656 -4.0625 1.550781 -3.964844 C 1.632812 -3.859375 1.753906 -3.773438 1.921875 -3.707031 C 2.019531 -3.671875 2.304688 -3.585938 2.777344 -3.460938 C 3.460938 -3.277344 3.9375 -3.125 4.207031 -3.011719 C 4.480469 -2.894531 4.691406 -2.726562 4.84375 -2.503906 C 5 -2.28125 5.074219 -2.003906 5.074219 -1.675781 C 5.074219 -1.351562 4.980469 -1.050781 4.792969 -0.765625 C 4.605469 -0.480469 4.335938 -0.261719 3.980469 -0.105469 C 3.625 0.0507812 3.222656 0.128906 2.777344 0.128906 C 2.035156 0.128906 1.472656 -0.0234375 1.082031 -0.332031 C 0.695312 -0.640625 0.445312 -1.097656 0.339844 -1.703125 Z M 0.339844 -1.703125 "/>
</g>
<g id="glyph-1-13">
<path d="M 0.726562 0 L 0.726562 -5.703125 L 1.59375 -5.703125 L 1.59375 -4.894531 C 2.015625 -5.519531 2.621094 -5.832031 3.410156 -5.832031 C 3.753906 -5.832031 4.070312 -5.769531 4.359375 -5.648438 C 4.648438 -5.523438 4.863281 -5.363281 5.007812 -5.160156 C 5.148438 -4.960938 5.25 -4.722656 5.304688 -4.445312 C 5.34375 -4.269531 5.359375 -3.953125 5.359375 -3.507812 L 5.359375 0 L 4.394531 0 L 4.394531 -3.46875 C 4.394531 -3.863281 4.355469 -4.15625 4.28125 -4.351562 C 4.207031 -4.546875 4.070312 -4.703125 3.878906 -4.820312 C 3.6875 -4.9375 3.464844 -4.996094 3.207031 -4.996094 C 2.792969 -4.996094 2.4375 -4.863281 2.140625 -4.601562 C 1.839844 -4.339844 1.691406 -3.84375 1.691406 -3.117188 L 1.691406 0 Z M 0.726562 0 "/>
</g>
<g id="glyph-1-14">
<path d="M 4.445312 -2.089844 L 5.398438 -1.964844 C 5.292969 -1.3125 5.027344 -0.796875 4.601562 -0.425781 C 4.171875 -0.0546875 3.648438 0.128906 3.023438 0.128906 C 2.242188 0.128906 1.617188 -0.125 1.140625 -0.636719 C 0.667969 -1.148438 0.429688 -1.878906 0.429688 -2.832031 C 0.429688 -3.445312 0.53125 -3.984375 0.734375 -4.445312 C 0.941406 -4.910156 1.25 -5.253906 1.667969 -5.488281 C 2.085938 -5.71875 2.539062 -5.832031 3.03125 -5.832031 C 3.648438 -5.832031 4.15625 -5.675781 4.550781 -5.363281 C 4.941406 -5.050781 5.195312 -4.605469 5.304688 -4.027344 L 4.367188 -3.882812 C 4.277344 -4.265625 4.117188 -4.554688 3.890625 -4.75 C 3.664062 -4.941406 3.390625 -5.039062 3.066406 -5.039062 C 2.578125 -5.039062 2.183594 -4.863281 1.878906 -4.515625 C 1.574219 -4.164062 1.421875 -3.613281 1.421875 -2.859375 C 1.421875 -2.089844 1.570312 -1.535156 1.863281 -1.1875 C 2.15625 -0.839844 2.539062 -0.664062 3.011719 -0.664062 C 3.394531 -0.664062 3.710938 -0.78125 3.964844 -1.015625 C 4.21875 -1.246094 4.378906 -1.605469 4.445312 -2.089844 Z M 4.445312 -2.089844 "/>
</g>
<g id="glyph-1-15">
<path d="M 0.367188 -2.851562 C 0.367188 -3.910156 0.660156 -4.691406 1.246094 -5.199219 C 1.738281 -5.621094 2.335938 -5.832031 3.039062 -5.832031 C 3.824219 -5.832031 4.464844 -5.574219 4.960938 -5.0625 C 5.460938 -4.546875 5.710938 -3.839844 5.710938 -2.933594 C 5.710938 -2.199219 5.597656 -1.621094 5.378906 -1.199219 C 5.160156 -0.78125 4.839844 -0.453125 4.417969 -0.21875 C 3.996094 0.0117188 3.539062 0.128906 3.039062 0.128906 C 2.242188 0.128906 1.597656 -0.128906 1.105469 -0.640625 C 0.613281 -1.152344 0.367188 -1.890625 0.367188 -2.851562 M 1.359375 -2.851562 C 1.359375 -2.121094 1.519531 -1.574219 1.835938 -1.210938 C 2.15625 -0.847656 2.554688 -0.664062 3.039062 -0.664062 C 3.519531 -0.664062 3.917969 -0.847656 4.238281 -1.214844 C 4.554688 -1.578125 4.714844 -2.136719 4.714844 -2.882812 C 4.714844 -3.589844 4.554688 -4.125 4.234375 -4.488281 C 3.914062 -4.851562 3.515625 -5.03125 3.039062 -5.03125 C 2.554688 -5.03125 2.15625 -4.851562 1.835938 -4.492188 C 1.519531 -4.128906 1.359375 -3.582031 1.359375 -2.851562 Z M 1.359375 -2.851562 "/>
</g>
<g id="glyph-1-16">
<path d="M 2.835938 -0.863281 L 2.976562 -0.0117188 C 2.703125 0.046875 2.460938 0.0742188 2.246094 0.0742188 C 1.894531 0.0742188 1.621094 0.0195312 1.429688 -0.0898438 C 1.234375 -0.203125 1.097656 -0.347656 1.019531 -0.527344 C 0.941406 -0.710938 0.902344 -1.089844 0.902344 -1.671875 L 0.902344 -4.953125 L 0.195312 -4.953125 L 0.195312 -5.703125 L 0.902344 -5.703125 L 0.902344 -7.117188 L 1.863281 -7.695312 L 1.863281 -5.703125 L 2.835938 -5.703125 L 2.835938 -4.953125 L 1.863281 -4.953125 L 1.863281 -1.617188 C 1.863281 -1.339844 1.878906 -1.164062 1.914062 -1.085938 C 1.949219 -1.007812 2.003906 -0.945312 2.082031 -0.898438 C 2.160156 -0.851562 2.269531 -0.828125 2.410156 -0.828125 C 2.519531 -0.828125 2.660156 -0.839844 2.835938 -0.863281 Z M 2.835938 -0.863281 "/>
</g>
<g id="glyph-1-17">
<path d="M 0.367188 -2.851562 C 0.367188 -3.910156 0.660156 -4.691406 1.246094 -5.199219 C 1.738281 -5.621094 2.335938 -5.832031 3.039062 -5.832031 C 3.824219 -5.832031 4.464844 -5.574219 4.960938 -5.0625 C 5.460938 -4.546875 5.710938 -3.839844 5.710938 -2.933594 C 5.710938 -2.199219 5.597656 -1.621094 5.378906 -1.199219 C 5.160156 -0.78125 4.839844 -0.453125 4.417969 -0.21875 C 3.996094 0.0117188 3.539062 0.128906 3.039062 0.128906 C 2.242188 0.128906 1.597656 -0.128906 1.105469 -0.640625 C 0.613281 -1.152344 0.367188 -1.890625 0.367188 -2.851562 M 1.359375 -2.851562 C 1.359375 -2.121094 1.519531 -1.574219 1.835938 -1.210938 C 2.15625 -0.847656 2.554688 -0.664062 3.039062 -0.664062 C 3.519531 -0.664062 3.917969 -0.847656 4.238281 -1.214844 C 4.554688 -1.578125 4.714844 -2.136719 4.714844 -2.882812 C 4.714844 -3.589844 4.554688 -4.125 4.234375 -4.488281 C 3.914062 -4.851562 3.515625 -5.03125 3.039062 -5.03125 C 2.554688 -5.03125 2.15625 -4.851562 1.835938 -4.492188 C 1.519531 -4.128906 1.359375 -3.582031 1.359375 -2.851562 M 2.503906 -6.414062 L 3.21875 -7.917969 L 4.484375 -7.917969 L 3.304688 -6.414062 Z M 2.503906 -6.414062 "/>
</g>
<g id="glyph-1-18">
<path d="M 2.308594 0 L 0.140625 -5.703125 L 1.160156 -5.703125 L 2.382812 -2.289062 C 2.515625 -1.917969 2.640625 -1.535156 2.75 -1.140625 C 2.835938 -1.4375 2.957031 -1.800781 3.109375 -2.222656 L 4.378906 -5.703125 L 5.371094 -5.703125 L 3.210938 0 Z M 2.308594 0 "/>
</g>
<g id="glyph-2-0">
<path d="M 7.761719 -3.3125 L 9.011719 -2.996094 C 8.75 -1.96875 8.277344 -1.1875 7.597656 -0.648438 C 6.914062 -0.109375 6.082031 0.160156 5.097656 0.160156 C 4.078125 0.160156 3.25 -0.046875 2.613281 -0.460938 C 1.976562 -0.875 1.488281 -1.476562 1.15625 -2.261719 C 0.824219 -3.046875 0.65625 -3.894531 0.65625 -4.796875 C 0.65625 -5.777344 0.84375 -6.636719 1.222656 -7.371094 C 1.597656 -8.101562 2.132812 -8.660156 2.828125 -9.039062 C 3.519531 -9.417969 4.285156 -9.609375 5.117188 -9.609375 C 6.0625 -9.609375 6.859375 -9.371094 7.503906 -8.886719 C 8.148438 -8.40625 8.597656 -7.730469 8.847656 -6.859375 L 7.617188 -6.566406 C 7.398438 -7.253906 7.082031 -7.753906 6.664062 -8.070312 C 6.246094 -8.382812 5.722656 -8.539062 5.09375 -8.539062 C 4.367188 -8.539062 3.757812 -8.367188 3.269531 -8.019531 C 2.785156 -7.671875 2.441406 -7.203125 2.242188 -6.617188 C 2.046875 -6.03125 1.945312 -5.425781 1.945312 -4.800781 C 1.945312 -4 2.0625 -3.296875 2.296875 -2.699219 C 2.53125 -2.097656 2.894531 -1.648438 3.390625 -1.351562 C 3.882812 -1.058594 4.417969 -0.910156 4.996094 -0.910156 C 5.695312 -0.910156 6.289062 -1.109375 6.773438 -1.515625 C 7.257812 -1.917969 7.589844 -2.519531 7.761719 -3.3125 Z M 7.761719 -3.3125 "/>
</g>
<g id="glyph-2-1">
<path d="M 0.875 -8.113281 L 0.875 -9.449219 L 2.035156 -9.449219 L 2.035156 -8.113281 L 0.875 -8.113281 M 0.875 0 L 0.875 -6.84375 L 2.035156 -6.84375 L 2.035156 0 Z M 0.875 0 "/>
</g>
<g id="glyph-2-2">
<path d="M 0.855469 0 L 0.855469 -6.84375 L 1.902344 -6.84375 L 1.902344 -5.808594 C 2.167969 -6.292969 2.414062 -6.613281 2.640625 -6.765625 C 2.863281 -6.921875 3.113281 -7 3.382812 -7 C 3.773438 -7 4.171875 -6.875 4.578125 -6.625 L 4.175781 -5.550781 C 3.894531 -5.71875 3.609375 -5.800781 3.324219 -5.800781 C 3.070312 -5.800781 2.84375 -5.722656 2.640625 -5.570312 C 2.441406 -5.417969 2.296875 -5.207031 2.210938 -4.9375 C 2.082031 -4.523438 2.015625 -4.074219 2.015625 -3.582031 L 2.015625 0 Z M 0.855469 0 "/>
</g>
<g id="glyph-2-3">
<path d="M 5.335938 -2.507812 L 6.476562 -2.359375 C 6.351562 -1.574219 6.035156 -0.957031 5.519531 -0.511719 C 5.007812 -0.0664062 4.375 0.15625 3.628906 0.15625 C 2.691406 0.15625 1.9375 -0.152344 1.371094 -0.765625 C 0.800781 -1.375 0.515625 -2.253906 0.515625 -3.398438 C 0.515625 -4.136719 0.636719 -4.78125 0.882812 -5.335938 C 1.128906 -5.890625 1.5 -6.308594 2 -6.582031 C 2.5 -6.859375 3.046875 -7 3.636719 -7 C 4.378906 -7 4.988281 -6.8125 5.460938 -6.4375 C 5.933594 -6.058594 6.234375 -5.527344 6.367188 -4.835938 L 5.238281 -4.660156 C 5.132812 -5.121094 4.941406 -5.464844 4.667969 -5.699219 C 4.398438 -5.929688 4.066406 -6.046875 3.679688 -6.046875 C 3.097656 -6.046875 2.621094 -5.835938 2.257812 -5.417969 C 1.890625 -5 1.707031 -4.335938 1.707031 -3.429688 C 1.707031 -2.507812 1.882812 -1.839844 2.238281 -1.425781 C 2.589844 -1.007812 3.046875 -0.800781 3.617188 -0.800781 C 4.070312 -0.800781 4.453125 -0.9375 4.757812 -1.21875 C 5.0625 -1.496094 5.253906 -1.925781 5.335938 -2.507812 Z M 5.335938 -2.507812 "/>
</g>
<g id="glyph-2-4">
<path d="M 5.355469 0 L 5.355469 -1.003906 C 4.824219 -0.230469 4.097656 0.15625 3.183594 0.15625 C 2.78125 0.15625 2.402344 0.078125 2.054688 -0.078125 C 1.703125 -0.230469 1.441406 -0.425781 1.273438 -0.660156 C 1.101562 -0.894531 0.984375 -1.183594 0.914062 -1.519531 C 0.867188 -1.75 0.84375 -2.109375 0.84375 -2.605469 L 0.84375 -6.84375 L 2.003906 -6.84375 L 2.003906 -3.046875 C 2.003906 -2.441406 2.027344 -2.035156 2.074219 -1.824219 C 2.148438 -1.519531 2.304688 -1.28125 2.539062 -1.105469 C 2.777344 -0.929688 3.066406 -0.84375 3.414062 -0.84375 C 3.765625 -0.84375 4.089844 -0.933594 4.394531 -1.113281 C 4.699219 -1.289062 4.917969 -1.53125 5.042969 -1.839844 C 5.171875 -2.148438 5.234375 -2.59375 5.234375 -3.175781 L 5.234375 -6.84375 L 6.394531 -6.84375 L 6.394531 0 Z M 5.355469 0 "/>
</g>
<g id="glyph-2-5">
<path d="M 0.84375 0 L 0.84375 -9.449219 L 2.003906 -9.449219 L 2.003906 0 Z M 0.84375 0 "/>
</g>
<g id="glyph-2-6">
<path d="M 5.335938 -0.84375 C 4.90625 -0.480469 4.492188 -0.222656 4.097656 -0.0703125 C 3.699219 0.078125 3.273438 0.15625 2.816406 0.15625 C 2.066406 0.15625 1.488281 -0.0273438 1.082031 -0.394531 C 0.679688 -0.765625 0.476562 -1.234375 0.476562 -1.804688 C 0.476562 -2.140625 0.554688 -2.445312 0.707031 -2.722656 C 0.859375 -3 1.058594 -3.222656 1.304688 -3.390625 C 1.550781 -3.558594 1.832031 -3.683594 2.140625 -3.769531 C 2.367188 -3.832031 2.710938 -3.886719 3.171875 -3.945312 C 4.109375 -4.054688 4.796875 -4.1875 5.238281 -4.34375 C 5.246094 -4.503906 5.246094 -4.605469 5.246094 -4.648438 C 5.246094 -5.121094 5.136719 -5.453125 4.917969 -5.644531 C 4.621094 -5.90625 4.179688 -6.039062 3.597656 -6.039062 C 3.050781 -6.039062 2.648438 -5.945312 2.386719 -5.753906 C 2.128906 -5.5625 1.9375 -5.222656 1.8125 -4.738281 L 0.675781 -4.890625 C 0.78125 -5.378906 0.949219 -5.769531 1.1875 -6.066406 C 1.421875 -6.367188 1.765625 -6.597656 2.210938 -6.757812 C 2.65625 -6.917969 3.175781 -7 3.765625 -7 C 4.347656 -7 4.824219 -6.929688 5.1875 -6.792969 C 5.554688 -6.65625 5.820312 -6.484375 5.992188 -6.273438 C 6.164062 -6.066406 6.285156 -5.804688 6.355469 -5.484375 C 6.394531 -5.289062 6.414062 -4.929688 6.414062 -4.414062 L 6.414062 -2.867188 C 6.414062 -1.789062 6.4375 -1.109375 6.488281 -0.820312 C 6.535156 -0.535156 6.632812 -0.261719 6.78125 0 L 5.570312 0 C 5.449219 -0.242188 5.371094 -0.523438 5.335938 -0.84375 M 5.238281 -3.433594 C 4.820312 -3.261719 4.1875 -3.117188 3.34375 -2.996094 C 2.867188 -2.929688 2.53125 -2.851562 2.332031 -2.765625 C 2.136719 -2.679688 1.984375 -2.554688 1.875 -2.386719 C 1.769531 -2.222656 1.714844 -2.039062 1.714844 -1.835938 C 1.714844 -1.527344 1.832031 -1.269531 2.066406 -1.0625 C 2.300781 -0.855469 2.640625 -0.753906 3.09375 -0.753906 C 3.539062 -0.753906 3.9375 -0.851562 4.285156 -1.046875 C 4.632812 -1.242188 4.890625 -1.511719 5.054688 -1.851562 C 5.175781 -2.113281 5.238281 -2.5 5.238281 -3.011719 Z M 5.238281 -3.433594 "/>
</g>
<g id="glyph-2-7">
</g>
<g id="glyph-2-8">
<path d="M 0.871094 2.625 L 0.871094 -6.84375 L 1.925781 -6.84375 L 1.925781 -5.957031 C 2.175781 -6.304688 2.457031 -6.566406 2.773438 -6.738281 C 3.085938 -6.914062 3.464844 -7 3.914062 -7 C 4.496094 -7 5.011719 -6.847656 5.460938 -6.546875 C 5.90625 -6.246094 6.242188 -5.824219 6.472656 -5.277344 C 6.699219 -4.726562 6.8125 -4.128906 6.8125 -3.472656 C 6.8125 -2.773438 6.6875 -2.144531 6.4375 -1.582031 C 6.183594 -1.023438 5.820312 -0.59375 5.339844 -0.292969 C 4.859375 0.00390625 4.355469 0.15625 3.828125 0.15625 C 3.441406 0.15625 3.09375 0.0742188 2.789062 -0.0898438 C 2.480469 -0.253906 2.226562 -0.460938 2.03125 -0.710938 L 2.03125 2.625 L 0.871094 2.625 M 1.921875 -3.382812 C 1.921875 -2.503906 2.097656 -1.851562 2.457031 -1.429688 C 2.8125 -1.007812 3.242188 -0.800781 3.75 -0.800781 C 4.265625 -0.800781 4.707031 -1.015625 5.074219 -1.453125 C 5.441406 -1.890625 5.625 -2.566406 5.625 -3.480469 C 5.625 -4.351562 5.449219 -5.003906 5.089844 -5.441406 C 4.730469 -5.875 4.300781 -6.089844 3.804688 -6.089844 C 3.308594 -6.089844 2.871094 -5.859375 2.492188 -5.398438 C 2.109375 -4.9375 1.921875 -4.265625 1.921875 -3.382812 Z M 1.921875 -3.382812 "/>
</g>
<g id="glyph-2-9">
<path d="M 0.875 0 L 0.875 -9.449219 L 2.035156 -9.449219 L 2.035156 -4.0625 L 4.78125 -6.84375 L 6.285156 -6.84375 L 3.667969 -4.304688 L 6.546875 0 L 5.117188 0 L 2.855469 -3.5 L 2.035156 -2.714844 L 2.035156 0 Z M 0.875 0 "/>
</g>
<g id="glyph-2-10">
<path d="M 0.871094 0 L 0.871094 -6.84375 L 1.914062 -6.84375 L 1.914062 -5.871094 C 2.417969 -6.625 3.144531 -7 4.09375 -7 C 4.503906 -7 4.882812 -6.925781 5.230469 -6.777344 C 5.578125 -6.628906 5.835938 -6.433594 6.007812 -6.195312 C 6.179688 -5.953125 6.300781 -5.667969 6.367188 -5.335938 C 6.410156 -5.121094 6.433594 -4.746094 6.433594 -4.207031 L 6.433594 0 L 5.273438 0 L 5.273438 -4.164062 C 5.273438 -4.636719 5.226562 -4.988281 5.136719 -5.222656 C 5.046875 -5.457031 4.886719 -5.644531 4.65625 -5.785156 C 4.425781 -5.925781 4.15625 -5.992188 3.847656 -5.992188 C 3.355469 -5.992188 2.925781 -5.835938 2.570312 -5.523438 C 2.210938 -5.210938 2.03125 -4.613281 2.03125 -3.738281 L 2.03125 0 Z M 0.871094 0 "/>
</g>
<g id="glyph-2-11">
<path d="M 0.65625 0.566406 L 1.785156 0.734375 C 1.832031 1.082031 1.964844 1.335938 2.179688 1.496094 C 2.464844 1.710938 2.859375 1.816406 3.359375 1.816406 C 3.894531 1.816406 4.308594 1.710938 4.601562 1.496094 C 4.894531 1.28125 5.09375 0.980469 5.195312 0.59375 C 5.253906 0.355469 5.28125 -0.140625 5.277344 -0.894531 C 4.773438 -0.296875 4.140625 0 3.382812 0 C 2.441406 0 1.714844 -0.339844 1.199219 -1.019531 C 0.683594 -1.695312 0.425781 -2.511719 0.425781 -3.460938 C 0.425781 -4.113281 0.542969 -4.71875 0.78125 -5.269531 C 1.015625 -5.820312 1.359375 -6.246094 1.808594 -6.546875 C 2.257812 -6.847656 2.785156 -7 3.390625 -7 C 4.199219 -7 4.863281 -6.671875 5.386719 -6.019531 L 5.386719 -6.84375 L 6.457031 -6.84375 L 6.457031 -0.929688 C 6.457031 0.136719 6.351562 0.894531 6.132812 1.335938 C 5.914062 1.78125 5.570312 2.132812 5.101562 2.390625 C 4.632812 2.648438 4.050781 2.777344 3.363281 2.777344 C 2.546875 2.777344 1.886719 2.59375 1.386719 2.226562 C 0.882812 1.859375 0.640625 1.304688 0.65625 0.566406 M 1.617188 -3.546875 C 1.617188 -2.648438 1.796875 -1.992188 2.152344 -1.578125 C 2.507812 -1.167969 2.957031 -0.960938 3.492188 -0.960938 C 4.027344 -0.960938 4.472656 -1.164062 4.835938 -1.574219 C 5.195312 -1.984375 5.375 -2.628906 5.375 -3.507812 C 5.375 -4.34375 5.191406 -4.976562 4.816406 -5.402344 C 4.445312 -5.828125 4 -6.039062 3.472656 -6.039062 C 2.957031 -6.039062 2.519531 -5.828125 2.160156 -5.410156 C 1.796875 -4.992188 1.617188 -4.371094 1.617188 -3.546875 Z M 1.617188 -3.546875 "/>
</g>
</g>
</defs>
<rect x="-51.8" y="-37.4" width="621.6" height="448.8" fill="rgb(100%, 100%, 100%)" fill-opacity="1"/>
<path fill-rule="nonzero" fill="rgb(72.156863%, 50.980392%, 15.686275%)" fill-opacity="0.819608" stroke-width="1.066978" stroke-linecap="butt" stroke-linejoin="round" stroke="rgb(98.431373%, 96.862745%, 94.117647%)" stroke-opacity="1" stroke-miterlimit="10" d="M 269.273438 285.253906 L 269.210938 283.242188 L 269.019531 281.242188 L 268.703125 279.253906 L 268.257812 277.292969 L 267.691406 275.363281 L 267.003906 273.472656 L 266.199219 271.628906 L 265.277344 269.84375 L 264.242188 268.117188 L 263.101562 266.460938 L 261.859375 264.878906 L 260.519531 263.378906 L 259.085938 261.96875 L 257.566406 260.652344 L 255.964844 259.433594 L 254.289062 258.320312 L 252.546875 257.3125 L 250.746094 256.421875 L 248.890625 255.644531 L 246.988281 254.984375 L 245.050781 254.449219 L 243.082031 254.039062 L 241.089844 253.753906 L 239.085938 253.59375 L 237.074219 253.5625 L 235.066406 253.65625 L 233.066406 253.878906 L 231.085938 254.230469 L 229.132812 254.703125 L 227.210938 255.300781 L 225.332031 256.019531 L 223.503906 256.851562 L 221.730469 257.804688 L 220.019531 258.863281 L 218.382812 260.03125 L 216.820312 261.296875 L 215.34375 262.664062 L 213.957031 264.117188 L 212.664062 265.660156 L 211.46875 267.28125 L 210.382812 268.972656 L 209.40625 270.730469 L 208.539062 272.546875 L 207.792969 274.414062 L 207.164062 276.324219 L 206.660156 278.269531 L 206.28125 280.246094 L 206.023438 282.242188 L 205.898438 284.246094 L 205.898438 286.257812 L 206.023438 288.265625 L 206.28125 290.261719 L 206.660156 292.238281 L 207.164062 294.183594 L 207.792969 296.09375 L 208.539062 297.960938 L 209.40625 299.777344 L 210.382812 301.535156 L 211.46875 303.226562 L 212.664062 304.847656 L 213.957031 306.386719 L 215.34375 307.84375 L 216.820312 309.207031 L 218.382812 310.476562 L 220.019531 311.644531 L 221.730469 312.703125 L 223.503906 313.652344 L 225.332031 314.488281 L 227.210938 315.207031 L 229.132812 315.804688 L 231.085938 316.277344 L 233.066406 316.628906 L 235.066406 316.851562 L 237.074219 316.945312 L 239.085938 316.914062 L 241.089844 316.753906 L 243.082031 316.46875 L 245.050781 316.054688 L 246.988281 315.519531 L 248.890625 314.863281 L 250.746094 314.085938 L 252.546875 313.191406 L 254.289062 312.1875 L 255.964844 311.074219 L 257.566406 309.855469 L 259.085938 308.539062 L 260.519531 307.125 L 261.859375 305.628906 L 263.101562 304.046875 L 264.242188 302.390625 L 265.277344 300.664062 L 266.199219 298.875 L 267.003906 297.035156 L 267.691406 295.144531 L 268.257812 293.214844 L 268.703125 291.25 L 269.019531 289.265625 L 269.210938 287.261719 Z M 269.273438 285.253906 "/>
<path fill-rule="nonzero" fill="rgb(51.372549%, 57.647059%, 77.647059%)" fill-opacity="0.819608" stroke-width="1.066978" stroke-linecap="butt" stroke-linejoin="round" stroke="rgb(98.431373%, 96.862745%, 94.117647%)" stroke-opacity="1" stroke-miterlimit="10" d="M 392.863281 162.84375 L 392.785156 160.371094 L 392.550781 157.90625 L 392.160156 155.464844 L 391.613281 153.050781 L 390.917969 150.675781 L 390.070312 148.351562 L 389.078125 146.082031 L 387.945312 143.882812 L 386.671875 141.761719 L 385.269531 139.722656 L 383.742188 137.777344 L 382.089844 135.933594 L 380.328125 134.199219 L 378.457031 132.578125 L 376.488281 131.078125 L 374.425781 129.707031 L 372.285156 128.46875 L 370.066406 127.371094 L 367.785156 126.414062 L 365.445312 125.605469 L 363.0625 124.945312 L 360.640625 124.441406 L 358.191406 124.085938 L 355.722656 123.890625 L 353.25 123.851562 L 350.777344 123.96875 L 348.316406 124.246094 L 345.878906 124.675781 L 343.476562 125.257812 L 341.113281 125.992188 L 338.800781 126.875 L 336.550781 127.902344 L 334.367188 129.070312 L 332.265625 130.375 L 330.25 131.8125 L 328.328125 133.371094 L 326.511719 135.050781 L 324.804688 136.84375 L 323.214844 138.738281 L 321.746094 140.730469 L 320.410156 142.8125 L 319.207031 144.976562 L 318.140625 147.210938 L 317.222656 149.507812 L 316.449219 151.855469 L 315.828125 154.253906 L 315.359375 156.683594 L 315.046875 159.136719 L 314.890625 161.605469 L 314.890625 164.082031 L 315.046875 166.550781 L 315.359375 169.003906 L 315.828125 171.433594 L 316.449219 173.832031 L 317.222656 176.183594 L 318.140625 178.480469 L 319.207031 180.714844 L 320.410156 182.875 L 321.746094 184.957031 L 323.214844 186.949219 L 324.804688 188.847656 L 326.511719 190.636719 L 328.328125 192.316406 L 330.25 193.875 L 332.265625 195.3125 L 334.367188 196.617188 L 336.550781 197.785156 L 338.800781 198.8125 L 341.113281 199.695312 L 343.476562 200.429688 L 345.878906 201.015625 L 348.316406 201.445312 L 350.777344 201.71875 L 353.25 201.835938 L 355.722656 201.796875 L 358.191406 201.601562 L 360.640625 201.25 L 363.0625 200.742188 L 365.445312 200.082031 L 367.785156 199.273438 L 370.066406 198.316406 L 372.285156 197.21875 L 374.425781 195.980469 L 376.488281 194.609375 L 378.457031 193.113281 L 380.328125 191.492188 L 382.089844 189.753906 L 383.742188 187.910156 L 385.269531 185.964844 L 386.671875 183.925781 L 387.945312 181.804688 L 389.078125 179.605469 L 390.070312 177.335938 L 390.917969 175.011719 L 391.613281 172.636719 L 392.160156 170.222656 L 392.550781 167.78125 L 392.785156 165.316406 Z M 392.863281 162.84375 "/>
<path fill-rule="nonzero" fill="rgb(26.666667%, 36.862745%, 27.45098%)" fill-opacity="0.819608" stroke-width="1.066978" stroke-linecap="butt" stroke-linejoin="round" stroke="rgb(98.431373%, 96.862745%, 94.117647%)" stroke-opacity="1" stroke-miterlimit="10" d="M 198.800781 153.664062 L 198.710938 150.882812 L 198.445312 148.113281 L 198.007812 145.367188 L 197.394531 142.652344 L 196.609375 139.980469 L 195.660156 137.367188 L 194.542969 134.816406 L 193.269531 132.34375 L 191.839844 129.957031 L 190.261719 127.664062 L 188.542969 125.480469 L 186.6875 123.40625 L 184.703125 121.453125 L 182.601562 119.632812 L 180.386719 117.945312 L 178.070312 116.40625 L 175.660156 115.015625 L 173.167969 113.777344 L 170.601562 112.703125 L 167.972656 111.792969 L 165.289062 111.050781 L 162.566406 110.480469 L 159.8125 110.085938 L 157.039062 109.867188 L 154.257812 109.820312 L 151.476562 109.953125 L 148.710938 110.261719 L 145.972656 110.746094 L 143.269531 111.402344 L 140.609375 112.226562 L 138.011719 113.21875 L 135.480469 114.375 L 133.027344 115.691406 L 130.664062 117.15625 L 128.398438 118.769531 L 126.238281 120.527344 L 124.195312 122.414062 L 122.273438 124.425781 L 120.484375 126.558594 L 118.835938 128.800781 L 117.332031 131.140625 L 115.980469 133.570312 L 114.785156 136.082031 L 113.75 138.667969 L 112.882812 141.308594 L 112.183594 144.003906 L 111.65625 146.734375 L 111.304688 149.496094 L 111.128906 152.273438 L 111.128906 155.054688 L 111.304688 157.832031 L 111.65625 160.589844 L 112.183594 163.324219 L 112.882812 166.015625 L 113.75 168.660156 L 114.785156 171.242188 L 115.980469 173.753906 L 117.332031 176.1875 L 118.835938 178.527344 L 120.484375 180.769531 L 122.273438 182.898438 L 124.195312 184.914062 L 126.238281 186.800781 L 128.398438 188.554688 L 130.664062 190.167969 L 133.027344 191.636719 L 135.480469 192.949219 L 138.011719 194.105469 L 140.609375 195.097656 L 143.269531 195.925781 L 145.972656 196.582031 L 148.710938 197.0625 L 151.476562 197.371094 L 154.257812 197.503906 L 157.039062 197.460938 L 159.8125 197.242188 L 162.566406 196.84375 L 165.289062 196.273438 L 167.972656 195.535156 L 170.601562 194.625 L 173.167969 193.546875 L 175.660156 192.3125 L 178.070312 190.921875 L 180.386719 189.378906 L 182.601562 187.695312 L 184.703125 185.875 L 186.6875 183.921875 L 188.542969 181.847656 L 190.261719 179.660156 L 191.839844 177.367188 L 193.269531 174.980469 L 194.542969 172.507812 L 195.660156 169.960938 L 196.609375 167.34375 L 197.394531 164.675781 L 198.007812 161.960938 L 198.445312 159.214844 L 198.710938 156.445312 Z M 198.800781 153.664062 "/>
<path fill-rule="nonzero" fill="rgb(72.156863%, 50.980392%, 15.686275%)" fill-opacity="0.819608" stroke-width="1.066978" stroke-linecap="butt" stroke-linejoin="round" stroke="rgb(98.431373%, 96.862745%, 94.117647%)" stroke-opacity="1" stroke-miterlimit="10" d="M 307.964844 285.253906 L 307.910156 283.507812 L 307.742188 281.765625 L 307.464844 280.039062 L 307.082031 278.335938 L 306.589844 276.660156 L 305.992188 275.015625 L 305.289062 273.414062 L 304.488281 271.863281 L 303.589844 270.363281 L 302.601562 268.921875 L 301.519531 267.550781 L 300.355469 266.246094 L 299.109375 265.019531 L 297.789062 263.875 L 296.398438 262.816406 L 294.941406 261.851562 L 293.429688 260.976562 L 291.863281 260.199219 L 290.25 259.523438 L 288.597656 258.953125 L 286.914062 258.488281 L 285.203125 258.128906 L 283.472656 257.882812 L 281.730469 257.742188 L 279.984375 257.714844 L 278.238281 257.796875 L 276.503906 257.992188 L 274.78125 258.296875 L 273.082031 258.707031 L 271.414062 259.226562 L 269.78125 259.851562 L 268.191406 260.574219 L 266.652344 261.402344 L 265.164062 262.324219 L 263.742188 263.335938 L 262.386719 264.4375 L 261.101562 265.625 L 259.894531 266.890625 L 258.773438 268.226562 L 257.734375 269.636719 L 256.789062 271.105469 L 255.941406 272.632812 L 255.191406 274.210938 L 254.539062 275.832031 L 253.996094 277.492188 L 253.554688 279.183594 L 253.226562 280.902344 L 253.003906 282.636719 L 252.894531 284.378906 L 252.894531 286.128906 L 253.003906 287.871094 L 253.226562 289.605469 L 253.554688 291.320312 L 253.996094 293.011719 L 254.539062 294.671875 L 255.191406 296.296875 L 255.941406 297.875 L 256.789062 299.402344 L 257.734375 300.871094 L 258.773438 302.277344 L 259.894531 303.617188 L 261.101562 304.882812 L 262.386719 306.066406 L 263.742188 307.171875 L 265.164062 308.183594 L 266.652344 309.105469 L 268.191406 309.929688 L 269.78125 310.65625 L 271.414062 311.28125 L 273.082031 311.800781 L 274.78125 312.210938 L 276.503906 312.515625 L 278.238281 312.707031 L 279.984375 312.792969 L 281.730469 312.765625 L 283.472656 312.625 L 285.203125 312.378906 L 286.914062 312.019531 L 288.597656 311.554688 L 290.25 310.980469 L 291.863281 310.304688 L 293.429688 309.53125 L 294.941406 308.65625 L 296.398438 307.6875 L 297.789062 306.628906 L 299.109375 305.484375 L 300.355469 304.257812 L 301.519531 302.957031 L 302.601562 301.582031 L 303.589844 300.144531 L 304.488281 298.644531 L 305.289062 297.089844 L 305.992188 295.488281 L 306.589844 293.847656 L 307.082031 292.171875 L 307.464844 290.464844 L 307.742188 288.738281 L 307.910156 287 Z M 307.964844 285.253906 "/>
<path fill-rule="nonzero" fill="rgb(51.372549%, 57.647059%, 77.647059%)" fill-opacity="0.819608" stroke-width="1.066978" stroke-linecap="butt" stroke-linejoin="round" stroke="rgb(98.431373%, 96.862745%, 94.117647%)" stroke-opacity="1" stroke-miterlimit="10" d="M 354.625 162.84375 L 354.527344 159.691406 L 354.226562 156.550781 L 353.726562 153.433594 L 353.03125 150.355469 L 352.144531 147.328125 L 351.0625 144.363281 L 349.800781 141.472656 L 348.355469 138.667969 L 346.734375 135.960938 L 344.945312 133.363281 L 342.992188 130.882812 L 340.890625 128.53125 L 338.640625 126.316406 L 336.257812 124.253906 L 333.746094 122.339844 L 331.117188 120.59375 L 328.386719 119.015625 L 325.558594 117.613281 L 322.648438 116.394531 L 319.667969 115.363281 L 316.625 114.523438 L 313.539062 113.875 L 310.414062 113.429688 L 307.269531 113.175781 L 304.113281 113.128906 L 300.964844 113.277344 L 297.828125 113.628906 L 294.71875 114.175781 L 291.652344 114.917969 L 288.640625 115.855469 L 285.691406 116.980469 L 282.824219 118.292969 L 280.042969 119.78125 L 277.359375 121.445312 L 274.789062 123.277344 L 272.34375 125.265625 L 270.023438 127.40625 L 267.847656 129.691406 L 265.820312 132.109375 L 263.949219 134.648438 L 262.242188 137.300781 L 260.707031 140.058594 L 259.351562 142.910156 L 258.179688 145.839844 L 257.195312 148.835938 L 256.402344 151.890625 L 255.804688 154.988281 L 255.40625 158.117188 L 255.207031 161.265625 L 255.207031 164.421875 L 255.40625 167.570312 L 255.804688 170.699219 L 256.402344 173.796875 L 257.195312 176.851562 L 258.179688 179.851562 L 259.351562 182.78125 L 260.707031 185.628906 L 262.242188 188.386719 L 263.949219 191.039062 L 265.820312 193.582031 L 267.847656 195.996094 L 270.023438 198.28125 L 272.34375 200.421875 L 274.789062 202.410156 L 277.359375 204.242188 L 280.042969 205.90625 L 282.824219 207.394531 L 285.691406 208.707031 L 288.640625 209.832031 L 291.652344 210.769531 L 294.71875 211.511719 L 297.828125 212.0625 L 300.964844 212.410156 L 304.113281 212.558594 L 307.269531 212.511719 L 310.414062 212.261719 L 313.539062 211.8125 L 316.625 211.164062 L 319.667969 210.324219 L 322.648438 209.292969 L 325.558594 208.074219 L 328.386719 206.671875 L 331.117188 205.09375 L 333.746094 203.347656 L 336.257812 201.4375 L 338.640625 199.371094 L 340.890625 197.15625 L 342.992188 194.804688 L 344.945312 192.324219 L 346.734375 189.726562 L 348.355469 187.019531 L 349.800781 184.214844 L 351.0625 181.324219 L 352.144531 178.359375 L 353.03125 175.332031 L 353.726562 172.253906 L 354.226562 169.136719 L 354.527344 165.996094 Z M 354.625 162.84375 "/>
<path fill-rule="nonzero" fill="rgb(26.666667%, 36.862745%, 27.45098%)" fill-opacity="0.819608" stroke-width="1.066978" stroke-linecap="butt" stroke-linejoin="round" stroke="rgb(98.431373%, 96.862745%, 94.117647%)" stroke-opacity="1" stroke-miterlimit="10" d="M 259 153.664062 L 258.890625 150.167969 L 258.558594 146.691406 L 258.003906 143.238281 L 257.234375 139.828125 L 256.25 136.476562 L 255.054688 133.191406 L 253.652344 129.988281 L 252.050781 126.882812 L 250.253906 123.882812 L 248.273438 121.003906 L 246.113281 118.257812 L 243.78125 115.652344 L 241.289062 113.199219 L 238.648438 110.910156 L 235.867188 108.792969 L 232.957031 106.855469 L 229.929688 105.109375 L 226.796875 103.558594 L 223.574219 102.207031 L 220.269531 101.0625 L 216.902344 100.132812 L 213.480469 99.417969 L 210.019531 98.917969 L 206.535156 98.640625 L 203.042969 98.585938 L 199.550781 98.753906 L 196.078125 99.140625 L 192.632812 99.746094 L 189.238281 100.570312 L 185.898438 101.609375 L 182.632812 102.855469 L 179.453125 104.308594 L 176.375 105.960938 L 173.402344 107.800781 L 170.554688 109.828125 L 167.84375 112.035156 L 165.277344 114.40625 L 162.863281 116.933594 L 160.617188 119.613281 L 158.542969 122.425781 L 156.65625 125.367188 L 154.957031 128.421875 L 153.453125 131.578125 L 152.152344 134.824219 L 151.0625 138.144531 L 150.183594 141.527344 L 149.523438 144.960938 L 149.082031 148.425781 L 148.859375 151.914062 L 148.859375 155.410156 L 149.082031 158.898438 L 149.523438 162.367188 L 150.183594 165.800781 L 151.0625 169.183594 L 152.152344 172.503906 L 153.453125 175.75 L 154.957031 178.90625 L 156.65625 181.957031 L 158.542969 184.898438 L 160.617188 187.714844 L 162.863281 190.390625 L 165.277344 192.921875 L 167.84375 195.292969 L 170.554688 197.496094 L 173.402344 199.523438 L 176.375 201.367188 L 179.453125 203.019531 L 182.632812 204.46875 L 185.898438 205.71875 L 189.238281 206.753906 L 192.632812 207.578125 L 196.078125 208.1875 L 199.550781 208.574219 L 203.042969 208.742188 L 206.535156 208.683594 L 210.019531 208.40625 L 213.480469 207.910156 L 216.902344 207.195312 L 220.269531 206.261719 L 223.574219 205.121094 L 226.796875 203.769531 L 229.929688 202.21875 L 232.957031 200.46875 L 235.867188 198.535156 L 238.648438 196.417969 L 241.289062 194.128906 L 243.78125 191.675781 L 246.113281 189.070312 L 248.273438 186.324219 L 250.253906 183.445312 L 252.050781 180.445312 L 253.652344 177.339844 L 255.054688 174.136719 L 256.25 170.851562 L 257.234375 167.496094 L 258.003906 164.089844 L 258.558594 160.636719 L 258.890625 157.15625 Z M 259 153.664062 "/>
<g fill="rgb(12.156863%, 10.196078%, 7.45098%)" fill-opacity="1">
<use xlink:href="#glyph-0-0" x="161.722656" y="157.421875"/>
<use xlink:href="#glyph-0-1" x="168.29791" y="157.421875"/>
<use xlink:href="#glyph-0-2" x="170.827538" y="157.421875"/>
<use xlink:href="#glyph-0-3" x="173.357166" y="157.421875"/>
<use xlink:href="#glyph-0-4" x="178.420867" y="157.421875"/>
<use xlink:href="#glyph-0-5" x="183.982492" y="157.421875"/>
<use xlink:href="#glyph-0-3" x="187.014489" y="157.421875"/>
<use xlink:href="#glyph-0-6" x="192.07819" y="157.421875"/>
</g>
<g fill="rgb(12.156863%, 10.196078%, 7.45098%)" fill-opacity="1">
<use xlink:href="#glyph-0-7" x="306.871094" y="166.601562"/>
<use xlink:href="#glyph-0-8" x="313.953163" y="166.601562"/>
<use xlink:href="#glyph-0-3" x="319.514787" y="166.601562"/>
<use xlink:href="#glyph-0-9" x="324.578489" y="166.601562"/>
<use xlink:href="#glyph-0-10" x="328.121746" y="166.601562"/>
<use xlink:href="#glyph-0-11" x="333.185447" y="166.601562"/>
<use xlink:href="#glyph-0-2" x="338.249149" y="166.601562"/>
<use xlink:href="#glyph-0-12" x="340.778776" y="166.601562"/>
<use xlink:href="#glyph-0-4" x="346.340401" y="166.601562"/>
</g>
<g fill="rgb(12.156863%, 10.196078%, 7.45098%)" fill-opacity="1">
<use xlink:href="#glyph-0-13" x="239.519531" y="289.011719"/>
<use xlink:href="#glyph-0-2" x="245.081156" y="289.011719"/>
<use xlink:href="#glyph-0-4" x="247.610784" y="289.011719"/>
<use xlink:href="#glyph-0-10" x="253.172408" y="289.011719"/>
<use xlink:href="#glyph-0-4" x="258.23611" y="289.011719"/>
<use xlink:href="#glyph-0-14" x="263.797734" y="289.011719"/>
<use xlink:href="#glyph-0-10" x="268.350175" y="289.011719"/>
<use xlink:href="#glyph-0-6" x="273.413877" y="289.011719"/>
</g>
<g fill="rgb(0%, 0%, 0%)" fill-opacity="1">
<use xlink:href="#glyph-1-0" x="90.6875" y="34.058594"/>
<use xlink:href="#glyph-1-1" x="96.1875" y="34.058594"/>
<use xlink:href="#glyph-1-2" x="102.305176" y="34.058594"/>
<use xlink:href="#glyph-1-3" x="105.968262" y="34.058594"/>
<use xlink:href="#glyph-1-2" x="112.085938" y="34.058594"/>
<use xlink:href="#glyph-1-4" x="115.749023" y="34.058594"/>
<use xlink:href="#glyph-1-5" x="121.866699" y="34.058594"/>
<use xlink:href="#glyph-1-6" x="127.984375" y="34.058594"/>
<use xlink:href="#glyph-1-3" x="131.040527" y="34.058594"/>
<use xlink:href="#glyph-1-7" x="137.158203" y="34.058594"/>
<use xlink:href="#glyph-1-2" x="140.214355" y="34.058594"/>
<use xlink:href="#glyph-1-3" x="143.877441" y="34.058594"/>
<use xlink:href="#glyph-1-8" x="149.995117" y="34.058594"/>
<use xlink:href="#glyph-1-9" x="156.112793" y="34.058594"/>
<use xlink:href="#glyph-1-3" x="158.556641" y="34.058594"/>
<use xlink:href="#glyph-1-10" x="164.674316" y="34.058594"/>
<use xlink:href="#glyph-1-7" x="167.118164" y="34.058594"/>
<use xlink:href="#glyph-1-11" x="170.174316" y="34.058594"/>
<use xlink:href="#glyph-1-3" x="176.291992" y="34.058594"/>
<use xlink:href="#glyph-1-12" x="182.409668" y="34.058594"/>
<use xlink:href="#glyph-1-3" x="187.909668" y="34.058594"/>
<use xlink:href="#glyph-1-8" x="194.027344" y="34.058594"/>
<use xlink:href="#glyph-1-3" x="200.14502" y="34.058594"/>
<use xlink:href="#glyph-1-7" x="206.262695" y="34.058594"/>
<use xlink:href="#glyph-1-1" x="209.318848" y="34.058594"/>
<use xlink:href="#glyph-1-13" x="215.436523" y="34.058594"/>
<use xlink:href="#glyph-1-7" x="221.554199" y="34.058594"/>
<use xlink:href="#glyph-1-14" x="224.610352" y="34.058594"/>
<use xlink:href="#glyph-1-15" x="230.110352" y="34.058594"/>
<use xlink:href="#glyph-1-13" x="236.228027" y="34.058594"/>
<use xlink:href="#glyph-1-16" x="242.345703" y="34.058594"/>
<use xlink:href="#glyph-1-1" x="245.401855" y="34.058594"/>
<use xlink:href="#glyph-1-13" x="251.519531" y="34.058594"/>
<use xlink:href="#glyph-1-14" x="257.637207" y="34.058594"/>
<use xlink:href="#glyph-1-9" x="263.137207" y="34.058594"/>
<use xlink:href="#glyph-1-17" x="265.581055" y="34.058594"/>
<use xlink:href="#glyph-1-13" x="271.69873" y="34.058594"/>
<use xlink:href="#glyph-1-7" x="277.816406" y="34.058594"/>
<use xlink:href="#glyph-1-18" x="280.872559" y="34.058594"/>
<use xlink:href="#glyph-1-9" x="286.372559" y="34.058594"/>
<use xlink:href="#glyph-1-12" x="288.816406" y="34.058594"/>
<use xlink:href="#glyph-1-5" x="294.316406" y="34.058594"/>
<use xlink:href="#glyph-1-3" x="300.434082" y="34.058594"/>
<use xlink:href="#glyph-1-10" x="306.551758" y="34.058594"/>
</g>
<g fill="rgb(0%, 0%, 0%)" fill-opacity="1">
<use xlink:href="#glyph-2-0" x="90.6875" y="15.929688"/>
<use xlink:href="#glyph-2-1" x="100.220117" y="15.929688"/>
<use xlink:href="#glyph-2-2" x="103.152734" y="15.929688"/>
<use xlink:href="#glyph-2-3" x="107.548437" y="15.929688"/>
<use xlink:href="#glyph-2-4" x="114.148437" y="15.929688"/>
<use xlink:href="#glyph-2-5" x="121.489648" y="15.929688"/>
<use xlink:href="#glyph-2-6" x="124.422266" y="15.929688"/>
<use xlink:href="#glyph-2-2" x="131.763477" y="15.929688"/>
<use xlink:href="#glyph-2-7" x="136.15918" y="15.929688"/>
<use xlink:href="#glyph-2-8" x="139.826562" y="15.929688"/>
<use xlink:href="#glyph-2-6" x="147.167773" y="15.929688"/>
<use xlink:href="#glyph-2-3" x="154.508984" y="15.929688"/>
<use xlink:href="#glyph-2-9" x="161.108984" y="15.929688"/>
<use xlink:href="#glyph-2-1" x="167.708984" y="15.929688"/>
<use xlink:href="#glyph-2-10" x="170.641602" y="15.929688"/>
<use xlink:href="#glyph-2-11" x="177.982812" y="15.929688"/>
</g>
</svg>
