<?xml version="1.0" encoding="UTF-8"?>
<svg xmlns="http://www.w3.org/2000/svg" xmlns:xlink="http://www.w3.org/1999/xlink" width="518pt" height="345pt" viewBox="0 0 518 345">
<defs>
<g>
<g id="glyph-0-0">
<path d="M 0.414062 -3.53125 C 0.414062 -4.375 0.503906 -5.058594 0.675781 -5.574219 C 0.851562 -6.089844 1.109375 -6.488281 1.453125 -6.765625 C 1.796875 -7.046875 2.226562 -7.1875 2.75 -7.1875 C 3.132812 -7.1875 3.46875 -7.109375 3.757812 -6.957031 C 4.050781 -6.800781 4.289062 -6.578125 4.476562 -6.285156 C 4.667969 -5.996094 4.8125 -5.640625 4.921875 -5.222656 C 5.03125 -4.804688 5.082031 -4.238281 5.082031 -3.53125 C 5.082031 -2.691406 4.996094 -2.011719 4.824219 -1.496094 C 4.652344 -0.980469 4.394531 -0.582031 4.050781 -0.300781 C 3.707031 -0.0195312 3.273438 0.121094 2.75 0.121094 C 2.058594 0.121094 1.515625 -0.125 1.125 -0.621094 C 0.652344 -1.214844 0.414062 -2.1875 0.414062 -3.53125 M 1.320312 -3.53125 C 1.320312 -2.355469 1.457031 -1.574219 1.730469 -1.183594 C 2.007812 -0.796875 2.34375 -0.601562 2.75 -0.601562 C 3.152344 -0.601562 3.492188 -0.796875 3.765625 -1.1875 C 4.042969 -1.578125 4.179688 -2.359375 4.179688 -3.53125 C 4.179688 -4.707031 4.042969 -5.492188 3.765625 -5.878906 C 3.492188 -6.265625 3.148438 -6.460938 2.738281 -6.460938 C 2.335938 -6.460938 2.011719 -6.289062 1.773438 -5.945312 C 1.46875 -5.511719 1.320312 -4.707031 1.320312 -3.53125 Z M 1.320312 -3.53125 "/>
</g>
<g id="glyph-0-1">
<path d="M 3.726562 0 L 2.847656 0 L 2.847656 -5.601562 C 2.636719 -5.398438 2.359375 -5.195312 2.015625 -4.996094 C 1.671875 -4.792969 1.363281 -4.640625 1.089844 -4.539062 L 1.089844 -5.390625 C 1.582031 -5.621094 2.011719 -5.902344 2.378906 -6.230469 C 2.746094 -6.558594 3.007812 -6.878906 3.160156 -7.1875 L 3.726562 -7.1875 Z M 3.726562 0 "/>
</g>
<g id="glyph-0-2">
<path d="M 5.035156 -0.84375 L 5.035156 0 L 0.304688 0 C 0.296875 -0.210938 0.332031 -0.414062 0.40625 -0.609375 C 0.527344 -0.933594 0.71875 -1.25 0.984375 -1.5625 C 1.25 -1.875 1.632812 -2.234375 2.132812 -2.648438 C 2.910156 -3.285156 3.4375 -3.789062 3.710938 -4.164062 C 3.984375 -4.535156 4.121094 -4.886719 4.121094 -5.21875 C 4.121094 -5.566406 3.996094 -5.863281 3.746094 -6.101562 C 3.5 -6.339844 3.171875 -6.460938 2.773438 -6.460938 C 2.351562 -6.460938 2.011719 -6.332031 1.757812 -6.078125 C 1.503906 -5.824219 1.375 -5.472656 1.371094 -5.023438 L 0.46875 -5.117188 C 0.53125 -5.789062 0.761719 -6.304688 1.167969 -6.65625 C 1.570312 -7.011719 2.113281 -7.1875 2.792969 -7.1875 C 3.480469 -7.1875 4.023438 -6.996094 4.421875 -6.617188 C 4.824219 -6.234375 5.023438 -5.761719 5.023438 -5.199219 C 5.023438 -4.914062 4.964844 -4.632812 4.847656 -4.355469 C 4.730469 -4.078125 4.535156 -3.789062 4.265625 -3.480469 C 3.992188 -3.175781 3.542969 -2.753906 2.910156 -2.222656 C 2.382812 -1.777344 2.042969 -1.480469 1.894531 -1.320312 C 1.746094 -1.164062 1.621094 -1.003906 1.523438 -0.84375 Z M 5.035156 -0.84375 "/>
</g>
<g id="glyph-0-3">
<path d="M 0.773438 0 L 0.773438 -7.15625 L 3.238281 -7.15625 C 3.792969 -7.15625 4.21875 -7.125 4.511719 -7.054688 C 4.921875 -6.960938 5.273438 -6.789062 5.5625 -6.542969 C 5.9375 -6.222656 6.222656 -5.816406 6.410156 -5.320312 C 6.597656 -4.824219 6.6875 -4.257812 6.6875 -3.617188 C 6.6875 -3.074219 6.625 -2.59375 6.5 -2.171875 C 6.371094 -1.753906 6.210938 -1.40625 6.011719 -1.128906 C 5.8125 -0.855469 5.59375 -0.640625 5.359375 -0.480469 C 5.121094 -0.324219 4.839844 -0.203125 4.503906 -0.121094 C 4.171875 -0.0390625 3.789062 0 3.355469 0 L 0.773438 0 M 1.71875 -0.84375 L 3.246094 -0.84375 C 3.71875 -0.84375 4.089844 -0.890625 4.359375 -0.976562 C 4.625 -1.0625 4.839844 -1.1875 5 -1.347656 C 5.226562 -1.570312 5.398438 -1.875 5.523438 -2.253906 C 5.648438 -2.632812 5.710938 -3.09375 5.710938 -3.632812 C 5.710938 -4.382812 5.589844 -4.957031 5.34375 -5.359375 C 5.097656 -5.761719 4.800781 -6.03125 4.449219 -6.167969 C 4.195312 -6.265625 3.785156 -6.3125 3.222656 -6.3125 L 1.71875 -6.3125 Z M 1.71875 -0.84375 "/>
</g>
<g id="glyph-0-4">
<path d="M 0.332031 -2.59375 C 0.332031 -3.554688 0.597656 -4.265625 1.132812 -4.726562 C 1.578125 -5.109375 2.121094 -5.304688 2.765625 -5.304688 C 3.476562 -5.304688 4.058594 -5.070312 4.511719 -4.601562 C 4.964844 -4.136719 5.191406 -3.488281 5.191406 -2.664062 C 5.191406 -2 5.089844 -1.472656 4.890625 -1.089844 C 4.691406 -0.707031 4.398438 -0.410156 4.015625 -0.199219 C 3.632812 0.0117188 3.214844 0.117188 2.765625 0.117188 C 2.039062 0.117188 1.449219 -0.117188 1.003906 -0.582031 C 0.554688 -1.046875 0.332031 -1.71875 0.332031 -2.59375 M 1.234375 -2.59375 C 1.234375 -1.929688 1.378906 -1.429688 1.671875 -1.101562 C 1.960938 -0.769531 2.324219 -0.605469 2.765625 -0.605469 C 3.199219 -0.605469 3.5625 -0.773438 3.851562 -1.101562 C 4.140625 -1.4375 4.289062 -1.941406 4.289062 -2.621094 C 4.289062 -3.261719 4.140625 -3.75 3.851562 -4.078125 C 3.558594 -4.410156 3.195312 -4.574219 2.765625 -4.574219 C 2.324219 -4.574219 1.960938 -4.410156 1.671875 -4.082031 C 1.378906 -3.753906 1.234375 -3.257812 1.234375 -2.59375 Z M 1.234375 -2.59375 "/>
</g>
<g id="glyph-0-5">
<path d="M 4.023438 0 L 4.023438 -0.65625 C 3.695312 -0.140625 3.210938 0.117188 2.574219 0.117188 C 2.160156 0.117188 1.78125 0.00390625 1.433594 -0.226562 C 1.085938 -0.453125 0.816406 -0.769531 0.628906 -1.179688 C 0.4375 -1.585938 0.34375 -2.058594 0.34375 -2.585938 C 0.34375 -3.105469 0.429688 -3.574219 0.601562 -3.996094 C 0.773438 -4.417969 1.03125 -4.742188 1.375 -4.964844 C 1.722656 -5.191406 2.109375 -5.304688 2.535156 -5.304688 C 2.847656 -5.304688 3.125 -5.238281 3.367188 -5.105469 C 3.613281 -4.972656 3.8125 -4.800781 3.964844 -4.589844 L 3.964844 -7.15625 L 4.839844 -7.15625 L 4.839844 0 L 4.023438 0 M 1.246094 -2.585938 C 1.246094 -1.921875 1.386719 -1.425781 1.664062 -1.097656 C 1.945312 -0.769531 2.273438 -0.605469 2.65625 -0.605469 C 3.039062 -0.605469 3.367188 -0.761719 3.636719 -1.078125 C 3.902344 -1.390625 4.039062 -1.871094 4.039062 -2.515625 C 4.039062 -3.222656 3.902344 -3.746094 3.628906 -4.078125 C 3.355469 -4.410156 3.015625 -4.574219 2.617188 -4.574219 C 2.226562 -4.574219 1.898438 -4.414062 1.636719 -4.097656 C 1.375 -3.777344 1.246094 -3.273438 1.246094 -2.585938 Z M 1.246094 -2.585938 "/>
</g>
<g id="glyph-0-6">
<path d="M 0.5 0.429688 L 1.351562 0.554688 C 1.386719 0.820312 1.488281 1.011719 1.648438 1.132812 C 1.867188 1.296875 2.167969 1.375 2.542969 1.375 C 2.949219 1.375 3.265625 1.296875 3.484375 1.132812 C 3.707031 0.96875 3.859375 0.742188 3.9375 0.449219 C 3.980469 0.269531 4.003906 -0.105469 4 -0.679688 C 3.613281 -0.226562 3.136719 0 2.5625 0 C 1.851562 0 1.296875 -0.257812 0.90625 -0.773438 C 0.515625 -1.285156 0.320312 -1.902344 0.320312 -2.621094 C 0.320312 -3.117188 0.410156 -3.574219 0.589844 -3.992188 C 0.769531 -4.410156 1.03125 -4.734375 1.371094 -4.960938 C 1.710938 -5.1875 2.109375 -5.304688 2.570312 -5.304688 C 3.179688 -5.304688 3.683594 -5.054688 4.082031 -4.5625 L 4.082031 -5.1875 L 4.890625 -5.1875 L 4.890625 -0.703125 C 4.890625 0.105469 4.808594 0.675781 4.644531 1.011719 C 4.480469 1.351562 4.222656 1.617188 3.863281 1.8125 C 3.507812 2.007812 3.070312 2.105469 2.546875 2.105469 C 1.929688 2.105469 1.429688 1.964844 1.050781 1.6875 C 0.667969 1.410156 0.484375 0.988281 0.5 0.429688 M 1.226562 -2.6875 C 1.226562 -2.003906 1.359375 -1.507812 1.632812 -1.195312 C 1.902344 -0.882812 2.238281 -0.726562 2.648438 -0.726562 C 3.050781 -0.726562 3.390625 -0.882812 3.664062 -1.195312 C 3.933594 -1.503906 4.070312 -1.992188 4.070312 -2.65625 C 4.070312 -3.289062 3.929688 -3.769531 3.648438 -4.09375 C 3.367188 -4.414062 3.027344 -4.574219 2.632812 -4.574219 C 2.242188 -4.574219 1.910156 -4.417969 1.636719 -4.097656 C 1.363281 -3.78125 1.226562 -3.3125 1.226562 -2.6875 Z M 1.226562 -2.6875 "/>
</g>
<g id="glyph-0-7">
<path d="M 4.210938 -1.671875 L 5.117188 -1.558594 C 4.972656 -1.027344 4.707031 -0.613281 4.320312 -0.320312 C 3.933594 -0.03125 3.4375 0.117188 2.835938 0.117188 C 2.078125 0.117188 1.476562 -0.117188 1.03125 -0.582031 C 0.589844 -1.050781 0.367188 -1.707031 0.367188 -2.546875 C 0.367188 -3.421875 0.589844 -4.097656 1.039062 -4.578125 C 1.488281 -5.0625 2.070312 -5.304688 2.789062 -5.304688 C 3.480469 -5.304688 4.046875 -5.066406 4.488281 -4.59375 C 4.925781 -4.121094 5.148438 -3.457031 5.148438 -2.601562 C 5.148438 -2.550781 5.144531 -2.472656 5.140625 -2.367188 L 1.273438 -2.367188 C 1.308594 -1.796875 1.46875 -1.363281 1.757812 -1.058594 C 2.046875 -0.757812 2.410156 -0.605469 2.84375 -0.605469 C 3.164062 -0.605469 3.4375 -0.691406 3.667969 -0.859375 C 3.894531 -1.027344 4.074219 -1.296875 4.210938 -1.671875 M 1.324219 -3.089844 L 4.21875 -3.089844 C 4.179688 -3.527344 4.070312 -3.855469 3.886719 -4.070312 C 3.605469 -4.410156 3.242188 -4.578125 2.796875 -4.578125 C 2.394531 -4.578125 2.054688 -4.445312 1.78125 -4.175781 C 1.503906 -3.90625 1.351562 -3.542969 1.324219 -3.089844 Z M 1.324219 -3.089844 "/>
</g>
<g id="glyph-0-8">
<path d="M 0.820312 0 L 0.820312 -7.15625 L 5.648438 -7.15625 L 5.648438 -6.3125 L 1.765625 -6.3125 L 1.765625 -4.097656 L 5.125 -4.097656 L 5.125 -3.25 L 1.765625 -3.25 L 1.765625 0 Z M 0.820312 0 "/>
</g>
<g id="glyph-0-9">
<path d="M 0.648438 0 L 0.648438 -5.1875 L 1.441406 -5.1875 L 1.441406 -4.398438 C 1.640625 -4.765625 1.828125 -5.007812 2 -5.125 C 2.171875 -5.242188 2.359375 -5.304688 2.5625 -5.304688 C 2.859375 -5.304688 3.160156 -5.207031 3.46875 -5.019531 L 3.164062 -4.203125 C 2.949219 -4.332031 2.734375 -4.394531 2.519531 -4.394531 C 2.328125 -4.394531 2.15625 -4.335938 2 -4.222656 C 1.847656 -4.105469 1.738281 -3.945312 1.675781 -3.742188 C 1.578125 -3.429688 1.527344 -3.085938 1.527344 -2.714844 L 1.527344 0 Z M 0.648438 0 "/>
</g>
<g id="glyph-0-10">
<path d="M 2.59375 0 L 2.59375 -6.3125 L 0.234375 -6.3125 L 0.234375 -7.15625 L 5.90625 -7.15625 L 5.90625 -6.3125 L 3.539062 -6.3125 L 3.539062 0 Z M 2.59375 0 "/>
</g>
<g id="glyph-0-11">
<path d="M 0.621094 1.996094 L 0.523438 1.171875 C 0.714844 1.222656 0.882812 1.25 1.023438 1.25 C 1.21875 1.25 1.375 1.21875 1.492188 1.152344 C 1.609375 1.085938 1.707031 0.996094 1.78125 0.878906 C 1.835938 0.789062 1.925781 0.574219 2.050781 0.226562 C 2.066406 0.175781 2.09375 0.105469 2.128906 0.0078125 L 0.160156 -5.1875 L 1.109375 -5.1875 L 2.1875 -2.183594 C 2.328125 -1.800781 2.453125 -1.402344 2.5625 -0.980469 C 2.664062 -1.386719 2.785156 -1.777344 2.925781 -2.164062 L 4.03125 -5.1875 L 4.914062 -5.1875 L 2.9375 0.0859375 C 2.726562 0.65625 2.5625 1.050781 2.445312 1.265625 C 2.289062 1.554688 2.109375 1.765625 1.910156 1.902344 C 1.707031 2.035156 1.464844 2.105469 1.1875 2.105469 C 1.015625 2.105469 0.828125 2.070312 0.621094 1.996094 Z M 0.621094 1.996094 "/>
</g>
<g id="glyph-0-12">
<path d="M 2.578125 -0.785156 L 2.703125 -0.0078125 C 2.457031 0.0429688 2.234375 0.0703125 2.039062 0.0703125 C 1.722656 0.0703125 1.476562 0.0195312 1.296875 -0.0820312 C 1.125 -0.183594 1 -0.316406 0.929688 -0.480469 C 0.855469 -0.644531 0.820312 -0.992188 0.820312 -1.519531 L 0.820312 -4.5 L 0.175781 -4.5 L 0.175781 -5.1875 L 0.820312 -5.1875 L 0.820312 -6.46875 L 1.695312 -6.996094 L 1.695312 -5.1875 L 2.578125 -5.1875 L 2.578125 -4.5 L 1.695312 -4.5 L 1.695312 -1.46875 C 1.695312 -1.21875 1.710938 -1.058594 1.742188 -0.984375 C 1.773438 -0.914062 1.820312 -0.859375 1.890625 -0.816406 C 1.960938 -0.773438 2.0625 -0.75 2.191406 -0.75 C 2.289062 -0.75 2.417969 -0.761719 2.578125 -0.785156 Z M 2.578125 -0.785156 "/>
</g>
<g id="glyph-0-13">
<path d="M 4.042969 -0.640625 C 3.71875 -0.363281 3.402344 -0.167969 3.101562 -0.0546875 C 2.800781 0.0585938 2.480469 0.117188 2.132812 0.117188 C 1.5625 0.117188 1.125 -0.0234375 0.820312 -0.300781 C 0.515625 -0.578125 0.359375 -0.933594 0.359375 -1.367188 C 0.359375 -1.621094 0.417969 -1.851562 0.535156 -2.0625 C 0.648438 -2.273438 0.800781 -2.441406 0.988281 -2.570312 C 1.175781 -2.695312 1.386719 -2.792969 1.621094 -2.855469 C 1.792969 -2.902344 2.054688 -2.945312 2.402344 -2.988281 C 3.113281 -3.074219 3.632812 -3.171875 3.96875 -3.289062 C 3.972656 -3.410156 3.976562 -3.488281 3.976562 -3.519531 C 3.976562 -3.878906 3.890625 -4.128906 3.726562 -4.277344 C 3.5 -4.476562 3.167969 -4.574219 2.726562 -4.574219 C 2.3125 -4.574219 2.007812 -4.503906 1.808594 -4.359375 C 1.613281 -4.214844 1.464844 -3.957031 1.371094 -3.589844 L 0.511719 -3.707031 C 0.589844 -4.074219 0.71875 -4.371094 0.898438 -4.597656 C 1.078125 -4.824219 1.335938 -4.996094 1.675781 -5.121094 C 2.011719 -5.242188 2.40625 -5.304688 2.851562 -5.304688 C 3.292969 -5.304688 3.652344 -5.25 3.929688 -5.148438 C 4.207031 -5.042969 4.410156 -4.910156 4.539062 -4.753906 C 4.671875 -4.59375 4.761719 -4.394531 4.8125 -4.15625 C 4.84375 -4.003906 4.859375 -3.734375 4.859375 -3.34375 L 4.859375 -2.171875 C 4.859375 -1.355469 4.878906 -0.839844 4.914062 -0.621094 C 4.953125 -0.40625 5.027344 -0.199219 5.136719 0 L 4.21875 0 C 4.128906 -0.183594 4.070312 -0.394531 4.042969 -0.640625 M 3.96875 -2.601562 C 3.652344 -2.472656 3.171875 -2.363281 2.535156 -2.269531 C 2.171875 -2.21875 1.917969 -2.160156 1.765625 -2.09375 C 1.617188 -2.03125 1.503906 -1.933594 1.421875 -1.808594 C 1.339844 -1.683594 1.296875 -1.542969 1.296875 -1.390625 C 1.296875 -1.15625 1.386719 -0.960938 1.566406 -0.804688 C 1.742188 -0.648438 2 -0.570312 2.34375 -0.570312 C 2.683594 -0.570312 2.984375 -0.644531 3.246094 -0.792969 C 3.511719 -0.941406 3.703125 -1.144531 3.828125 -1.402344 C 3.921875 -1.601562 3.96875 -1.894531 3.96875 -2.28125 Z M 3.96875 -2.601562 "/>
</g>
<g id="glyph-0-14">
<path d="M 2.816406 0 L 0.0429688 -7.15625 L 1.070312 -7.15625 L 2.929688 -1.957031 C 3.078125 -1.542969 3.203125 -1.152344 3.304688 -0.785156 C 3.417969 -1.175781 3.546875 -1.566406 3.691406 -1.957031 L 5.625 -7.15625 L 6.59375 -7.15625 L 3.789062 0 Z M 2.816406 0 "/>
</g>
<g id="glyph-0-15">
<path d="M 0.640625 0 L 0.640625 -7.15625 L 1.519531 -7.15625 L 1.519531 0 Z M 0.640625 0 "/>
</g>
<g id="glyph-0-16">
<path d="M 0.664062 0 L 0.664062 -7.15625 L 1.542969 -7.15625 L 1.542969 -3.078125 L 3.625 -5.1875 L 4.761719 -5.1875 L 2.777344 -3.261719 L 4.960938 0 L 3.875 0 L 2.164062 -2.652344 L 1.542969 -2.054688 L 1.542969 0 Z M 0.664062 0 "/>
</g>
<g id="glyph-0-17">
<path d="M 0.308594 -1.546875 L 1.175781 -1.683594 C 1.226562 -1.335938 1.363281 -1.070312 1.585938 -0.882812 C 1.808594 -0.699219 2.117188 -0.605469 2.519531 -0.605469 C 2.921875 -0.605469 3.222656 -0.6875 3.417969 -0.851562 C 3.613281 -1.015625 3.710938 -1.210938 3.710938 -1.429688 C 3.710938 -1.628906 3.625 -1.785156 3.453125 -1.898438 C 3.332031 -1.976562 3.03125 -2.078125 2.554688 -2.195312 C 1.910156 -2.359375 1.460938 -2.5 1.214844 -2.621094 C 0.964844 -2.738281 0.777344 -2.902344 0.648438 -3.113281 C 0.519531 -3.324219 0.453125 -3.554688 0.453125 -3.808594 C 0.453125 -4.039062 0.507812 -4.253906 0.613281 -4.449219 C 0.71875 -4.648438 0.863281 -4.8125 1.046875 -4.941406 C 1.179688 -5.042969 1.367188 -5.128906 1.605469 -5.199219 C 1.839844 -5.269531 2.09375 -5.304688 2.363281 -5.304688 C 2.769531 -5.304688 3.128906 -5.242188 3.433594 -5.125 C 3.742188 -5.007812 3.96875 -4.851562 4.117188 -4.652344 C 4.261719 -4.449219 4.363281 -4.183594 4.417969 -3.847656 L 3.558594 -3.730469 C 3.519531 -3.996094 3.40625 -4.207031 3.21875 -4.355469 C 3.03125 -4.503906 2.769531 -4.578125 2.425781 -4.578125 C 2.023438 -4.578125 1.734375 -4.511719 1.5625 -4.378906 C 1.390625 -4.246094 1.304688 -4.089844 1.304688 -3.910156 C 1.304688 -3.796875 1.339844 -3.695312 1.410156 -3.601562 C 1.484375 -3.507812 1.59375 -3.429688 1.75 -3.367188 C 1.835938 -3.335938 2.09375 -3.261719 2.523438 -3.144531 C 3.144531 -2.976562 3.578125 -2.84375 3.824219 -2.738281 C 4.070312 -2.632812 4.265625 -2.476562 4.40625 -2.273438 C 4.542969 -2.074219 4.613281 -1.824219 4.613281 -1.523438 C 4.613281 -1.230469 4.527344 -0.953125 4.359375 -0.695312 C 4.1875 -0.4375 3.941406 -0.238281 3.617188 -0.09375 C 3.296875 0.046875 2.929688 0.117188 2.523438 0.117188 C 1.851562 0.117188 1.335938 -0.0234375 0.984375 -0.304688 C 0.628906 -0.582031 0.40625 -0.996094 0.308594 -1.546875 Z M 0.308594 -1.546875 "/>
</g>
<g id="glyph-0-18">
<path d="M 1.617188 0 L 0.03125 -5.1875 L 0.9375 -5.1875 L 1.761719 -2.191406 L 2.070312 -1.078125 C 2.082031 -1.132812 2.171875 -1.492188 2.339844 -2.148438 L 3.164062 -5.1875 L 4.066406 -5.1875 L 4.84375 -2.179688 L 5.101562 -1.1875 L 6.289062 -5.1875 L 7.144531 -5.1875 L 5.523438 0 L 4.609375 0 L 3.785156 -3.105469 L 3.585938 -3.988281 L 2.535156 0 Z M 1.617188 0 "/>
</g>
<g id="glyph-0-19">
<path d="M 0.660156 0 L 0.660156 -5.1875 L 1.449219 -5.1875 L 1.449219 -4.449219 C 1.832031 -5.019531 2.382812 -5.304688 3.101562 -5.304688 C 3.414062 -5.304688 3.699219 -5.246094 3.960938 -5.132812 C 4.222656 -5.023438 4.421875 -4.875 4.550781 -4.691406 C 4.679688 -4.511719 4.773438 -4.292969 4.824219 -4.042969 C 4.855469 -3.878906 4.875 -3.59375 4.875 -3.1875 L 4.875 0 L 3.992188 0 L 3.992188 -3.15625 C 3.992188 -3.511719 3.960938 -3.78125 3.890625 -3.957031 C 3.824219 -4.136719 3.703125 -4.277344 3.527344 -4.382812 C 3.355469 -4.488281 3.148438 -4.539062 2.914062 -4.539062 C 2.539062 -4.539062 2.21875 -4.421875 1.945312 -4.183594 C 1.675781 -3.945312 1.539062 -3.496094 1.539062 -2.832031 L 1.539062 0 Z M 0.660156 0 "/>
</g>
<g id="glyph-1-0">
<path d="M -2.789062 -5.625 L -2.320312 -7.113281 C -1.492188 -6.882812 -0.875 -6.503906 -0.472656 -5.976562 C -0.0703125 -5.445312 0.128906 -4.773438 0.128906 -3.960938 C 0.128906 -2.953125 -0.214844 -2.125 -0.902344 -1.476562 C -1.589844 -0.828125 -2.53125 -0.503906 -3.726562 -0.503906 C -4.988281 -0.503906 -5.96875 -0.828125 -6.667969 -1.480469 C -7.367188 -2.132812 -7.71875 -2.988281 -7.71875 -4.050781 C -7.71875 -4.980469 -7.441406 -5.734375 -6.894531 -6.3125 C -6.570312 -6.660156 -6.105469 -6.917969 -5.496094 -7.089844 L -5.132812 -5.574219 C -5.527344 -5.484375 -5.839844 -5.296875 -6.066406 -5.011719 C -6.292969 -4.726562 -6.40625 -4.382812 -6.40625 -3.976562 C -6.40625 -3.414062 -6.207031 -2.957031 -5.800781 -2.605469 C -5.398438 -2.253906 -4.746094 -2.082031 -3.839844 -2.082031 C -2.882812 -2.082031 -2.199219 -2.253906 -1.789062 -2.597656 C -1.382812 -2.941406 -1.179688 -3.390625 -1.179688 -3.945312 C -1.179688 -4.351562 -1.308594 -4.703125 -1.566406 -4.996094 C -1.828125 -5.289062 -2.234375 -5.5 -2.789062 -5.625 Z M -2.789062 -5.625 "/>
</g>
<g id="glyph-1-1">
<path d="M -2.824219 -0.425781 C -3.308594 -0.425781 -3.777344 -0.542969 -4.230469 -0.78125 C -4.679688 -1.019531 -5.027344 -1.355469 -5.265625 -1.792969 C -5.5 -2.230469 -5.621094 -2.71875 -5.621094 -3.253906 C -5.621094 -4.085938 -5.351562 -4.769531 -4.8125 -5.300781 C -4.269531 -5.832031 -3.589844 -6.097656 -2.765625 -6.097656 C -1.933594 -6.097656 -1.242188 -5.828125 -0.695312 -5.292969 C -0.148438 -4.753906 0.125 -4.082031 0.125 -3.265625 C 0.125 -2.761719 0.0117188 -2.28125 -0.21875 -1.824219 C -0.445312 -1.367188 -0.777344 -1.019531 -1.21875 -0.78125 C -1.660156 -0.542969 -2.195312 -0.425781 -2.824219 -0.425781 M -2.75 -1.914062 C -2.203125 -1.914062 -1.785156 -2.042969 -1.496094 -2.304688 C -1.207031 -2.5625 -1.0625 -2.882812 -1.0625 -3.261719 C -1.0625 -3.640625 -1.207031 -3.957031 -1.496094 -4.214844 C -1.785156 -4.472656 -2.207031 -4.601562 -2.757812 -4.601562 C -3.296875 -4.601562 -3.710938 -4.472656 -4 -4.214844 C -4.289062 -3.957031 -4.4375 -3.640625 -4.4375 -3.261719 C -4.4375 -2.882812 -4.289062 -2.5625 -4 -2.304688 C -3.710938 -2.042969 -3.292969 -1.914062 -2.75 -1.914062 Z M -2.75 -1.914062 "/>
</g>
<g id="glyph-1-2">
<path d="M 0 -5.761719 L 0 -4.304688 L -2.804688 -4.304688 C -3.398438 -4.304688 -3.78125 -4.273438 -3.957031 -4.214844 C -4.132812 -4.152344 -4.265625 -4.050781 -4.363281 -3.910156 C -4.460938 -3.769531 -4.507812 -3.601562 -4.507812 -3.40625 C -4.507812 -3.152344 -4.4375 -2.929688 -4.300781 -2.726562 C -4.164062 -2.527344 -3.980469 -2.390625 -3.753906 -2.316406 C -3.523438 -2.242188 -3.105469 -2.203125 -2.488281 -2.203125 L 0 -2.203125 L 0 -0.75 L -5.496094 -0.75 L -5.496094 -2.101562 L -4.6875 -2.101562 C -5.308594 -2.582031 -5.621094 -3.183594 -5.621094 -3.914062 C -5.621094 -4.234375 -5.5625 -4.527344 -5.449219 -4.792969 C -5.332031 -5.058594 -5.183594 -5.257812 -5.003906 -5.394531 C -4.824219 -5.53125 -4.621094 -5.625 -4.394531 -5.679688 C -4.167969 -5.734375 -3.839844 -5.761719 -3.414062 -5.761719 Z M 0 -5.761719 "/>
</g>
<g id="glyph-1-3">
<path d="M -5.496094 -3.28125 L -4.335938 -3.28125 L -4.335938 -2.289062 L -2.121094 -2.289062 C -1.671875 -2.289062 -1.414062 -2.296875 -1.339844 -2.316406 C -1.265625 -2.335938 -1.203125 -2.378906 -1.152344 -2.445312 C -1.105469 -2.511719 -1.082031 -2.59375 -1.082031 -2.691406 C -1.082031 -2.824219 -1.128906 -3.019531 -1.222656 -3.277344 L -0.09375 -3.402344 C 0.0507812 -3.0625 0.125 -2.679688 0.125 -2.25 C 0.125 -1.988281 0.0820312 -1.753906 -0.0078125 -1.542969 C -0.0976562 -1.332031 -0.210938 -1.175781 -0.347656 -1.078125 C -0.488281 -0.980469 -0.679688 -0.914062 -0.917969 -0.875 C -1.085938 -0.84375 -1.425781 -0.828125 -1.941406 -0.828125 L -4.335938 -0.828125 L -4.335938 -0.160156 L -5.496094 -0.160156 L -5.496094 -0.828125 L -6.589844 -0.828125 L -7.4375 -2.289062 L -5.496094 -2.289062 Z M -5.496094 -3.28125 "/>
</g>
<g id="glyph-1-4">
<path d="M -1.75 -3.945312 L -1.507812 -5.394531 C -0.976562 -5.207031 -0.570312 -4.914062 -0.292969 -4.511719 C -0.015625 -4.109375 0.125 -3.605469 0.125 -3 C 0.125 -2.046875 -0.1875 -1.339844 -0.8125 -0.878906 C -1.3125 -0.519531 -1.945312 -0.335938 -2.707031 -0.335938 C -3.617188 -0.335938 -4.332031 -0.574219 -4.847656 -1.050781 C -5.363281 -1.527344 -5.621094 -2.128906 -5.621094 -2.855469 C -5.621094 -3.675781 -5.351562 -4.320312 -4.8125 -4.792969 C -4.269531 -5.265625 -3.445312 -5.492188 -2.328125 -5.472656 L -2.328125 -1.828125 C -1.898438 -1.835938 -1.5625 -1.953125 -1.324219 -2.179688 C -1.082031 -2.402344 -0.960938 -2.683594 -0.960938 -3.015625 C -0.960938 -3.246094 -1.023438 -3.4375 -1.148438 -3.59375 C -1.273438 -3.746094 -1.472656 -3.863281 -1.75 -3.945312 M -3.21875 -4.027344 C -3.640625 -4.015625 -3.960938 -3.90625 -4.179688 -3.699219 C -4.398438 -3.492188 -4.507812 -3.242188 -4.507812 -2.945312 C -4.507812 -2.628906 -4.390625 -2.367188 -4.160156 -2.160156 C -3.929688 -1.953125 -3.617188 -1.847656 -3.21875 -1.851562 Z M -3.21875 -4.027344 "/>
</g>
<g id="glyph-2-0">
<path d="M 2.386719 0 L 2.386719 -6.066406 L 0.21875 -6.066406 L 0.21875 -7.300781 L 6.019531 -7.300781 L 6.019531 -6.066406 L 3.859375 -6.066406 L 3.859375 0 Z M 2.386719 0 "/>
</g>
<g id="glyph-2-1">
<path d="M 2.070312 0 L 0.671875 0 L 0.671875 -5.289062 L 1.972656 -5.289062 L 1.972656 -4.539062 C 2.195312 -4.890625 2.394531 -5.125 2.574219 -5.238281 C 2.75 -5.351562 2.953125 -5.410156 3.175781 -5.410156 C 3.496094 -5.410156 3.804688 -5.320312 4.097656 -5.144531 L 3.664062 -3.925781 C 3.429688 -4.078125 3.210938 -4.152344 3.007812 -4.152344 C 2.8125 -4.152344 2.644531 -4.101562 2.511719 -3.992188 C 2.375 -3.882812 2.265625 -3.6875 2.1875 -3.40625 C 2.109375 -3.125 2.070312 -2.535156 2.070312 -1.632812 Z M 2.070312 0 "/>
</g>
<g id="glyph-2-2">
<path d="M 1.777344 -3.675781 L 0.507812 -3.90625 C 0.652344 -4.414062 0.894531 -4.792969 1.246094 -5.039062 C 1.59375 -5.285156 2.113281 -5.410156 2.800781 -5.410156 C 3.421875 -5.410156 3.886719 -5.335938 4.195312 -5.1875 C 4.5 -5.039062 4.714844 -4.851562 4.839844 -4.625 C 4.964844 -4.398438 5.023438 -3.980469 5.023438 -3.371094 L 5.011719 -1.738281 C 5.011719 -1.273438 5.03125 -0.929688 5.078125 -0.710938 C 5.121094 -0.488281 5.207031 -0.253906 5.328125 0 L 3.945312 0 C 3.90625 -0.09375 3.863281 -0.230469 3.808594 -0.414062 C 3.785156 -0.496094 3.769531 -0.550781 3.761719 -0.578125 C 3.519531 -0.34375 3.265625 -0.171875 2.992188 -0.0546875 C 2.722656 0.0625 2.429688 0.121094 2.121094 0.121094 C 1.578125 0.121094 1.148438 -0.0273438 0.835938 -0.324219 C 0.519531 -0.621094 0.363281 -0.992188 0.363281 -1.445312 C 0.363281 -1.742188 0.433594 -2.007812 0.578125 -2.242188 C 0.71875 -2.476562 0.921875 -2.65625 1.179688 -2.78125 C 1.433594 -2.90625 1.804688 -3.015625 2.289062 -3.109375 C 2.945312 -3.230469 3.398438 -3.34375 3.652344 -3.453125 L 3.652344 -3.589844 C 3.652344 -3.859375 3.585938 -4.050781 3.453125 -4.167969 C 3.320312 -4.28125 3.066406 -4.339844 2.699219 -4.339844 C 2.449219 -4.339844 2.257812 -4.289062 2.117188 -4.191406 C 1.976562 -4.09375 1.863281 -3.921875 1.777344 -3.675781 M 3.652344 -2.539062 C 3.472656 -2.480469 3.1875 -2.410156 2.800781 -2.324219 C 2.410156 -2.242188 2.15625 -2.160156 2.035156 -2.082031 C 1.855469 -1.953125 1.761719 -1.789062 1.761719 -1.589844 C 1.761719 -1.394531 1.835938 -1.222656 1.980469 -1.082031 C 2.128906 -0.9375 2.3125 -0.867188 2.539062 -0.867188 C 2.792969 -0.867188 3.03125 -0.949219 3.261719 -1.117188 C 3.429688 -1.242188 3.542969 -1.394531 3.597656 -1.578125 C 3.632812 -1.699219 3.652344 -1.925781 3.652344 -2.261719 Z M 3.652344 -2.539062 "/>
</g>
<g id="glyph-2-3">
<path d="M 5.34375 -3.726562 L 3.964844 -3.476562 C 3.917969 -3.75 3.8125 -3.960938 3.648438 -4.097656 C 3.484375 -4.238281 3.269531 -4.308594 3.007812 -4.308594 C 2.660156 -4.308594 2.382812 -4.1875 2.175781 -3.945312 C 1.964844 -3.707031 1.863281 -3.304688 1.863281 -2.738281 C 1.863281 -2.113281 1.96875 -1.667969 2.179688 -1.410156 C 2.390625 -1.152344 2.671875 -1.019531 3.027344 -1.019531 C 3.292969 -1.019531 3.511719 -1.097656 3.679688 -1.246094 C 3.851562 -1.398438 3.96875 -1.660156 4.039062 -2.027344 L 5.414062 -1.792969 C 5.269531 -1.160156 4.996094 -0.6875 4.59375 -0.363281 C 4.1875 -0.0429688 3.644531 0.121094 2.964844 0.121094 C 2.191406 0.121094 1.574219 -0.125 1.113281 -0.613281 C 0.652344 -1.101562 0.421875 -1.777344 0.421875 -2.640625 C 0.421875 -3.511719 0.652344 -4.191406 1.117188 -4.679688 C 1.578125 -5.164062 2.203125 -5.410156 2.988281 -5.410156 C 3.632812 -5.410156 4.144531 -5.269531 4.523438 -4.992188 C 4.90625 -4.714844 5.179688 -4.292969 5.34375 -3.726562 Z M 5.34375 -3.726562 "/>
</g>
<g id="glyph-2-4">
<path d="M 0.730469 -6.007812 L 0.730469 -7.300781 L 2.132812 -7.300781 L 2.132812 -6.007812 L 0.730469 -6.007812 M 0.730469 0 L 0.730469 -5.289062 L 2.132812 -5.289062 L 2.132812 0 Z M 0.730469 0 "/>
</g>
<g id="glyph-2-5">
<path d="M 0.410156 -2.71875 C 0.410156 -3.183594 0.523438 -3.632812 0.753906 -4.070312 C 0.980469 -4.503906 1.304688 -4.835938 1.726562 -5.066406 C 2.144531 -5.292969 2.613281 -5.410156 3.132812 -5.410156 C 3.933594 -5.410156 4.589844 -5.148438 5.101562 -4.628906 C 5.609375 -4.109375 5.867188 -3.453125 5.867188 -2.660156 C 5.867188 -1.859375 5.609375 -1.195312 5.09375 -0.667969 C 4.578125 -0.144531 3.925781 0.121094 3.144531 0.121094 C 2.65625 0.121094 2.195312 0.0117188 1.753906 -0.210938 C 1.316406 -0.429688 0.980469 -0.75 0.753906 -1.171875 C 0.523438 -1.597656 0.410156 -2.113281 0.410156 -2.71875 M 1.84375 -2.644531 C 1.84375 -2.121094 1.96875 -1.71875 2.214844 -1.4375 C 2.464844 -1.160156 2.773438 -1.019531 3.136719 -1.019531 C 3.503906 -1.019531 3.808594 -1.160156 4.054688 -1.4375 C 4.304688 -1.71875 4.425781 -2.125 4.425781 -2.65625 C 4.425781 -3.171875 4.304688 -3.570312 4.054688 -3.851562 C 3.808594 -4.128906 3.503906 -4.269531 3.136719 -4.269531 C 2.773438 -4.269531 2.464844 -4.128906 2.214844 -3.851562 C 1.96875 -3.570312 1.84375 -3.167969 1.84375 -2.644531 M 2.429688 -5.9375 L 3.117188 -7.425781 L 4.6875 -7.425781 L 3.316406 -5.9375 Z M 2.429688 -5.9375 "/>
</g>
<g id="glyph-2-6">
<path d="M 5.542969 0 L 4.144531 0 L 4.144531 -2.699219 C 4.144531 -3.269531 4.113281 -3.640625 4.054688 -3.808594 C 3.996094 -3.976562 3.898438 -4.105469 3.761719 -4.199219 C 3.628906 -4.292969 3.464844 -4.339844 3.277344 -4.339844 C 3.035156 -4.339844 2.816406 -4.273438 2.625 -4.140625 C 2.433594 -4.007812 2.300781 -3.828125 2.230469 -3.609375 C 2.15625 -3.390625 2.121094 -2.988281 2.121094 -2.394531 L 2.121094 0 L 0.722656 0 L 0.722656 -5.289062 L 2.023438 -5.289062 L 2.023438 -4.511719 C 2.484375 -5.109375 3.066406 -5.410156 3.765625 -5.410156 C 4.074219 -5.410156 4.355469 -5.351562 4.613281 -5.242188 C 4.867188 -5.128906 5.0625 -4.988281 5.191406 -4.816406 C 5.324219 -4.644531 5.414062 -4.449219 5.464844 -4.226562 C 5.515625 -4.007812 5.542969 -3.695312 5.542969 -3.285156 Z M 5.542969 0 "/>
</g>
<g id="glyph-3-0">
<path d="M 3.136719 0 L 3.136719 -1.664062 L 0.125 -1.664062 L 0.125 -2.445312 L 3.292969 -6.945312 L 3.988281 -6.945312 L 3.988281 -2.445312 L 4.925781 -2.445312 L 4.925781 -1.664062 L 3.988281 -1.664062 L 3.988281 0 L 3.136719 0 M 3.136719 -2.445312 L 3.136719 -5.574219 L 0.960938 -2.445312 Z M 3.136719 -2.445312 "/>
</g>
<g id="glyph-3-1">
<path d="M 0.0703125 0 L 1.910156 -2.613281 L 0.207031 -5.03125 L 1.273438 -5.03125 L 2.046875 -3.851562 C 2.191406 -3.625 2.308594 -3.4375 2.398438 -3.285156 C 2.535156 -3.496094 2.664062 -3.679688 2.78125 -3.839844 L 3.628906 -5.03125 L 4.644531 -5.03125 L 2.90625 -2.660156 L 4.777344 0 L 3.730469 0 L 2.699219 -1.5625 L 2.425781 -1.984375 L 1.105469 0 Z M 0.0703125 0 "/>
</g>
<g id="glyph-3-2">
<path d="M 0.75 0 L 0.75 -6.945312 L 3.140625 -6.945312 C 3.679688 -6.945312 4.09375 -6.910156 4.375 -6.84375 C 4.773438 -6.753906 5.113281 -6.585938 5.394531 -6.347656 C 5.761719 -6.039062 6.035156 -5.640625 6.214844 -5.160156 C 6.398438 -4.679688 6.488281 -4.128906 6.488281 -3.507812 C 6.488281 -2.980469 6.425781 -2.515625 6.304688 -2.109375 C 6.179688 -1.699219 6.023438 -1.363281 5.832031 -1.097656 C 5.636719 -0.828125 5.425781 -0.621094 5.199219 -0.464844 C 4.96875 -0.3125 4.691406 -0.199219 4.371094 -0.117188 C 4.046875 -0.0390625 3.671875 0 3.253906 0 L 0.75 0 M 1.667969 -0.820312 L 3.148438 -0.820312 C 3.609375 -0.820312 3.964844 -0.863281 4.226562 -0.945312 C 4.488281 -1.03125 4.695312 -1.152344 4.851562 -1.308594 C 5.066406 -1.523438 5.238281 -1.816406 5.359375 -2.1875 C 5.480469 -2.554688 5.542969 -3 5.542969 -3.523438 C 5.542969 -4.25 5.421875 -4.808594 5.183594 -5.199219 C 4.945312 -5.589844 4.65625 -5.847656 4.316406 -5.980469 C 4.070312 -6.078125 3.671875 -6.125 3.125 -6.125 L 1.667969 -6.125 Z M 1.667969 -0.820312 "/>
</g>
<g id="glyph-3-3">
<path d="M 4.082031 -1.621094 L 4.964844 -1.511719 C 4.824219 -0.996094 4.566406 -0.597656 4.191406 -0.3125 C 3.816406 -0.0273438 3.335938 0.113281 2.75 0.113281 C 2.015625 0.113281 1.433594 -0.113281 1 -0.566406 C 0.570312 -1.019531 0.355469 -1.65625 0.355469 -2.472656 C 0.355469 -3.320312 0.574219 -3.976562 1.007812 -4.441406 C 1.445312 -4.910156 2.011719 -5.144531 2.703125 -5.144531 C 3.378906 -5.144531 3.925781 -4.914062 4.351562 -4.457031 C 4.777344 -4 4.992188 -3.355469 4.992188 -2.523438 C 4.992188 -2.472656 4.992188 -2.398438 4.988281 -2.296875 L 1.234375 -2.296875 C 1.269531 -1.746094 1.425781 -1.320312 1.703125 -1.027344 C 1.984375 -0.734375 2.335938 -0.585938 2.757812 -0.585938 C 3.070312 -0.585938 3.335938 -0.667969 3.558594 -0.832031 C 3.777344 -0.996094 3.953125 -1.261719 4.082031 -1.621094 M 1.285156 -3 L 4.09375 -3 C 4.054688 -3.421875 3.945312 -3.738281 3.769531 -3.949219 C 3.5 -4.277344 3.148438 -4.441406 2.714844 -4.441406 C 2.324219 -4.441406 1.992188 -4.3125 1.726562 -4.050781 C 1.460938 -3.789062 1.3125 -3.4375 1.285156 -3 Z M 1.285156 -3 "/>
</g>
<g id="glyph-3-4">
<path d="M 0.621094 0 L 0.621094 -6.945312 L 1.472656 -6.945312 L 1.472656 0 Z M 0.621094 0 "/>
</g>
<g id="glyph-3-5">
<path d="M 3.921875 -0.621094 C 3.605469 -0.351562 3.300781 -0.164062 3.011719 -0.0507812 C 2.71875 0.0585938 2.40625 0.113281 2.070312 0.113281 C 1.515625 0.113281 1.09375 -0.0195312 0.796875 -0.292969 C 0.5 -0.5625 0.351562 -0.90625 0.351562 -1.328125 C 0.351562 -1.574219 0.40625 -1.796875 0.519531 -2 C 0.628906 -2.203125 0.777344 -2.367188 0.960938 -2.492188 C 1.140625 -2.613281 1.34375 -2.707031 1.574219 -2.769531 C 1.738281 -2.816406 1.992188 -2.859375 2.332031 -2.898438 C 3.019531 -2.980469 3.527344 -3.078125 3.851562 -3.191406 C 3.855469 -3.308594 3.855469 -3.382812 3.855469 -3.414062 C 3.855469 -3.761719 3.773438 -4.007812 3.613281 -4.148438 C 3.394531 -4.339844 3.074219 -4.4375 2.644531 -4.4375 C 2.242188 -4.4375 1.945312 -4.367188 1.753906 -4.226562 C 1.5625 -4.085938 1.421875 -3.839844 1.332031 -3.480469 L 0.496094 -3.59375 C 0.574219 -3.953125 0.699219 -4.238281 0.871094 -4.460938 C 1.046875 -4.679688 1.296875 -4.847656 1.625 -4.964844 C 1.953125 -5.085938 2.332031 -5.144531 2.765625 -5.144531 C 3.195312 -5.144531 3.542969 -5.09375 3.8125 -4.992188 C 4.082031 -4.890625 4.277344 -4.765625 4.40625 -4.609375 C 4.53125 -4.457031 4.621094 -4.265625 4.671875 -4.03125 C 4.699219 -3.886719 4.710938 -3.625 4.710938 -3.246094 L 4.710938 -2.109375 C 4.710938 -1.316406 4.730469 -0.8125 4.765625 -0.605469 C 4.804688 -0.394531 4.875 -0.191406 4.984375 0 L 4.09375 0 C 4.003906 -0.175781 3.945312 -0.382812 3.921875 -0.621094 M 3.851562 -2.523438 C 3.542969 -2.398438 3.078125 -2.289062 2.457031 -2.203125 C 2.109375 -2.152344 1.859375 -2.09375 1.714844 -2.03125 C 1.570312 -1.96875 1.457031 -1.875 1.378906 -1.753906 C 1.300781 -1.632812 1.261719 -1.5 1.261719 -1.351562 C 1.261719 -1.121094 1.347656 -0.933594 1.519531 -0.78125 C 1.691406 -0.628906 1.941406 -0.554688 2.273438 -0.554688 C 2.601562 -0.554688 2.894531 -0.625 3.148438 -0.769531 C 3.40625 -0.914062 3.59375 -1.109375 3.714844 -1.359375 C 3.804688 -1.550781 3.851562 -1.835938 3.851562 -2.210938 Z M 3.851562 -2.523438 "/>
</g>
<g id="glyph-3-6">
<path d="M 0.640625 0 L 0.640625 -5.03125 L 1.40625 -5.03125 L 1.40625 -4.316406 C 1.777344 -4.867188 2.308594 -5.144531 3.007812 -5.144531 C 3.3125 -5.144531 3.589844 -5.089844 3.84375 -4.980469 C 4.097656 -4.871094 4.289062 -4.726562 4.414062 -4.550781 C 4.539062 -4.375 4.628906 -4.164062 4.679688 -3.921875 C 4.710938 -3.765625 4.726562 -3.488281 4.726562 -3.09375 L 4.726562 0 L 3.875 0 L 3.875 -3.058594 C 3.875 -3.40625 3.839844 -3.667969 3.773438 -3.839844 C 3.707031 -4.011719 3.589844 -4.148438 3.421875 -4.25 C 3.253906 -4.351562 3.054688 -4.40625 2.828125 -4.40625 C 2.464844 -4.40625 2.152344 -4.289062 1.886719 -4.058594 C 1.625 -3.828125 1.492188 -3.390625 1.492188 -2.746094 L 1.492188 0 Z M 0.640625 0 "/>
</g>
<g id="glyph-3-7">
<path d="M 2.5 -0.761719 L 2.625 -0.0078125 C 2.382812 0.0429688 2.167969 0.0664062 1.980469 0.0664062 C 1.671875 0.0664062 1.429688 0.015625 1.261719 -0.0820312 C 1.089844 -0.179688 0.96875 -0.308594 0.898438 -0.464844 C 0.832031 -0.625 0.796875 -0.960938 0.796875 -1.472656 L 0.796875 -4.367188 L 0.171875 -4.367188 L 0.171875 -5.03125 L 0.796875 -5.03125 L 0.796875 -6.277344 L 1.644531 -6.789062 L 1.644531 -5.03125 L 2.5 -5.03125 L 2.5 -4.367188 L 1.644531 -4.367188 L 1.644531 -1.425781 C 1.644531 -1.183594 1.660156 -1.027344 1.6875 -0.957031 C 1.71875 -0.886719 1.765625 -0.832031 1.835938 -0.789062 C 1.902344 -0.75 2 -0.730469 2.125 -0.730469 C 2.222656 -0.730469 2.347656 -0.742188 2.5 -0.761719 Z M 2.5 -0.761719 "/>
</g>
<g id="glyph-3-8">
<path d="M 0.628906 0 L 0.628906 -5.03125 L 1.398438 -5.03125 L 1.398438 -4.265625 C 1.59375 -4.625 1.773438 -4.859375 1.941406 -4.972656 C 2.105469 -5.085938 2.289062 -5.144531 2.488281 -5.144531 C 2.773438 -5.144531 3.066406 -5.050781 3.363281 -4.867188 L 3.070312 -4.078125 C 2.859375 -4.199219 2.652344 -4.261719 2.445312 -4.261719 C 2.257812 -4.261719 2.089844 -4.207031 1.941406 -4.09375 C 1.792969 -3.984375 1.6875 -3.828125 1.625 -3.628906 C 1.53125 -3.324219 1.484375 -2.992188 1.484375 -2.632812 L 1.484375 0 Z M 0.628906 0 "/>
</g>
<g id="glyph-3-9">
<path d="M 2.515625 0 L 2.515625 -6.125 L 0.226562 -6.125 L 0.226562 -6.945312 L 5.730469 -6.945312 L 5.730469 -6.125 L 3.433594 -6.125 L 3.433594 0 Z M 2.515625 0 "/>
</g>
<g id="glyph-3-10">
<path d="M 0.296875 -1.5 L 1.140625 -1.632812 C 1.1875 -1.296875 1.320312 -1.039062 1.535156 -0.855469 C 1.753906 -0.675781 2.054688 -0.585938 2.445312 -0.585938 C 2.835938 -0.585938 3.125 -0.667969 3.316406 -0.828125 C 3.503906 -0.984375 3.597656 -1.171875 3.597656 -1.386719 C 3.597656 -1.582031 3.515625 -1.730469 3.347656 -1.84375 C 3.230469 -1.917969 2.941406 -2.015625 2.476562 -2.132812 C 1.851562 -2.289062 1.417969 -2.425781 1.175781 -2.542969 C 0.933594 -2.65625 0.753906 -2.816406 0.628906 -3.019531 C 0.503906 -3.222656 0.441406 -3.449219 0.441406 -3.695312 C 0.441406 -3.917969 0.492188 -4.125 0.59375 -4.316406 C 0.695312 -4.507812 0.835938 -4.667969 1.011719 -4.792969 C 1.144531 -4.890625 1.328125 -4.972656 1.554688 -5.042969 C 1.785156 -5.109375 2.03125 -5.144531 2.292969 -5.144531 C 2.6875 -5.144531 3.035156 -5.085938 3.332031 -4.972656 C 3.628906 -4.859375 3.851562 -4.707031 3.992188 -4.511719 C 4.136719 -4.316406 4.234375 -4.058594 4.285156 -3.730469 L 3.453125 -3.617188 C 3.414062 -3.878906 3.304688 -4.078125 3.125 -4.226562 C 2.941406 -4.371094 2.683594 -4.441406 2.355469 -4.441406 C 1.960938 -4.441406 1.683594 -4.378906 1.515625 -4.25 C 1.347656 -4.117188 1.265625 -3.96875 1.265625 -3.792969 C 1.265625 -3.683594 1.300781 -3.582031 1.367188 -3.496094 C 1.4375 -3.402344 1.546875 -3.328125 1.695312 -3.269531 C 1.78125 -3.238281 2.03125 -3.164062 2.449219 -3.050781 C 3.050781 -2.890625 3.472656 -2.757812 3.710938 -2.65625 C 3.949219 -2.550781 4.136719 -2.402344 4.273438 -2.207031 C 4.40625 -2.011719 4.476562 -1.769531 4.476562 -1.476562 C 4.476562 -1.195312 4.394531 -0.925781 4.226562 -0.675781 C 4.0625 -0.425781 3.820312 -0.230469 3.507812 -0.09375 C 3.195312 0.046875 2.84375 0.113281 2.449219 0.113281 C 1.796875 0.113281 1.296875 -0.0234375 0.953125 -0.292969 C 0.613281 -0.566406 0.394531 -0.96875 0.296875 -1.5 Z M 0.296875 -1.5 "/>
</g>
<g id="glyph-4-0">
<path d="M 0.746094 0 L 0.746094 -7.300781 L 1.714844 -7.300781 L 1.714844 -0.863281 L 5.308594 -0.863281 L 5.308594 0 Z M 0.746094 0 "/>
</g>
<g id="glyph-4-1">
<path d="M 4.125 -0.652344 C 3.792969 -0.371094 3.472656 -0.171875 3.164062 -0.0546875 C 2.859375 0.0625 2.527344 0.121094 2.175781 0.121094 C 1.59375 0.121094 1.148438 -0.0234375 0.835938 -0.304688 C 0.523438 -0.589844 0.367188 -0.953125 0.367188 -1.394531 C 0.367188 -1.652344 0.425781 -1.890625 0.546875 -2.105469 C 0.664062 -2.320312 0.816406 -2.492188 1.007812 -2.621094 C 1.199219 -2.75 1.414062 -2.847656 1.652344 -2.914062 C 1.828125 -2.960938 2.09375 -3.003906 2.449219 -3.046875 C 3.175781 -3.132812 3.707031 -3.238281 4.050781 -3.355469 C 4.050781 -3.480469 4.054688 -3.558594 4.054688 -3.589844 C 4.054688 -3.957031 3.96875 -4.214844 3.800781 -4.363281 C 3.570312 -4.566406 3.230469 -4.667969 2.777344 -4.667969 C 2.355469 -4.667969 2.046875 -4.59375 1.84375 -4.445312 C 1.644531 -4.296875 1.496094 -4.035156 1.398438 -3.660156 L 0.523438 -3.78125 C 0.601562 -4.15625 0.734375 -4.457031 0.917969 -4.6875 C 1.097656 -4.917969 1.363281 -5.097656 1.707031 -5.222656 C 2.054688 -5.347656 2.453125 -5.410156 2.910156 -5.410156 C 3.359375 -5.410156 3.726562 -5.355469 4.007812 -5.25 C 4.292969 -5.144531 4.5 -5.007812 4.632812 -4.847656 C 4.765625 -4.6875 4.859375 -4.484375 4.910156 -4.238281 C 4.941406 -4.085938 4.957031 -3.808594 4.957031 -3.410156 L 4.957031 -2.214844 C 4.957031 -1.382812 4.976562 -0.855469 5.011719 -0.636719 C 5.050781 -0.414062 5.125 -0.203125 5.238281 0 L 4.304688 0 C 4.210938 -0.1875 4.148438 -0.402344 4.125 -0.652344 M 4.050781 -2.65625 C 3.722656 -2.523438 3.234375 -2.410156 2.585938 -2.316406 C 2.214844 -2.261719 1.957031 -2.203125 1.804688 -2.136719 C 1.648438 -2.070312 1.53125 -1.972656 1.449219 -1.84375 C 1.367188 -1.71875 1.324219 -1.574219 1.324219 -1.417969 C 1.324219 -1.179688 1.414062 -0.980469 1.597656 -0.820312 C 1.777344 -0.664062 2.042969 -0.582031 2.390625 -0.582031 C 2.734375 -0.582031 3.042969 -0.660156 3.3125 -0.808594 C 3.582031 -0.960938 3.777344 -1.167969 3.90625 -1.429688 C 4 -1.632812 4.050781 -1.929688 4.050781 -2.324219 Z M 4.050781 -2.65625 "/>
</g>
<g id="glyph-4-2">
</g>
<g id="glyph-4-3">
<path d="M 0.339844 -2.644531 C 0.339844 -3.625 0.609375 -4.347656 1.15625 -4.820312 C 1.609375 -5.210938 2.164062 -5.410156 2.820312 -5.410156 C 3.546875 -5.410156 4.140625 -5.171875 4.601562 -4.695312 C 5.0625 -4.21875 5.292969 -3.558594 5.292969 -2.71875 C 5.292969 -2.039062 5.191406 -1.503906 4.988281 -1.113281 C 4.785156 -0.722656 4.488281 -0.421875 4.097656 -0.203125 C 3.707031 0.0117188 3.28125 0.121094 2.820312 0.121094 C 2.078125 0.121094 1.480469 -0.117188 1.023438 -0.59375 C 0.566406 -1.066406 0.339844 -1.75 0.339844 -2.644531 M 1.261719 -2.644531 C 1.261719 -1.96875 1.40625 -1.460938 1.703125 -1.125 C 2 -0.785156 2.371094 -0.617188 2.820312 -0.617188 C 3.265625 -0.617188 3.632812 -0.785156 3.929688 -1.125 C 4.226562 -1.464844 4.371094 -1.980469 4.371094 -2.675781 C 4.371094 -3.328125 4.222656 -3.824219 3.925781 -4.160156 C 3.628906 -4.5 3.261719 -4.667969 2.820312 -4.667969 C 2.371094 -4.667969 2 -4.5 1.703125 -4.164062 C 1.40625 -3.828125 1.261719 -3.320312 1.261719 -2.644531 Z M 1.261719 -2.644531 "/>
</g>
<g id="glyph-4-4">
<path d="M 0.671875 2.027344 L 0.671875 -5.289062 L 1.488281 -5.289062 L 1.488281 -4.601562 C 1.683594 -4.871094 1.898438 -5.074219 2.140625 -5.207031 C 2.382812 -5.339844 2.679688 -5.410156 3.023438 -5.410156 C 3.476562 -5.410156 3.875 -5.292969 4.21875 -5.058594 C 4.5625 -4.828125 4.824219 -4.5 5 -4.078125 C 5.175781 -3.652344 5.265625 -3.1875 5.265625 -2.683594 C 5.265625 -2.144531 5.167969 -1.65625 4.972656 -1.222656 C 4.777344 -0.789062 4.496094 -0.457031 4.125 -0.226562 C 3.757812 0.00390625 3.367188 0.121094 2.957031 0.121094 C 2.660156 0.121094 2.390625 0.0546875 2.152344 -0.0703125 C 1.917969 -0.195312 1.722656 -0.355469 1.570312 -0.546875 L 1.570312 2.027344 L 0.671875 2.027344 M 1.484375 -2.613281 C 1.484375 -1.933594 1.621094 -1.429688 1.898438 -1.105469 C 2.171875 -0.78125 2.507812 -0.617188 2.898438 -0.617188 C 3.296875 -0.617188 3.636719 -0.785156 3.921875 -1.125 C 4.207031 -1.460938 4.347656 -1.980469 4.347656 -2.6875 C 4.347656 -3.363281 4.210938 -3.867188 3.933594 -4.203125 C 3.65625 -4.539062 3.324219 -4.707031 2.9375 -4.707031 C 2.554688 -4.707031 2.21875 -4.527344 1.925781 -4.171875 C 1.632812 -3.8125 1.484375 -3.296875 1.484375 -2.613281 Z M 1.484375 -2.613281 "/>
</g>
<g id="glyph-4-5">
<path d="M 4.125 -1.9375 L 5.003906 -1.824219 C 4.910156 -1.214844 4.664062 -0.738281 4.265625 -0.394531 C 3.867188 -0.0507812 3.382812 0.121094 2.804688 0.121094 C 2.082031 0.121094 1.5 -0.117188 1.058594 -0.589844 C 0.617188 -1.0625 0.398438 -1.742188 0.398438 -2.625 C 0.398438 -3.195312 0.492188 -3.695312 0.683594 -4.125 C 0.871094 -4.550781 1.160156 -4.875 1.546875 -5.085938 C 1.933594 -5.300781 2.355469 -5.410156 2.808594 -5.410156 C 3.382812 -5.410156 3.851562 -5.261719 4.21875 -4.972656 C 4.582031 -4.683594 4.816406 -4.269531 4.921875 -3.734375 L 4.050781 -3.601562 C 3.964844 -3.957031 3.820312 -4.222656 3.609375 -4.402344 C 3.398438 -4.582031 3.144531 -4.671875 2.84375 -4.671875 C 2.390625 -4.671875 2.023438 -4.511719 1.742188 -4.1875 C 1.460938 -3.863281 1.320312 -3.351562 1.320312 -2.648438 C 1.320312 -1.9375 1.457031 -1.421875 1.726562 -1.101562 C 2 -0.777344 2.355469 -0.617188 2.792969 -0.617188 C 3.144531 -0.617188 3.441406 -0.726562 3.675781 -0.941406 C 3.910156 -1.15625 4.0625 -1.488281 4.125 -1.9375 Z M 4.125 -1.9375 "/>
</g>
<g id="glyph-4-6">
<path d="M 0.675781 -6.269531 L 0.675781 -7.300781 L 1.574219 -7.300781 L 1.574219 -6.269531 L 0.675781 -6.269531 M 0.675781 0 L 0.675781 -5.289062 L 1.574219 -5.289062 L 1.574219 0 Z M 0.675781 0 "/>
</g>
<g id="glyph-4-7">
<path d="M 0.339844 -2.644531 C 0.339844 -3.625 0.609375 -4.347656 1.15625 -4.820312 C 1.609375 -5.210938 2.164062 -5.410156 2.820312 -5.410156 C 3.546875 -5.410156 4.140625 -5.171875 4.601562 -4.695312 C 5.0625 -4.21875 5.292969 -3.558594 5.292969 -2.71875 C 5.292969 -2.039062 5.191406 -1.503906 4.988281 -1.113281 C 4.785156 -0.722656 4.488281 -0.421875 4.097656 -0.203125 C 3.707031 0.0117188 3.28125 0.121094 2.820312 0.121094 C 2.078125 0.121094 1.480469 -0.117188 1.023438 -0.59375 C 0.566406 -1.066406 0.339844 -1.75 0.339844 -2.644531 M 1.261719 -2.644531 C 1.261719 -1.96875 1.40625 -1.460938 1.703125 -1.125 C 2 -0.785156 2.371094 -0.617188 2.820312 -0.617188 C 3.265625 -0.617188 3.632812 -0.785156 3.929688 -1.125 C 4.226562 -1.464844 4.371094 -1.980469 4.371094 -2.675781 C 4.371094 -3.328125 4.222656 -3.824219 3.925781 -4.160156 C 3.628906 -4.5 3.261719 -4.667969 2.820312 -4.667969 C 2.371094 -4.667969 2 -4.5 1.703125 -4.164062 C 1.40625 -3.828125 1.261719 -3.320312 1.261719 -2.644531 M 2.320312 -5.945312 L 2.984375 -7.339844 L 4.160156 -7.339844 L 3.0625 -5.945312 Z M 2.320312 -5.945312 "/>
</g>
<g id="glyph-4-8">
<path d="M 0.671875 0 L 0.671875 -5.289062 L 1.480469 -5.289062 L 1.480469 -4.539062 C 1.867188 -5.117188 2.429688 -5.410156 3.164062 -5.410156 C 3.480469 -5.410156 3.773438 -5.351562 4.042969 -5.238281 C 4.308594 -5.121094 4.507812 -4.972656 4.640625 -4.785156 C 4.773438 -4.601562 4.867188 -4.378906 4.921875 -4.125 C 4.953125 -3.957031 4.96875 -3.667969 4.96875 -3.253906 L 4.96875 0 L 4.074219 0 L 4.074219 -3.21875 C 4.074219 -3.582031 4.039062 -3.855469 3.96875 -4.035156 C 3.898438 -4.21875 3.777344 -4.363281 3.597656 -4.46875 C 3.421875 -4.578125 3.210938 -4.632812 2.972656 -4.632812 C 2.589844 -4.632812 2.261719 -4.511719 1.984375 -4.269531 C 1.707031 -4.027344 1.570312 -3.566406 1.570312 -2.890625 L 1.570312 0 Z M 0.671875 0 "/>
</g>
<g id="glyph-4-9">
<path d="M 0.664062 0 L 0.664062 -5.289062 L 1.46875 -5.289062 L 1.46875 -4.488281 C 1.675781 -4.863281 1.863281 -5.109375 2.039062 -5.230469 C 2.214844 -5.347656 2.40625 -5.410156 2.613281 -5.410156 C 2.917969 -5.410156 3.222656 -5.3125 3.535156 -5.121094 L 3.226562 -4.289062 C 3.007812 -4.417969 2.789062 -4.480469 2.570312 -4.484375 C 2.375 -4.480469 2.199219 -4.421875 2.042969 -4.304688 C 1.886719 -4.1875 1.773438 -4.023438 1.707031 -3.816406 C 1.609375 -3.496094 1.558594 -3.148438 1.558594 -2.769531 L 1.558594 0 Z M 0.664062 0 "/>
</g>
<g id="glyph-4-10">
<path d="M 1.5 0 L 0.667969 0 L 0.667969 -7.300781 L 1.5625 -7.300781 L 1.5625 -4.695312 C 1.941406 -5.171875 2.425781 -5.410156 3.011719 -5.410156 C 3.339844 -5.410156 3.648438 -5.34375 3.9375 -5.210938 C 4.226562 -5.082031 4.464844 -4.898438 4.652344 -4.660156 C 4.84375 -4.421875 4.988281 -4.136719 5.09375 -3.800781 C 5.203125 -3.464844 5.253906 -3.105469 5.253906 -2.722656 C 5.253906 -1.816406 5.03125 -1.117188 4.582031 -0.621094 C 4.132812 -0.128906 3.597656 0.121094 2.96875 0.121094 C 2.34375 0.121094 1.855469 -0.140625 1.5 -0.664062 L 1.5 0 M 1.488281 -2.683594 C 1.488281 -2.050781 1.574219 -1.59375 1.75 -1.308594 C 2.03125 -0.847656 2.414062 -0.617188 2.894531 -0.617188 C 3.285156 -0.617188 3.625 -0.789062 3.910156 -1.128906 C 4.195312 -1.46875 4.339844 -1.976562 4.339844 -2.648438 C 4.339844 -3.339844 4.199219 -3.851562 3.925781 -4.179688 C 3.652344 -4.507812 3.320312 -4.671875 2.933594 -4.671875 C 2.542969 -4.671875 2.203125 -4.5 1.917969 -4.160156 C 1.632812 -3.820312 1.488281 -3.328125 1.488281 -2.683594 Z M 1.488281 -2.683594 "/>
</g>
<g id="glyph-4-11">
<path d="M 4.140625 0 L 4.140625 -0.777344 C 3.726562 -0.179688 3.167969 0.121094 2.460938 0.121094 C 2.148438 0.121094 1.855469 0.0585938 1.585938 -0.0585938 C 1.316406 -0.179688 1.113281 -0.328125 0.984375 -0.511719 C 0.851562 -0.691406 0.761719 -0.914062 0.707031 -1.175781 C 0.671875 -1.351562 0.652344 -1.628906 0.652344 -2.011719 L 0.652344 -5.289062 L 1.550781 -5.289062 L 1.550781 -2.355469 C 1.550781 -1.886719 1.566406 -1.570312 1.605469 -1.410156 C 1.660156 -1.171875 1.78125 -0.988281 1.960938 -0.855469 C 2.144531 -0.71875 2.371094 -0.652344 2.640625 -0.652344 C 2.910156 -0.652344 3.160156 -0.722656 3.398438 -0.859375 C 3.632812 -0.996094 3.800781 -1.183594 3.898438 -1.421875 C 3.996094 -1.660156 4.042969 -2.003906 4.042969 -2.457031 L 4.042969 -5.289062 L 4.941406 -5.289062 L 4.941406 0 Z M 4.140625 0 "/>
</g>
<g id="glyph-4-12">
<path d="M 0.3125 -1.578125 L 1.199219 -1.71875 C 1.25 -1.363281 1.390625 -1.089844 1.617188 -0.902344 C 1.84375 -0.710938 2.160156 -0.617188 2.570312 -0.617188 C 2.980469 -0.617188 3.285156 -0.703125 3.484375 -0.867188 C 3.683594 -1.035156 3.785156 -1.234375 3.785156 -1.460938 C 3.785156 -1.660156 3.695312 -1.820312 3.519531 -1.9375 C 3.398438 -2.015625 3.09375 -2.117188 2.605469 -2.242188 C 1.949219 -2.40625 1.492188 -2.550781 1.238281 -2.671875 C 0.984375 -2.792969 0.792969 -2.960938 0.660156 -3.175781 C 0.527344 -3.390625 0.464844 -3.625 0.464844 -3.882812 C 0.464844 -4.121094 0.515625 -4.339844 0.625 -4.539062 C 0.734375 -4.742188 0.878906 -4.90625 1.066406 -5.039062 C 1.207031 -5.144531 1.394531 -5.230469 1.636719 -5.300781 C 1.875 -5.375 2.136719 -5.410156 2.410156 -5.410156 C 2.824219 -5.410156 3.191406 -5.347656 3.503906 -5.230469 C 3.816406 -5.109375 4.050781 -4.949219 4.199219 -4.742188 C 4.347656 -4.539062 4.449219 -4.265625 4.507812 -3.925781 L 3.628906 -3.804688 C 3.589844 -4.078125 3.476562 -4.289062 3.285156 -4.441406 C 3.09375 -4.59375 2.824219 -4.671875 2.476562 -4.671875 C 2.0625 -4.671875 1.769531 -4.605469 1.59375 -4.46875 C 1.417969 -4.332031 1.328125 -4.171875 1.328125 -3.988281 C 1.328125 -3.875 1.367188 -3.769531 1.4375 -3.675781 C 1.511719 -3.578125 1.625 -3.5 1.78125 -3.4375 C 1.871094 -3.402344 2.136719 -3.328125 2.574219 -3.207031 C 3.210938 -3.039062 3.652344 -2.898438 3.902344 -2.792969 C 4.152344 -2.683594 4.347656 -2.527344 4.492188 -2.320312 C 4.636719 -2.113281 4.707031 -1.859375 4.707031 -1.554688 C 4.707031 -1.253906 4.621094 -0.972656 4.445312 -0.710938 C 4.269531 -0.445312 4.019531 -0.242188 3.691406 -0.0976562 C 3.363281 0.046875 2.988281 0.121094 2.574219 0.121094 C 1.886719 0.121094 1.363281 -0.0234375 1.003906 -0.308594 C 0.644531 -0.59375 0.414062 -1.019531 0.3125 -1.578125 Z M 0.3125 -1.578125 "/>
</g>
<g id="glyph-4-13">
<path d="M 2.628906 -0.800781 L 2.757812 -0.0117188 C 2.507812 0.0429688 2.28125 0.0703125 2.082031 0.0703125 C 1.757812 0.0703125 1.503906 0.0195312 1.324219 -0.0859375 C 1.144531 -0.1875 1.019531 -0.324219 0.945312 -0.492188 C 0.875 -0.660156 0.835938 -1.011719 0.835938 -1.550781 L 0.835938 -4.59375 L 0.179688 -4.59375 L 0.179688 -5.289062 L 0.835938 -5.289062 L 0.835938 -6.597656 L 1.726562 -7.136719 L 1.726562 -5.289062 L 2.628906 -5.289062 L 2.628906 -4.59375 L 1.726562 -4.59375 L 1.726562 -1.5 C 1.726562 -1.242188 1.742188 -1.078125 1.777344 -1.007812 C 1.808594 -0.933594 1.859375 -0.875 1.929688 -0.832031 C 2 -0.789062 2.101562 -0.765625 2.234375 -0.765625 C 2.335938 -0.765625 2.46875 -0.777344 2.628906 -0.800781 Z M 2.628906 -0.800781 "/>
</g>
<g id="glyph-4-14">
<path d="M 0.671875 0 L 0.671875 -5.289062 L 1.472656 -5.289062 L 1.472656 -4.546875 C 1.640625 -4.804688 1.859375 -5.015625 2.136719 -5.171875 C 2.414062 -5.328125 2.726562 -5.410156 3.078125 -5.410156 C 3.46875 -5.410156 3.789062 -5.328125 4.042969 -5.164062 C 4.292969 -5.003906 4.46875 -4.773438 4.570312 -4.484375 C 4.992188 -5.101562 5.535156 -5.410156 6.207031 -5.410156 C 6.730469 -5.410156 7.132812 -5.261719 7.414062 -4.972656 C 7.699219 -4.683594 7.839844 -4.234375 7.839844 -3.628906 L 7.839844 0 L 6.949219 0 L 6.949219 -3.332031 C 6.949219 -3.691406 6.917969 -3.949219 6.859375 -4.105469 C 6.800781 -4.265625 6.695312 -4.390625 6.542969 -4.488281 C 6.390625 -4.582031 6.210938 -4.632812 6.007812 -4.632812 C 5.632812 -4.632812 5.324219 -4.507812 5.078125 -4.261719 C 4.835938 -4.011719 4.710938 -3.617188 4.710938 -3.074219 L 4.710938 0 L 3.816406 0 L 3.816406 -3.4375 C 3.816406 -3.835938 3.742188 -4.132812 3.597656 -4.332031 C 3.449219 -4.53125 3.210938 -4.632812 2.878906 -4.632812 C 2.625 -4.632812 2.394531 -4.566406 2.179688 -4.433594 C 1.964844 -4.300781 1.808594 -4.105469 1.714844 -3.851562 C 1.617188 -3.59375 1.570312 -3.226562 1.570312 -2.746094 L 1.570312 0 Z M 0.671875 0 "/>
</g>
<g id="glyph-4-15">
<path d="M 4.292969 -1.703125 L 5.21875 -1.589844 C 5.074219 -1.046875 4.804688 -0.628906 4.40625 -0.328125 C 4.011719 -0.03125 3.507812 0.121094 2.894531 0.121094 C 2.121094 0.121094 1.507812 -0.117188 1.054688 -0.59375 C 0.601562 -1.070312 0.375 -1.738281 0.375 -2.601562 C 0.375 -3.488281 0.601562 -4.179688 1.0625 -4.671875 C 1.519531 -5.164062 2.113281 -5.410156 2.84375 -5.410156 C 3.550781 -5.410156 4.128906 -5.167969 4.578125 -4.6875 C 5.023438 -4.207031 5.25 -3.527344 5.25 -2.65625 C 5.25 -2.601562 5.246094 -2.523438 5.246094 -2.414062 L 1.300781 -2.414062 C 1.332031 -1.835938 1.496094 -1.390625 1.792969 -1.082031 C 2.089844 -0.773438 2.457031 -0.617188 2.898438 -0.617188 C 3.226562 -0.617188 3.507812 -0.703125 3.742188 -0.875 C 3.972656 -1.050781 4.15625 -1.324219 4.292969 -1.703125 M 1.351562 -3.152344 L 4.304688 -3.152344 C 4.261719 -3.597656 4.148438 -3.929688 3.964844 -4.152344 C 3.679688 -4.5 3.308594 -4.671875 2.855469 -4.671875 C 2.441406 -4.671875 2.097656 -4.535156 1.816406 -4.257812 C 1.535156 -3.984375 1.378906 -3.613281 1.351562 -3.152344 Z M 1.351562 -3.152344 "/>
</g>
<g id="glyph-4-16">
<path d="M 0.507812 0.4375 L 1.378906 0.566406 C 1.417969 0.835938 1.515625 1.03125 1.683594 1.15625 C 1.90625 1.320312 2.210938 1.40625 2.59375 1.40625 C 3.011719 1.40625 3.332031 1.320312 3.554688 1.15625 C 3.78125 0.988281 3.933594 0.757812 4.015625 0.457031 C 4.0625 0.277344 4.082031 -0.109375 4.078125 -0.691406 C 3.6875 -0.230469 3.199219 0 2.613281 0 C 1.886719 0 1.324219 -0.261719 0.925781 -0.785156 C 0.527344 -1.3125 0.328125 -1.941406 0.328125 -2.675781 C 0.328125 -3.179688 0.421875 -3.644531 0.601562 -4.070312 C 0.785156 -4.5 1.050781 -4.828125 1.398438 -5.058594 C 1.742188 -5.292969 2.152344 -5.410156 2.621094 -5.410156 C 3.242188 -5.410156 3.757812 -5.15625 4.164062 -4.652344 L 4.164062 -5.289062 L 4.992188 -5.289062 L 4.992188 -0.71875 C 4.992188 0.105469 4.90625 0.691406 4.738281 1.035156 C 4.570312 1.378906 4.304688 1.648438 3.941406 1.847656 C 3.578125 2.046875 3.132812 2.148438 2.601562 2.148438 C 1.96875 2.148438 1.460938 2.003906 1.070312 1.722656 C 0.683594 1.4375 0.496094 1.007812 0.507812 0.4375 M 1.25 -2.738281 C 1.25 -2.046875 1.386719 -1.539062 1.664062 -1.21875 C 1.9375 -0.902344 2.285156 -0.742188 2.699219 -0.742188 C 3.109375 -0.742188 3.457031 -0.902344 3.734375 -1.21875 C 4.015625 -1.535156 4.152344 -2.03125 4.152344 -2.710938 C 4.152344 -3.355469 4.011719 -3.84375 3.722656 -4.171875 C 3.4375 -4.503906 3.089844 -4.667969 2.683594 -4.667969 C 2.285156 -4.667969 1.949219 -4.503906 1.667969 -4.179688 C 1.390625 -3.855469 1.25 -3.375 1.25 -2.738281 Z M 1.25 -2.738281 "/>
</g>
<g id="glyph-5-0">
<path d="M 8.96875 -8.804688 L 8.96875 -5.769531 L 8.734375 -5.769531 C 8.449219 -6.597656 8.027344 -7.230469 7.457031 -7.660156 C 6.890625 -8.09375 6.269531 -8.308594 5.597656 -8.308594 C 4.957031 -8.308594 4.421875 -8.128906 3.992188 -7.765625 C 3.566406 -7.40625 3.261719 -6.898438 3.085938 -6.253906 C 2.90625 -5.605469 2.816406 -4.941406 2.820312 -4.257812 C 2.816406 -3.433594 2.914062 -2.710938 3.109375 -2.089844 C 3.304688 -1.464844 3.621094 -1.007812 4.054688 -0.71875 C 4.488281 -0.425781 5 -0.28125 5.597656 -0.28125 C 5.804688 -0.28125 6.019531 -0.300781 6.238281 -0.347656 C 6.453125 -0.390625 6.679688 -0.453125 6.90625 -0.539062 L 6.90625 -2.328125 C 6.90625 -2.667969 6.882812 -2.886719 6.835938 -2.988281 C 6.789062 -3.085938 6.695312 -3.175781 6.546875 -3.257812 C 6.402344 -3.335938 6.226562 -3.375 6.015625 -3.375 L 5.796875 -3.375 L 5.796875 -3.613281 L 9.976562 -3.613281 L 9.976562 -3.375 C 9.660156 -3.355469 9.441406 -3.3125 9.316406 -3.246094 C 9.191406 -3.179688 9.09375 -3.070312 9.027344 -2.921875 C 8.988281 -2.839844 8.96875 -2.644531 8.96875 -2.328125 L 8.96875 -0.539062 C 8.417969 -0.292969 7.847656 -0.109375 7.253906 0.015625 C 6.65625 0.140625 6.039062 0.203125 5.402344 0.203125 C 4.585938 0.203125 3.90625 0.09375 3.367188 -0.128906 C 2.828125 -0.351562 2.351562 -0.644531 1.9375 -1.007812 C 1.527344 -1.367188 1.203125 -1.773438 0.972656 -2.226562 C 0.675781 -2.8125 0.527344 -3.464844 0.527344 -4.1875 C 0.527344 -5.484375 0.980469 -6.578125 1.890625 -7.472656 C 2.800781 -8.363281 3.945312 -8.8125 5.324219 -8.8125 C 5.753906 -8.8125 6.136719 -8.777344 6.480469 -8.710938 C 6.667969 -8.675781 6.96875 -8.578125 7.386719 -8.421875 C 7.800781 -8.261719 8.046875 -8.183594 8.125 -8.183594 C 8.242188 -8.183594 8.351562 -8.226562 8.453125 -8.3125 C 8.554688 -8.398438 8.648438 -8.5625 8.734375 -8.804688 Z M 8.96875 -8.804688 "/>
</g>
<g id="glyph-5-1">
<path d="M 2.902344 -5.933594 L 2.902344 -4.589844 C 3.292969 -5.203125 3.640625 -5.609375 3.9375 -5.8125 C 4.230469 -6.011719 4.515625 -6.113281 4.792969 -6.113281 C 5.03125 -6.113281 5.21875 -6.039062 5.359375 -5.894531 C 5.503906 -5.746094 5.574219 -5.542969 5.574219 -5.273438 C 5.574219 -4.992188 5.503906 -4.769531 5.367188 -4.613281 C 5.230469 -4.457031 5.0625 -4.378906 4.867188 -4.378906 C 4.644531 -4.378906 4.449219 -4.453125 4.285156 -4.59375 C 4.121094 -4.738281 4.023438 -4.820312 3.992188 -4.835938 C 3.949219 -4.863281 3.902344 -4.875 3.847656 -4.875 C 3.722656 -4.875 3.609375 -4.828125 3.496094 -4.734375 C 3.324219 -4.589844 3.191406 -4.386719 3.105469 -4.121094 C 2.96875 -3.710938 2.902344 -3.257812 2.902344 -2.761719 L 2.902344 -1.398438 L 2.90625 -1.039062 C 2.90625 -0.800781 2.921875 -0.644531 2.953125 -0.578125 C 3.003906 -0.464844 3.078125 -0.378906 3.175781 -0.328125 C 3.277344 -0.273438 3.445312 -0.242188 3.679688 -0.226562 L 3.679688 0 L 0.476562 0 L 0.476562 -0.226562 C 0.734375 -0.25 0.910156 -0.320312 1 -0.441406 C 1.089844 -0.5625 1.136719 -0.878906 1.136719 -1.398438 L 1.136719 -4.679688 C 1.136719 -5.015625 1.121094 -5.234375 1.085938 -5.324219 C 1.042969 -5.445312 0.980469 -5.53125 0.902344 -5.585938 C 0.820312 -5.640625 0.679688 -5.679688 0.476562 -5.699219 L 0.476562 -5.933594 Z M 2.902344 -5.933594 "/>
</g>
<g id="glyph-5-2">
<path d="M 3.238281 -6.113281 C 3.753906 -6.113281 4.234375 -5.980469 4.679688 -5.710938 C 5.121094 -5.445312 5.460938 -5.066406 5.691406 -4.578125 C 5.921875 -4.085938 6.035156 -3.546875 6.035156 -2.964844 C 6.035156 -2.121094 5.824219 -1.417969 5.394531 -0.851562 C 4.878906 -0.164062 4.167969 0.179688 3.257812 0.179688 C 2.363281 0.179688 1.675781 -0.136719 1.195312 -0.761719 C 0.710938 -1.386719 0.46875 -2.113281 0.46875 -2.9375 C 0.46875 -3.789062 0.714844 -4.53125 1.210938 -5.164062 C 1.703125 -5.796875 2.378906 -6.113281 3.238281 -6.113281 M 3.261719 -5.664062 C 3.046875 -5.664062 2.863281 -5.582031 2.707031 -5.417969 C 2.554688 -5.253906 2.453125 -4.933594 2.402344 -4.453125 C 2.355469 -3.972656 2.328125 -3.304688 2.328125 -2.449219 C 2.328125 -1.996094 2.359375 -1.574219 2.417969 -1.179688 C 2.464844 -0.878906 2.5625 -0.652344 2.71875 -0.496094 C 2.867188 -0.339844 3.042969 -0.261719 3.238281 -0.261719 C 3.429688 -0.261719 3.585938 -0.3125 3.714844 -0.417969 C 3.878906 -0.5625 3.988281 -0.765625 4.042969 -1.023438 C 4.128906 -1.425781 4.171875 -2.238281 4.171875 -3.460938 C 4.171875 -4.179688 4.128906 -4.671875 4.050781 -4.941406 C 3.96875 -5.210938 3.851562 -5.40625 3.695312 -5.527344 C 3.585938 -5.617188 3.441406 -5.664062 3.261719 -5.664062 Z M 3.261719 -5.664062 "/>
</g>
<g id="glyph-5-3">
<path d="M 6.171875 -5.933594 L 6.171875 -1.289062 C 6.167969 -0.835938 6.210938 -0.554688 6.296875 -0.441406 C 6.382812 -0.328125 6.554688 -0.257812 6.8125 -0.226562 L 6.8125 0 L 4.390625 0 L 4.390625 -0.792969 C 4.109375 -0.453125 3.824219 -0.207031 3.542969 -0.0546875 C 3.257812 0.101562 2.941406 0.179688 2.589844 0.179688 C 2.253906 0.179688 1.957031 0.0742188 1.699219 -0.128906 C 1.4375 -0.335938 1.261719 -0.574219 1.175781 -0.851562 C 1.085938 -1.125 1.039062 -1.605469 1.039062 -2.292969 L 1.039062 -4.648438 C 1.039062 -5.09375 1 -5.375 0.917969 -5.484375 C 0.835938 -5.59375 0.664062 -5.667969 0.398438 -5.699219 L 0.398438 -5.933594 L 2.820312 -5.933594 L 2.820312 -1.878906 C 2.816406 -1.457031 2.839844 -1.183594 2.878906 -1.058594 C 2.917969 -0.9375 2.980469 -0.84375 3.070312 -0.78125 C 3.15625 -0.71875 3.257812 -0.683594 3.371094 -0.6875 C 3.523438 -0.683594 3.660156 -0.726562 3.78125 -0.804688 C 3.953125 -0.917969 4.15625 -1.136719 4.390625 -1.472656 L 4.390625 -4.648438 C 4.390625 -5.09375 4.351562 -5.375 4.269531 -5.484375 C 4.1875 -5.59375 4.015625 -5.667969 3.75 -5.699219 L 3.75 -5.933594 Z M 6.171875 -5.933594 "/>
</g>
<g id="glyph-5-4">
<path d="M 2.734375 -0.601562 L 2.734375 1.605469 C 2.734375 1.910156 2.761719 2.117188 2.808594 2.226562 C 2.859375 2.339844 2.933594 2.417969 3.035156 2.46875 C 3.136719 2.519531 3.335938 2.546875 3.632812 2.546875 L 3.632812 2.78125 L 0.246094 2.78125 L 0.246094 2.546875 C 0.511719 2.535156 0.703125 2.460938 0.832031 2.324219 C 0.917969 2.226562 0.957031 1.972656 0.957031 1.566406 L 0.957031 -4.695312 C 0.957031 -5.117188 0.910156 -5.382812 0.8125 -5.5 C 0.714844 -5.617188 0.527344 -5.683594 0.246094 -5.699219 L 0.246094 -5.933594 L 2.734375 -5.933594 L 2.734375 -5.15625 C 2.941406 -5.460938 3.15625 -5.679688 3.371094 -5.8125 C 3.679688 -6.011719 4.015625 -6.113281 4.378906 -6.113281 C 4.816406 -6.113281 5.210938 -5.976562 5.570312 -5.699219 C 5.925781 -5.425781 6.199219 -5.046875 6.386719 -4.5625 C 6.570312 -4.078125 6.664062 -3.554688 6.664062 -2.996094 C 6.664062 -2.394531 6.570312 -1.847656 6.375 -1.347656 C 6.183594 -0.851562 5.90625 -0.472656 5.539062 -0.210938 C 5.171875 0.046875 4.765625 0.179688 4.316406 0.179688 C 3.992188 0.179688 3.6875 0.105469 3.402344 -0.0390625 C 3.191406 -0.148438 2.96875 -0.335938 2.734375 -0.601562 M 2.734375 -1.242188 C 3.101562 -0.726562 3.488281 -0.46875 3.902344 -0.46875 C 4.132812 -0.46875 4.320312 -0.589844 4.46875 -0.832031 C 4.6875 -1.1875 4.796875 -1.863281 4.796875 -2.863281 C 4.796875 -3.886719 4.679688 -4.585938 4.4375 -4.964844 C 4.277344 -5.214844 4.058594 -5.339844 3.789062 -5.339844 C 3.363281 -5.339844 3.011719 -5.03125 2.734375 -4.410156 Z M 2.734375 -1.242188 "/>
</g>
<g id="glyph-5-5">
<path d="M 5.464844 -3.179688 L 2.210938 -3.179688 C 2.246094 -2.394531 2.457031 -1.769531 2.835938 -1.3125 C 3.128906 -0.960938 3.480469 -0.789062 3.890625 -0.789062 C 4.144531 -0.789062 4.375 -0.859375 4.582031 -1 C 4.789062 -1.140625 5.011719 -1.398438 5.25 -1.765625 L 5.464844 -1.625 C 5.144531 -0.96875 4.789062 -0.503906 4.398438 -0.230469 C 4.007812 0.0429688 3.558594 0.179688 3.046875 0.179688 C 2.167969 0.179688 1.5 -0.160156 1.046875 -0.835938 C 0.683594 -1.382812 0.5 -2.0625 0.5 -2.867188 C 0.5 -3.859375 0.769531 -4.648438 1.304688 -5.234375 C 1.839844 -5.820312 2.46875 -6.113281 3.1875 -6.113281 C 3.789062 -6.113281 4.308594 -5.867188 4.75 -5.375 C 5.195312 -4.878906 5.429688 -4.148438 5.464844 -3.179688 M 3.902344 -3.605469 C 3.902344 -4.285156 3.867188 -4.753906 3.792969 -5.007812 C 3.71875 -5.261719 3.601562 -5.453125 3.445312 -5.585938 C 3.359375 -5.664062 3.238281 -5.699219 3.089844 -5.699219 C 2.871094 -5.699219 2.691406 -5.59375 2.550781 -5.375 C 2.300781 -5 2.175781 -4.484375 2.175781 -3.828125 L 2.175781 -3.605469 Z M 3.902344 -3.605469 "/>
</g>
<g id="glyph-5-6">
<path d="M 6.207031 -8.609375 L 6.207031 -1.777344 C 6.207031 -1.316406 6.21875 -1.042969 6.246094 -0.957031 C 6.28125 -0.820312 6.34375 -0.714844 6.441406 -0.648438 C 6.535156 -0.578125 6.699219 -0.539062 6.9375 -0.519531 L 6.9375 -0.3125 L 4.429688 0.179688 L 4.429688 -0.761719 C 4.128906 -0.398438 3.863281 -0.148438 3.628906 -0.0195312 C 3.394531 0.113281 3.128906 0.179688 2.832031 0.179688 C 2.074219 0.179688 1.476562 -0.160156 1.035156 -0.835938 C 0.679688 -1.386719 0.5 -2.0625 0.5 -2.863281 C 0.5 -3.5 0.613281 -4.074219 0.832031 -4.578125 C 1.050781 -5.085938 1.351562 -5.46875 1.734375 -5.726562 C 2.117188 -5.984375 2.53125 -6.113281 2.96875 -6.113281 C 3.253906 -6.113281 3.507812 -6.058594 3.726562 -5.949219 C 3.945312 -5.835938 4.179688 -5.644531 4.429688 -5.371094 L 4.429688 -7.160156 C 4.429688 -7.613281 4.410156 -7.886719 4.375 -7.980469 C 4.324219 -8.101562 4.246094 -8.191406 4.144531 -8.25 C 4.042969 -8.3125 3.851562 -8.339844 3.574219 -8.339844 L 3.574219 -8.609375 L 6.207031 -8.609375 M 4.429688 -4.582031 C 4.117188 -5.183594 3.734375 -5.484375 3.28125 -5.484375 C 3.125 -5.484375 2.996094 -5.441406 2.894531 -5.359375 C 2.738281 -5.226562 2.609375 -4.996094 2.511719 -4.664062 C 2.410156 -4.335938 2.359375 -3.828125 2.359375 -3.148438 C 2.359375 -2.398438 2.417969 -1.84375 2.527344 -1.484375 C 2.636719 -1.125 2.785156 -0.867188 2.976562 -0.703125 C 3.074219 -0.625 3.207031 -0.585938 3.375 -0.585938 C 3.75 -0.585938 4.101562 -0.875 4.429688 -1.460938 Z M 4.429688 -4.582031 "/>
</g>
<g id="glyph-5-7">
</g>
<g id="glyph-5-8">
<path d="M 2.734375 -8.609375 L 2.734375 -5.339844 C 3.234375 -5.855469 3.78125 -6.113281 4.375 -6.113281 C 4.78125 -6.113281 5.164062 -5.992188 5.523438 -5.753906 C 5.882812 -5.515625 6.164062 -5.175781 6.367188 -4.734375 C 6.570312 -4.296875 6.671875 -3.789062 6.671875 -3.210938 C 6.671875 -2.5625 6.542969 -1.976562 6.285156 -1.445312 C 6.027344 -0.917969 5.679688 -0.515625 5.25 -0.238281 C 4.816406 0.0390625 4.324219 0.179688 3.769531 0.179688 C 3.449219 0.179688 3.164062 0.125 2.914062 0.0234375 C 2.664062 -0.0742188 2.417969 -0.242188 2.175781 -0.46875 L 1.195312 0.171875 L 0.976562 0.171875 L 0.976562 -7.375 C 0.976562 -7.71875 0.960938 -7.929688 0.933594 -8.011719 C 0.890625 -8.128906 0.824219 -8.21875 0.734375 -8.273438 C 0.640625 -8.332031 0.488281 -8.363281 0.273438 -8.371094 L 0.273438 -8.609375 L 2.734375 -8.609375 M 2.734375 -4.773438 L 2.734375 -2.132812 C 2.734375 -1.59375 2.75 -1.253906 2.773438 -1.105469 C 2.816406 -0.855469 2.917969 -0.652344 3.078125 -0.5 C 3.238281 -0.34375 3.445312 -0.265625 3.695312 -0.265625 C 3.910156 -0.265625 4.09375 -0.328125 4.25 -0.449219 C 4.402344 -0.574219 4.535156 -0.816406 4.636719 -1.179688 C 4.742188 -1.542969 4.792969 -2.199219 4.792969 -3.148438 C 4.792969 -4.058594 4.679688 -4.683594 4.449219 -5.019531 C 4.285156 -5.265625 4.0625 -5.390625 3.78125 -5.390625 C 3.417969 -5.390625 3.070312 -5.183594 2.734375 -4.773438 Z M 2.734375 -4.773438 "/>
</g>
<g id="glyph-5-9">
<path d="M 3.714844 -0.875 C 2.988281 -0.238281 2.339844 0.0820312 1.765625 0.0820312 C 1.425781 0.0820312 1.144531 -0.0273438 0.921875 -0.25 C 0.695312 -0.472656 0.585938 -0.75 0.585938 -1.085938 C 0.585938 -1.539062 0.777344 -1.945312 1.167969 -2.308594 C 1.558594 -2.667969 2.40625 -3.152344 3.714844 -3.75 L 3.714844 -4.347656 C 3.714844 -4.796875 3.6875 -5.078125 3.640625 -5.195312 C 3.589844 -5.3125 3.5 -5.414062 3.363281 -5.5 C 3.230469 -5.585938 3.078125 -5.628906 2.90625 -5.628906 C 2.632812 -5.628906 2.40625 -5.570312 2.226562 -5.445312 C 2.117188 -5.371094 2.0625 -5.28125 2.0625 -5.179688 C 2.0625 -5.089844 2.121094 -4.980469 2.242188 -4.851562 C 2.402344 -4.667969 2.480469 -4.492188 2.480469 -4.324219 C 2.480469 -4.117188 2.40625 -3.9375 2.25 -3.792969 C 2.097656 -3.648438 1.894531 -3.574219 1.644531 -3.574219 C 1.378906 -3.574219 1.152344 -3.652344 0.972656 -3.816406 C 0.792969 -3.976562 0.703125 -4.164062 0.703125 -4.378906 C 0.703125 -4.683594 0.824219 -4.976562 1.066406 -5.253906 C 1.308594 -5.53125 1.644531 -5.742188 2.074219 -5.890625 C 2.507812 -6.039062 2.957031 -6.113281 3.421875 -6.113281 C 3.984375 -6.113281 4.429688 -5.992188 4.757812 -5.753906 C 5.085938 -5.515625 5.296875 -5.257812 5.394531 -4.976562 C 5.453125 -4.796875 5.484375 -4.390625 5.484375 -3.75 L 5.484375 -1.445312 C 5.484375 -1.175781 5.496094 -1.007812 5.515625 -0.9375 C 5.539062 -0.867188 5.570312 -0.816406 5.609375 -0.78125 C 5.652344 -0.746094 5.703125 -0.730469 5.757812 -0.730469 C 5.867188 -0.730469 5.980469 -0.808594 6.09375 -0.964844 L 6.285156 -0.8125 C 6.074219 -0.5 5.855469 -0.273438 5.628906 -0.128906 C 5.402344 0.0117188 5.144531 0.0820312 4.855469 0.0820312 C 4.515625 0.0820312 4.253906 0.00390625 4.0625 -0.15625 C 3.871094 -0.3125 3.753906 -0.554688 3.714844 -0.875 M 3.714844 -1.339844 L 3.714844 -3.328125 C 3.203125 -3.027344 2.820312 -2.703125 2.570312 -2.359375 C 2.40625 -2.132812 2.324219 -1.902344 2.324219 -1.667969 C 2.324219 -1.476562 2.394531 -1.304688 2.53125 -1.15625 C 2.636719 -1.039062 2.785156 -0.984375 2.976562 -0.984375 C 3.1875 -0.984375 3.433594 -1.101562 3.714844 -1.339844 Z M 3.714844 -1.339844 "/>
</g>
<g id="glyph-5-10">
<path d="M 2.761719 -8.609375 L 2.761719 -1.230469 C 2.761719 -0.8125 2.808594 -0.542969 2.90625 -0.429688 C 3.003906 -0.3125 3.195312 -0.246094 3.476562 -0.226562 L 3.476562 0 L 0.273438 0 L 0.273438 -0.226562 C 0.535156 -0.238281 0.730469 -0.3125 0.855469 -0.457031 C 0.941406 -0.554688 0.984375 -0.8125 0.984375 -1.230469 L 0.984375 -7.375 C 0.984375 -7.789062 0.933594 -8.054688 0.835938 -8.171875 C 0.742188 -8.289062 0.550781 -8.355469 0.273438 -8.371094 L 0.273438 -8.609375 Z M 2.761719 -8.609375 "/>
</g>
<g id="glyph-5-11">
<path d="M 2.792969 -8.105469 L 2.792969 -5.933594 L 4.203125 -5.933594 L 4.203125 -5.304688 L 2.792969 -5.304688 L 2.792969 -1.644531 C 2.792969 -1.300781 2.808594 -1.082031 2.839844 -0.980469 C 2.871094 -0.882812 2.929688 -0.800781 3.007812 -0.738281 C 3.089844 -0.679688 3.164062 -0.648438 3.230469 -0.648438 C 3.507812 -0.648438 3.765625 -0.855469 4.011719 -1.277344 L 4.203125 -1.136719 C 3.859375 -0.324219 3.304688 0.0820312 2.53125 0.0820312 C 2.15625 0.0820312 1.835938 -0.0234375 1.578125 -0.230469 C 1.316406 -0.441406 1.152344 -0.675781 1.078125 -0.933594 C 1.035156 -1.078125 1.015625 -1.464844 1.015625 -2.101562 L 1.015625 -5.304688 L 0.242188 -5.304688 L 0.242188 -5.527344 C 0.773438 -5.90625 1.226562 -6.300781 1.601562 -6.714844 C 1.976562 -7.128906 2.304688 -7.59375 2.582031 -8.105469 Z M 2.792969 -8.105469 "/>
</g>
</g>
<clipPath id="clip-0">
<path clip-rule="nonzero" d="M 47.300781 51.761719 L 504.054688 51.761719 L 504.054688 272.921875 L 47.300781 272.921875 Z M 47.300781 51.761719 "/>
</clipPath>
<clipPath id="clip-1">
<path clip-rule="nonzero" d="M 47.300781 262 L 504.054688 262 L 504.054688 264 L 47.300781 264 Z M 47.300781 262 "/>
</clipPath>
<clipPath id="clip-2">
<path clip-rule="nonzero" d="M 47.300781 187 L 504.054688 187 L 504.054688 189 L 47.300781 189 Z M 47.300781 187 "/>
</clipPath>
<clipPath id="clip-3">
<path clip-rule="nonzero" d="M 47.300781 113 L 504.054688 113 L 504.054688 115 L 47.300781 115 Z M 47.300781 113 "/>
</clipPath>
<clipPath id="clip-4">
<path clip-rule="nonzero" d="M 112 51.761719 L 113 51.761719 L 113 272.921875 L 112 272.921875 Z M 112 51.761719 "/>
</clipPath>
<clipPath id="clip-5">
<path clip-rule="nonzero" d="M 220 51.761719 L 222 51.761719 L 222 272.921875 L 220 272.921875 Z M 220 51.761719 "/>
</clipPath>
<clipPath id="clip-6">
<path clip-rule="nonzero" d="M 329 51.761719 L 331 51.761719 L 331 272.921875 L 329 272.921875 Z M 329 51.761719 "/>
</clipPath>
<clipPath id="clip-7">
<path clip-rule="nonzero" d="M 438 51.761719 L 440 51.761719 L 440 272.921875 L 438 272.921875 Z M 438 51.761719 "/>
</clipPath>
</defs>
<rect x="-51.8" y="-34.5" width="621.6" height="414" fill="rgb(100%, 100%, 100%)" fill-opacity="1"/>
<rect x="-51.8" y="-34.5" width="621.6" height="414" fill="rgb(98.431373%, 96.862745%, 94.117647%)" fill-opacity="1"/>
<g clip-path="url(#clip-0)">
<path fill-rule="nonzero" fill="rgb(98.431373%, 96.862745%, 94.117647%)" fill-opacity="1" d="M 47.300781 272.921875 L 504.054688 272.921875 L 504.054688 51.761719 L 47.300781 51.761719 Z M 47.300781 272.921875 "/>
</g>
<g clip-path="url(#clip-1)">
<path fill="none" stroke-width="0.853583" stroke-linecap="butt" stroke-linejoin="round" stroke="rgb(89.019608%, 84.705882%, 78.431373%)" stroke-opacity="1" stroke-miterlimit="10" d="M 47.300781 262.867188 L 504.050781 262.867188 "/>
</g>
<g clip-path="url(#clip-2)">
<path fill="none" stroke-width="0.853583" stroke-linecap="butt" stroke-linejoin="round" stroke="rgb(89.019608%, 84.705882%, 78.431373%)" stroke-opacity="1" stroke-miterlimit="10" d="M 47.300781 188.402344 L 504.050781 188.402344 "/>
</g>
<g clip-path="url(#clip-3)">
<path fill="none" stroke-width="0.853583" stroke-linecap="butt" stroke-linejoin="round" stroke="rgb(89.019608%, 84.705882%, 78.431373%)" stroke-opacity="1" stroke-miterlimit="10" d="M 47.300781 113.9375 L 504.050781 113.9375 "/>
</g>
<g clip-path="url(#clip-4)">
<path fill="none" stroke-width="0.853583" stroke-linecap="butt" stroke-linejoin="round" stroke="rgb(89.019608%, 84.705882%, 78.431373%)" stroke-opacity="1" stroke-miterlimit="10" d="M 112.550781 272.921875 L 112.550781 51.761719 "/>
</g>
<g clip-path="url(#clip-5)">
<path fill="none" stroke-width="0.853583" stroke-linecap="butt" stroke-linejoin="round" stroke="rgb(89.019608%, 84.705882%, 78.431373%)" stroke-opacity="1" stroke-miterlimit="10" d="M 221.300781 272.921875 L 221.300781 51.761719 "/>
</g>
<g clip-path="url(#clip-6)">
<path fill="none" stroke-width="0.853583" stroke-linecap="butt" stroke-linejoin="round" stroke="rgb(89.019608%, 84.705882%, 78.431373%)" stroke-opacity="1" stroke-miterlimit="10" d="M 330.050781 272.921875 L 330.050781 51.761719 "/>
</g>
<g clip-path="url(#clip-7)">
<path fill="none" stroke-width="0.853583" stroke-linecap="butt" stroke-linejoin="round" stroke="rgb(89.019608%, 84.705882%, 78.431373%)" stroke-opacity="1" stroke-miterlimit="10" d="M 438.800781 272.921875 L 438.800781 51.761719 "/>
</g>
<path fill-rule="nonzero" fill="rgb(26.666667%, 36.862745%, 27.45098%)" fill-opacity="1" d="M 75.03125 262.867188 L 110.917969 262.867188 L 110.917969 69.257812 L 75.03125 69.257812 Z M 75.03125 262.867188 "/>
<path fill-rule="nonzero" fill="rgb(72.156863%, 50.980392%, 15.686275%)" fill-opacity="1" d="M 114.183594 262.867188 L 150.070312 262.867188 L 150.070312 180.957031 L 114.183594 180.957031 Z M 114.183594 262.867188 "/>
<path fill-rule="nonzero" fill="rgb(26.666667%, 36.862745%, 27.45098%)" fill-opacity="1" d="M 183.78125 262.867188 L 219.667969 262.867188 L 219.667969 166.0625 L 183.78125 166.0625 Z M 183.78125 262.867188 "/>
<path fill-rule="nonzero" fill="rgb(51.372549%, 57.647059%, 77.647059%)" fill-opacity="1" d="M 222.933594 262.867188 L 258.820312 262.867188 L 258.820312 173.507812 L 222.933594 173.507812 Z M 222.933594 262.867188 "/>
<path fill-rule="nonzero" fill="rgb(26.666667%, 36.862745%, 27.45098%)" fill-opacity="1" d="M 292.53125 262.867188 L 328.417969 262.867188 L 328.417969 151.171875 L 292.53125 151.171875 Z M 292.53125 262.867188 "/>
<path fill-rule="nonzero" fill="rgb(72.156863%, 50.980392%, 15.686275%)" fill-opacity="1" d="M 331.683594 262.867188 L 367.570312 262.867188 L 367.570312 121.382812 L 331.683594 121.382812 Z M 331.683594 262.867188 "/>
<path fill-rule="nonzero" fill="rgb(72.156863%, 50.980392%, 15.686275%)" fill-opacity="1" d="M 402.914062 262.867188 L 474.6875 262.867188 L 474.6875 61.8125 L 402.914062 61.8125 Z M 402.914062 262.867188 "/>
<g fill="rgb(17.254902%, 14.117647%, 8.627451%)" fill-opacity="1">
<use xlink:href="#glyph-0-0" x="34.066406" y="266.945312"/>
</g>
<g fill="rgb(17.254902%, 14.117647%, 8.627451%)" fill-opacity="1">
<use xlink:href="#glyph-0-1" x="28.503906" y="192.480469"/>
<use xlink:href="#glyph-0-0" x="34.06543" y="192.480469"/>
</g>
<g fill="rgb(17.254902%, 14.117647%, 8.627451%)" fill-opacity="1">
<use xlink:href="#glyph-0-2" x="28.503906" y="118.015625"/>
<use xlink:href="#glyph-0-0" x="34.06543" y="118.015625"/>
</g>
<path fill="none" stroke-width="1.066978" stroke-linecap="butt" stroke-linejoin="round" stroke="rgb(89.019608%, 84.705882%, 78.431373%)" stroke-opacity="1" stroke-miterlimit="10" d="M 44.558594 262.867188 L 47.300781 262.867188 "/>
<path fill="none" stroke-width="1.066978" stroke-linecap="butt" stroke-linejoin="round" stroke="rgb(89.019608%, 84.705882%, 78.431373%)" stroke-opacity="1" stroke-miterlimit="10" d="M 44.558594 188.402344 L 47.300781 188.402344 "/>
<path fill="none" stroke-width="1.066978" stroke-linecap="butt" stroke-linejoin="round" stroke="rgb(89.019608%, 84.705882%, 78.431373%)" stroke-opacity="1" stroke-miterlimit="10" d="M 44.558594 113.9375 L 47.300781 113.9375 "/>
<path fill="none" stroke-width="1.066978" stroke-linecap="butt" stroke-linejoin="round" stroke="rgb(89.019608%, 84.705882%, 78.431373%)" stroke-opacity="1" stroke-miterlimit="10" d="M 112.550781 275.660156 L 112.550781 272.921875 "/>
<path fill="none" stroke-width="1.066978" stroke-linecap="butt" stroke-linejoin="round" stroke="rgb(89.019608%, 84.705882%, 78.431373%)" stroke-opacity="1" stroke-miterlimit="10" d="M 221.300781 275.660156 L 221.300781 272.921875 "/>
<path fill="none" stroke-width="1.066978" stroke-linecap="butt" stroke-linejoin="round" stroke="rgb(89.019608%, 84.705882%, 78.431373%)" stroke-opacity="1" stroke-miterlimit="10" d="M 330.050781 275.660156 L 330.050781 272.921875 "/>
<path fill="none" stroke-width="1.066978" stroke-linecap="butt" stroke-linejoin="round" stroke="rgb(89.019608%, 84.705882%, 78.431373%)" stroke-opacity="1" stroke-miterlimit="10" d="M 438.800781 275.660156 L 438.800781 272.921875 "/>
<g fill="rgb(17.254902%, 14.117647%, 8.627451%)" fill-opacity="1">
<use xlink:href="#glyph-0-3" x="97.816406" y="288.75"/>
<use xlink:href="#glyph-0-4" x="105.038086" y="288.75"/>
<use xlink:href="#glyph-0-5" x="110.599609" y="288.75"/>
<use xlink:href="#glyph-0-6" x="116.161133" y="288.75"/>
<use xlink:href="#glyph-0-7" x="121.722656" y="288.75"/>
</g>
<g fill="rgb(17.254902%, 14.117647%, 8.627451%)" fill-opacity="1">
<use xlink:href="#glyph-0-8" x="211.019531" y="288.75"/>
<use xlink:href="#glyph-0-4" x="217.12793" y="288.75"/>
<use xlink:href="#glyph-0-9" x="222.689453" y="288.75"/>
<use xlink:href="#glyph-0-5" x="226.019531" y="288.75"/>
</g>
<g fill="rgb(17.254902%, 14.117647%, 8.627451%)" fill-opacity="1">
<use xlink:href="#glyph-0-10" x="314.765625" y="288.75"/>
<use xlink:href="#glyph-0-4" x="320.874023" y="288.75"/>
<use xlink:href="#glyph-0-11" x="326.435547" y="288.75"/>
<use xlink:href="#glyph-0-4" x="331.435547" y="288.75"/>
<use xlink:href="#glyph-0-12" x="336.99707" y="288.75"/>
<use xlink:href="#glyph-0-13" x="339.775391" y="288.75"/>
</g>
<g fill="rgb(17.254902%, 14.117647%, 8.627451%)" fill-opacity="1">
<use xlink:href="#glyph-0-14" x="411.839844" y="288.75"/>
<use xlink:href="#glyph-0-4" x="418.509766" y="288.75"/>
<use xlink:href="#glyph-0-15" x="424.071289" y="288.75"/>
<use xlink:href="#glyph-0-16" x="426.292969" y="288.75"/>
<use xlink:href="#glyph-0-17" x="431.292969" y="288.75"/>
<use xlink:href="#glyph-0-18" x="436.292969" y="288.75"/>
<use xlink:href="#glyph-0-13" x="443.514648" y="288.75"/>
<use xlink:href="#glyph-0-6" x="449.076172" y="288.75"/>
<use xlink:href="#glyph-0-7" x="454.637695" y="288.75"/>
<use xlink:href="#glyph-0-19" x="460.199219" y="288.75"/>
</g>
<g fill="rgb(43.529412%, 36.078431%, 21.176471%)" fill-opacity="1">
<use xlink:href="#glyph-1-0" x="22.535156" y="180.59375"/>
<use xlink:href="#glyph-1-1" x="22.535156" y="172.93877"/>
<use xlink:href="#glyph-1-2" x="22.535156" y="166.463867"/>
<use xlink:href="#glyph-1-3" x="22.535156" y="159.988965"/>
<use xlink:href="#glyph-1-4" x="22.535156" y="156.459082"/>
<use xlink:href="#glyph-1-1" x="22.535156" y="150.563867"/>
</g>
<path fill-rule="nonzero" fill="rgb(98.431373%, 96.862745%, 94.117647%)" fill-opacity="1" d="M 161.023438 331.050781 L 390.328125 331.050781 L 390.328125 302.8125 L 161.023438 302.8125 Z M 161.023438 331.050781 "/>
<g fill="rgb(17.254902%, 14.117647%, 8.627451%)" fill-opacity="1">
<use xlink:href="#glyph-2-0" x="166.503906" y="321.082031"/>
<use xlink:href="#glyph-2-1" x="172.734473" y="321.082031"/>
<use xlink:href="#glyph-2-2" x="176.703906" y="321.082031"/>
<use xlink:href="#glyph-2-3" x="182.37666" y="321.082031"/>
<use xlink:href="#glyph-2-3" x="188.049414" y="321.082031"/>
<use xlink:href="#glyph-2-4" x="193.722168" y="321.082031"/>
<use xlink:href="#glyph-2-5" x="196.556055" y="321.082031"/>
<use xlink:href="#glyph-2-6" x="202.786621" y="321.082031"/>
</g>
<path fill-rule="nonzero" fill="rgb(98.431373%, 96.862745%, 94.117647%)" fill-opacity="1" d="M 214.496094 325.574219 L 231.777344 325.574219 L 231.777344 308.292969 L 214.496094 308.292969 Z M 214.496094 325.574219 "/>
<path fill-rule="nonzero" fill="rgb(26.666667%, 36.862745%, 27.45098%)" fill-opacity="1" d="M 215.203125 324.863281 L 231.066406 324.863281 L 231.066406 309 L 215.203125 309 Z M 215.203125 324.863281 "/>
<path fill-rule="nonzero" fill="rgb(98.431373%, 96.862745%, 94.117647%)" fill-opacity="1" d="M 258.375 325.574219 L 275.65625 325.574219 L 275.65625 308.292969 L 258.375 308.292969 Z M 258.375 325.574219 "/>
<path fill-rule="nonzero" fill="rgb(72.156863%, 50.980392%, 15.686275%)" fill-opacity="1" d="M 259.082031 324.863281 L 274.945312 324.863281 L 274.945312 309 L 259.082031 309 Z M 259.082031 324.863281 "/>
<path fill-rule="nonzero" fill="rgb(98.431373%, 96.862745%, 94.117647%)" fill-opacity="1" d="M 328.671875 325.574219 L 345.953125 325.574219 L 345.953125 308.292969 L 328.671875 308.292969 Z M 328.671875 325.574219 "/>
<path fill-rule="nonzero" fill="rgb(51.372549%, 57.647059%, 77.647059%)" fill-opacity="1" d="M 329.378906 324.863281 L 345.242188 324.863281 L 345.242188 309 L 329.378906 309 Z M 329.378906 324.863281 "/>
<g fill="rgb(17.254902%, 14.117647%, 8.627451%)" fill-opacity="1">
<use xlink:href="#glyph-3-0" x="237.253906" y="320.90625"/>
<use xlink:href="#glyph-3-1" x="242.648584" y="320.90625"/>
<use xlink:href="#glyph-3-0" x="247.498584" y="320.90625"/>
</g>
<g fill="rgb(17.254902%, 14.117647%, 8.627451%)" fill-opacity="1">
<use xlink:href="#glyph-3-2" x="281.132812" y="320.90625"/>
<use xlink:href="#glyph-3-3" x="288.137842" y="320.90625"/>
<use xlink:href="#glyph-3-4" x="293.53252" y="320.90625"/>
<use xlink:href="#glyph-3-5" x="295.687549" y="320.90625"/>
<use xlink:href="#glyph-3-6" x="301.082227" y="320.90625"/>
<use xlink:href="#glyph-3-7" x="306.476904" y="320.90625"/>
<use xlink:href="#glyph-3-3" x="309.171875" y="320.90625"/>
<use xlink:href="#glyph-3-8" x="314.566553" y="320.90625"/>
<use xlink:href="#glyph-3-5" x="317.796729" y="320.90625"/>
</g>
<g fill="rgb(17.254902%, 14.117647%, 8.627451%)" fill-opacity="1">
<use xlink:href="#glyph-3-9" x="351.429688" y="320.90625"/>
<use xlink:href="#glyph-3-8" x="357.354834" y="320.90625"/>
<use xlink:href="#glyph-3-5" x="360.58501" y="320.90625"/>
<use xlink:href="#glyph-3-10" x="365.979688" y="320.90625"/>
<use xlink:href="#glyph-3-3" x="370.829688" y="320.90625"/>
<use xlink:href="#glyph-3-8" x="376.224365" y="320.90625"/>
<use xlink:href="#glyph-3-5" x="379.454541" y="320.90625"/>
</g>
<g fill="rgb(43.529412%, 36.078431%, 21.176471%)" fill-opacity="1">
<use xlink:href="#glyph-4-0" x="47.300781" y="40.644531"/>
<use xlink:href="#glyph-4-1" x="52.973535" y="40.644531"/>
<use xlink:href="#glyph-4-2" x="58.646289" y="40.644531"/>
<use xlink:href="#glyph-4-3" x="61.480176" y="40.644531"/>
<use xlink:href="#glyph-4-4" x="67.15293" y="40.644531"/>
<use xlink:href="#glyph-4-5" x="72.825684" y="40.644531"/>
<use xlink:href="#glyph-4-6" x="77.925684" y="40.644531"/>
<use xlink:href="#glyph-4-7" x="80.191797" y="40.644531"/>
<use xlink:href="#glyph-4-8" x="85.864551" y="40.644531"/>
<use xlink:href="#glyph-4-2" x="91.537305" y="40.644531"/>
<use xlink:href="#glyph-4-9" x="94.371191" y="40.644531"/>
<use xlink:href="#glyph-4-3" x="97.767871" y="40.644531"/>
<use xlink:href="#glyph-4-10" x="103.440625" y="40.644531"/>
<use xlink:href="#glyph-4-11" x="109.113379" y="40.644531"/>
<use xlink:href="#glyph-4-12" x="114.786133" y="40.644531"/>
<use xlink:href="#glyph-4-13" x="119.886133" y="40.644531"/>
<use xlink:href="#glyph-4-1" x="122.72002" y="40.644531"/>
<use xlink:href="#glyph-4-2" x="128.392773" y="40.644531"/>
<use xlink:href="#glyph-4-4" x="131.22666" y="40.644531"/>
<use xlink:href="#glyph-4-1" x="136.899414" y="40.644531"/>
<use xlink:href="#glyph-4-9" x="142.572168" y="40.644531"/>
<use xlink:href="#glyph-4-1" x="145.968848" y="40.644531"/>
<use xlink:href="#glyph-4-2" x="151.641602" y="40.644531"/>
<use xlink:href="#glyph-4-5" x="154.475488" y="40.644531"/>
<use xlink:href="#glyph-4-3" x="159.575488" y="40.644531"/>
<use xlink:href="#glyph-4-14" x="165.248242" y="40.644531"/>
<use xlink:href="#glyph-4-4" x="173.744922" y="40.644531"/>
<use xlink:href="#glyph-4-1" x="179.417676" y="40.644531"/>
<use xlink:href="#glyph-4-9" x="185.09043" y="40.644531"/>
<use xlink:href="#glyph-4-1" x="188.487109" y="40.644531"/>
<use xlink:href="#glyph-4-5" x="194.159863" y="40.644531"/>
<use xlink:href="#glyph-4-6" x="199.259863" y="40.644531"/>
<use xlink:href="#glyph-4-7" x="201.525977" y="40.644531"/>
<use xlink:href="#glyph-4-8" x="207.19873" y="40.644531"/>
<use xlink:href="#glyph-4-2" x="212.871484" y="40.644531"/>
<use xlink:href="#glyph-4-15" x="215.705371" y="40.644531"/>
<use xlink:href="#glyph-4-8" x="221.378125" y="40.644531"/>
<use xlink:href="#glyph-4-13" x="227.050879" y="40.644531"/>
<use xlink:href="#glyph-4-9" x="229.884766" y="40.644531"/>
<use xlink:href="#glyph-4-15" x="233.281445" y="40.644531"/>
<use xlink:href="#glyph-4-2" x="238.954199" y="40.644531"/>
<use xlink:href="#glyph-4-12" x="241.788086" y="40.644531"/>
<use xlink:href="#glyph-4-11" x="246.888086" y="40.644531"/>
<use xlink:href="#glyph-4-10" x="252.56084" y="40.644531"/>
<use xlink:href="#glyph-4-16" x="258.233594" y="40.644531"/>
<use xlink:href="#glyph-4-9" x="263.906348" y="40.644531"/>
<use xlink:href="#glyph-4-11" x="267.303027" y="40.644531"/>
<use xlink:href="#glyph-4-4" x="272.975781" y="40.644531"/>
<use xlink:href="#glyph-4-3" x="278.648535" y="40.644531"/>
<use xlink:href="#glyph-4-12" x="284.321289" y="40.644531"/>
</g>
<g fill="rgb(12.156863%, 10.196078%, 7.45098%)" fill-opacity="1">
<use xlink:href="#glyph-5-0" x="47.300781" y="23.554688"/>
<use xlink:href="#glyph-5-1" x="57.412598" y="23.554688"/>
<use xlink:href="#glyph-5-2" x="63.182617" y="23.554688"/>
<use xlink:href="#glyph-5-3" x="69.682617" y="23.554688"/>
<use xlink:href="#glyph-5-4" x="76.912598" y="23.554688"/>
<use xlink:href="#glyph-5-5" x="84.142578" y="23.554688"/>
<use xlink:href="#glyph-5-6" x="89.912598" y="23.554688"/>
<use xlink:href="#glyph-5-7" x="97.142578" y="23.554688"/>
<use xlink:href="#glyph-5-8" x="100.392578" y="23.554688"/>
<use xlink:href="#glyph-5-9" x="107.622559" y="23.554688"/>
<use xlink:href="#glyph-5-1" x="114.122559" y="23.554688"/>
<use xlink:href="#glyph-5-4" x="119.892578" y="23.554688"/>
<use xlink:href="#glyph-5-10" x="127.122559" y="23.554688"/>
<use xlink:href="#glyph-5-2" x="130.734375" y="23.554688"/>
<use xlink:href="#glyph-5-11" x="137.234375" y="23.554688"/>
</g>
</svg>
