<?xml version="1.0" encoding="UTF-8"?>
<svg xmlns="http://www.w3.org/2000/svg" xmlns:xlink="http://www.w3.org/1999/xlink" width="532pt" height="374pt" viewBox="0 0 532 374">
<defs>
<g>
<g id="glyph-0-0">
<path d="M 0.828125 0 L 0.828125 -8.148438 L 6.867188 -8.148438 L 6.867188 -6.769531 L 2.472656 -6.769531 L 2.472656 -4.960938 L 6.5625 -4.960938 L 6.5625 -3.589844 L 2.472656 -3.589844 L 2.472656 -1.371094 L 7.023438 -1.371094 L 7.023438 0 Z M 0.828125 0 "/>
</g>
<g id="glyph-0-1">
<path d="M 0.0664062 0 L 2.195312 -3.039062 L 0.15625 -5.902344 L 2.0625 -5.902344 L 3.105469 -4.277344 L 4.207031 -5.902344 L 6.039062 -5.902344 L 4.039062 -3.105469 L 6.222656 0 L 4.308594 0 L 3.105469 -1.828125 L 1.894531 0 Z M 0.0664062 0 "/>
</g>
<g id="glyph-0-2">
<path d="M 0.773438 -5.902344 L 2.226562 -5.902344 L 2.226562 -5.035156 C 2.417969 -5.332031 2.671875 -5.570312 2.996094 -5.757812 C 3.316406 -5.941406 3.675781 -6.035156 4.066406 -6.035156 C 4.753906 -6.035156 5.335938 -5.765625 5.8125 -5.230469 C 6.289062 -4.691406 6.53125 -3.945312 6.53125 -2.984375 C 6.53125 -2 6.289062 -1.234375 5.808594 -0.6875 C 5.324219 -0.140625 4.742188 0.132812 4.058594 0.132812 C 3.730469 0.132812 3.433594 0.0703125 3.171875 -0.0625 C 2.90625 -0.191406 2.625 -0.414062 2.335938 -0.726562 L 2.335938 2.246094 L 0.773438 2.246094 L 0.773438 -5.902344 M 2.316406 -3.050781 C 2.316406 -2.386719 2.449219 -1.898438 2.710938 -1.582031 C 2.976562 -1.265625 3.296875 -1.105469 3.671875 -1.105469 C 4.035156 -1.105469 4.339844 -1.25 4.578125 -1.542969 C 4.820312 -1.832031 4.941406 -2.308594 4.941406 -2.972656 C 4.941406 -3.589844 4.816406 -4.050781 4.566406 -4.351562 C 4.320312 -4.652344 4.011719 -4.800781 3.644531 -4.800781 C 3.265625 -4.800781 2.945312 -4.652344 2.695312 -4.359375 C 2.441406 -4.066406 2.316406 -3.628906 2.316406 -3.050781 Z M 2.316406 -3.050781 "/>
</g>
<g id="glyph-0-3">
<path d="M 0.816406 0 L 0.816406 -8.148438 L 2.378906 -8.148438 L 2.378906 0 Z M 0.816406 0 "/>
</g>
<g id="glyph-0-4">
<path d="M 0.457031 -3.035156 C 0.457031 -3.554688 0.582031 -4.054688 0.839844 -4.539062 C 1.09375 -5.027344 1.457031 -5.394531 1.925781 -5.652344 C 2.394531 -5.90625 2.917969 -6.035156 3.496094 -6.035156 C 4.386719 -6.035156 5.121094 -5.746094 5.691406 -5.164062 C 6.261719 -4.585938 6.546875 -3.851562 6.546875 -2.96875 C 6.546875 -2.074219 6.257812 -1.335938 5.683594 -0.746094 C 5.105469 -0.160156 4.382812 0.132812 3.507812 0.132812 C 2.964844 0.132812 2.449219 0.0117188 1.957031 -0.234375 C 1.46875 -0.476562 1.09375 -0.835938 0.839844 -1.308594 C 0.582031 -1.78125 0.457031 -2.355469 0.457031 -3.035156 M 2.054688 -2.949219 C 2.054688 -2.367188 2.195312 -1.917969 2.472656 -1.605469 C 2.75 -1.292969 3.09375 -1.140625 3.5 -1.140625 C 3.910156 -1.140625 4.25 -1.292969 4.527344 -1.605469 C 4.800781 -1.917969 4.941406 -2.371094 4.941406 -2.960938 C 4.941406 -3.539062 4.800781 -3.984375 4.527344 -4.296875 C 4.25 -4.605469 3.910156 -4.761719 3.5 -4.761719 C 3.09375 -4.761719 2.75 -4.605469 2.472656 -4.296875 C 2.195312 -3.984375 2.054688 -3.535156 2.054688 -2.949219 Z M 2.054688 -2.949219 "/>
</g>
<g id="glyph-0-5">
<path d="M 2.3125 0 L 0.75 0 L 0.75 -5.902344 L 2.199219 -5.902344 L 2.199219 -5.0625 C 2.449219 -5.460938 2.671875 -5.71875 2.871094 -5.847656 C 3.070312 -5.972656 3.292969 -6.035156 3.546875 -6.035156 C 3.902344 -6.035156 4.242188 -5.9375 4.574219 -5.742188 L 4.089844 -4.378906 C 3.828125 -4.550781 3.582031 -4.632812 3.355469 -4.632812 C 3.136719 -4.632812 2.953125 -4.574219 2.800781 -4.453125 C 2.648438 -4.332031 2.53125 -4.117188 2.441406 -3.800781 C 2.355469 -3.484375 2.3125 -2.828125 2.3125 -1.824219 Z M 2.3125 0 "/>
</g>
<g id="glyph-0-6">
<path d="M 1.984375 -4.101562 L 0.566406 -4.355469 C 0.726562 -4.925781 1 -5.351562 1.390625 -5.625 C 1.777344 -5.898438 2.355469 -6.035156 3.125 -6.035156 C 3.820312 -6.035156 4.339844 -5.953125 4.679688 -5.789062 C 5.019531 -5.621094 5.261719 -5.414062 5.398438 -5.160156 C 5.539062 -4.90625 5.605469 -4.441406 5.605469 -3.761719 L 5.589844 -1.941406 C 5.589844 -1.421875 5.617188 -1.039062 5.664062 -0.792969 C 5.714844 -0.546875 5.808594 -0.28125 5.945312 0 L 4.402344 0 C 4.359375 -0.105469 4.308594 -0.257812 4.25 -0.460938 C 4.226562 -0.554688 4.207031 -0.613281 4.195312 -0.644531 C 3.929688 -0.386719 3.644531 -0.191406 3.339844 -0.0625 C 3.035156 0.0703125 2.710938 0.132812 2.367188 0.132812 C 1.761719 0.132812 1.28125 -0.03125 0.929688 -0.359375 C 0.582031 -0.691406 0.40625 -1.109375 0.40625 -1.613281 C 0.40625 -1.945312 0.484375 -2.242188 0.644531 -2.503906 C 0.804688 -2.765625 1.027344 -2.964844 1.3125 -3.105469 C 1.601562 -3.242188 2.015625 -3.363281 2.554688 -3.46875 C 3.285156 -3.605469 3.792969 -3.734375 4.074219 -3.851562 L 4.074219 -4.007812 C 4.074219 -4.308594 4 -4.519531 3.851562 -4.648438 C 3.703125 -4.777344 3.421875 -4.839844 3.011719 -4.839844 C 2.734375 -4.839844 2.515625 -4.785156 2.363281 -4.675781 C 2.207031 -4.566406 2.082031 -4.375 1.984375 -4.101562 M 4.074219 -2.835938 C 3.875 -2.765625 3.554688 -2.6875 3.125 -2.59375 C 2.691406 -2.503906 2.40625 -2.410156 2.273438 -2.324219 C 2.070312 -2.179688 1.96875 -1.996094 1.96875 -1.773438 C 1.96875 -1.554688 2.046875 -1.363281 2.210938 -1.207031 C 2.375 -1.046875 2.582031 -0.96875 2.835938 -0.96875 C 3.117188 -0.96875 3.382812 -1.058594 3.640625 -1.246094 C 3.828125 -1.386719 3.953125 -1.558594 4.011719 -1.761719 C 4.054688 -1.894531 4.074219 -2.148438 4.074219 -2.523438 Z M 4.074219 -2.835938 "/>
</g>
<g id="glyph-0-7">
<path d="M 5.960938 -4.15625 L 4.421875 -3.878906 C 4.371094 -4.1875 4.253906 -4.417969 4.070312 -4.574219 C 3.886719 -4.730469 3.648438 -4.808594 3.355469 -4.808594 C 2.96875 -4.808594 2.65625 -4.671875 2.425781 -4.402344 C 2.195312 -4.136719 2.078125 -3.6875 2.078125 -3.054688 C 2.078125 -2.355469 2.195312 -1.863281 2.429688 -1.574219 C 2.667969 -1.285156 2.980469 -1.140625 3.378906 -1.140625 C 3.675781 -1.140625 3.917969 -1.222656 4.105469 -1.390625 C 4.296875 -1.5625 4.429688 -1.851562 4.507812 -2.261719 L 6.039062 -2 C 5.882812 -1.296875 5.574219 -0.765625 5.125 -0.40625 C 4.671875 -0.046875 4.066406 0.132812 3.304688 0.132812 C 2.441406 0.132812 1.753906 -0.140625 1.242188 -0.683594 C 0.730469 -1.226562 0.472656 -1.980469 0.472656 -2.945312 C 0.472656 -3.917969 0.730469 -4.679688 1.246094 -5.222656 C 1.761719 -5.765625 2.457031 -6.035156 3.335938 -6.035156 C 4.054688 -6.035156 4.625 -5.878906 5.046875 -5.570312 C 5.472656 -5.261719 5.777344 -4.789062 5.960938 -4.15625 Z M 5.960938 -4.15625 "/>
</g>
<g id="glyph-0-8">
<path d="M 0.816406 -6.703125 L 0.816406 -8.148438 L 2.378906 -8.148438 L 2.378906 -6.703125 L 0.816406 -6.703125 M 0.816406 0 L 0.816406 -5.902344 L 2.378906 -5.902344 L 2.378906 0 Z M 0.816406 0 "/>
</g>
<g id="glyph-0-9">
<path d="M 0.457031 -3.035156 C 0.457031 -3.554688 0.582031 -4.054688 0.839844 -4.539062 C 1.09375 -5.027344 1.457031 -5.394531 1.925781 -5.652344 C 2.394531 -5.90625 2.917969 -6.035156 3.496094 -6.035156 C 4.386719 -6.035156 5.121094 -5.746094 5.691406 -5.164062 C 6.261719 -4.585938 6.546875 -3.851562 6.546875 -2.96875 C 6.546875 -2.074219 6.257812 -1.335938 5.683594 -0.746094 C 5.105469 -0.160156 4.382812 0.132812 3.507812 0.132812 C 2.964844 0.132812 2.449219 0.0117188 1.957031 -0.234375 C 1.46875 -0.476562 1.09375 -0.835938 0.839844 -1.308594 C 0.582031 -1.78125 0.457031 -2.355469 0.457031 -3.035156 M 2.054688 -2.949219 C 2.054688 -2.367188 2.195312 -1.917969 2.472656 -1.605469 C 2.75 -1.292969 3.09375 -1.140625 3.5 -1.140625 C 3.910156 -1.140625 4.25 -1.292969 4.527344 -1.605469 C 4.800781 -1.917969 4.941406 -2.371094 4.941406 -2.960938 C 4.941406 -3.539062 4.800781 -3.984375 4.527344 -4.296875 C 4.25 -4.605469 3.910156 -4.761719 3.5 -4.761719 C 3.09375 -4.761719 2.75 -4.605469 2.472656 -4.296875 C 2.195312 -3.984375 2.054688 -3.535156 2.054688 -2.949219 M 2.710938 -6.625 L 3.480469 -8.285156 L 5.230469 -8.285156 L 3.699219 -6.625 Z M 2.710938 -6.625 "/>
</g>
<g id="glyph-0-10">
<path d="M 6.183594 0 L 4.625 0 L 4.625 -3.011719 C 4.625 -3.648438 4.589844 -4.0625 4.523438 -4.25 C 4.457031 -4.4375 4.347656 -4.582031 4.199219 -4.683594 C 4.046875 -4.789062 3.867188 -4.839844 3.65625 -4.839844 C 3.386719 -4.839844 3.144531 -4.765625 2.929688 -4.617188 C 2.714844 -4.46875 2.566406 -4.273438 2.488281 -4.027344 C 2.40625 -3.785156 2.367188 -3.332031 2.367188 -2.671875 L 2.367188 0 L 0.804688 0 L 0.804688 -5.902344 L 2.257812 -5.902344 L 2.257812 -5.035156 C 2.769531 -5.703125 3.417969 -6.035156 4.203125 -6.035156 C 4.546875 -6.035156 4.859375 -5.972656 5.144531 -5.847656 C 5.429688 -5.726562 5.648438 -5.566406 5.792969 -5.375 C 5.941406 -5.179688 6.042969 -4.960938 6.097656 -4.71875 C 6.15625 -4.472656 6.183594 -4.125 6.183594 -3.667969 Z M 6.183594 0 "/>
</g>
<g id="glyph-0-11">
<path d="M 6.039062 -2.996094 L 7.636719 -2.488281 C 7.390625 -1.601562 6.984375 -0.941406 6.414062 -0.507812 C 5.847656 -0.078125 5.125 0.140625 4.25 0.140625 C 3.167969 0.140625 2.28125 -0.230469 1.582031 -0.96875 C 0.886719 -1.707031 0.539062 -2.71875 0.539062 -4 C 0.539062 -5.355469 0.890625 -6.410156 1.589844 -7.160156 C 2.289062 -7.910156 3.210938 -8.285156 4.351562 -8.285156 C 5.347656 -8.285156 6.15625 -7.992188 6.78125 -7.402344 C 7.148438 -7.054688 7.429688 -6.554688 7.613281 -5.902344 L 5.984375 -5.511719 C 5.890625 -5.933594 5.6875 -6.269531 5.382812 -6.511719 C 5.078125 -6.757812 4.703125 -6.878906 4.269531 -6.878906 C 3.664062 -6.878906 3.175781 -6.664062 2.796875 -6.230469 C 2.421875 -5.796875 2.234375 -5.09375 2.234375 -4.125 C 2.234375 -3.09375 2.417969 -2.359375 2.789062 -1.921875 C 3.160156 -1.484375 3.640625 -1.265625 4.234375 -1.265625 C 4.671875 -1.265625 5.046875 -1.40625 5.363281 -1.683594 C 5.675781 -1.960938 5.902344 -2.398438 6.039062 -2.996094 Z M 6.039062 -2.996094 "/>
</g>
<g id="glyph-0-12">
<path d="M 0.699219 -5.902344 L 2.140625 -5.902344 L 2.140625 -5.097656 C 2.65625 -5.722656 3.269531 -6.035156 3.980469 -6.035156 C 4.355469 -6.035156 4.683594 -5.957031 4.960938 -5.800781 C 5.242188 -5.644531 5.46875 -5.410156 5.644531 -5.097656 C 5.90625 -5.410156 6.183594 -5.644531 6.484375 -5.800781 C 6.785156 -5.957031 7.105469 -6.035156 7.445312 -6.035156 C 7.878906 -6.035156 8.246094 -5.945312 8.546875 -5.769531 C 8.847656 -5.59375 9.070312 -5.335938 9.21875 -4.996094 C 9.328125 -4.742188 9.378906 -4.335938 9.378906 -3.773438 L 9.378906 0 L 7.820312 0 L 7.820312 -3.375 C 7.820312 -3.957031 7.765625 -4.335938 7.65625 -4.507812 C 7.511719 -4.730469 7.292969 -4.839844 6.992188 -4.839844 C 6.773438 -4.839844 6.566406 -4.773438 6.375 -4.640625 C 6.179688 -4.507812 6.042969 -4.3125 5.957031 -4.054688 C 5.871094 -3.796875 5.828125 -3.390625 5.828125 -2.835938 L 5.828125 0 L 4.269531 0 L 4.269531 -3.234375 C 4.269531 -3.808594 4.238281 -4.179688 4.183594 -4.347656 C 4.128906 -4.511719 4.042969 -4.636719 3.925781 -4.71875 C 3.808594 -4.800781 3.652344 -4.839844 3.449219 -4.839844 C 3.210938 -4.839844 2.992188 -4.777344 2.800781 -4.644531 C 2.609375 -4.515625 2.46875 -4.328125 2.386719 -4.085938 C 2.304688 -3.839844 2.261719 -3.433594 2.261719 -2.867188 L 2.261719 0 L 0.699219 0 Z M 0.699219 -5.902344 "/>
</g>
<g id="glyph-0-13">
<path d="M 4.703125 0 L 4.703125 -0.882812 C 4.488281 -0.570312 4.203125 -0.320312 3.855469 -0.140625 C 3.503906 0.0429688 3.132812 0.132812 2.746094 0.132812 C 2.347656 0.132812 1.992188 0.046875 1.679688 -0.128906 C 1.363281 -0.300781 1.136719 -0.546875 0.996094 -0.863281 C 0.855469 -1.175781 0.785156 -1.613281 0.785156 -2.167969 L 0.785156 -5.902344 L 2.34375 -5.902344 L 2.34375 -3.191406 C 2.34375 -2.359375 2.375 -1.851562 2.429688 -1.664062 C 2.488281 -1.476562 2.59375 -1.328125 2.746094 -1.21875 C 2.898438 -1.109375 3.089844 -1.054688 3.324219 -1.054688 C 3.589844 -1.054688 3.828125 -1.128906 4.039062 -1.273438 C 4.25 -1.421875 4.394531 -1.601562 4.472656 -1.820312 C 4.550781 -2.035156 4.589844 -2.566406 4.589844 -3.410156 L 4.589844 -5.902344 L 6.152344 -5.902344 L 6.152344 0 Z M 4.703125 0 "/>
</g>
<g id="glyph-1-0">
<path d="M 6.71875 0 L 4.375 0 L 4.375 -8.828125 C 3.519531 -8.027344 2.511719 -7.433594 1.351562 -7.050781 L 1.351562 -9.175781 C 1.960938 -9.378906 2.625 -9.757812 3.34375 -10.316406 C 4.058594 -10.875 4.550781 -11.527344 4.816406 -12.269531 L 6.71875 -12.269531 Z M 6.71875 0 "/>
</g>
<g id="glyph-1-1">
<path d="M 2.734375 -6.59375 C 2.128906 -6.847656 1.6875 -7.199219 1.414062 -7.648438 C 1.136719 -8.09375 1 -8.585938 1 -9.121094 C 1 -10.03125 1.320312 -10.785156 1.953125 -11.378906 C 2.589844 -11.972656 3.496094 -12.269531 4.667969 -12.269531 C 5.828125 -12.269531 6.730469 -11.972656 7.371094 -11.378906 C 8.015625 -10.785156 8.335938 -10.03125 8.335938 -9.121094 C 8.335938 -8.550781 8.1875 -8.046875 7.894531 -7.605469 C 7.597656 -7.164062 7.183594 -6.828125 6.652344 -6.59375 C 7.328125 -6.320312 7.84375 -5.925781 8.199219 -5.402344 C 8.550781 -4.878906 8.726562 -4.277344 8.726562 -3.59375 C 8.726562 -2.464844 8.367188 -1.546875 7.648438 -0.84375 C 6.929688 -0.136719 5.972656 0.214844 4.777344 0.214844 C 3.664062 0.214844 2.738281 -0.0742188 2 -0.660156 C 1.128906 -1.347656 0.691406 -2.292969 0.691406 -3.492188 C 0.691406 -4.152344 0.855469 -4.761719 1.183594 -5.3125 C 1.511719 -5.867188 2.027344 -6.292969 2.734375 -6.59375 M 3.21875 -8.953125 C 3.21875 -8.484375 3.347656 -8.121094 3.613281 -7.859375 C 3.878906 -7.597656 4.230469 -7.46875 4.667969 -7.46875 C 5.113281 -7.46875 5.46875 -7.601562 5.734375 -7.863281 C 6 -8.128906 6.136719 -8.496094 6.136719 -8.960938 C 6.136719 -9.398438 6.003906 -9.75 5.738281 -10.015625 C 5.476562 -10.28125 5.125 -10.410156 4.691406 -10.410156 C 4.242188 -10.410156 3.882812 -10.277344 3.617188 -10.011719 C 3.351562 -9.746094 3.21875 -9.390625 3.21875 -8.953125 M 3 -3.71875 C 3 -3.074219 3.167969 -2.570312 3.496094 -2.207031 C 3.828125 -1.847656 4.238281 -1.667969 4.734375 -1.667969 C 5.21875 -1.667969 5.617188 -1.839844 5.933594 -2.1875 C 6.25 -2.535156 6.410156 -3.035156 6.410156 -3.691406 C 6.410156 -4.265625 6.25 -4.726562 5.925781 -5.074219 C 5.605469 -5.417969 5.195312 -5.59375 4.703125 -5.59375 C 4.128906 -5.59375 3.703125 -5.394531 3.421875 -5 C 3.140625 -4.605469 3 -4.179688 3 -3.71875 Z M 3 -3.71875 "/>
</g>
<g id="glyph-1-2">
<path d="M 5.316406 0 L 5.316406 -2.460938 L 0.316406 -2.460938 L 0.316406 -4.507812 L 5.617188 -12.269531 L 7.585938 -12.269531 L 7.585938 -4.519531 L 9.101562 -4.519531 L 9.101562 -2.460938 L 7.585938 -2.460938 L 7.585938 0 L 5.316406 0 M 5.316406 -4.519531 L 5.316406 -8.695312 L 2.507812 -4.519531 Z M 5.316406 -4.519531 "/>
</g>
<g id="glyph-1-3">
<path d="M 0.726562 -9.878906 L 0.726562 -12.054688 L 8.734375 -12.054688 L 8.734375 -10.351562 C 8.074219 -9.703125 7.402344 -8.769531 6.71875 -7.550781 C 6.035156 -6.335938 5.515625 -5.042969 5.15625 -3.671875 C 4.796875 -2.300781 4.621094 -1.078125 4.625 0 L 2.367188 0 C 2.40625 -1.6875 2.753906 -3.410156 3.414062 -5.167969 C 4.070312 -6.925781 4.953125 -8.496094 6.050781 -9.878906 Z M 0.726562 -9.878906 "/>
</g>
<g id="glyph-2-0">
<path d="M 0.863281 0 L 0.863281 -7.875 L 4.355469 -7.875 C 5.058594 -7.875 5.589844 -7.804688 5.957031 -7.660156 C 6.320312 -7.519531 6.613281 -7.269531 6.832031 -6.914062 C 7.050781 -6.554688 7.160156 -6.160156 7.160156 -5.726562 C 7.160156 -5.167969 6.980469 -4.695312 6.617188 -4.3125 C 6.253906 -3.929688 5.695312 -3.6875 4.941406 -3.582031 C 5.21875 -3.449219 5.425781 -3.320312 5.570312 -3.191406 C 5.875 -2.910156 6.164062 -2.5625 6.433594 -2.144531 L 7.804688 0 L 6.492188 0 L 5.453125 -1.636719 C 5.148438 -2.109375 4.898438 -2.472656 4.699219 -2.722656 C 4.503906 -2.972656 4.328125 -3.148438 4.171875 -3.25 C 4.015625 -3.351562 3.855469 -3.417969 3.695312 -3.460938 C 3.578125 -3.484375 3.382812 -3.496094 3.117188 -3.496094 L 1.90625 -3.496094 L 1.90625 0 L 0.863281 0 M 1.90625 -4.398438 L 4.148438 -4.398438 C 4.621094 -4.398438 4.996094 -4.449219 5.265625 -4.546875 C 5.53125 -4.644531 5.734375 -4.800781 5.875 -5.019531 C 6.015625 -5.234375 6.085938 -5.472656 6.085938 -5.726562 C 6.085938 -6.097656 5.949219 -6.402344 5.679688 -6.644531 C 5.410156 -6.882812 4.984375 -7.003906 4.398438 -7.003906 L 1.90625 -7.003906 Z M 1.90625 -4.398438 "/>
</g>
<g id="glyph-2-1">
<path d="M 4.628906 -1.835938 L 5.628906 -1.714844 C 5.472656 -1.128906 5.179688 -0.675781 4.753906 -0.355469 C 4.328125 -0.03125 3.78125 0.128906 3.121094 0.128906 C 2.285156 0.128906 1.625 -0.128906 1.136719 -0.640625 C 0.648438 -1.15625 0.402344 -1.875 0.402344 -2.804688 C 0.402344 -3.761719 0.648438 -4.507812 1.144531 -5.039062 C 1.636719 -5.566406 2.277344 -5.832031 3.066406 -5.832031 C 3.828125 -5.832031 4.453125 -5.574219 4.9375 -5.054688 C 5.417969 -4.535156 5.660156 -3.804688 5.660156 -2.863281 C 5.660156 -2.804688 5.660156 -2.71875 5.65625 -2.605469 L 1.402344 -2.605469 C 1.4375 -1.976562 1.613281 -1.5 1.933594 -1.164062 C 2.253906 -0.832031 2.648438 -0.664062 3.125 -0.664062 C 3.480469 -0.664062 3.78125 -0.757812 4.035156 -0.945312 C 4.285156 -1.132812 4.484375 -1.429688 4.628906 -1.835938 M 1.457031 -3.398438 L 4.640625 -3.398438 C 4.597656 -3.878906 4.476562 -4.238281 4.273438 -4.480469 C 3.96875 -4.851562 3.566406 -5.039062 3.078125 -5.039062 C 2.632812 -5.039062 2.261719 -4.890625 1.957031 -4.59375 C 1.65625 -4.296875 1.488281 -3.898438 1.457031 -3.398438 Z M 1.457031 -3.398438 "/>
</g>
<g id="glyph-2-2">
<path d="M 0.339844 -1.703125 L 1.292969 -1.851562 C 1.347656 -1.46875 1.496094 -1.175781 1.742188 -0.972656 C 1.988281 -0.769531 2.332031 -0.664062 2.773438 -0.664062 C 3.214844 -0.664062 3.546875 -0.757812 3.757812 -0.9375 C 3.976562 -1.117188 4.082031 -1.332031 4.082031 -1.574219 C 4.082031 -1.792969 3.988281 -1.964844 3.796875 -2.089844 C 3.664062 -2.175781 3.335938 -2.285156 2.808594 -2.417969 C 2.101562 -2.597656 1.609375 -2.75 1.335938 -2.882812 C 1.0625 -3.011719 0.851562 -3.191406 0.710938 -3.425781 C 0.570312 -3.65625 0.5 -3.910156 0.5 -4.1875 C 0.5 -4.445312 0.558594 -4.679688 0.675781 -4.894531 C 0.789062 -5.113281 0.949219 -5.292969 1.148438 -5.4375 C 1.300781 -5.546875 1.503906 -5.640625 1.765625 -5.71875 C 2.023438 -5.792969 2.300781 -5.832031 2.601562 -5.832031 C 3.046875 -5.832031 3.441406 -5.769531 3.777344 -5.640625 C 4.117188 -5.511719 4.367188 -5.335938 4.527344 -5.117188 C 4.6875 -4.894531 4.800781 -4.601562 4.859375 -4.234375 L 3.914062 -4.101562 C 3.871094 -4.398438 3.75 -4.625 3.542969 -4.789062 C 3.335938 -4.957031 3.046875 -5.039062 2.667969 -5.039062 C 2.226562 -5.039062 1.910156 -4.964844 1.71875 -4.816406 C 1.527344 -4.671875 1.433594 -4.5 1.433594 -4.300781 C 1.433594 -4.175781 1.472656 -4.0625 1.550781 -3.964844 C 1.632812 -3.859375 1.753906 -3.773438 1.921875 -3.707031 C 2.019531 -3.671875 2.304688 -3.585938 2.777344 -3.460938 C 3.460938 -3.277344 3.9375 -3.125 4.207031 -3.011719 C 4.480469 -2.894531 4.691406 -2.726562 4.84375 -2.503906 C 5 -2.28125 5.074219 -2.003906 5.074219 -1.675781 C 5.074219 -1.351562 4.980469 -1.050781 4.792969 -0.765625 C 4.605469 -0.480469 4.335938 -0.261719 3.980469 -0.105469 C 3.625 0.0507812 3.222656 0.128906 2.777344 0.128906 C 2.035156 0.128906 1.472656 -0.0234375 1.082031 -0.332031 C 0.695312 -0.640625 0.445312 -1.097656 0.339844 -1.703125 Z M 0.339844 -1.703125 "/>
</g>
<g id="glyph-2-3">
<path d="M 4.464844 0 L 4.464844 -0.835938 C 4.019531 -0.195312 3.414062 0.128906 2.652344 0.128906 C 2.316406 0.128906 2.003906 0.0625 1.710938 -0.0625 C 1.417969 -0.195312 1.203125 -0.355469 1.0625 -0.550781 C 0.917969 -0.746094 0.820312 -0.984375 0.761719 -1.265625 C 0.722656 -1.457031 0.703125 -1.757812 0.703125 -2.171875 L 0.703125 -5.703125 L 1.671875 -5.703125 L 1.671875 -2.539062 C 1.671875 -2.035156 1.691406 -1.695312 1.730469 -1.519531 C 1.789062 -1.265625 1.917969 -1.066406 2.117188 -0.921875 C 2.3125 -0.777344 2.554688 -0.703125 2.847656 -0.703125 C 3.136719 -0.703125 3.410156 -0.777344 3.664062 -0.925781 C 3.917969 -1.074219 4.097656 -1.277344 4.203125 -1.535156 C 4.308594 -1.789062 4.359375 -2.160156 4.359375 -2.648438 L 4.359375 -5.703125 L 5.328125 -5.703125 L 5.328125 0 Z M 4.464844 0 "/>
</g>
<g id="glyph-2-4">
<path d="M 0.726562 0 L 0.726562 -5.703125 L 1.589844 -5.703125 L 1.589844 -4.902344 C 1.769531 -5.183594 2.007812 -5.40625 2.304688 -5.578125 C 2.601562 -5.746094 2.941406 -5.832031 3.320312 -5.832031 C 3.742188 -5.832031 4.089844 -5.746094 4.359375 -5.570312 C 4.628906 -5.394531 4.820312 -5.148438 4.929688 -4.835938 C 5.382812 -5.5 5.96875 -5.832031 6.691406 -5.832031 C 7.257812 -5.832031 7.691406 -5.675781 7.996094 -5.363281 C 8.300781 -5.050781 8.453125 -4.566406 8.453125 -3.914062 L 8.453125 0 L 7.492188 0 L 7.492188 -3.59375 C 7.492188 -3.980469 7.460938 -4.257812 7.398438 -4.429688 C 7.335938 -4.597656 7.222656 -4.734375 7.058594 -4.839844 C 6.894531 -4.941406 6.699219 -4.996094 6.476562 -4.996094 C 6.078125 -4.996094 5.742188 -4.863281 5.476562 -4.59375 C 5.214844 -4.328125 5.082031 -3.902344 5.082031 -3.3125 L 5.082031 0 L 4.113281 0 L 4.113281 -3.707031 C 4.113281 -4.136719 4.035156 -4.457031 3.878906 -4.671875 C 3.71875 -4.886719 3.460938 -4.996094 3.105469 -4.996094 C 2.832031 -4.996094 2.582031 -4.921875 2.351562 -4.78125 C 2.117188 -4.636719 1.953125 -4.425781 1.847656 -4.152344 C 1.742188 -3.875 1.691406 -3.480469 1.691406 -2.960938 L 1.691406 0 Z M 0.726562 0 "/>
</g>
<g id="glyph-2-5">
</g>
<g id="glyph-2-6">
<path d="M 0.726562 2.1875 L 0.726562 -5.703125 L 1.605469 -5.703125 L 1.605469 -4.960938 C 1.8125 -5.253906 2.046875 -5.46875 2.308594 -5.617188 C 2.570312 -5.761719 2.886719 -5.832031 3.261719 -5.832031 C 3.746094 -5.832031 4.175781 -5.707031 4.550781 -5.457031 C 4.921875 -5.207031 5.203125 -4.851562 5.390625 -4.394531 C 5.582031 -3.941406 5.675781 -3.4375 5.675781 -2.894531 C 5.675781 -2.3125 5.574219 -1.785156 5.363281 -1.320312 C 5.152344 -0.851562 4.847656 -0.492188 4.449219 -0.246094 C 4.050781 0.00390625 3.632812 0.128906 3.191406 0.128906 C 2.867188 0.128906 2.578125 0.0625 2.324219 -0.0742188 C 2.066406 -0.210938 1.855469 -0.382812 1.691406 -0.589844 L 1.691406 2.1875 L 0.726562 2.1875 M 1.601562 -2.820312 C 1.601562 -2.085938 1.75 -1.542969 2.046875 -1.191406 C 2.34375 -0.839844 2.703125 -0.664062 3.125 -0.664062 C 3.554688 -0.664062 3.921875 -0.847656 4.230469 -1.210938 C 4.535156 -1.574219 4.6875 -2.136719 4.6875 -2.898438 C 4.6875 -3.628906 4.539062 -4.171875 4.242188 -4.53125 C 3.941406 -4.894531 3.585938 -5.074219 3.167969 -5.074219 C 2.757812 -5.074219 2.394531 -4.882812 2.074219 -4.5 C 1.757812 -4.113281 1.601562 -3.554688 1.601562 -2.820312 Z M 1.601562 -2.820312 "/>
</g>
<g id="glyph-2-7">
<path d="M 0.714844 0 L 0.714844 -5.703125 L 1.585938 -5.703125 L 1.585938 -4.839844 C 1.804688 -5.242188 2.011719 -5.511719 2.199219 -5.640625 C 2.386719 -5.769531 2.59375 -5.832031 2.820312 -5.832031 C 3.144531 -5.832031 3.476562 -5.730469 3.8125 -5.523438 L 3.480469 -4.625 C 3.242188 -4.765625 3.007812 -4.832031 2.773438 -4.835938 C 2.558594 -4.832031 2.371094 -4.769531 2.203125 -4.644531 C 2.035156 -4.515625 1.914062 -4.339844 1.84375 -4.113281 C 1.734375 -3.769531 1.679688 -3.394531 1.679688 -2.984375 L 1.679688 0 Z M 0.714844 0 "/>
</g>
<g id="glyph-2-8">
<path d="M 2.835938 -0.863281 L 2.976562 -0.0117188 C 2.703125 0.046875 2.460938 0.0742188 2.246094 0.0742188 C 1.894531 0.0742188 1.621094 0.0195312 1.429688 -0.0898438 C 1.234375 -0.203125 1.097656 -0.347656 1.019531 -0.527344 C 0.941406 -0.710938 0.902344 -1.089844 0.902344 -1.671875 L 0.902344 -4.953125 L 0.195312 -4.953125 L 0.195312 -5.703125 L 0.902344 -5.703125 L 0.902344 -7.117188 L 1.863281 -7.695312 L 1.863281 -5.703125 L 2.835938 -5.703125 L 2.835938 -4.953125 L 1.863281 -4.953125 L 1.863281 -1.617188 C 1.863281 -1.339844 1.878906 -1.164062 1.914062 -1.085938 C 1.949219 -1.007812 2.003906 -0.945312 2.082031 -0.898438 C 2.160156 -0.851562 2.269531 -0.828125 2.410156 -0.828125 C 2.519531 -0.828125 2.660156 -0.839844 2.835938 -0.863281 Z M 2.835938 -0.863281 "/>
</g>
<g id="glyph-2-9">
<path d="M 0.726562 0 L 0.726562 -5.703125 L 1.59375 -5.703125 L 1.59375 -4.894531 C 2.015625 -5.519531 2.621094 -5.832031 3.410156 -5.832031 C 3.753906 -5.832031 4.070312 -5.769531 4.359375 -5.648438 C 4.648438 -5.523438 4.863281 -5.363281 5.007812 -5.160156 C 5.148438 -4.960938 5.25 -4.722656 5.304688 -4.445312 C 5.34375 -4.269531 5.359375 -3.953125 5.359375 -3.507812 L 5.359375 0 L 4.394531 0 L 4.394531 -3.46875 C 4.394531 -3.863281 4.355469 -4.15625 4.28125 -4.351562 C 4.207031 -4.546875 4.070312 -4.703125 3.878906 -4.820312 C 3.6875 -4.9375 3.464844 -4.996094 3.207031 -4.996094 C 2.792969 -4.996094 2.4375 -4.863281 2.140625 -4.601562 C 1.839844 -4.339844 1.691406 -3.84375 1.691406 -3.117188 L 1.691406 0 Z M 0.726562 0 "/>
</g>
<g id="glyph-2-10">
<path d="M 4.445312 -2.089844 L 5.398438 -1.964844 C 5.292969 -1.3125 5.027344 -0.796875 4.601562 -0.425781 C 4.171875 -0.0546875 3.648438 0.128906 3.023438 0.128906 C 2.242188 0.128906 1.617188 -0.125 1.140625 -0.636719 C 0.667969 -1.148438 0.429688 -1.878906 0.429688 -2.832031 C 0.429688 -3.445312 0.53125 -3.984375 0.734375 -4.445312 C 0.941406 -4.910156 1.25 -5.253906 1.667969 -5.488281 C 2.085938 -5.71875 2.539062 -5.832031 3.03125 -5.832031 C 3.648438 -5.832031 4.15625 -5.675781 4.550781 -5.363281 C 4.941406 -5.050781 5.195312 -4.605469 5.304688 -4.027344 L 4.367188 -3.882812 C 4.277344 -4.265625 4.117188 -4.554688 3.890625 -4.75 C 3.664062 -4.941406 3.390625 -5.039062 3.066406 -5.039062 C 2.578125 -5.039062 2.183594 -4.863281 1.878906 -4.515625 C 1.574219 -4.164062 1.421875 -3.613281 1.421875 -2.859375 C 1.421875 -2.089844 1.570312 -1.535156 1.863281 -1.1875 C 2.15625 -0.839844 2.539062 -0.664062 3.011719 -0.664062 C 3.394531 -0.664062 3.710938 -0.78125 3.964844 -1.015625 C 4.21875 -1.246094 4.378906 -1.605469 4.445312 -2.089844 Z M 4.445312 -2.089844 "/>
</g>
<g id="glyph-2-11">
<path d="M 0.730469 -6.761719 L 0.730469 -7.875 L 1.695312 -7.875 L 1.695312 -6.761719 L 0.730469 -6.761719 M 0.730469 0 L 0.730469 -5.703125 L 1.695312 -5.703125 L 1.695312 0 Z M 0.730469 0 "/>
</g>
<g id="glyph-2-12">
<path d="M 4.445312 -0.703125 C 4.089844 -0.398438 3.746094 -0.183594 3.414062 -0.0585938 C 3.082031 0.0664062 2.726562 0.128906 2.347656 0.128906 C 1.71875 0.128906 1.238281 -0.0234375 0.902344 -0.332031 C 0.566406 -0.636719 0.398438 -1.027344 0.398438 -1.503906 C 0.398438 -1.78125 0.460938 -2.039062 0.589844 -2.269531 C 0.714844 -2.5 0.882812 -2.6875 1.085938 -2.824219 C 1.292969 -2.964844 1.523438 -3.070312 1.78125 -3.140625 C 1.972656 -3.191406 2.257812 -3.242188 2.640625 -3.289062 C 3.421875 -3.378906 3.996094 -3.492188 4.367188 -3.621094 C 4.371094 -3.753906 4.371094 -3.835938 4.371094 -3.871094 C 4.371094 -4.265625 4.28125 -4.542969 4.097656 -4.703125 C 3.851562 -4.921875 3.484375 -5.03125 2.996094 -5.03125 C 2.542969 -5.03125 2.207031 -4.953125 1.988281 -4.792969 C 1.773438 -4.632812 1.613281 -4.351562 1.507812 -3.949219 L 0.5625 -4.078125 C 0.648438 -4.480469 0.792969 -4.808594 0.988281 -5.058594 C 1.183594 -5.304688 1.46875 -5.496094 1.84375 -5.632812 C 2.214844 -5.765625 2.644531 -5.832031 3.136719 -5.832031 C 3.625 -5.832031 4.019531 -5.777344 4.324219 -5.660156 C 4.628906 -5.546875 4.851562 -5.402344 4.996094 -5.230469 C 5.136719 -5.054688 5.238281 -4.835938 5.296875 -4.570312 C 5.328125 -4.40625 5.34375 -4.109375 5.34375 -3.679688 L 5.34375 -2.390625 C 5.34375 -1.492188 5.363281 -0.921875 5.40625 -0.683594 C 5.445312 -0.445312 5.527344 -0.21875 5.648438 0 L 4.640625 0 C 4.539062 -0.199219 4.476562 -0.433594 4.445312 -0.703125 M 4.367188 -2.863281 C 4.015625 -2.71875 3.488281 -2.597656 2.789062 -2.496094 C 2.390625 -2.441406 2.109375 -2.375 1.945312 -2.304688 C 1.78125 -2.234375 1.652344 -2.128906 1.5625 -1.988281 C 1.472656 -1.851562 1.429688 -1.699219 1.429688 -1.53125 C 1.429688 -1.273438 1.527344 -1.058594 1.722656 -0.886719 C 1.917969 -0.714844 2.203125 -0.628906 2.578125 -0.628906 C 2.949219 -0.628906 3.28125 -0.710938 3.570312 -0.871094 C 3.863281 -1.035156 4.074219 -1.257812 4.210938 -1.542969 C 4.316406 -1.761719 4.367188 -2.082031 4.367188 -2.507812 Z M 4.367188 -2.863281 "/>
</g>
<g id="glyph-2-13">
<path d="M 0.367188 -2.851562 C 0.367188 -3.910156 0.660156 -4.691406 1.246094 -5.199219 C 1.738281 -5.621094 2.335938 -5.832031 3.039062 -5.832031 C 3.824219 -5.832031 4.464844 -5.574219 4.960938 -5.0625 C 5.460938 -4.546875 5.710938 -3.839844 5.710938 -2.933594 C 5.710938 -2.199219 5.597656 -1.621094 5.378906 -1.199219 C 5.160156 -0.78125 4.839844 -0.453125 4.417969 -0.21875 C 3.996094 0.0117188 3.539062 0.128906 3.039062 0.128906 C 2.242188 0.128906 1.597656 -0.128906 1.105469 -0.640625 C 0.613281 -1.152344 0.367188 -1.890625 0.367188 -2.851562 M 1.359375 -2.851562 C 1.359375 -2.121094 1.519531 -1.574219 1.835938 -1.210938 C 2.15625 -0.847656 2.554688 -0.664062 3.039062 -0.664062 C 3.519531 -0.664062 3.917969 -0.847656 4.238281 -1.214844 C 4.554688 -1.578125 4.714844 -2.136719 4.714844 -2.882812 C 4.714844 -3.589844 4.554688 -4.125 4.234375 -4.488281 C 3.914062 -4.851562 3.515625 -5.03125 3.039062 -5.03125 C 2.554688 -5.03125 2.15625 -4.851562 1.835938 -4.492188 C 1.519531 -4.128906 1.359375 -3.582031 1.359375 -2.851562 Z M 1.359375 -2.851562 "/>
</g>
<g id="glyph-2-14">
<path d="M 4.425781 0 L 4.425781 -0.71875 C 4.0625 -0.152344 3.53125 0.128906 2.832031 0.128906 C 2.375 0.128906 1.957031 0.00390625 1.578125 -0.246094 C 1.195312 -0.496094 0.898438 -0.847656 0.691406 -1.296875 C 0.480469 -1.746094 0.375 -2.261719 0.375 -2.847656 C 0.375 -3.414062 0.472656 -3.933594 0.660156 -4.394531 C 0.851562 -4.859375 1.136719 -5.214844 1.515625 -5.460938 C 1.894531 -5.710938 2.320312 -5.832031 2.789062 -5.832031 C 3.132812 -5.832031 3.4375 -5.761719 3.707031 -5.617188 C 3.976562 -5.46875 4.191406 -5.28125 4.359375 -5.046875 L 4.359375 -7.875 L 5.324219 -7.875 L 5.324219 0 L 4.425781 0 M 1.371094 -2.847656 C 1.371094 -2.117188 1.523438 -1.570312 1.832031 -1.207031 C 2.140625 -0.847656 2.503906 -0.664062 2.921875 -0.664062 C 3.34375 -0.664062 3.703125 -0.839844 4 -1.183594 C 4.292969 -1.53125 4.441406 -2.058594 4.441406 -2.765625 C 4.441406 -3.546875 4.292969 -4.121094 3.992188 -4.484375 C 3.691406 -4.851562 3.320312 -5.03125 2.878906 -5.03125 C 2.449219 -5.03125 2.089844 -4.855469 1.800781 -4.507812 C 1.515625 -4.15625 1.371094 -3.601562 1.371094 -2.847656 Z M 1.371094 -2.847656 "/>
</g>
<g id="glyph-2-15">
<path d="M 0.71875 -6.75 L 0.71875 -7.875 L 1.6875 -7.875 L 1.6875 -6.75 L 0.71875 -6.75 M -0.503906 2.210938 L -0.320312 1.390625 C -0.128906 1.441406 0.0234375 1.464844 0.132812 1.464844 C 0.332031 1.464844 0.476562 1.402344 0.574219 1.269531 C 0.671875 1.140625 0.71875 0.8125 0.71875 0.289062 L 0.71875 -5.703125 L 1.6875 -5.703125 L 1.6875 0.3125 C 1.6875 1.011719 1.59375 1.503906 1.414062 1.777344 C 1.179688 2.136719 0.792969 2.316406 0.253906 2.316406 C -0.0078125 2.316406 -0.261719 2.28125 -0.503906 2.210938 Z M -0.503906 2.210938 "/>
</g>
<g id="glyph-2-16">
<path d="M 0.546875 0.472656 L 1.488281 0.613281 C 1.527344 0.902344 1.636719 1.113281 1.816406 1.246094 C 2.054688 1.425781 2.382812 1.515625 2.796875 1.515625 C 3.246094 1.515625 3.589844 1.425781 3.835938 1.246094 C 4.078125 1.066406 4.242188 0.816406 4.328125 0.492188 C 4.378906 0.296875 4.402344 -0.117188 4.398438 -0.746094 C 3.976562 -0.25 3.449219 0 2.820312 0 C 2.035156 0 1.429688 -0.28125 1 -0.847656 C 0.570312 -1.414062 0.355469 -2.09375 0.355469 -2.882812 C 0.355469 -3.429688 0.453125 -3.929688 0.648438 -4.390625 C 0.847656 -4.851562 1.132812 -5.207031 1.507812 -5.457031 C 1.878906 -5.707031 2.320312 -5.832031 2.824219 -5.832031 C 3.5 -5.832031 4.054688 -5.5625 4.492188 -5.015625 L 4.492188 -5.703125 L 5.382812 -5.703125 L 5.382812 -0.773438 C 5.382812 0.113281 5.292969 0.742188 5.109375 1.113281 C 4.929688 1.484375 4.644531 1.777344 4.25 1.992188 C 3.859375 2.207031 3.375 2.316406 2.804688 2.316406 C 2.125 2.316406 1.574219 2.160156 1.15625 1.855469 C 0.734375 1.550781 0.535156 1.089844 0.546875 0.472656 M 1.347656 -2.953125 C 1.347656 -2.207031 1.496094 -1.660156 1.792969 -1.316406 C 2.089844 -0.972656 2.464844 -0.800781 2.910156 -0.800781 C 3.355469 -0.800781 3.726562 -0.972656 4.027344 -1.3125 C 4.328125 -1.65625 4.480469 -2.191406 4.480469 -2.921875 C 4.480469 -3.621094 4.324219 -4.148438 4.015625 -4.5 C 3.707031 -4.855469 3.332031 -5.03125 2.894531 -5.03125 C 2.464844 -5.03125 2.101562 -4.859375 1.800781 -4.507812 C 1.5 -4.160156 1.347656 -3.640625 1.347656 -2.953125 Z M 1.347656 -2.953125 "/>
</g>
<g id="glyph-2-17">
<path d="M 0.367188 -2.851562 C 0.367188 -3.910156 0.660156 -4.691406 1.246094 -5.199219 C 1.738281 -5.621094 2.335938 -5.832031 3.039062 -5.832031 C 3.824219 -5.832031 4.464844 -5.574219 4.960938 -5.0625 C 5.460938 -4.546875 5.710938 -3.839844 5.710938 -2.933594 C 5.710938 -2.199219 5.597656 -1.621094 5.378906 -1.199219 C 5.160156 -0.78125 4.839844 -0.453125 4.417969 -0.21875 C 3.996094 0.0117188 3.539062 0.128906 3.039062 0.128906 C 2.242188 0.128906 1.597656 -0.128906 1.105469 -0.640625 C 0.613281 -1.152344 0.367188 -1.890625 0.367188 -2.851562 M 1.359375 -2.851562 C 1.359375 -2.121094 1.519531 -1.574219 1.835938 -1.210938 C 2.15625 -0.847656 2.554688 -0.664062 3.039062 -0.664062 C 3.519531 -0.664062 3.917969 -0.847656 4.238281 -1.214844 C 4.554688 -1.578125 4.714844 -2.136719 4.714844 -2.882812 C 4.714844 -3.589844 4.554688 -4.125 4.234375 -4.488281 C 3.914062 -4.851562 3.515625 -5.03125 3.039062 -5.03125 C 2.554688 -5.03125 2.15625 -4.851562 1.835938 -4.492188 C 1.519531 -4.128906 1.359375 -3.582031 1.359375 -2.851562 M 2.503906 -6.414062 L 3.21875 -7.917969 L 4.484375 -7.917969 L 3.304688 -6.414062 Z M 2.503906 -6.414062 "/>
</g>
<g id="glyph-3-0">
<path d="M 3.71875 0 L 0.0585938 -9.449219 L 1.410156 -9.449219 L 3.867188 -2.585938 C 4.066406 -2.035156 4.230469 -1.519531 4.363281 -1.039062 C 4.507812 -1.554688 4.679688 -2.070312 4.871094 -2.585938 L 7.425781 -9.449219 L 8.703125 -9.449219 L 5 0 Z M 3.71875 0 "/>
</g>
<g id="glyph-3-1">
<path d="M 5.554688 -2.203125 L 6.753906 -2.054688 C 6.566406 -1.355469 6.214844 -0.8125 5.703125 -0.425781 C 5.191406 -0.0390625 4.539062 0.15625 3.746094 0.15625 C 2.742188 0.15625 1.949219 -0.152344 1.363281 -0.769531 C 0.777344 -1.386719 0.484375 -2.25 0.484375 -3.363281 C 0.484375 -4.515625 0.78125 -5.410156 1.371094 -6.046875 C 1.964844 -6.679688 2.734375 -7 3.679688 -7 C 4.59375 -7 5.34375 -6.6875 5.921875 -6.066406 C 6.503906 -5.441406 6.792969 -4.566406 6.792969 -3.433594 C 6.792969 -3.367188 6.792969 -3.261719 6.785156 -3.125 L 1.683594 -3.125 C 1.726562 -2.375 1.9375 -1.796875 2.320312 -1.398438 C 2.703125 -1 3.179688 -0.800781 3.75 -0.800781 C 4.175781 -0.800781 4.539062 -0.910156 4.839844 -1.132812 C 5.140625 -1.359375 5.378906 -1.714844 5.554688 -2.203125 M 1.746094 -4.078125 L 5.570312 -4.078125 C 5.515625 -4.65625 5.371094 -5.085938 5.128906 -5.375 C 4.761719 -5.820312 4.28125 -6.046875 3.691406 -6.046875 C 3.160156 -6.046875 2.710938 -5.867188 2.347656 -5.511719 C 1.984375 -5.152344 1.785156 -4.675781 1.746094 -4.078125 Z M 1.746094 -4.078125 "/>
</g>
<g id="glyph-3-2">
<path d="M 0.871094 0 L 0.871094 -6.84375 L 1.914062 -6.84375 L 1.914062 -5.871094 C 2.417969 -6.625 3.144531 -7 4.09375 -7 C 4.503906 -7 4.882812 -6.925781 5.230469 -6.777344 C 5.578125 -6.628906 5.835938 -6.433594 6.007812 -6.195312 C 6.179688 -5.953125 6.300781 -5.667969 6.367188 -5.335938 C 6.410156 -5.121094 6.433594 -4.746094 6.433594 -4.207031 L 6.433594 0 L 5.273438 0 L 5.273438 -4.164062 C 5.273438 -4.636719 5.226562 -4.988281 5.136719 -5.222656 C 5.046875 -5.457031 4.886719 -5.644531 4.65625 -5.785156 C 4.425781 -5.925781 4.15625 -5.992188 3.847656 -5.992188 C 3.355469 -5.992188 2.925781 -5.835938 2.570312 -5.523438 C 2.210938 -5.210938 2.03125 -4.613281 2.03125 -3.738281 L 2.03125 0 Z M 0.871094 0 "/>
</g>
<g id="glyph-3-3">
</g>
<g id="glyph-3-4">
<path d="M 5.3125 0 L 5.3125 -0.863281 C 4.875 -0.183594 4.238281 0.15625 3.398438 0.15625 C 2.851562 0.15625 2.347656 0.00390625 1.890625 -0.296875 C 1.433594 -0.597656 1.078125 -1.015625 0.828125 -1.554688 C 0.578125 -2.097656 0.453125 -2.714844 0.453125 -3.414062 C 0.453125 -4.097656 0.566406 -4.71875 0.792969 -5.277344 C 1.019531 -5.832031 1.363281 -6.257812 1.816406 -6.554688 C 2.273438 -6.851562 2.78125 -7 3.34375 -7 C 3.757812 -7 4.125 -6.914062 4.445312 -6.738281 C 4.769531 -6.566406 5.03125 -6.335938 5.234375 -6.058594 L 5.234375 -9.449219 L 6.386719 -9.449219 L 6.386719 0 L 5.3125 0 M 1.644531 -3.414062 C 1.644531 -2.539062 1.828125 -1.882812 2.199219 -1.449219 C 2.566406 -1.015625 3.003906 -0.800781 3.507812 -0.800781 C 4.011719 -0.800781 4.445312 -1.007812 4.796875 -1.421875 C 5.152344 -1.835938 5.332031 -2.46875 5.332031 -3.320312 C 5.332031 -4.257812 5.148438 -4.945312 4.789062 -5.382812 C 4.429688 -5.820312 3.984375 -6.039062 3.453125 -6.039062 C 2.9375 -6.039062 2.507812 -5.828125 2.164062 -5.40625 C 1.816406 -4.988281 1.644531 -4.324219 1.644531 -3.414062 Z M 1.644531 -3.414062 "/>
</g>
<g id="glyph-3-5">
<path d="M 0.875 -8.113281 L 0.875 -9.449219 L 2.035156 -9.449219 L 2.035156 -8.113281 L 0.875 -8.113281 M 0.875 0 L 0.875 -6.84375 L 2.035156 -6.84375 L 2.035156 0 Z M 0.875 0 "/>
</g>
<g id="glyph-3-6">
<path d="M 5.335938 -0.84375 C 4.90625 -0.480469 4.492188 -0.222656 4.097656 -0.0703125 C 3.699219 0.078125 3.273438 0.15625 2.816406 0.15625 C 2.066406 0.15625 1.488281 -0.0273438 1.082031 -0.394531 C 0.679688 -0.765625 0.476562 -1.234375 0.476562 -1.804688 C 0.476562 -2.140625 0.554688 -2.445312 0.707031 -2.722656 C 0.859375 -3 1.058594 -3.222656 1.304688 -3.390625 C 1.550781 -3.558594 1.832031 -3.683594 2.140625 -3.769531 C 2.367188 -3.832031 2.710938 -3.886719 3.171875 -3.945312 C 4.109375 -4.054688 4.796875 -4.1875 5.238281 -4.34375 C 5.246094 -4.503906 5.246094 -4.605469 5.246094 -4.648438 C 5.246094 -5.121094 5.136719 -5.453125 4.917969 -5.644531 C 4.621094 -5.90625 4.179688 -6.039062 3.597656 -6.039062 C 3.050781 -6.039062 2.648438 -5.945312 2.386719 -5.753906 C 2.128906 -5.5625 1.9375 -5.222656 1.8125 -4.738281 L 0.675781 -4.890625 C 0.78125 -5.378906 0.949219 -5.769531 1.1875 -6.066406 C 1.421875 -6.367188 1.765625 -6.597656 2.210938 -6.757812 C 2.65625 -6.917969 3.175781 -7 3.765625 -7 C 4.347656 -7 4.824219 -6.929688 5.1875 -6.792969 C 5.554688 -6.65625 5.820312 -6.484375 5.992188 -6.273438 C 6.164062 -6.066406 6.285156 -5.804688 6.355469 -5.484375 C 6.394531 -5.289062 6.414062 -4.929688 6.414062 -4.414062 L 6.414062 -2.867188 C 6.414062 -1.789062 6.4375 -1.109375 6.488281 -0.820312 C 6.535156 -0.535156 6.632812 -0.261719 6.78125 0 L 5.570312 0 C 5.449219 -0.242188 5.371094 -0.523438 5.335938 -0.84375 M 5.238281 -3.433594 C 4.820312 -3.261719 4.1875 -3.117188 3.34375 -2.996094 C 2.867188 -2.929688 2.53125 -2.851562 2.332031 -2.765625 C 2.136719 -2.679688 1.984375 -2.554688 1.875 -2.386719 C 1.769531 -2.222656 1.714844 -2.039062 1.714844 -1.835938 C 1.714844 -1.527344 1.832031 -1.269531 2.066406 -1.0625 C 2.300781 -0.855469 2.640625 -0.753906 3.09375 -0.753906 C 3.539062 -0.753906 3.9375 -0.851562 4.285156 -1.046875 C 4.632812 -1.242188 4.890625 -1.511719 5.054688 -1.851562 C 5.175781 -2.113281 5.238281 -2.5 5.238281 -3.011719 Z M 5.238281 -3.433594 "/>
</g>
<g id="glyph-3-7">
<path d="M 0.65625 0.566406 L 1.785156 0.734375 C 1.832031 1.082031 1.964844 1.335938 2.179688 1.496094 C 2.464844 1.710938 2.859375 1.816406 3.359375 1.816406 C 3.894531 1.816406 4.308594 1.710938 4.601562 1.496094 C 4.894531 1.28125 5.09375 0.980469 5.195312 0.59375 C 5.253906 0.355469 5.28125 -0.140625 5.277344 -0.894531 C 4.773438 -0.296875 4.140625 0 3.382812 0 C 2.441406 0 1.714844 -0.339844 1.199219 -1.019531 C 0.683594 -1.695312 0.425781 -2.511719 0.425781 -3.460938 C 0.425781 -4.113281 0.542969 -4.71875 0.78125 -5.269531 C 1.015625 -5.820312 1.359375 -6.246094 1.808594 -6.546875 C 2.257812 -6.847656 2.785156 -7 3.390625 -7 C 4.199219 -7 4.863281 -6.671875 5.386719 -6.019531 L 5.386719 -6.84375 L 6.457031 -6.84375 L 6.457031 -0.929688 C 6.457031 0.136719 6.351562 0.894531 6.132812 1.335938 C 5.914062 1.78125 5.570312 2.132812 5.101562 2.390625 C 4.632812 2.648438 4.050781 2.777344 3.363281 2.777344 C 2.546875 2.777344 1.886719 2.59375 1.386719 2.226562 C 0.882812 1.859375 0.640625 1.304688 0.65625 0.566406 M 1.617188 -3.546875 C 1.617188 -2.648438 1.796875 -1.992188 2.152344 -1.578125 C 2.507812 -1.167969 2.957031 -0.960938 3.492188 -0.960938 C 4.027344 -0.960938 4.472656 -1.164062 4.835938 -1.574219 C 5.195312 -1.984375 5.375 -2.628906 5.375 -3.507812 C 5.375 -4.34375 5.191406 -4.976562 4.816406 -5.402344 C 4.445312 -5.828125 4 -6.039062 3.472656 -6.039062 C 2.957031 -6.039062 2.519531 -5.828125 2.160156 -5.410156 C 1.796875 -4.992188 1.617188 -4.371094 1.617188 -3.546875 Z M 1.617188 -3.546875 "/>
</g>
<g id="glyph-3-8">
<path d="M 0.855469 0 L 0.855469 -6.84375 L 1.902344 -6.84375 L 1.902344 -5.808594 C 2.167969 -6.292969 2.414062 -6.613281 2.640625 -6.765625 C 2.863281 -6.921875 3.113281 -7 3.382812 -7 C 3.773438 -7 4.171875 -6.875 4.578125 -6.625 L 4.175781 -5.550781 C 3.894531 -5.71875 3.609375 -5.800781 3.324219 -5.800781 C 3.070312 -5.800781 2.84375 -5.722656 2.640625 -5.570312 C 2.441406 -5.417969 2.296875 -5.207031 2.210938 -4.9375 C 2.082031 -4.523438 2.015625 -4.074219 2.015625 -3.582031 L 2.015625 0 Z M 0.855469 0 "/>
</g>
<g id="glyph-3-9">
<path d="M 0.871094 0 L 0.871094 -6.84375 L 1.90625 -6.84375 L 1.90625 -5.882812 C 2.121094 -6.21875 2.410156 -6.488281 2.765625 -6.695312 C 3.121094 -6.898438 3.527344 -7 3.984375 -7 C 4.488281 -7 4.90625 -6.894531 5.230469 -6.683594 C 5.554688 -6.472656 5.785156 -6.179688 5.917969 -5.800781 C 6.457031 -6.601562 7.164062 -7 8.03125 -7 C 8.710938 -7 9.230469 -6.8125 9.597656 -6.4375 C 9.960938 -6.058594 10.144531 -5.480469 10.144531 -4.699219 L 10.144531 0 L 8.992188 0 L 8.992188 -4.3125 C 8.992188 -4.777344 8.953125 -5.109375 8.878906 -5.3125 C 8.804688 -5.519531 8.667969 -5.683594 8.46875 -5.808594 C 8.269531 -5.933594 8.039062 -5.992188 7.773438 -5.992188 C 7.292969 -5.992188 6.890625 -5.835938 6.574219 -5.515625 C 6.257812 -5.195312 6.097656 -4.679688 6.097656 -3.976562 L 6.097656 0 L 4.9375 0 L 4.9375 -4.445312 C 4.9375 -4.960938 4.84375 -5.347656 4.652344 -5.609375 C 4.464844 -5.863281 4.15625 -5.992188 3.726562 -5.992188 C 3.398438 -5.992188 3.097656 -5.90625 2.820312 -5.734375 C 2.542969 -5.5625 2.339844 -5.3125 2.21875 -4.980469 C 2.09375 -4.652344 2.03125 -4.175781 2.03125 -3.550781 L 2.03125 0 Z M 0.871094 0 "/>
</g>
</g>
</defs>
<rect x="-53.2" y="-37.4" width="638.4" height="448.8" fill="rgb(100%, 100%, 100%)" fill-opacity="1"/>
<path fill-rule="nonzero" fill="rgb(78.823529%, 42.352941%, 35.686275%)" fill-opacity="0.45098" stroke-width="2.133957" stroke-linecap="butt" stroke-linejoin="round" stroke="rgb(43.529412%, 36.078431%, 21.176471%)" stroke-opacity="1" stroke-miterlimit="10" d="M 476.367188 220.996094 L 476.089844 212.261719 L 475.261719 203.5625 L 473.878906 194.933594 L 471.953125 186.410156 L 469.492188 178.023438 L 466.503906 169.8125 L 463 161.808594 L 458.996094 154.039062 L 454.503906 146.542969 L 449.550781 139.34375 L 444.148438 132.472656 L 438.320312 125.960938 L 432.09375 119.832031 L 425.488281 114.109375 L 418.535156 108.816406 L 411.257812 103.976562 L 403.691406 99.605469 L 395.859375 95.726562 L 387.800781 92.347656 L 379.542969 89.492188 L 371.117188 87.160156 L 362.5625 85.371094 L 353.914062 84.128906 L 345.203125 83.4375 L 336.464844 83.296875 L 327.734375 83.714844 L 319.050781 84.679688 L 310.445312 86.199219 L 301.953125 88.257812 L 293.605469 90.855469 L 285.441406 93.972656 L 277.492188 97.601562 L 269.789062 101.730469 L 262.363281 106.339844 L 255.246094 111.40625 L 248.464844 116.917969 L 242.042969 122.847656 L 236.011719 129.171875 L 230.394531 135.867188 L 225.214844 142.902344 L 220.488281 150.253906 L 216.242188 157.890625 L 212.484375 165.78125 L 209.238281 173.894531 L 206.511719 182.199219 L 204.316406 190.65625 L 202.660156 199.238281 L 201.554688 207.90625 L 201 216.628906 L 201 225.367188 L 201.554688 234.089844 L 202.660156 242.757812 L 204.316406 251.339844 L 206.511719 259.796875 L 209.238281 268.101562 L 212.484375 276.214844 L 216.242188 284.105469 L 220.488281 291.742188 L 225.214844 299.09375 L 230.394531 306.128906 L 236.011719 312.824219 L 242.042969 319.148438 L 248.464844 325.078125 L 255.246094 330.589844 L 262.363281 335.65625 L 269.789062 340.265625 L 277.492188 344.394531 L 285.441406 348.023438 L 293.605469 351.140625 L 301.953125 353.738281 L 310.445312 355.796875 L 319.050781 357.3125 L 327.734375 358.28125 L 336.464844 358.699219 L 345.203125 358.558594 L 353.914062 357.867188 L 362.5625 356.625 L 371.117188 354.835938 L 379.542969 352.503906 L 387.800781 349.648438 L 395.859375 346.269531 L 403.691406 342.390625 L 411.257812 338.019531 L 418.535156 333.179688 L 425.488281 327.886719 L 432.09375 322.164062 L 438.320312 316.035156 L 444.148438 309.523438 L 449.550781 302.652344 L 454.503906 295.453125 L 458.996094 287.957031 L 463 280.1875 L 466.503906 272.183594 L 469.492188 263.96875 L 471.953125 255.585938 L 473.878906 247.0625 L 475.261719 238.433594 L 476.089844 229.734375 Z M 476.367188 220.996094 "/>
<path fill-rule="nonzero" fill="rgb(72.156863%, 50.980392%, 15.686275%)" fill-opacity="0.45098" stroke-width="2.133957" stroke-linecap="butt" stroke-linejoin="round" stroke="rgb(43.529412%, 36.078431%, 21.176471%)" stroke-opacity="1" stroke-miterlimit="10" d="M 331 220.996094 L 330.722656 212.261719 L 329.890625 203.5625 L 328.511719 194.933594 L 326.585938 186.410156 L 324.121094 178.023438 L 321.132812 169.8125 L 317.628906 161.808594 L 313.625 154.039062 L 309.136719 146.542969 L 304.179688 139.34375 L 298.777344 132.472656 L 292.953125 125.960938 L 286.722656 119.832031 L 280.121094 114.109375 L 273.164062 108.816406 L 265.890625 103.976562 L 258.320312 99.605469 L 250.492188 95.726562 L 242.429688 92.347656 L 234.171875 89.492188 L 225.75 87.160156 L 217.195312 85.371094 L 208.546875 84.128906 L 199.832031 83.4375 L 191.097656 83.296875 L 182.367188 83.714844 L 173.679688 84.679688 L 165.074219 86.199219 L 156.582031 88.257812 L 148.238281 90.855469 L 140.074219 93.972656 L 132.125 97.601562 L 124.421875 101.730469 L 116.996094 106.339844 L 109.878906 111.40625 L 103.09375 116.917969 L 96.675781 122.847656 L 90.644531 129.171875 L 85.027344 135.867188 L 79.84375 142.902344 L 75.121094 150.253906 L 70.871094 157.890625 L 67.117188 165.78125 L 63.867188 173.894531 L 61.140625 182.199219 L 58.945312 190.65625 L 57.292969 199.238281 L 56.1875 207.90625 L 55.632812 216.628906 L 55.632812 225.367188 L 56.1875 234.089844 L 57.292969 242.757812 L 58.945312 251.339844 L 61.140625 259.796875 L 63.867188 268.101562 L 67.117188 276.214844 L 70.871094 284.105469 L 75.121094 291.742188 L 79.84375 299.09375 L 85.027344 306.128906 L 90.644531 312.824219 L 96.675781 319.148438 L 103.09375 325.078125 L 109.878906 330.589844 L 116.996094 335.65625 L 124.421875 340.265625 L 132.125 344.394531 L 140.074219 348.023438 L 148.238281 351.140625 L 156.582031 353.738281 L 165.074219 355.796875 L 173.679688 357.3125 L 182.367188 358.28125 L 191.097656 358.699219 L 199.832031 358.558594 L 208.546875 357.867188 L 217.195312 356.625 L 225.75 354.835938 L 234.171875 352.503906 L 242.429688 349.648438 L 250.492188 346.269531 L 258.320312 342.390625 L 265.890625 338.019531 L 273.164062 333.179688 L 280.121094 327.886719 L 286.722656 322.164062 L 292.953125 316.035156 L 298.777344 309.523438 L 304.179688 302.652344 L 309.136719 295.453125 L 313.625 287.957031 L 317.628906 280.1875 L 321.132812 272.183594 L 324.121094 263.96875 L 326.585938 255.585938 L 328.511719 247.0625 L 329.890625 238.433594 L 330.722656 229.734375 Z M 331 220.996094 "/>
<g fill="rgb(12.156863%, 10.196078%, 7.45098%)" fill-opacity="1">
<use xlink:href="#glyph-0-0" x="68.898438" y="57.25"/>
<use xlink:href="#glyph-0-1" x="76.489544" y="57.25"/>
<use xlink:href="#glyph-0-2" x="82.819171" y="57.25"/>
<use xlink:href="#glyph-0-3" x="89.771201" y="57.25"/>
<use xlink:href="#glyph-0-4" x="92.933236" y="57.25"/>
<use xlink:href="#glyph-0-5" x="99.885267" y="57.25"/>
<use xlink:href="#glyph-0-6" x="104.314339" y="57.25"/>
<use xlink:href="#glyph-0-7" x="110.643965" y="57.25"/>
<use xlink:href="#glyph-0-8" x="116.973592" y="57.25"/>
<use xlink:href="#glyph-0-9" x="120.135627" y="57.25"/>
<use xlink:href="#glyph-0-10" x="127.087658" y="57.25"/>
</g>
<g fill="rgb(12.156863%, 10.196078%, 7.45098%)" fill-opacity="1">
<use xlink:href="#glyph-0-11" x="391.253906" y="57.25"/>
<use xlink:href="#glyph-0-4" x="399.472974" y="57.25"/>
<use xlink:href="#glyph-0-12" x="406.425005" y="57.25"/>
<use xlink:href="#glyph-0-13" x="416.544627" y="57.25"/>
<use xlink:href="#glyph-0-10" x="423.496658" y="57.25"/>
<use xlink:href="#glyph-0-8" x="430.448689" y="57.25"/>
<use xlink:href="#glyph-0-7" x="433.610724" y="57.25"/>
<use xlink:href="#glyph-0-6" x="439.94035" y="57.25"/>
<use xlink:href="#glyph-0-7" x="446.269977" y="57.25"/>
<use xlink:href="#glyph-0-8" x="452.599604" y="57.25"/>
<use xlink:href="#glyph-0-9" x="455.761639" y="57.25"/>
<use xlink:href="#glyph-0-10" x="462.71367" y="57.25"/>
</g>
<g fill="rgb(12.156863%, 10.196078%, 7.45098%)" fill-opacity="1">
<use xlink:href="#glyph-1-0" x="157.007812" y="227.609375"/>
<use xlink:href="#glyph-1-1" x="166.502253" y="227.609375"/>
</g>
<g fill="rgb(12.156863%, 10.196078%, 7.45098%)" fill-opacity="1">
<use xlink:href="#glyph-1-0" x="355.933594" y="227.609375"/>
<use xlink:href="#glyph-1-2" x="365.428034" y="227.609375"/>
</g>
<g fill="rgb(12.156863%, 10.196078%, 7.45098%)" fill-opacity="1">
<use xlink:href="#glyph-1-3" x="261.21875" y="227.609375"/>
</g>
<g fill="rgb(0%, 0%, 0%)" fill-opacity="1">
<use xlink:href="#glyph-2-0" x="34.59375" y="34.058594"/>
<use xlink:href="#glyph-2-1" x="42.537598" y="34.058594"/>
<use xlink:href="#glyph-2-2" x="48.655273" y="34.058594"/>
<use xlink:href="#glyph-2-3" x="54.155273" y="34.058594"/>
<use xlink:href="#glyph-2-4" x="60.272949" y="34.058594"/>
<use xlink:href="#glyph-2-1" x="69.436035" y="34.058594"/>
<use xlink:href="#glyph-2-5" x="75.553711" y="34.058594"/>
<use xlink:href="#glyph-2-6" x="78.609863" y="34.058594"/>
<use xlink:href="#glyph-2-1" x="84.727539" y="34.058594"/>
<use xlink:href="#glyph-2-7" x="90.845215" y="34.058594"/>
<use xlink:href="#glyph-2-8" x="94.508301" y="34.058594"/>
<use xlink:href="#glyph-2-1" x="97.564453" y="34.058594"/>
<use xlink:href="#glyph-2-9" x="103.682129" y="34.058594"/>
<use xlink:href="#glyph-2-1" x="109.799805" y="34.058594"/>
<use xlink:href="#glyph-2-9" x="115.91748" y="34.058594"/>
<use xlink:href="#glyph-2-10" x="122.035156" y="34.058594"/>
<use xlink:href="#glyph-2-11" x="127.535156" y="34.058594"/>
<use xlink:href="#glyph-2-12" x="129.979004" y="34.058594"/>
<use xlink:href="#glyph-2-5" x="136.09668" y="34.058594"/>
<use xlink:href="#glyph-2-10" x="139.152832" y="34.058594"/>
<use xlink:href="#glyph-2-13" x="144.652832" y="34.058594"/>
<use xlink:href="#glyph-2-4" x="150.770508" y="34.058594"/>
<use xlink:href="#glyph-2-6" x="159.933594" y="34.058594"/>
<use xlink:href="#glyph-2-12" x="166.05127" y="34.058594"/>
<use xlink:href="#glyph-2-7" x="172.168945" y="34.058594"/>
<use xlink:href="#glyph-2-8" x="175.832031" y="34.058594"/>
<use xlink:href="#glyph-2-11" x="178.888184" y="34.058594"/>
<use xlink:href="#glyph-2-14" x="181.332031" y="34.058594"/>
<use xlink:href="#glyph-2-12" x="187.449707" y="34.058594"/>
<use xlink:href="#glyph-2-5" x="193.567383" y="34.058594"/>
<use xlink:href="#glyph-2-1" x="196.623535" y="34.058594"/>
<use xlink:href="#glyph-2-9" x="202.741211" y="34.058594"/>
<use xlink:href="#glyph-2-8" x="208.858887" y="34.058594"/>
<use xlink:href="#glyph-2-7" x="211.915039" y="34.058594"/>
<use xlink:href="#glyph-2-1" x="215.578125" y="34.058594"/>
<use xlink:href="#glyph-2-5" x="221.695801" y="34.058594"/>
<use xlink:href="#glyph-2-10" x="224.751953" y="34.058594"/>
<use xlink:href="#glyph-2-13" x="230.251953" y="34.058594"/>
<use xlink:href="#glyph-2-9" x="236.369629" y="34.058594"/>
<use xlink:href="#glyph-2-15" x="242.487305" y="34.058594"/>
<use xlink:href="#glyph-2-3" x="244.931152" y="34.058594"/>
<use xlink:href="#glyph-2-9" x="251.048828" y="34.058594"/>
<use xlink:href="#glyph-2-8" x="257.166504" y="34.058594"/>
<use xlink:href="#glyph-2-13" x="260.222656" y="34.058594"/>
<use xlink:href="#glyph-2-2" x="266.340332" y="34.058594"/>
<use xlink:href="#glyph-2-5" x="271.840332" y="34.058594"/>
<use xlink:href="#glyph-2-10" x="274.896484" y="34.058594"/>
<use xlink:href="#glyph-2-12" x="280.396484" y="34.058594"/>
<use xlink:href="#glyph-2-8" x="286.51416" y="34.058594"/>
<use xlink:href="#glyph-2-1" x="289.570312" y="34.058594"/>
<use xlink:href="#glyph-2-16" x="295.687988" y="34.058594"/>
<use xlink:href="#glyph-2-17" x="301.805664" y="34.058594"/>
<use xlink:href="#glyph-2-7" x="307.92334" y="34.058594"/>
<use xlink:href="#glyph-2-11" x="311.586426" y="34.058594"/>
<use xlink:href="#glyph-2-10" x="314.030273" y="34.058594"/>
<use xlink:href="#glyph-2-13" x="319.530273" y="34.058594"/>
<use xlink:href="#glyph-2-2" x="325.647949" y="34.058594"/>
</g>
<g fill="rgb(0%, 0%, 0%)" fill-opacity="1">
<use xlink:href="#glyph-3-0" x="34.59375" y="15.929688"/>
<use xlink:href="#glyph-3-1" x="43.398047" y="15.929688"/>
<use xlink:href="#glyph-3-2" x="50.739258" y="15.929688"/>
<use xlink:href="#glyph-3-2" x="58.080469" y="15.929688"/>
<use xlink:href="#glyph-3-3" x="65.42168" y="15.929688"/>
<use xlink:href="#glyph-3-4" x="69.089062" y="15.929688"/>
<use xlink:href="#glyph-3-5" x="76.430273" y="15.929688"/>
<use xlink:href="#glyph-3-6" x="79.362891" y="15.929688"/>
<use xlink:href="#glyph-3-7" x="86.704102" y="15.929688"/>
<use xlink:href="#glyph-3-8" x="94.045312" y="15.929688"/>
<use xlink:href="#glyph-3-6" x="98.441016" y="15.929688"/>
<use xlink:href="#glyph-3-9" x="105.782227" y="15.929688"/>
</g>
</svg>
