<?xml version="1.0" encoding="UTF-8"?>
<svg xmlns="http://www.w3.org/2000/svg" xmlns:xlink="http://www.w3.org/1999/xlink" width="518pt" height="388pt" viewBox="0 0 518 388">
<defs>
<g>
<g id="glyph-0-0">
<path d="M 4.378906 -2.171875 L 5.535156 -1.804688 C 5.359375 -1.160156 5.0625 -0.679688 4.652344 -0.367188 C 4.238281 -0.0546875 3.714844 0.101562 3.082031 0.101562 C 2.296875 0.101562 1.652344 -0.167969 1.148438 -0.703125 C 0.644531 -1.238281 0.390625 -1.972656 0.390625 -2.902344 C 0.390625 -3.882812 0.644531 -4.648438 1.152344 -5.191406 C 1.660156 -5.734375 2.328125 -6.007812 3.15625 -6.007812 C 3.878906 -6.007812 4.464844 -5.792969 4.914062 -5.367188 C 5.183594 -5.113281 5.386719 -4.75 5.519531 -4.277344 L 4.339844 -3.996094 C 4.269531 -4.304688 4.125 -4.542969 3.902344 -4.722656 C 3.679688 -4.898438 3.410156 -4.988281 3.09375 -4.988281 C 2.65625 -4.988281 2.300781 -4.832031 2.027344 -4.515625 C 1.757812 -4.203125 1.621094 -3.691406 1.621094 -2.988281 C 1.621094 -2.242188 1.753906 -1.710938 2.023438 -1.394531 C 2.292969 -1.078125 2.640625 -0.917969 3.070312 -0.917969 C 3.386719 -0.917969 3.660156 -1.019531 3.886719 -1.222656 C 4.117188 -1.421875 4.28125 -1.738281 4.378906 -2.171875 Z M 4.378906 -2.171875 "/>
</g>
<g id="glyph-0-1">
<path d="M 0.59375 0 L 0.59375 -5.90625 L 1.722656 -5.90625 L 1.722656 0 Z M 0.59375 0 "/>
</g>
<g id="glyph-0-2">
<path d="M 0.59375 -4.859375 L 0.59375 -5.90625 L 1.722656 -5.90625 L 1.722656 -4.859375 L 0.59375 -4.859375 M 0.59375 0 L 0.59375 -4.277344 L 1.722656 -4.277344 L 1.722656 0 Z M 0.59375 0 "/>
</g>
<g id="glyph-0-3">
<path d="M 3.070312 -1.363281 L 4.199219 -1.171875 C 4.054688 -0.757812 3.824219 -0.445312 3.511719 -0.226562 C 3.199219 -0.0117188 2.808594 0.0976562 2.335938 0.0976562 C 1.59375 0.0976562 1.042969 -0.144531 0.683594 -0.632812 C 0.402344 -1.023438 0.261719 -1.511719 0.261719 -2.105469 C 0.261719 -2.816406 0.445312 -3.371094 0.816406 -3.773438 C 1.1875 -4.175781 1.65625 -4.375 2.222656 -4.375 C 2.859375 -4.375 3.363281 -4.164062 3.730469 -3.746094 C 4.097656 -3.324219 4.273438 -2.679688 4.257812 -1.8125 L 1.421875 -1.8125 C 1.429688 -1.476562 1.523438 -1.214844 1.695312 -1.03125 C 1.871094 -0.84375 2.089844 -0.75 2.347656 -0.75 C 2.527344 -0.75 2.675781 -0.796875 2.796875 -0.894531 C 2.917969 -0.992188 3.007812 -1.148438 3.070312 -1.363281 M 3.132812 -2.507812 C 3.125 -2.832031 3.042969 -3.082031 2.878906 -3.253906 C 2.71875 -3.425781 2.523438 -3.507812 2.292969 -3.507812 C 2.046875 -3.507812 1.839844 -3.417969 1.679688 -3.238281 C 1.519531 -3.058594 1.441406 -2.816406 1.441406 -2.507812 Z M 3.132812 -2.507812 "/>
</g>
<g id="glyph-0-4">
<path d="M 4.484375 0 L 3.351562 0 L 3.351562 -2.183594 C 3.351562 -2.644531 3.328125 -2.945312 3.28125 -3.082031 C 3.230469 -3.214844 3.152344 -3.320312 3.042969 -3.394531 C 2.933594 -3.472656 2.804688 -3.507812 2.652344 -3.507812 C 2.453125 -3.507812 2.277344 -3.457031 2.125 -3.347656 C 1.96875 -3.242188 1.859375 -3.097656 1.804688 -2.921875 C 1.746094 -2.742188 1.714844 -2.417969 1.714844 -1.9375 L 1.714844 0 L 0.585938 0 L 0.585938 -4.277344 L 1.636719 -4.277344 L 1.636719 -3.648438 C 2.007812 -4.132812 2.480469 -4.375 3.046875 -4.375 C 3.296875 -4.375 3.523438 -4.332031 3.730469 -4.242188 C 3.9375 -4.152344 4.09375 -4.035156 4.199219 -3.894531 C 4.304688 -3.757812 4.378906 -3.597656 4.421875 -3.421875 C 4.464844 -3.242188 4.484375 -2.988281 4.484375 -2.660156 Z M 4.484375 0 "/>
</g>
<g id="glyph-0-5">
<path d="M 2.554688 -4.277344 L 2.554688 -3.375 L 1.78125 -3.375 L 1.78125 -1.652344 C 1.78125 -1.300781 1.789062 -1.097656 1.804688 -1.042969 C 1.816406 -0.984375 1.851562 -0.9375 1.902344 -0.898438 C 1.957031 -0.859375 2.019531 -0.84375 2.09375 -0.84375 C 2.199219 -0.84375 2.351562 -0.878906 2.550781 -0.949219 L 2.648438 -0.0742188 C 2.382812 0.0390625 2.085938 0.0976562 1.753906 0.0976562 C 1.546875 0.0976562 1.363281 0.0625 1.199219 -0.0078125 C 1.035156 -0.0742188 0.917969 -0.164062 0.839844 -0.273438 C 0.761719 -0.378906 0.710938 -0.527344 0.679688 -0.714844 C 0.65625 -0.84375 0.644531 -1.109375 0.644531 -1.511719 L 0.644531 -3.375 L 0.125 -3.375 L 0.125 -4.277344 L 0.644531 -4.277344 L 0.644531 -5.128906 L 1.78125 -5.789062 L 1.78125 -4.277344 Z M 2.554688 -4.277344 "/>
</g>
<g id="glyph-0-6">
<path d="M 2.105469 0 L -0.00390625 -5.90625 L 1.289062 -5.90625 L 2.785156 -1.535156 L 4.230469 -5.90625 L 5.496094 -5.90625 L 3.378906 0 Z M 2.105469 0 "/>
</g>
<g id="glyph-0-7">
<path d="M 1.4375 -2.972656 L 0.410156 -3.160156 C 0.527344 -3.574219 0.726562 -3.878906 1.007812 -4.078125 C 1.289062 -4.277344 1.707031 -4.375 2.265625 -4.375 C 2.769531 -4.375 3.144531 -4.316406 3.390625 -4.195312 C 3.640625 -4.078125 3.8125 -3.925781 3.914062 -3.742188 C 4.015625 -3.558594 4.066406 -3.21875 4.066406 -2.726562 L 4.054688 -1.40625 C 4.054688 -1.03125 4.070312 -0.753906 4.109375 -0.574219 C 4.144531 -0.394531 4.210938 -0.203125 4.3125 0 L 3.191406 0 C 3.160156 -0.0742188 3.125 -0.1875 3.082031 -0.335938 C 3.0625 -0.402344 3.050781 -0.445312 3.042969 -0.46875 C 2.847656 -0.28125 2.640625 -0.136719 2.421875 -0.0429688 C 2.199219 0.0507812 1.964844 0.0976562 1.714844 0.0976562 C 1.277344 0.0976562 0.929688 -0.0234375 0.675781 -0.261719 C 0.421875 -0.5 0.292969 -0.804688 0.292969 -1.167969 C 0.292969 -1.410156 0.351562 -1.625 0.46875 -1.816406 C 0.582031 -2.003906 0.746094 -2.148438 0.953125 -2.25 C 1.160156 -2.351562 1.460938 -2.4375 1.851562 -2.515625 C 2.382812 -2.613281 2.75 -2.707031 2.953125 -2.792969 L 2.953125 -2.90625 C 2.953125 -3.121094 2.898438 -3.277344 2.792969 -3.371094 C 2.683594 -3.460938 2.480469 -3.507812 2.183594 -3.507812 C 1.980469 -3.507812 1.824219 -3.46875 1.710938 -3.390625 C 1.597656 -3.3125 1.507812 -3.171875 1.4375 -2.972656 M 2.953125 -2.054688 C 2.808594 -2.007812 2.578125 -1.949219 2.265625 -1.882812 C 1.949219 -1.8125 1.746094 -1.75 1.648438 -1.683594 C 1.5 -1.578125 1.425781 -1.445312 1.425781 -1.285156 C 1.425781 -1.125 1.484375 -0.988281 1.605469 -0.875 C 1.722656 -0.757812 1.871094 -0.699219 2.054688 -0.699219 C 2.257812 -0.699219 2.453125 -0.769531 2.640625 -0.902344 C 2.777344 -1.003906 2.867188 -1.128906 2.910156 -1.277344 C 2.9375 -1.375 2.953125 -1.558594 2.953125 -1.828125 Z M 2.953125 -2.054688 "/>
</g>
<g id="glyph-0-8">
<path d="M 0.195312 -1.222656 L 1.328125 -1.394531 C 1.378906 -1.171875 1.476562 -1.007812 1.625 -0.890625 C 1.769531 -0.777344 1.976562 -0.722656 2.242188 -0.722656 C 2.535156 -0.722656 2.757812 -0.773438 2.90625 -0.882812 C 3.003906 -0.957031 3.054688 -1.058594 3.054688 -1.183594 C 3.054688 -1.269531 3.027344 -1.339844 2.972656 -1.398438 C 2.917969 -1.453125 2.789062 -1.5 2.59375 -1.546875 C 1.679688 -1.75 1.101562 -1.933594 0.859375 -2.097656 C 0.519531 -2.332031 0.351562 -2.652344 0.351562 -3.0625 C 0.351562 -3.433594 0.496094 -3.746094 0.789062 -3.996094 C 1.082031 -4.25 1.535156 -4.375 2.152344 -4.375 C 2.738281 -4.375 3.171875 -4.28125 3.457031 -4.089844 C 3.742188 -3.898438 3.9375 -3.617188 4.046875 -3.242188 L 2.976562 -3.046875 C 2.933594 -3.210938 2.84375 -3.339844 2.71875 -3.429688 C 2.589844 -3.515625 2.40625 -3.5625 2.171875 -3.5625 C 1.875 -3.5625 1.660156 -3.519531 1.53125 -3.4375 C 1.445312 -3.378906 1.402344 -3.300781 1.402344 -3.207031 C 1.402344 -3.125 1.441406 -3.058594 1.515625 -3 C 1.617188 -2.925781 1.96875 -2.820312 2.574219 -2.683594 C 3.175781 -2.546875 3.597656 -2.378906 3.835938 -2.179688 C 4.070312 -1.976562 4.191406 -1.699219 4.191406 -1.335938 C 4.191406 -0.945312 4.027344 -0.609375 3.699219 -0.328125 C 3.371094 -0.0429688 2.886719 0.0976562 2.242188 0.0976562 C 1.660156 0.0976562 1.199219 -0.0234375 0.859375 -0.257812 C 0.519531 -0.496094 0.296875 -0.816406 0.195312 -1.222656 Z M 0.195312 -1.222656 "/>
</g>
<g id="glyph-0-9">
<path d="M 0.296875 -1.921875 L 1.457031 -2.035156 C 1.527344 -1.644531 1.671875 -1.359375 1.882812 -1.175781 C 2.097656 -0.992188 2.386719 -0.902344 2.746094 -0.902344 C 3.132812 -0.902344 3.421875 -0.984375 3.617188 -1.144531 C 3.8125 -1.308594 3.90625 -1.5 3.90625 -1.714844 C 3.90625 -1.855469 3.867188 -1.976562 3.785156 -2.074219 C 3.703125 -2.171875 3.558594 -2.257812 3.355469 -2.328125 C 3.214844 -2.378906 2.898438 -2.464844 2.402344 -2.585938 C 1.761719 -2.746094 1.3125 -2.941406 1.054688 -3.171875 C 0.691406 -3.496094 0.511719 -3.890625 0.511719 -4.359375 C 0.511719 -4.660156 0.597656 -4.941406 0.765625 -5.203125 C 0.9375 -5.464844 1.183594 -5.664062 1.503906 -5.800781 C 1.824219 -5.9375 2.214844 -6.007812 2.667969 -6.007812 C 3.410156 -6.007812 3.964844 -5.84375 4.339844 -5.519531 C 4.714844 -5.195312 4.914062 -4.761719 4.929688 -4.21875 L 3.738281 -4.164062 C 3.6875 -4.46875 3.578125 -4.6875 3.410156 -4.820312 C 3.242188 -4.953125 2.992188 -5.019531 2.65625 -5.019531 C 2.308594 -5.019531 2.039062 -4.949219 1.839844 -4.804688 C 1.714844 -4.714844 1.652344 -4.59375 1.652344 -4.441406 C 1.652344 -4.300781 1.710938 -4.179688 1.828125 -4.082031 C 1.980469 -3.957031 2.34375 -3.824219 2.925781 -3.6875 C 3.503906 -3.550781 3.933594 -3.40625 4.210938 -3.261719 C 4.492188 -3.113281 4.707031 -2.914062 4.863281 -2.660156 C 5.023438 -2.40625 5.101562 -2.09375 5.101562 -1.71875 C 5.101562 -1.382812 5.007812 -1.066406 4.820312 -0.769531 C 4.628906 -0.472656 4.363281 -0.253906 4.019531 -0.109375 C 3.675781 0.03125 3.25 0.105469 2.734375 0.105469 C 1.988281 0.105469 1.414062 -0.0664062 1.015625 -0.414062 C 0.613281 -0.757812 0.375 -1.261719 0.296875 -1.921875 Z M 0.296875 -1.921875 "/>
</g>
<g id="glyph-0-10">
<path d="M 0.332031 -2.199219 C 0.332031 -2.574219 0.421875 -2.941406 0.609375 -3.292969 C 0.792969 -3.644531 1.054688 -3.914062 1.394531 -4.097656 C 1.734375 -4.28125 2.113281 -4.375 2.535156 -4.375 C 3.179688 -4.375 3.710938 -4.164062 4.125 -3.746094 C 4.539062 -3.324219 4.746094 -2.792969 4.746094 -2.152344 C 4.746094 -1.503906 4.539062 -0.96875 4.121094 -0.542969 C 3.703125 -0.117188 3.175781 0.0976562 2.542969 0.0976562 C 2.148438 0.0976562 1.777344 0.0078125 1.421875 -0.167969 C 1.0625 -0.347656 0.792969 -0.605469 0.609375 -0.949219 C 0.421875 -1.292969 0.332031 -1.707031 0.332031 -2.199219 M 1.492188 -2.140625 C 1.492188 -1.714844 1.589844 -1.390625 1.792969 -1.164062 C 1.996094 -0.9375 2.242188 -0.824219 2.539062 -0.824219 C 2.832031 -0.824219 3.082031 -0.9375 3.28125 -1.164062 C 3.480469 -1.390625 3.582031 -1.71875 3.582031 -2.148438 C 3.582031 -2.566406 3.480469 -2.890625 3.28125 -3.113281 C 3.082031 -3.339844 2.832031 -3.453125 2.539062 -3.453125 C 2.242188 -3.453125 1.996094 -3.339844 1.792969 -3.113281 C 1.589844 -2.890625 1.492188 -2.5625 1.492188 -2.140625 Z M 1.492188 -2.140625 "/>
</g>
<g id="glyph-0-11">
<path d="M 0.558594 -4.277344 L 1.617188 -4.277344 L 1.617188 -3.648438 C 1.753906 -3.863281 1.9375 -4.039062 2.171875 -4.175781 C 2.40625 -4.308594 2.664062 -4.375 2.949219 -4.375 C 3.445312 -4.375 3.867188 -4.179688 4.214844 -3.792969 C 4.5625 -3.402344 4.734375 -2.859375 4.734375 -2.164062 C 4.734375 -1.449219 4.558594 -0.894531 4.210938 -0.496094 C 3.859375 -0.101562 3.4375 0.0976562 2.941406 0.0976562 C 2.703125 0.0976562 2.492188 0.0507812 2.296875 -0.0429688 C 2.105469 -0.136719 1.90625 -0.300781 1.691406 -0.527344 L 1.691406 1.628906 L 0.558594 1.628906 L 0.558594 -4.277344 M 1.679688 -2.210938 C 1.679688 -1.730469 1.777344 -1.375 1.964844 -1.144531 C 2.15625 -0.917969 2.390625 -0.800781 2.664062 -0.800781 C 2.925781 -0.800781 3.144531 -0.90625 3.320312 -1.117188 C 3.496094 -1.328125 3.582031 -1.675781 3.582031 -2.15625 C 3.582031 -2.605469 3.492188 -2.9375 3.3125 -3.15625 C 3.132812 -3.371094 2.910156 -3.480469 2.644531 -3.480469 C 2.367188 -3.480469 2.136719 -3.375 1.953125 -3.160156 C 1.769531 -2.945312 1.679688 -2.632812 1.679688 -2.210938 Z M 1.679688 -2.210938 "/>
</g>
<g id="glyph-0-12">
<path d="M 1.675781 0 L 0.542969 0 L 0.542969 -4.277344 L 1.59375 -4.277344 L 1.59375 -3.671875 C 1.777344 -3.957031 1.9375 -4.148438 2.082031 -4.238281 C 2.226562 -4.328125 2.386719 -4.375 2.570312 -4.375 C 2.828125 -4.375 3.078125 -4.304688 3.316406 -4.160156 L 2.964844 -3.175781 C 2.773438 -3.296875 2.597656 -3.359375 2.433594 -3.359375 C 2.273438 -3.359375 2.140625 -3.316406 2.03125 -3.230469 C 1.921875 -3.140625 1.832031 -2.984375 1.769531 -2.753906 C 1.707031 -2.527344 1.675781 -2.050781 1.675781 -1.320312 Z M 1.675781 0 "/>
</g>
<g id="glyph-0-13">
<path d="M 0.601562 0 L 0.601562 -5.90625 L 2.515625 -5.90625 C 3.238281 -5.90625 3.710938 -5.875 3.933594 -5.816406 C 4.269531 -5.730469 4.554688 -5.535156 4.78125 -5.238281 C 5.011719 -4.941406 5.125 -4.558594 5.125 -4.089844 C 5.125 -3.726562 5.058594 -3.421875 4.925781 -3.175781 C 4.796875 -2.925781 4.628906 -2.734375 4.425781 -2.59375 C 4.222656 -2.453125 4.015625 -2.359375 3.808594 -2.3125 C 3.523438 -2.257812 3.109375 -2.226562 2.570312 -2.226562 L 1.792969 -2.226562 L 1.792969 0 L 0.601562 0 M 1.792969 -4.90625 L 1.792969 -3.230469 L 2.445312 -3.230469 C 2.914062 -3.230469 3.230469 -3.261719 3.386719 -3.324219 C 3.546875 -3.386719 3.671875 -3.480469 3.761719 -3.613281 C 3.851562 -3.746094 3.894531 -3.898438 3.894531 -4.074219 C 3.894531 -4.289062 3.832031 -4.464844 3.707031 -4.605469 C 3.582031 -4.746094 3.421875 -4.832031 3.226562 -4.867188 C 3.085938 -4.894531 2.796875 -4.90625 2.367188 -4.90625 Z M 1.792969 -4.90625 "/>
</g>
<g id="glyph-0-14">
<path d="M 4.515625 0 L 3.464844 0 L 3.464844 -0.628906 C 3.289062 -0.382812 3.085938 -0.203125 2.847656 -0.0820312 C 2.609375 0.0351562 2.367188 0.0976562 2.128906 0.0976562 C 1.636719 0.0976562 1.214844 -0.101562 0.863281 -0.496094 C 0.515625 -0.894531 0.339844 -1.445312 0.339844 -2.15625 C 0.339844 -2.878906 0.507812 -3.433594 0.851562 -3.808594 C 1.191406 -4.1875 1.621094 -4.375 2.144531 -4.375 C 2.621094 -4.375 3.035156 -4.175781 3.382812 -3.777344 L 3.382812 -5.90625 L 4.515625 -5.90625 L 4.515625 0 M 1.496094 -2.230469 C 1.496094 -1.777344 1.558594 -1.445312 1.683594 -1.242188 C 1.867188 -0.945312 2.121094 -0.796875 2.449219 -0.796875 C 2.710938 -0.796875 2.933594 -0.910156 3.113281 -1.128906 C 3.296875 -1.351562 3.386719 -1.683594 3.386719 -2.125 C 3.386719 -2.613281 3.300781 -2.96875 3.121094 -3.183594 C 2.945312 -3.402344 2.71875 -3.507812 2.441406 -3.507812 C 2.171875 -3.507812 1.949219 -3.402344 1.765625 -3.1875 C 1.585938 -2.976562 1.496094 -2.65625 1.496094 -2.230469 Z M 1.496094 -2.230469 "/>
</g>
<g id="glyph-0-15">
<path d="M 3.410156 0 L 3.410156 -0.640625 C 3.253906 -0.414062 3.046875 -0.230469 2.792969 -0.101562 C 2.539062 0.03125 2.273438 0.0976562 1.992188 0.0976562 C 1.703125 0.0976562 1.445312 0.0351562 1.214844 -0.09375 C 0.988281 -0.21875 0.824219 -0.394531 0.722656 -0.625 C 0.617188 -0.851562 0.566406 -1.167969 0.566406 -1.570312 L 0.566406 -4.277344 L 1.699219 -4.277344 L 1.699219 -2.3125 C 1.699219 -1.710938 1.722656 -1.34375 1.761719 -1.207031 C 1.804688 -1.070312 1.878906 -0.964844 1.992188 -0.882812 C 2.101562 -0.804688 2.238281 -0.765625 2.410156 -0.765625 C 2.601562 -0.765625 2.777344 -0.820312 2.929688 -0.925781 C 3.082031 -1.03125 3.1875 -1.164062 3.242188 -1.320312 C 3.300781 -1.476562 3.328125 -1.863281 3.328125 -2.472656 L 3.328125 -4.277344 L 4.460938 -4.277344 L 4.460938 0 Z M 3.410156 0 "/>
</g>
<g id="glyph-0-16">
<path d="M 4.324219 -3.011719 L 3.207031 -2.8125 C 3.167969 -3.035156 3.085938 -3.203125 2.953125 -3.316406 C 2.816406 -3.429688 2.644531 -3.484375 2.433594 -3.484375 C 2.152344 -3.484375 1.925781 -3.386719 1.757812 -3.191406 C 1.589844 -3 1.507812 -2.671875 1.507812 -2.214844 C 1.507812 -1.707031 1.59375 -1.351562 1.761719 -1.140625 C 1.933594 -0.929688 2.164062 -0.824219 2.449219 -0.824219 C 2.664062 -0.824219 2.839844 -0.886719 2.976562 -1.007812 C 3.113281 -1.132812 3.210938 -1.339844 3.265625 -1.640625 L 4.378906 -1.449219 C 4.265625 -0.941406 4.042969 -0.554688 3.714844 -0.292969 C 3.386719 -0.0351562 2.949219 0.0976562 2.398438 0.0976562 C 1.769531 0.0976562 1.273438 -0.101562 0.902344 -0.496094 C 0.527344 -0.890625 0.34375 -1.4375 0.34375 -2.136719 C 0.34375 -2.839844 0.527344 -3.390625 0.902344 -3.785156 C 1.277344 -4.179688 1.78125 -4.375 2.417969 -4.375 C 2.9375 -4.375 3.351562 -4.261719 3.660156 -4.039062 C 3.96875 -3.816406 4.1875 -3.472656 4.324219 -3.011719 Z M 4.324219 -3.011719 "/>
</g>
<g id="glyph-0-17">
<path d="M 0.359375 -2.917969 C 0.359375 -3.519531 0.449219 -4.023438 0.628906 -4.433594 C 0.761719 -4.734375 0.945312 -5.003906 1.179688 -5.242188 C 1.410156 -5.480469 1.664062 -5.65625 1.941406 -5.773438 C 2.308594 -5.929688 2.734375 -6.007812 3.214844 -6.007812 C 4.085938 -6.007812 4.78125 -5.738281 5.304688 -5.199219 C 5.828125 -4.65625 6.085938 -3.90625 6.085938 -2.945312 C 6.085938 -1.992188 5.828125 -1.246094 5.308594 -0.707031 C 4.792969 -0.167969 4.097656 0.101562 3.230469 0.101562 C 2.351562 0.101562 1.65625 -0.167969 1.136719 -0.703125 C 0.617188 -1.238281 0.359375 -1.976562 0.359375 -2.917969 M 1.585938 -2.957031 C 1.585938 -2.289062 1.742188 -1.78125 2.050781 -1.4375 C 2.359375 -1.089844 2.75 -0.917969 3.226562 -0.917969 C 3.703125 -0.917969 4.09375 -1.089844 4.398438 -1.433594 C 4.703125 -1.773438 4.855469 -2.289062 4.855469 -2.972656 C 4.855469 -3.648438 4.707031 -4.15625 4.410156 -4.488281 C 4.113281 -4.820312 3.71875 -4.988281 3.226562 -4.988281 C 2.734375 -4.988281 2.339844 -4.820312 2.039062 -4.480469 C 1.738281 -4.144531 1.585938 -3.636719 1.585938 -2.957031 Z M 1.585938 -2.957031 "/>
</g>
<g id="glyph-0-18">
<path d="M 0.609375 0 L 0.609375 -5.90625 L 4.65625 -5.90625 L 4.65625 -4.90625 L 1.800781 -4.90625 L 1.800781 -3.507812 L 4.265625 -3.507812 L 4.265625 -2.511719 L 1.800781 -2.511719 L 1.800781 0 Z M 0.609375 0 "/>
</g>
<g id="glyph-0-19">
<path d="M 0.136719 0 L 0.136719 -0.882812 L 1.742188 -2.722656 C 2.003906 -3.023438 2.199219 -3.238281 2.324219 -3.363281 C 2.191406 -3.355469 2.019531 -3.351562 1.804688 -3.347656 L 0.292969 -3.339844 L 0.292969 -4.277344 L 3.832031 -4.277344 L 3.832031 -3.476562 L 2.195312 -1.589844 L 1.621094 -0.96875 C 1.933594 -0.984375 2.128906 -0.996094 2.203125 -0.996094 L 3.957031 -0.996094 L 3.957031 0 Z M 0.136719 0 "/>
</g>
<g id="glyph-1-0">
<path d="M 0.492188 -2.53125 L 1.476562 -2.617188 C 1.523438 -2.222656 1.632812 -1.898438 1.800781 -1.644531 C 1.972656 -1.394531 2.234375 -1.191406 2.59375 -1.035156 C 2.953125 -0.878906 3.355469 -0.800781 3.804688 -0.800781 C 4.199219 -0.800781 4.550781 -0.859375 4.855469 -0.976562 C 5.160156 -1.09375 5.386719 -1.257812 5.535156 -1.464844 C 5.683594 -1.667969 5.757812 -1.894531 5.757812 -2.136719 C 5.757812 -2.382812 5.6875 -2.601562 5.542969 -2.785156 C 5.398438 -2.96875 5.164062 -3.125 4.835938 -3.25 C 4.621094 -3.332031 4.15625 -3.460938 3.433594 -3.632812 C 2.707031 -3.808594 2.203125 -3.972656 1.914062 -4.125 C 1.535156 -4.320312 1.257812 -4.566406 1.070312 -4.859375 C 0.886719 -5.148438 0.796875 -5.476562 0.796875 -5.839844 C 0.796875 -6.234375 0.90625 -6.605469 1.132812 -6.953125 C 1.359375 -7.296875 1.6875 -7.5625 2.121094 -7.738281 C 2.554688 -7.917969 3.035156 -8.007812 3.566406 -8.007812 C 4.148438 -8.007812 4.664062 -7.914062 5.109375 -7.726562 C 5.554688 -7.539062 5.898438 -7.261719 6.140625 -6.898438 C 6.378906 -6.53125 6.507812 -6.117188 6.527344 -5.65625 L 5.527344 -5.582031 C 5.472656 -6.078125 5.292969 -6.453125 4.980469 -6.707031 C 4.671875 -6.960938 4.214844 -7.089844 3.609375 -7.089844 C 2.980469 -7.089844 2.519531 -6.972656 2.230469 -6.742188 C 1.945312 -6.511719 1.800781 -6.234375 1.800781 -5.90625 C 1.800781 -5.625 1.902344 -5.390625 2.105469 -5.210938 C 2.304688 -5.027344 2.828125 -4.839844 3.675781 -4.648438 C 4.523438 -4.457031 5.105469 -4.289062 5.417969 -4.148438 C 5.878906 -3.933594 6.214844 -3.667969 6.433594 -3.34375 C 6.652344 -3.019531 6.761719 -2.644531 6.761719 -2.222656 C 6.761719 -1.804688 6.640625 -1.410156 6.402344 -1.039062 C 6.164062 -0.667969 5.816406 -0.378906 5.367188 -0.175781 C 4.917969 0.03125 4.414062 0.132812 3.851562 0.132812 C 3.136719 0.132812 2.542969 0.03125 2.058594 -0.175781 C 1.578125 -0.386719 1.199219 -0.699219 0.925781 -1.113281 C 0.652344 -1.53125 0.507812 -2.003906 0.492188 -2.53125 Z M 0.492188 -2.53125 "/>
</g>
<g id="glyph-1-1">
<path d="M 4.464844 0 L 4.464844 -0.835938 C 4.019531 -0.195312 3.414062 0.128906 2.652344 0.128906 C 2.316406 0.128906 2.003906 0.0625 1.710938 -0.0625 C 1.417969 -0.195312 1.203125 -0.355469 1.0625 -0.550781 C 0.917969 -0.746094 0.820312 -0.984375 0.761719 -1.265625 C 0.722656 -1.457031 0.703125 -1.757812 0.703125 -2.171875 L 0.703125 -5.703125 L 1.671875 -5.703125 L 1.671875 -2.539062 C 1.671875 -2.035156 1.691406 -1.695312 1.730469 -1.519531 C 1.789062 -1.265625 1.917969 -1.066406 2.117188 -0.921875 C 2.3125 -0.777344 2.554688 -0.703125 2.847656 -0.703125 C 3.136719 -0.703125 3.410156 -0.777344 3.664062 -0.925781 C 3.917969 -1.074219 4.097656 -1.277344 4.203125 -1.535156 C 4.308594 -1.789062 4.359375 -2.160156 4.359375 -2.648438 L 4.359375 -5.703125 L 5.328125 -5.703125 L 5.328125 0 Z M 4.464844 0 "/>
</g>
<g id="glyph-1-2">
<path d="M 1.617188 0 L 0.71875 0 L 0.71875 -7.875 L 1.6875 -7.875 L 1.6875 -5.066406 C 2.09375 -5.578125 2.617188 -5.832031 3.25 -5.832031 C 3.601562 -5.832031 3.933594 -5.761719 4.246094 -5.621094 C 4.558594 -5.480469 4.816406 -5.28125 5.019531 -5.023438 C 5.222656 -4.769531 5.378906 -4.460938 5.496094 -4.097656 C 5.609375 -3.738281 5.667969 -3.351562 5.667969 -2.9375 C 5.667969 -1.960938 5.425781 -1.203125 4.941406 -0.671875 C 4.457031 -0.136719 3.878906 0.128906 3.203125 0.128906 C 2.527344 0.128906 2 -0.152344 1.617188 -0.714844 L 1.617188 0 M 1.605469 -2.894531 C 1.605469 -2.210938 1.699219 -1.71875 1.886719 -1.414062 C 2.191406 -0.914062 2.601562 -0.664062 3.121094 -0.664062 C 3.542969 -0.664062 3.910156 -0.847656 4.214844 -1.214844 C 4.523438 -1.582031 4.679688 -2.128906 4.679688 -2.859375 C 4.679688 -3.601562 4.53125 -4.152344 4.234375 -4.507812 C 3.941406 -4.859375 3.582031 -5.039062 3.164062 -5.039062 C 2.742188 -5.039062 2.375 -4.855469 2.066406 -4.488281 C 1.761719 -4.121094 1.605469 -3.589844 1.605469 -2.894531 Z M 1.605469 -2.894531 "/>
</g>
<g id="glyph-1-3">
<path d="M 0.714844 0 L 0.714844 -5.703125 L 1.585938 -5.703125 L 1.585938 -4.839844 C 1.804688 -5.242188 2.011719 -5.511719 2.199219 -5.640625 C 2.386719 -5.769531 2.59375 -5.832031 2.820312 -5.832031 C 3.144531 -5.832031 3.476562 -5.730469 3.8125 -5.523438 L 3.480469 -4.625 C 3.242188 -4.765625 3.007812 -4.832031 2.773438 -4.835938 C 2.558594 -4.832031 2.371094 -4.769531 2.203125 -4.644531 C 2.035156 -4.515625 1.914062 -4.339844 1.84375 -4.113281 C 1.734375 -3.769531 1.679688 -3.394531 1.679688 -2.984375 L 1.679688 0 Z M 0.714844 0 "/>
</g>
<g id="glyph-1-4">
<path d="M 4.445312 -0.703125 C 4.089844 -0.398438 3.746094 -0.183594 3.414062 -0.0585938 C 3.082031 0.0664062 2.726562 0.128906 2.347656 0.128906 C 1.71875 0.128906 1.238281 -0.0234375 0.902344 -0.332031 C 0.566406 -0.636719 0.398438 -1.027344 0.398438 -1.503906 C 0.398438 -1.78125 0.460938 -2.039062 0.589844 -2.269531 C 0.714844 -2.5 0.882812 -2.6875 1.085938 -2.824219 C 1.292969 -2.964844 1.523438 -3.070312 1.78125 -3.140625 C 1.972656 -3.191406 2.257812 -3.242188 2.640625 -3.289062 C 3.421875 -3.378906 3.996094 -3.492188 4.367188 -3.621094 C 4.371094 -3.753906 4.371094 -3.835938 4.371094 -3.871094 C 4.371094 -4.265625 4.28125 -4.542969 4.097656 -4.703125 C 3.851562 -4.921875 3.484375 -5.03125 2.996094 -5.03125 C 2.542969 -5.03125 2.207031 -4.953125 1.988281 -4.792969 C 1.773438 -4.632812 1.613281 -4.351562 1.507812 -3.949219 L 0.5625 -4.078125 C 0.648438 -4.480469 0.792969 -4.808594 0.988281 -5.058594 C 1.183594 -5.304688 1.46875 -5.496094 1.84375 -5.632812 C 2.214844 -5.765625 2.644531 -5.832031 3.136719 -5.832031 C 3.625 -5.832031 4.019531 -5.777344 4.324219 -5.660156 C 4.628906 -5.546875 4.851562 -5.402344 4.996094 -5.230469 C 5.136719 -5.054688 5.238281 -4.835938 5.296875 -4.570312 C 5.328125 -4.40625 5.34375 -4.109375 5.34375 -3.679688 L 5.34375 -2.390625 C 5.34375 -1.492188 5.363281 -0.921875 5.40625 -0.683594 C 5.445312 -0.445312 5.527344 -0.21875 5.648438 0 L 4.640625 0 C 4.539062 -0.199219 4.476562 -0.433594 4.445312 -0.703125 M 4.367188 -2.863281 C 4.015625 -2.71875 3.488281 -2.597656 2.789062 -2.496094 C 2.390625 -2.441406 2.109375 -2.375 1.945312 -2.304688 C 1.78125 -2.234375 1.652344 -2.128906 1.5625 -1.988281 C 1.472656 -1.851562 1.429688 -1.699219 1.429688 -1.53125 C 1.429688 -1.273438 1.527344 -1.058594 1.722656 -0.886719 C 1.917969 -0.714844 2.203125 -0.628906 2.578125 -0.628906 C 2.949219 -0.628906 3.28125 -0.710938 3.570312 -0.871094 C 3.863281 -1.035156 4.074219 -1.257812 4.210938 -1.542969 C 4.316406 -1.761719 4.367188 -2.082031 4.367188 -2.507812 Z M 4.367188 -2.863281 "/>
</g>
<g id="glyph-1-5">
<path d="M 0.683594 2.195312 L 0.574219 1.289062 C 0.785156 1.347656 0.96875 1.375 1.128906 1.375 C 1.34375 1.375 1.515625 1.339844 1.644531 1.265625 C 1.773438 1.195312 1.878906 1.09375 1.960938 0.96875 C 2.019531 0.871094 2.121094 0.628906 2.257812 0.246094 C 2.273438 0.195312 2.300781 0.113281 2.34375 0.0117188 L 0.175781 -5.703125 L 1.21875 -5.703125 L 2.40625 -2.402344 C 2.558594 -1.980469 2.699219 -1.542969 2.820312 -1.078125 C 2.929688 -1.523438 3.0625 -1.957031 3.21875 -2.378906 L 4.4375 -5.703125 L 5.402344 -5.703125 L 3.234375 0.0976562 C 3 0.722656 2.820312 1.15625 2.691406 1.390625 C 2.519531 1.710938 2.320312 1.945312 2.101562 2.09375 C 1.878906 2.242188 1.613281 2.316406 1.304688 2.316406 C 1.117188 2.316406 0.910156 2.277344 0.683594 2.195312 Z M 0.683594 2.195312 "/>
</g>
<g id="glyph-1-6">
</g>
<g id="glyph-1-7">
<path d="M 0.703125 0 L 0.703125 -7.875 L 1.671875 -7.875 L 1.671875 0 Z M 0.703125 0 "/>
</g>
<g id="glyph-1-8">
<path d="M 4.445312 -2.089844 L 5.398438 -1.964844 C 5.292969 -1.3125 5.027344 -0.796875 4.601562 -0.425781 C 4.171875 -0.0546875 3.648438 0.128906 3.023438 0.128906 C 2.242188 0.128906 1.617188 -0.125 1.140625 -0.636719 C 0.667969 -1.148438 0.429688 -1.878906 0.429688 -2.832031 C 0.429688 -3.445312 0.53125 -3.984375 0.734375 -4.445312 C 0.941406 -4.910156 1.25 -5.253906 1.667969 -5.488281 C 2.085938 -5.71875 2.539062 -5.832031 3.03125 -5.832031 C 3.648438 -5.832031 4.15625 -5.675781 4.550781 -5.363281 C 4.941406 -5.050781 5.195312 -4.605469 5.304688 -4.027344 L 4.367188 -3.882812 C 4.277344 -4.265625 4.117188 -4.554688 3.890625 -4.75 C 3.664062 -4.941406 3.390625 -5.039062 3.066406 -5.039062 C 2.578125 -5.039062 2.183594 -4.863281 1.878906 -4.515625 C 1.574219 -4.164062 1.421875 -3.613281 1.421875 -2.859375 C 1.421875 -2.089844 1.570312 -1.535156 1.863281 -1.1875 C 2.15625 -0.839844 2.539062 -0.664062 3.011719 -0.664062 C 3.394531 -0.664062 3.710938 -0.78125 3.964844 -1.015625 C 4.21875 -1.246094 4.378906 -1.605469 4.445312 -2.089844 Z M 4.445312 -2.089844 "/>
</g>
<g id="glyph-1-9">
<path d="M 0.367188 -2.851562 C 0.367188 -3.910156 0.660156 -4.691406 1.246094 -5.199219 C 1.738281 -5.621094 2.335938 -5.832031 3.039062 -5.832031 C 3.824219 -5.832031 4.464844 -5.574219 4.960938 -5.0625 C 5.460938 -4.546875 5.710938 -3.839844 5.710938 -2.933594 C 5.710938 -2.199219 5.597656 -1.621094 5.378906 -1.199219 C 5.160156 -0.78125 4.839844 -0.453125 4.417969 -0.21875 C 3.996094 0.0117188 3.539062 0.128906 3.039062 0.128906 C 2.242188 0.128906 1.597656 -0.128906 1.105469 -0.640625 C 0.613281 -1.152344 0.367188 -1.890625 0.367188 -2.851562 M 1.359375 -2.851562 C 1.359375 -2.121094 1.519531 -1.574219 1.835938 -1.210938 C 2.15625 -0.847656 2.554688 -0.664062 3.039062 -0.664062 C 3.519531 -0.664062 3.917969 -0.847656 4.238281 -1.214844 C 4.554688 -1.578125 4.714844 -2.136719 4.714844 -2.882812 C 4.714844 -3.589844 4.554688 -4.125 4.234375 -4.488281 C 3.914062 -4.851562 3.515625 -5.03125 3.039062 -5.03125 C 2.554688 -5.03125 2.15625 -4.851562 1.835938 -4.492188 C 1.519531 -4.128906 1.359375 -3.582031 1.359375 -2.851562 Z M 1.359375 -2.851562 "/>
</g>
<g id="glyph-1-10">
<path d="M 0.726562 0 L 0.726562 -5.703125 L 1.59375 -5.703125 L 1.59375 -4.894531 C 2.015625 -5.519531 2.621094 -5.832031 3.410156 -5.832031 C 3.753906 -5.832031 4.070312 -5.769531 4.359375 -5.648438 C 4.648438 -5.523438 4.863281 -5.363281 5.007812 -5.160156 C 5.148438 -4.960938 5.25 -4.722656 5.304688 -4.445312 C 5.34375 -4.269531 5.359375 -3.953125 5.359375 -3.507812 L 5.359375 0 L 4.394531 0 L 4.394531 -3.46875 C 4.394531 -3.863281 4.355469 -4.15625 4.28125 -4.351562 C 4.207031 -4.546875 4.070312 -4.703125 3.878906 -4.820312 C 3.6875 -4.9375 3.464844 -4.996094 3.207031 -4.996094 C 2.792969 -4.996094 2.4375 -4.863281 2.140625 -4.601562 C 1.839844 -4.339844 1.691406 -3.84375 1.691406 -3.117188 L 1.691406 0 Z M 0.726562 0 "/>
</g>
<g id="glyph-1-11">
<path d="M 4.628906 -1.835938 L 5.628906 -1.714844 C 5.472656 -1.128906 5.179688 -0.675781 4.753906 -0.355469 C 4.328125 -0.03125 3.78125 0.128906 3.121094 0.128906 C 2.285156 0.128906 1.625 -0.128906 1.136719 -0.640625 C 0.648438 -1.15625 0.402344 -1.875 0.402344 -2.804688 C 0.402344 -3.761719 0.648438 -4.507812 1.144531 -5.039062 C 1.636719 -5.566406 2.277344 -5.832031 3.066406 -5.832031 C 3.828125 -5.832031 4.453125 -5.574219 4.9375 -5.054688 C 5.417969 -4.535156 5.660156 -3.804688 5.660156 -2.863281 C 5.660156 -2.804688 5.660156 -2.71875 5.65625 -2.605469 L 1.402344 -2.605469 C 1.4375 -1.976562 1.613281 -1.5 1.933594 -1.164062 C 2.253906 -0.832031 2.648438 -0.664062 3.125 -0.664062 C 3.480469 -0.664062 3.78125 -0.757812 4.035156 -0.945312 C 4.285156 -1.132812 4.484375 -1.429688 4.628906 -1.835938 M 1.457031 -3.398438 L 4.640625 -3.398438 C 4.597656 -3.878906 4.476562 -4.238281 4.273438 -4.480469 C 3.96875 -4.851562 3.566406 -5.039062 3.078125 -5.039062 C 2.632812 -5.039062 2.261719 -4.890625 1.957031 -4.59375 C 1.65625 -4.296875 1.488281 -3.898438 1.457031 -3.398438 Z M 1.457031 -3.398438 "/>
</g>
<g id="glyph-1-12">
<path d="M 2.835938 -0.863281 L 2.976562 -0.0117188 C 2.703125 0.046875 2.460938 0.0742188 2.246094 0.0742188 C 1.894531 0.0742188 1.621094 0.0195312 1.429688 -0.0898438 C 1.234375 -0.203125 1.097656 -0.347656 1.019531 -0.527344 C 0.941406 -0.710938 0.902344 -1.089844 0.902344 -1.671875 L 0.902344 -4.953125 L 0.195312 -4.953125 L 0.195312 -5.703125 L 0.902344 -5.703125 L 0.902344 -7.117188 L 1.863281 -7.695312 L 1.863281 -5.703125 L 2.835938 -5.703125 L 2.835938 -4.953125 L 1.863281 -4.953125 L 1.863281 -1.617188 C 1.863281 -1.339844 1.878906 -1.164062 1.914062 -1.085938 C 1.949219 -1.007812 2.003906 -0.945312 2.082031 -0.898438 C 2.160156 -0.851562 2.269531 -0.828125 2.410156 -0.828125 C 2.519531 -0.828125 2.660156 -0.839844 2.835938 -0.863281 Z M 2.835938 -0.863281 "/>
</g>
<g id="glyph-1-13">
<path d="M 0.730469 -6.761719 L 0.730469 -7.875 L 1.695312 -7.875 L 1.695312 -6.761719 L 0.730469 -6.761719 M 0.730469 0 L 0.730469 -5.703125 L 1.695312 -5.703125 L 1.695312 0 Z M 0.730469 0 "/>
</g>
<g id="glyph-1-14">
<path d="M 2.308594 0 L 0.140625 -5.703125 L 1.160156 -5.703125 L 2.382812 -2.289062 C 2.515625 -1.917969 2.640625 -1.535156 2.75 -1.140625 C 2.835938 -1.4375 2.957031 -1.800781 3.109375 -2.222656 L 4.378906 -5.703125 L 5.371094 -5.703125 L 3.210938 0 Z M 2.308594 0 "/>
</g>
<g id="glyph-1-15">
<path d="M 4.425781 0 L 4.425781 -0.71875 C 4.0625 -0.152344 3.53125 0.128906 2.832031 0.128906 C 2.375 0.128906 1.957031 0.00390625 1.578125 -0.246094 C 1.195312 -0.496094 0.898438 -0.847656 0.691406 -1.296875 C 0.480469 -1.746094 0.375 -2.261719 0.375 -2.847656 C 0.375 -3.414062 0.472656 -3.933594 0.660156 -4.394531 C 0.851562 -4.859375 1.136719 -5.214844 1.515625 -5.460938 C 1.894531 -5.710938 2.320312 -5.832031 2.789062 -5.832031 C 3.132812 -5.832031 3.4375 -5.761719 3.707031 -5.617188 C 3.976562 -5.46875 4.191406 -5.28125 4.359375 -5.046875 L 4.359375 -7.875 L 5.324219 -7.875 L 5.324219 0 L 4.425781 0 M 1.371094 -2.847656 C 1.371094 -2.117188 1.523438 -1.570312 1.832031 -1.207031 C 2.140625 -0.847656 2.503906 -0.664062 2.921875 -0.664062 C 3.34375 -0.664062 3.703125 -0.839844 4 -1.183594 C 4.292969 -1.53125 4.441406 -2.058594 4.441406 -2.765625 C 4.441406 -3.546875 4.292969 -4.121094 3.992188 -4.484375 C 3.691406 -4.851562 3.320312 -5.03125 2.878906 -5.03125 C 2.449219 -5.03125 2.089844 -4.855469 1.800781 -4.507812 C 1.515625 -4.15625 1.371094 -3.601562 1.371094 -2.847656 Z M 1.371094 -2.847656 "/>
</g>
<g id="glyph-1-16">
<path d="M 0.546875 0.472656 L 1.488281 0.613281 C 1.527344 0.902344 1.636719 1.113281 1.816406 1.246094 C 2.054688 1.425781 2.382812 1.515625 2.796875 1.515625 C 3.246094 1.515625 3.589844 1.425781 3.835938 1.246094 C 4.078125 1.066406 4.242188 0.816406 4.328125 0.492188 C 4.378906 0.296875 4.402344 -0.117188 4.398438 -0.746094 C 3.976562 -0.25 3.449219 0 2.820312 0 C 2.035156 0 1.429688 -0.28125 1 -0.847656 C 0.570312 -1.414062 0.355469 -2.09375 0.355469 -2.882812 C 0.355469 -3.429688 0.453125 -3.929688 0.648438 -4.390625 C 0.847656 -4.851562 1.132812 -5.207031 1.507812 -5.457031 C 1.878906 -5.707031 2.320312 -5.832031 2.824219 -5.832031 C 3.5 -5.832031 4.054688 -5.5625 4.492188 -5.015625 L 4.492188 -5.703125 L 5.382812 -5.703125 L 5.382812 -0.773438 C 5.382812 0.113281 5.292969 0.742188 5.109375 1.113281 C 4.929688 1.484375 4.644531 1.777344 4.25 1.992188 C 3.859375 2.207031 3.375 2.316406 2.804688 2.316406 C 2.125 2.316406 1.574219 2.160156 1.15625 1.855469 C 0.734375 1.550781 0.535156 1.089844 0.546875 0.472656 M 1.347656 -2.953125 C 1.347656 -2.207031 1.496094 -1.660156 1.792969 -1.316406 C 2.089844 -0.972656 2.464844 -0.800781 2.910156 -0.800781 C 3.355469 -0.800781 3.726562 -0.972656 4.027344 -1.3125 C 4.328125 -1.65625 4.480469 -2.191406 4.480469 -2.921875 C 4.480469 -3.621094 4.324219 -4.148438 4.015625 -4.5 C 3.707031 -4.855469 3.332031 -5.03125 2.894531 -5.03125 C 2.464844 -5.03125 2.101562 -4.859375 1.800781 -4.507812 C 1.5 -4.160156 1.347656 -3.640625 1.347656 -2.953125 Z M 1.347656 -2.953125 "/>
</g>
<g id="glyph-1-17">
<path d="M 0.339844 -1.703125 L 1.292969 -1.851562 C 1.347656 -1.46875 1.496094 -1.175781 1.742188 -0.972656 C 1.988281 -0.769531 2.332031 -0.664062 2.773438 -0.664062 C 3.214844 -0.664062 3.546875 -0.757812 3.757812 -0.9375 C 3.976562 -1.117188 4.082031 -1.332031 4.082031 -1.574219 C 4.082031 -1.792969 3.988281 -1.964844 3.796875 -2.089844 C 3.664062 -2.175781 3.335938 -2.285156 2.808594 -2.417969 C 2.101562 -2.597656 1.609375 -2.75 1.335938 -2.882812 C 1.0625 -3.011719 0.851562 -3.191406 0.710938 -3.425781 C 0.570312 -3.65625 0.5 -3.910156 0.5 -4.1875 C 0.5 -4.445312 0.558594 -4.679688 0.675781 -4.894531 C 0.789062 -5.113281 0.949219 -5.292969 1.148438 -5.4375 C 1.300781 -5.546875 1.503906 -5.640625 1.765625 -5.71875 C 2.023438 -5.792969 2.300781 -5.832031 2.601562 -5.832031 C 3.046875 -5.832031 3.441406 -5.769531 3.777344 -5.640625 C 4.117188 -5.511719 4.367188 -5.335938 4.527344 -5.117188 C 4.6875 -4.894531 4.800781 -4.601562 4.859375 -4.234375 L 3.914062 -4.101562 C 3.871094 -4.398438 3.75 -4.625 3.542969 -4.789062 C 3.335938 -4.957031 3.046875 -5.039062 2.667969 -5.039062 C 2.226562 -5.039062 1.910156 -4.964844 1.71875 -4.816406 C 1.527344 -4.671875 1.433594 -4.5 1.433594 -4.300781 C 1.433594 -4.175781 1.472656 -4.0625 1.550781 -3.964844 C 1.632812 -3.859375 1.753906 -3.773438 1.921875 -3.707031 C 2.019531 -3.671875 2.304688 -3.585938 2.777344 -3.460938 C 3.460938 -3.277344 3.9375 -3.125 4.207031 -3.011719 C 4.480469 -2.894531 4.691406 -2.726562 4.84375 -2.503906 C 5 -2.28125 5.074219 -2.003906 5.074219 -1.675781 C 5.074219 -1.351562 4.980469 -1.050781 4.792969 -0.765625 C 4.605469 -0.480469 4.335938 -0.261719 3.980469 -0.105469 C 3.625 0.0507812 3.222656 0.128906 2.777344 0.128906 C 2.035156 0.128906 1.472656 -0.0234375 1.082031 -0.332031 C 0.695312 -0.640625 0.445312 -1.097656 0.339844 -1.703125 Z M 0.339844 -1.703125 "/>
</g>
<g id="glyph-2-0">
<path d="M 7.761719 -3.3125 L 9.011719 -2.996094 C 8.75 -1.96875 8.277344 -1.1875 7.597656 -0.648438 C 6.914062 -0.109375 6.082031 0.160156 5.097656 0.160156 C 4.078125 0.160156 3.25 -0.046875 2.613281 -0.460938 C 1.976562 -0.875 1.488281 -1.476562 1.15625 -2.261719 C 0.824219 -3.046875 0.65625 -3.894531 0.65625 -4.796875 C 0.65625 -5.777344 0.84375 -6.636719 1.222656 -7.371094 C 1.597656 -8.101562 2.132812 -8.660156 2.828125 -9.039062 C 3.519531 -9.417969 4.285156 -9.609375 5.117188 -9.609375 C 6.0625 -9.609375 6.859375 -9.371094 7.503906 -8.886719 C 8.148438 -8.40625 8.597656 -7.730469 8.847656 -6.859375 L 7.617188 -6.566406 C 7.398438 -7.253906 7.082031 -7.753906 6.664062 -8.070312 C 6.246094 -8.382812 5.722656 -8.539062 5.09375 -8.539062 C 4.367188 -8.539062 3.757812 -8.367188 3.269531 -8.019531 C 2.785156 -7.671875 2.441406 -7.203125 2.242188 -6.617188 C 2.046875 -6.03125 1.945312 -5.425781 1.945312 -4.800781 C 1.945312 -4 2.0625 -3.296875 2.296875 -2.699219 C 2.53125 -2.097656 2.894531 -1.648438 3.390625 -1.351562 C 3.882812 -1.058594 4.417969 -0.910156 4.996094 -0.910156 C 5.695312 -0.910156 6.289062 -1.109375 6.773438 -1.515625 C 7.257812 -1.917969 7.589844 -2.519531 7.761719 -3.3125 Z M 7.761719 -3.3125 "/>
</g>
<g id="glyph-2-1">
<path d="M 0.871094 0 L 0.871094 -9.449219 L 2.03125 -9.449219 L 2.03125 -6.058594 C 2.570312 -6.6875 3.253906 -7 4.078125 -7 C 4.585938 -7 5.027344 -6.898438 5.402344 -6.699219 C 5.773438 -6.5 6.042969 -6.222656 6.203125 -5.871094 C 6.363281 -5.519531 6.445312 -5.007812 6.445312 -4.335938 L 6.445312 0 L 5.285156 0 L 5.285156 -4.335938 C 5.285156 -4.917969 5.160156 -5.339844 4.90625 -5.605469 C 4.65625 -5.867188 4.300781 -6 3.839844 -6 C 3.496094 -6 3.175781 -5.910156 2.871094 -5.734375 C 2.570312 -5.554688 2.351562 -5.3125 2.222656 -5.007812 C 2.09375 -4.703125 2.03125 -4.28125 2.03125 -3.746094 L 2.03125 0 Z M 0.871094 0 "/>
</g>
<g id="glyph-2-2">
<path d="M 0.4375 -3.421875 C 0.4375 -4.691406 0.789062 -5.628906 1.496094 -6.238281 C 2.082031 -6.746094 2.800781 -7 3.648438 -7 C 4.589844 -7 5.359375 -6.691406 5.957031 -6.074219 C 6.550781 -5.457031 6.851562 -4.605469 6.851562 -3.519531 C 6.851562 -2.636719 6.71875 -1.945312 6.453125 -1.441406 C 6.191406 -0.9375 5.804688 -0.542969 5.300781 -0.265625 C 4.796875 0.015625 4.246094 0.15625 3.648438 0.15625 C 2.691406 0.15625 1.914062 -0.152344 1.324219 -0.765625 C 0.734375 -1.382812 0.4375 -2.265625 0.4375 -3.421875 M 1.628906 -3.421875 C 1.628906 -2.546875 1.820312 -1.890625 2.203125 -1.453125 C 2.585938 -1.015625 3.066406 -0.800781 3.648438 -0.800781 C 4.222656 -0.800781 4.703125 -1.019531 5.085938 -1.457031 C 5.46875 -1.894531 5.660156 -2.5625 5.660156 -3.460938 C 5.660156 -4.308594 5.464844 -4.949219 5.082031 -5.386719 C 4.699219 -5.820312 4.21875 -6.039062 3.648438 -6.039062 C 3.066406 -6.039062 2.585938 -5.820312 2.203125 -5.386719 C 1.820312 -4.953125 1.628906 -4.300781 1.628906 -3.421875 Z M 1.628906 -3.421875 "/>
</g>
<g id="glyph-2-3">
<path d="M 0.855469 0 L 0.855469 -6.84375 L 1.902344 -6.84375 L 1.902344 -5.808594 C 2.167969 -6.292969 2.414062 -6.613281 2.640625 -6.765625 C 2.863281 -6.921875 3.113281 -7 3.382812 -7 C 3.773438 -7 4.171875 -6.875 4.578125 -6.625 L 4.175781 -5.550781 C 3.894531 -5.71875 3.609375 -5.800781 3.324219 -5.800781 C 3.070312 -5.800781 2.84375 -5.722656 2.640625 -5.570312 C 2.441406 -5.417969 2.296875 -5.207031 2.210938 -4.9375 C 2.082031 -4.523438 2.015625 -4.074219 2.015625 -3.582031 L 2.015625 0 Z M 0.855469 0 "/>
</g>
<g id="glyph-2-4">
<path d="M 5.3125 0 L 5.3125 -0.863281 C 4.875 -0.183594 4.238281 0.15625 3.398438 0.15625 C 2.851562 0.15625 2.347656 0.00390625 1.890625 -0.296875 C 1.433594 -0.597656 1.078125 -1.015625 0.828125 -1.554688 C 0.578125 -2.097656 0.453125 -2.714844 0.453125 -3.414062 C 0.453125 -4.097656 0.566406 -4.71875 0.792969 -5.277344 C 1.019531 -5.832031 1.363281 -6.257812 1.816406 -6.554688 C 2.273438 -6.851562 2.78125 -7 3.34375 -7 C 3.757812 -7 4.125 -6.914062 4.445312 -6.738281 C 4.769531 -6.566406 5.03125 -6.335938 5.234375 -6.058594 L 5.234375 -9.449219 L 6.386719 -9.449219 L 6.386719 0 L 5.3125 0 M 1.644531 -3.414062 C 1.644531 -2.539062 1.828125 -1.882812 2.199219 -1.449219 C 2.566406 -1.015625 3.003906 -0.800781 3.507812 -0.800781 C 4.011719 -0.800781 4.445312 -1.007812 4.796875 -1.421875 C 5.152344 -1.835938 5.332031 -2.46875 5.332031 -3.320312 C 5.332031 -4.257812 5.148438 -4.945312 4.789062 -5.382812 C 4.429688 -5.820312 3.984375 -6.039062 3.453125 -6.039062 C 2.9375 -6.039062 2.507812 -5.828125 2.164062 -5.40625 C 1.816406 -4.988281 1.644531 -4.324219 1.644531 -3.414062 Z M 1.644531 -3.414062 "/>
</g>
</g>
</defs>
<rect x="-51.8" y="-38.8" width="621.6" height="465.6" fill="rgb(100%, 100%, 100%)" fill-opacity="1"/>
<path fill="none" stroke-width="4.694705" stroke-linecap="butt" stroke-linejoin="round" stroke="rgb(26.666667%, 36.862745%, 27.45098%)" stroke-opacity="0.521569" stroke-miterlimit="10" d="M 259 77.625 L 258.832031 77.652344 L 257.828125 77.816406 L 255.695312 78.167969 L 252.707031 78.65625 L 249.441406 79.191406 L 246.328125 79.710938 L 243.453125 80.210938 L 240.785156 80.71875 L 238.25 81.253906 L 236.179688 81.730469 L 233.699219 82.347656 L 231.289062 83 L 229 83.660156 L 226.871094 84.3125 L 224.859375 84.945312 L 222.835938 85.59375 L 220.695312 86.304688 L 218.425781 87.09375 L 216.066406 87.964844 L 214.105469 88.730469 L 211.742188 89.699219 L 209.445312 90.691406 L 207.277344 91.671875 L 205.265625 92.621094 L 203.363281 93.542969 L 201.453125 94.472656 L 199.4375 95.484375 L 197.304688 96.59375 L 195.097656 97.792969 L 193.265625 98.832031 L 191.066406 100.132812 L 188.9375 101.441406 L 186.933594 102.726562 L 185.078125 103.957031 L 183.328125 105.140625 L 181.574219 106.335938 L 179.722656 107.625 L 177.773438 109.03125 L 175.761719 110.539062 L 174.097656 111.828125 L 172.105469 113.429688 L 170.191406 115.035156 L 168.390625 116.59375 L 166.730469 118.078125 L 165.171875 119.5 L 163.605469 120.933594 L 161.960938 122.476562 L 160.234375 124.148438 L 158.457031 125.929688 L 157 127.445312 L 155.253906 129.324219 L 153.523438 131.269531 L 151.734375 133.355469 L 149.839844 135.628906 L 147.8125 138.097656 L 145.722656 140.648438 L 143.871094 142.90625 L 142.621094 144.433594 L 142.09375 145.078125 L 142.03125 145.15625 "/>
<path fill="none" stroke-width="3.094237" stroke-linecap="butt" stroke-linejoin="round" stroke="rgb(26.666667%, 36.862745%, 27.45098%)" stroke-opacity="0.521569" stroke-miterlimit="10" d="M 259 77.625 L 258.894531 77.707031 L 258.25 78.238281 L 256.75 79.464844 L 254.367188 81.417969 L 251.324219 83.910156 L 247.972656 86.65625 L 244.640625 89.386719 L 241.480469 91.988281 L 238.523438 94.460938 L 235.757812 96.824219 L 233.144531 99.117188 L 230.632812 101.394531 L 228.328125 103.546875 L 225.898438 105.882812 L 223.535156 108.222656 L 221.265625 110.53125 L 219.121094 112.773438 L 217.109375 114.925781 L 215.207031 116.996094 L 213.347656 119.03125 L 211.453125 121.121094 L 209.488281 123.328125 L 207.445312 125.675781 L 205.347656 128.152344 L 203.226562 130.722656 L 201.273438 133.164062 L 199.210938 135.824219 L 197.207031 138.480469 L 195.292969 141.089844 L 193.496094 143.617188 L 191.8125 146.039062 L 190.226562 148.359375 L 188.679688 150.640625 L 187.105469 152.980469 L 185.476562 155.449219 L 183.792969 158.066406 L 182.074219 160.820312 L 180.347656 163.667969 L 178.765625 166.363281 L 177.105469 169.292969 L 175.503906 172.210938 L 173.988281 175.070312 L 172.570312 177.828125 L 171.253906 180.464844 L 170.019531 182.992188 L 168.816406 185.472656 L 167.597656 188.015625 L 166.339844 190.691406 L 165.050781 193.523438 L 163.742188 196.496094 L 162.445312 199.5625 L 161.269531 202.457031 L 160.046875 205.59375 L 158.882812 208.710938 L 157.792969 211.761719 L 156.785156 214.695312 L 155.863281 217.492188 L 155.003906 220.171875 L 154.171875 222.796875 L 153.328125 225.488281 L 152.472656 228.320312 L 151.601562 231.308594 L 150.734375 234.4375 L 149.894531 237.660156 L 149.144531 240.691406 L 148.386719 243.976562 L 147.675781 247.296875 L 146.996094 250.714844 L 146.332031 254.304688 L 145.671875 258.117188 L 144.996094 262.167969 L 144.292969 266.429688 L 143.59375 270.695312 L 142.964844 274.535156 L 142.476562 277.507812 L 142.175781 279.34375 L 142.050781 280.109375 L 142.03125 280.21875 "/>
<path fill="none" stroke-width="3.627726" stroke-linecap="butt" stroke-linejoin="round" stroke="rgb(72.156863%, 50.980392%, 15.686275%)" stroke-opacity="0.521569" stroke-miterlimit="10" d="M 142.03125 145.15625 L 142.054688 145.289062 L 142.1875 146.113281 L 142.503906 148.023438 L 143 151.0625 L 143.636719 154.945312 L 144.339844 159.222656 L 145.039062 163.472656 L 145.714844 167.507812 L 146.375 171.304688 L 147.039062 174.882812 L 147.71875 178.292969 L 148.433594 181.609375 L 149.144531 184.679688 L 149.953125 187.949219 L 150.796875 191.167969 L 151.664062 194.289062 L 152.535156 197.265625 L 153.390625 200.082031 L 154.230469 202.765625 L 155.066406 205.394531 L 155.925781 208.078125 L 156.855469 210.886719 L 157.867188 213.832031 L 158.964844 216.886719 L 160.132812 220.003906 L 161.269531 222.917969 L 162.539062 226.035156 L 163.835938 229.097656 L 165.144531 232.058594 L 166.433594 234.882812 L 167.6875 237.546875 L 168.902344 240.082031 L 170.105469 242.5625 L 171.347656 245.09375 L 172.667969 247.738281 L 174.09375 250.507812 L 175.617188 253.375 L 177.222656 256.292969 L 178.765625 259.011719 L 180.472656 261.914062 L 182.199219 264.757812 L 183.917969 267.5 L 185.597656 270.109375 L 187.222656 272.566406 L 188.792969 274.898438 L 190.339844 277.179688 L 191.929688 279.507812 L 193.621094 281.933594 L 195.429688 284.46875 L 197.347656 287.085938 L 199.355469 289.742188 L 201.273438 292.210938 L 203.378906 294.839844 L 205.5 297.40625 L 207.59375 299.871094 L 209.632812 302.210938 L 211.59375 304.410156 L 213.484375 306.492188 L 215.34375 308.527344 L 217.25 310.601562 L 219.273438 312.761719 L 221.425781 315.007812 L 223.703125 317.320312 L 226.074219 319.664062 L 228.328125 321.828125 L 230.789062 324.125 L 233.308594 326.402344 L 235.929688 328.699219 L 238.707031 331.070312 L 241.679688 333.546875 L 244.847656 336.160156 L 251.535156 341.636719 L 254.542969 344.101562 L 256.875 346.011719 L 258.316406 347.191406 L 258.914062 347.679688 L 259 347.75 "/>
<path fill="none" stroke-width="2.027259" stroke-linecap="butt" stroke-linejoin="round" stroke="rgb(51.372549%, 57.647059%, 77.647059%)" stroke-opacity="0.521569" stroke-miterlimit="10" d="M 142.03125 280.21875 L 142.140625 280.351562 L 142.785156 281.136719 L 144.15625 282.8125 L 146.074219 285.152344 L 148.167969 287.710938 L 150.171875 290.148438 L 152.046875 292.390625 L 153.820312 294.445312 L 155.550781 296.375 L 157 297.929688 L 158.773438 299.765625 L 160.542969 301.53125 L 162.257812 303.179688 L 163.886719 304.699219 L 165.445312 306.125 L 167.015625 307.554688 L 168.699219 309.050781 L 170.523438 310.621094 L 172.457031 312.230469 L 174.097656 313.546875 L 176.117188 315.109375 L 178.125 316.601562 L 180.058594 317.988281 L 181.890625 319.257812 L 183.632812 320.441406 L 185.394531 321.632812 L 187.277344 322.871094 L 189.308594 324.164062 L 191.453125 325.476562 L 193.265625 326.542969 L 195.492188 327.796875 L 197.691406 328.984375 L 199.804688 330.078125 L 201.796875 331.070312 L 203.695312 331.996094 L 205.609375 332.917969 L 207.652344 333.875 L 209.84375 334.859375 L 212.15625 335.847656 L 214.105469 336.644531 L 216.488281 337.566406 L 218.835938 338.425781 L 221.082031 339.203125 L 223.199219 339.898438 L 225.210938 340.539062 L 227.238281 341.175781 L 229.394531 341.832031 L 231.707031 342.492188 L 234.136719 343.136719 L 236.179688 343.644531 L 238.675781 344.214844 L 241.230469 344.742188 L 243.929688 345.246094 L 246.84375 345.753906 L 249.996094 346.273438 L 253.253906 346.808594 L 256.132812 347.28125 L 258.078125 347.601562 L 258.902344 347.734375 L 259 347.75 "/>
<path fill="none" stroke-width="4.161216" stroke-linecap="butt" stroke-linejoin="round" stroke="rgb(78.823529%, 42.352941%, 35.686275%)" stroke-opacity="0.521569" stroke-miterlimit="10" d="M 259 347.75 L 259.167969 347.722656 L 260.171875 347.558594 L 262.304688 347.207031 L 265.292969 346.71875 L 268.558594 346.183594 L 271.671875 345.664062 L 274.546875 345.160156 L 277.214844 344.65625 L 279.75 344.121094 L 281.820312 343.644531 L 284.300781 343.023438 L 286.710938 342.375 L 289 341.714844 L 291.128906 341.0625 L 293.140625 340.429688 L 295.164062 339.78125 L 297.304688 339.070312 L 299.574219 338.277344 L 301.933594 337.40625 L 303.894531 336.644531 L 306.257812 335.675781 L 308.554688 334.683594 L 310.722656 333.703125 L 312.734375 332.75 L 314.636719 331.832031 L 316.546875 330.902344 L 318.5625 329.890625 L 320.695312 328.78125 L 322.902344 327.578125 L 324.734375 326.542969 L 326.933594 325.242188 L 329.0625 323.933594 L 331.066406 322.648438 L 332.921875 321.417969 L 334.671875 320.234375 L 336.425781 319.039062 L 338.277344 317.75 L 340.226562 316.34375 L 342.238281 314.835938 L 343.902344 313.546875 L 345.894531 311.945312 L 347.808594 310.339844 L 349.609375 308.78125 L 351.269531 307.296875 L 352.828125 305.875 L 354.394531 304.4375 L 356.039062 302.898438 L 357.765625 301.226562 L 359.542969 299.445312 L 361 297.929688 L 362.746094 296.050781 L 364.476562 294.105469 L 366.265625 292.019531 L 368.160156 289.746094 L 370.1875 287.277344 L 372.277344 284.722656 L 374.128906 282.46875 L 375.378906 280.941406 L 375.90625 280.296875 L 375.96875 280.21875 "/>
<path fill="none" stroke-width="2.560748" stroke-linecap="butt" stroke-linejoin="round" stroke="rgb(54.117647%, 49.019608%, 72.156863%)" stroke-opacity="0.521569" stroke-miterlimit="10" d="M 375.96875 280.21875 L 376.027344 280.058594 L 376.386719 279.109375 L 377.152344 277.085938 L 378.222656 274.253906 L 379.390625 271.15625 L 380.496094 268.203125 L 381.5 265.460938 L 382.394531 262.898438 L 383.199219 260.433594 L 383.820312 258.402344 L 384.527344 255.945312 L 385.167969 253.53125 L 385.738281 251.222656 L 386.242188 249.050781 L 386.699219 246.988281 L 387.148438 244.914062 L 387.605469 242.707031 L 388.054688 240.34375 L 388.476562 237.867188 L 388.796875 235.785156 L 389.140625 233.253906 L 389.429688 230.769531 L 389.660156 228.402344 L 389.847656 226.183594 L 390.003906 224.078125 L 390.148438 221.957031 L 390.28125 219.707031 L 390.386719 217.304688 L 390.449219 214.792969 L 390.46875 212.6875 L 390.441406 210.132812 L 390.371094 207.632812 L 390.261719 205.257812 L 390.125 203.035156 L 389.976562 200.929688 L 389.816406 198.808594 L 389.625 196.5625 L 389.382812 194.171875 L 389.082031 191.675781 L 388.796875 189.589844 L 388.40625 187.066406 L 387.976562 184.601562 L 387.523438 182.265625 L 387.070312 180.085938 L 386.617188 178.023438 L 386.15625 175.949219 L 385.644531 173.753906 L 385.058594 171.421875 L 384.40625 168.996094 L 383.820312 166.972656 L 383.066406 164.523438 L 382.246094 162.050781 L 381.335938 159.460938 L 380.316406 156.683594 L 379.191406 153.691406 L 378.023438 150.605469 L 376.996094 147.875 L 376.296875 146.027344 L 376.003906 145.25 L 375.96875 145.15625 "/>
<path fill="none" stroke-width="1.49377" stroke-linecap="butt" stroke-linejoin="round" stroke="rgb(72.156863%, 50.980392%, 15.686275%)" stroke-opacity="0.521569" stroke-miterlimit="10" d="M 142.03125 145.15625 L 142.9375 145.496094 L 144.75 146.183594 L 147.632812 147.269531 L 151.3125 148.660156 L 155.367188 150.1875 L 159.398438 151.710938 L 163.230469 153.144531 L 166.851562 154.46875 L 170.28125 155.683594 L 173.574219 156.800781 L 176.800781 157.839844 L 179.820312 158.757812 L 183.054688 159.691406 L 186.261719 160.570312 L 189.398438 161.378906 L 192.410156 162.117188 L 195.28125 162.78125 L 198.023438 163.394531 L 200.714844 163.988281 L 203.472656 164.582031 L 206.367188 165.183594 L 209.425781 165.777344 L 212.617188 166.355469 L 215.902344 166.90625 L 218.992188 167.375 L 222.328125 167.835938 L 225.632812 168.242188 L 228.847656 168.59375 L 231.9375 168.886719 L 234.871094 169.132812 L 237.675781 169.347656 L 240.425781 169.546875 L 243.238281 169.738281 L 246.191406 169.914062 L 249.300781 170.0625 L 252.542969 170.175781 L 255.875 170.246094 L 259 170.269531 L 262.367188 170.246094 L 265.695312 170.171875 L 268.929688 170.054688 L 272.027344 169.902344 L 274.96875 169.722656 L 277.773438 169.53125 L 280.523438 169.332031 L 283.332031 169.117188 L 286.28125 168.867188 L 289.378906 168.570312 L 292.605469 168.214844 L 295.910156 167.804688 L 299.007812 167.375 L 302.335938 166.867188 L 305.617188 166.316406 L 308.800781 165.734375 L 311.84375 165.140625 L 314.730469 164.539062 L 317.476562 163.945312 L 320.171875 163.351562 L 322.921875 162.734375 L 325.800781 162.066406 L 328.824219 161.324219 L 331.964844 160.507812 L 335.179688 159.628906 L 338.179688 158.757812 L 341.40625 157.773438 L 344.636719 156.730469 L 347.933594 155.609375 L 351.375 154.386719 L 355.007812 153.054688 L 358.855469 151.613281 L 362.894531 150.089844 L 366.9375 148.5625 L 370.578125 147.1875 L 373.398438 146.125 L 375.140625 145.46875 L 375.863281 145.195312 L 375.96875 145.15625 "/>
<path fill-rule="nonzero" fill="rgb(12.156863%, 10.196078%, 7.45098%)" fill-opacity="1" stroke-width="0.708661" stroke-linecap="round" stroke-linejoin="round" stroke="rgb(12.156863%, 10.196078%, 7.45098%)" stroke-opacity="1" stroke-miterlimit="10" d="M 263.195312 77.625 C 263.195312 83.21875 254.804688 83.21875 254.804688 77.625 C 254.804688 72.03125 263.195312 72.03125 263.195312 77.625 "/>
<path fill-rule="nonzero" fill="rgb(12.156863%, 10.196078%, 7.45098%)" fill-opacity="1" stroke-width="0.708661" stroke-linecap="round" stroke-linejoin="round" stroke="rgb(12.156863%, 10.196078%, 7.45098%)" stroke-opacity="1" stroke-miterlimit="10" d="M 146.226562 145.15625 C 146.226562 150.75 137.835938 150.75 137.835938 145.15625 C 137.835938 139.5625 146.226562 139.5625 146.226562 145.15625 "/>
<path fill-rule="nonzero" fill="rgb(12.156863%, 10.196078%, 7.45098%)" fill-opacity="1" stroke-width="0.708661" stroke-linecap="round" stroke-linejoin="round" stroke="rgb(12.156863%, 10.196078%, 7.45098%)" stroke-opacity="1" stroke-miterlimit="10" d="M 146.226562 280.21875 C 146.226562 285.8125 137.835938 285.8125 137.835938 280.21875 C 137.835938 274.625 146.226562 274.625 146.226562 280.21875 "/>
<path fill-rule="nonzero" fill="rgb(12.156863%, 10.196078%, 7.45098%)" fill-opacity="1" stroke-width="0.708661" stroke-linecap="round" stroke-linejoin="round" stroke="rgb(12.156863%, 10.196078%, 7.45098%)" stroke-opacity="1" stroke-miterlimit="10" d="M 263.195312 347.75 C 263.195312 353.34375 254.804688 353.34375 254.804688 347.75 C 254.804688 342.15625 263.195312 342.15625 263.195312 347.75 "/>
<path fill-rule="nonzero" fill="rgb(12.156863%, 10.196078%, 7.45098%)" fill-opacity="1" stroke-width="0.708661" stroke-linecap="round" stroke-linejoin="round" stroke="rgb(12.156863%, 10.196078%, 7.45098%)" stroke-opacity="1" stroke-miterlimit="10" d="M 380.164062 280.21875 C 380.164062 285.8125 371.773438 285.8125 371.773438 280.21875 C 371.773438 274.625 380.164062 274.625 380.164062 280.21875 "/>
<path fill-rule="nonzero" fill="rgb(12.156863%, 10.196078%, 7.45098%)" fill-opacity="1" stroke-width="0.708661" stroke-linecap="round" stroke-linejoin="round" stroke="rgb(12.156863%, 10.196078%, 7.45098%)" stroke-opacity="1" stroke-miterlimit="10" d="M 380.164062 145.15625 C 380.164062 150.75 371.773438 150.75 371.773438 145.15625 C 371.773438 139.5625 380.164062 139.5625 380.164062 145.15625 "/>
<g fill="rgb(0%, 0%, 0%)" fill-opacity="1">
<use xlink:href="#glyph-0-0" x="245.246094" y="56.765625"/>
<use xlink:href="#glyph-0-1" x="251.204918" y="56.765625"/>
<use xlink:href="#glyph-0-2" x="253.497393" y="56.765625"/>
<use xlink:href="#glyph-0-3" x="255.789868" y="56.765625"/>
<use xlink:href="#glyph-0-4" x="260.378848" y="56.765625"/>
<use xlink:href="#glyph-0-5" x="265.41907" y="56.765625"/>
<use xlink:href="#glyph-0-3" x="268.166817" y="56.765625"/>
</g>
<g fill="rgb(0%, 0%, 0%)" fill-opacity="1">
<use xlink:href="#glyph-0-6" x="107.449219" y="136.453125"/>
<use xlink:href="#glyph-0-3" x="112.952771" y="136.453125"/>
<use xlink:href="#glyph-0-4" x="117.54175" y="136.453125"/>
<use xlink:href="#glyph-0-5" x="122.581973" y="136.453125"/>
<use xlink:href="#glyph-0-7" x="125.32972" y="136.453125"/>
<use xlink:href="#glyph-0-8" x="129.918699" y="136.453125"/>
</g>
<g fill="rgb(0%, 0%, 0%)" fill-opacity="1">
<use xlink:href="#glyph-0-9" x="105.390625" y="295.828125"/>
<use xlink:href="#glyph-0-10" x="110.894177" y="295.828125"/>
<use xlink:href="#glyph-0-11" x="115.934399" y="295.828125"/>
<use xlink:href="#glyph-0-10" x="120.974622" y="295.828125"/>
<use xlink:href="#glyph-0-12" x="126.014844" y="295.828125"/>
<use xlink:href="#glyph-0-5" x="129.225921" y="295.828125"/>
<use xlink:href="#glyph-0-3" x="131.973668" y="295.828125"/>
</g>
<g fill="rgb(0%, 0%, 0%)" fill-opacity="1">
<use xlink:href="#glyph-0-13" x="240.894531" y="375.515625"/>
<use xlink:href="#glyph-0-12" x="246.398083" y="375.515625"/>
<use xlink:href="#glyph-0-10" x="249.60916" y="375.515625"/>
<use xlink:href="#glyph-0-14" x="254.649383" y="375.515625"/>
<use xlink:href="#glyph-0-15" x="259.689605" y="375.515625"/>
<use xlink:href="#glyph-0-16" x="264.729827" y="375.515625"/>
<use xlink:href="#glyph-0-5" x="269.318807" y="375.515625"/>
<use xlink:href="#glyph-0-10" x="272.066554" y="375.515625"/>
</g>
<g fill="rgb(0%, 0%, 0%)" fill-opacity="1">
<use xlink:href="#glyph-0-17" x="372.03125" y="295.828125"/>
<use xlink:href="#glyph-0-11" x="378.449375" y="295.828125"/>
<use xlink:href="#glyph-0-3" x="383.489597" y="295.828125"/>
<use xlink:href="#glyph-0-12" x="388.078577" y="295.828125"/>
<use xlink:href="#glyph-0-7" x="391.289653" y="295.828125"/>
<use xlink:href="#glyph-0-16" x="395.878633" y="295.828125"/>
<use xlink:href="#glyph-0-2" x="400.467612" y="295.828125"/>
<use xlink:href="#glyph-0-10" x="402.760087" y="295.828125"/>
<use xlink:href="#glyph-0-4" x="407.80031" y="295.828125"/>
<use xlink:href="#glyph-0-3" x="412.840532" y="295.828125"/>
<use xlink:href="#glyph-0-8" x="417.429511" y="295.828125"/>
</g>
<g fill="rgb(0%, 0%, 0%)" fill-opacity="1">
<use xlink:href="#glyph-0-18" x="379.371094" y="136.453125"/>
<use xlink:href="#glyph-0-2" x="384.411316" y="136.453125"/>
<use xlink:href="#glyph-0-4" x="386.703791" y="136.453125"/>
<use xlink:href="#glyph-0-7" x="391.744014" y="136.453125"/>
<use xlink:href="#glyph-0-4" x="396.332993" y="136.453125"/>
<use xlink:href="#glyph-0-19" x="401.373215" y="136.453125"/>
<use xlink:href="#glyph-0-7" x="405.498865" y="136.453125"/>
<use xlink:href="#glyph-0-8" x="410.087844" y="136.453125"/>
</g>
<g fill="rgb(0%, 0%, 0%)" fill-opacity="1">
<use xlink:href="#glyph-1-0" x="107.175781" y="34.058594"/>
<use xlink:href="#glyph-1-1" x="114.512695" y="34.058594"/>
<use xlink:href="#glyph-1-2" x="120.630371" y="34.058594"/>
<use xlink:href="#glyph-1-3" x="126.748047" y="34.058594"/>
<use xlink:href="#glyph-1-4" x="130.411133" y="34.058594"/>
<use xlink:href="#glyph-1-5" x="136.528809" y="34.058594"/>
<use xlink:href="#glyph-1-4" x="142.028809" y="34.058594"/>
<use xlink:href="#glyph-1-6" x="148.146484" y="34.058594"/>
<use xlink:href="#glyph-1-7" x="151.202637" y="34.058594"/>
<use xlink:href="#glyph-1-4" x="153.646484" y="34.058594"/>
<use xlink:href="#glyph-1-6" x="159.76416" y="34.058594"/>
<use xlink:href="#glyph-1-8" x="162.820312" y="34.058594"/>
<use xlink:href="#glyph-1-9" x="168.320312" y="34.058594"/>
<use xlink:href="#glyph-1-10" x="174.437988" y="34.058594"/>
<use xlink:href="#glyph-1-11" x="180.555664" y="34.058594"/>
<use xlink:href="#glyph-1-8" x="186.67334" y="34.058594"/>
<use xlink:href="#glyph-1-12" x="192.17334" y="34.058594"/>
<use xlink:href="#glyph-1-13" x="195.229492" y="34.058594"/>
<use xlink:href="#glyph-1-14" x="197.67334" y="34.058594"/>
<use xlink:href="#glyph-1-13" x="203.17334" y="34.058594"/>
<use xlink:href="#glyph-1-15" x="205.617188" y="34.058594"/>
<use xlink:href="#glyph-1-4" x="211.734863" y="34.058594"/>
<use xlink:href="#glyph-1-15" x="217.852539" y="34.058594"/>
<use xlink:href="#glyph-1-6" x="223.970215" y="34.058594"/>
<use xlink:href="#glyph-1-16" x="227.026367" y="34.058594"/>
<use xlink:href="#glyph-1-7" x="233.144043" y="34.058594"/>
<use xlink:href="#glyph-1-9" x="235.587891" y="34.058594"/>
<use xlink:href="#glyph-1-2" x="241.705566" y="34.058594"/>
<use xlink:href="#glyph-1-4" x="247.823242" y="34.058594"/>
<use xlink:href="#glyph-1-7" x="253.940918" y="34.058594"/>
<use xlink:href="#glyph-1-6" x="256.384766" y="34.058594"/>
<use xlink:href="#glyph-1-11" x="259.440918" y="34.058594"/>
<use xlink:href="#glyph-1-10" x="265.558594" y="34.058594"/>
<use xlink:href="#glyph-1-12" x="271.67627" y="34.058594"/>
<use xlink:href="#glyph-1-3" x="274.732422" y="34.058594"/>
<use xlink:href="#glyph-1-11" x="278.395508" y="34.058594"/>
<use xlink:href="#glyph-1-6" x="284.513184" y="34.058594"/>
<use xlink:href="#glyph-1-10" x="287.569336" y="34.058594"/>
<use xlink:href="#glyph-1-9" x="293.687012" y="34.058594"/>
<use xlink:href="#glyph-1-15" x="299.804688" y="34.058594"/>
<use xlink:href="#glyph-1-9" x="305.922363" y="34.058594"/>
<use xlink:href="#glyph-1-17" x="312.040039" y="34.058594"/>
</g>
<g fill="rgb(0%, 0%, 0%)" fill-opacity="1">
<use xlink:href="#glyph-2-0" x="107.175781" y="15.929688"/>
<use xlink:href="#glyph-2-1" x="116.708398" y="15.929688"/>
<use xlink:href="#glyph-2-2" x="124.049609" y="15.929688"/>
<use xlink:href="#glyph-2-3" x="131.39082" y="15.929688"/>
<use xlink:href="#glyph-2-4" x="135.786523" y="15.929688"/>
</g>
</svg>
