<?xml version="1.0" encoding="UTF-8"?>
<svg xmlns="http://www.w3.org/2000/svg" xmlns:xlink="http://www.w3.org/1999/xlink" width="561pt" height="388pt" viewBox="0 0 561 388">
<defs>
<g>
<g id="glyph-0-0">
<path d="M 4.53125 -2.246094 L 5.726562 -1.867188 C 5.542969 -1.199219 5.238281 -0.703125 4.8125 -0.382812 C 4.386719 -0.0585938 3.84375 0.105469 3.1875 0.105469 C 2.378906 0.105469 1.710938 -0.171875 1.1875 -0.726562 C 0.664062 -1.28125 0.402344 -2.039062 0.402344 -3 C 0.402344 -4.019531 0.667969 -4.808594 1.191406 -5.371094 C 1.71875 -5.933594 2.40625 -6.214844 3.261719 -6.214844 C 4.011719 -6.214844 4.617188 -5.992188 5.085938 -5.550781 C 5.363281 -5.289062 5.570312 -4.914062 5.710938 -4.425781 L 4.488281 -4.132812 C 4.417969 -4.453125 4.265625 -4.703125 4.035156 -4.882812 C 3.808594 -5.066406 3.527344 -5.160156 3.199219 -5.160156 C 2.746094 -5.160156 2.378906 -4.996094 2.097656 -4.671875 C 1.816406 -4.347656 1.675781 -3.820312 1.675781 -3.09375 C 1.675781 -2.320312 1.8125 -1.769531 2.09375 -1.441406 C 2.371094 -1.113281 2.730469 -0.949219 3.175781 -0.949219 C 3.503906 -0.949219 3.785156 -1.054688 4.023438 -1.261719 C 4.257812 -1.472656 4.425781 -1.800781 4.53125 -2.246094 Z M 4.53125 -2.246094 "/>
</g>
<g id="glyph-0-1">
<path d="M 0.613281 0 L 0.613281 -6.109375 L 1.785156 -6.109375 L 1.785156 0 Z M 0.613281 0 "/>
</g>
<g id="glyph-0-2">
<path d="M 0.613281 -5.027344 L 0.613281 -6.109375 L 1.785156 -6.109375 L 1.785156 -5.027344 L 0.613281 -5.027344 M 0.613281 0 L 0.613281 -4.425781 L 1.785156 -4.425781 L 1.785156 0 Z M 0.613281 0 "/>
</g>
<g id="glyph-0-3">
<path d="M 3.175781 -1.410156 L 4.34375 -1.210938 C 4.191406 -0.785156 3.957031 -0.460938 3.632812 -0.234375 C 3.308594 -0.0117188 2.902344 0.101562 2.417969 0.101562 C 1.648438 0.101562 1.078125 -0.152344 0.707031 -0.65625 C 0.417969 -1.058594 0.269531 -1.566406 0.269531 -2.179688 C 0.269531 -2.914062 0.460938 -3.488281 0.847656 -3.902344 C 1.230469 -4.320312 1.714844 -4.527344 2.300781 -4.527344 C 2.960938 -4.527344 3.480469 -4.308594 3.859375 -3.875 C 4.238281 -3.4375 4.421875 -2.773438 4.40625 -1.875 L 1.472656 -1.875 C 1.480469 -1.527344 1.574219 -1.257812 1.753906 -1.066406 C 1.933594 -0.871094 2.160156 -0.773438 2.429688 -0.773438 C 2.613281 -0.773438 2.765625 -0.824219 2.890625 -0.925781 C 3.015625 -1.023438 3.113281 -1.1875 3.175781 -1.410156 M 3.242188 -2.59375 C 3.234375 -2.929688 3.148438 -3.1875 2.980469 -3.367188 C 2.8125 -3.542969 2.609375 -3.628906 2.371094 -3.628906 C 2.117188 -3.628906 1.90625 -3.539062 1.738281 -3.351562 C 1.570312 -3.164062 1.488281 -2.910156 1.492188 -2.59375 Z M 3.242188 -2.59375 "/>
</g>
<g id="glyph-0-4">
<path d="M 4.640625 0 L 3.46875 0 L 3.46875 -2.257812 C 3.46875 -2.738281 3.441406 -3.046875 3.394531 -3.1875 C 3.34375 -3.328125 3.261719 -3.4375 3.148438 -3.511719 C 3.035156 -3.589844 2.902344 -3.628906 2.742188 -3.628906 C 2.539062 -3.628906 2.359375 -3.574219 2.195312 -3.464844 C 2.035156 -3.351562 1.925781 -3.207031 1.863281 -3.023438 C 1.804688 -2.839844 1.777344 -2.5 1.777344 -2.003906 L 1.777344 0 L 0.605469 0 L 0.605469 -4.425781 L 1.691406 -4.425781 L 1.691406 -3.777344 C 2.078125 -4.277344 2.566406 -4.527344 3.152344 -4.527344 C 3.410156 -4.527344 3.644531 -4.480469 3.859375 -4.386719 C 4.074219 -4.292969 4.234375 -4.175781 4.34375 -4.03125 C 4.453125 -3.886719 4.53125 -3.722656 4.574219 -3.539062 C 4.617188 -3.355469 4.640625 -3.09375 4.640625 -2.75 Z M 4.640625 0 "/>
</g>
<g id="glyph-0-5">
<path d="M 2.640625 -4.425781 L 2.640625 -3.492188 L 1.84375 -3.492188 L 1.84375 -1.707031 C 1.84375 -1.347656 1.851562 -1.136719 1.863281 -1.078125 C 1.878906 -1.019531 1.914062 -0.96875 1.96875 -0.929688 C 2.023438 -0.890625 2.089844 -0.871094 2.167969 -0.871094 C 2.277344 -0.871094 2.433594 -0.910156 2.636719 -0.984375 L 2.738281 -0.0742188 C 2.464844 0.0429688 2.15625 0.101562 1.8125 0.101562 C 1.601562 0.101562 1.410156 0.0664062 1.242188 -0.0078125 C 1.074219 -0.078125 0.949219 -0.167969 0.867188 -0.28125 C 0.789062 -0.394531 0.734375 -0.546875 0.703125 -0.738281 C 0.679688 -0.875 0.667969 -1.148438 0.667969 -1.5625 L 0.667969 -3.492188 L 0.128906 -3.492188 L 0.128906 -4.425781 L 0.667969 -4.425781 L 0.667969 -5.304688 L 1.84375 -5.988281 L 1.84375 -4.425781 Z M 2.640625 -4.425781 "/>
</g>
<g id="glyph-0-6">
<path d="M 2.179688 0 L -0.00390625 -6.109375 L 1.332031 -6.109375 L 2.878906 -1.589844 L 4.375 -6.109375 L 5.683594 -6.109375 L 3.496094 0 Z M 2.179688 0 "/>
</g>
<g id="glyph-0-7">
<path d="M 1.488281 -3.074219 L 0.425781 -3.269531 C 0.542969 -3.695312 0.75 -4.011719 1.042969 -4.21875 C 1.332031 -4.421875 1.765625 -4.527344 2.34375 -4.527344 C 2.863281 -4.527344 3.253906 -4.464844 3.507812 -4.339844 C 3.765625 -4.21875 3.945312 -4.058594 4.050781 -3.871094 C 4.152344 -3.679688 4.207031 -3.332031 4.207031 -2.820312 L 4.191406 -1.453125 C 4.191406 -1.066406 4.210938 -0.777344 4.25 -0.59375 C 4.285156 -0.410156 4.355469 -0.210938 4.460938 0 L 3.300781 0 C 3.269531 -0.078125 3.234375 -0.191406 3.1875 -0.347656 C 3.167969 -0.414062 3.15625 -0.460938 3.148438 -0.484375 C 2.945312 -0.289062 2.734375 -0.144531 2.503906 -0.046875 C 2.277344 0.0507812 2.035156 0.101562 1.777344 0.101562 C 1.320312 0.101562 0.960938 -0.0234375 0.699219 -0.269531 C 0.433594 -0.519531 0.304688 -0.832031 0.304688 -1.207031 C 0.304688 -1.457031 0.363281 -1.683594 0.484375 -1.878906 C 0.601562 -2.074219 0.769531 -2.222656 0.984375 -2.328125 C 1.199219 -2.433594 1.511719 -2.523438 1.917969 -2.601562 C 2.464844 -2.703125 2.84375 -2.800781 3.054688 -2.886719 L 3.054688 -3.003906 C 3.054688 -3.230469 3 -3.390625 2.886719 -3.488281 C 2.777344 -3.582031 2.566406 -3.628906 2.257812 -3.628906 C 2.050781 -3.628906 1.886719 -3.589844 1.769531 -3.507812 C 1.65625 -3.425781 1.558594 -3.28125 1.488281 -3.074219 M 3.054688 -2.125 C 2.90625 -2.074219 2.667969 -2.015625 2.34375 -1.945312 C 2.015625 -1.875 1.804688 -1.808594 1.703125 -1.742188 C 1.550781 -1.632812 1.476562 -1.496094 1.476562 -1.328125 C 1.476562 -1.164062 1.535156 -1.023438 1.660156 -0.90625 C 1.78125 -0.785156 1.9375 -0.726562 2.125 -0.726562 C 2.335938 -0.726562 2.539062 -0.792969 2.730469 -0.933594 C 2.871094 -1.039062 2.964844 -1.167969 3.007812 -1.320312 C 3.039062 -1.421875 3.054688 -1.613281 3.054688 -1.890625 Z M 3.054688 -2.125 "/>
</g>
<g id="glyph-0-8">
<path d="M 0.199219 -1.261719 L 1.375 -1.441406 C 1.425781 -1.214844 1.527344 -1.042969 1.679688 -0.921875 C 1.832031 -0.804688 2.046875 -0.746094 2.320312 -0.746094 C 2.625 -0.746094 2.851562 -0.800781 3.003906 -0.914062 C 3.109375 -0.992188 3.160156 -1.09375 3.160156 -1.226562 C 3.160156 -1.3125 3.132812 -1.386719 3.074219 -1.445312 C 3.015625 -1.5 2.886719 -1.554688 2.683594 -1.601562 C 1.738281 -1.808594 1.140625 -2 0.886719 -2.171875 C 0.539062 -2.410156 0.363281 -2.742188 0.363281 -3.167969 C 0.363281 -3.550781 0.515625 -3.875 0.816406 -4.132812 C 1.121094 -4.394531 1.589844 -4.527344 2.226562 -4.527344 C 2.832031 -4.527344 3.28125 -4.425781 3.574219 -4.230469 C 3.871094 -4.03125 4.074219 -3.742188 4.183594 -3.355469 L 3.078125 -3.152344 C 3.03125 -3.324219 2.941406 -3.457031 2.8125 -3.546875 C 2.679688 -3.636719 2.492188 -3.683594 2.246094 -3.683594 C 1.9375 -3.683594 1.71875 -3.640625 1.582031 -3.554688 C 1.496094 -3.492188 1.449219 -3.414062 1.449219 -3.316406 C 1.449219 -3.234375 1.488281 -3.164062 1.566406 -3.105469 C 1.671875 -3.027344 2.039062 -2.917969 2.660156 -2.777344 C 3.285156 -2.632812 3.71875 -2.460938 3.96875 -2.253906 C 4.210938 -2.046875 4.335938 -1.757812 4.335938 -1.382812 C 4.335938 -0.976562 4.164062 -0.628906 3.824219 -0.335938 C 3.488281 -0.046875 2.984375 0.101562 2.320312 0.101562 C 1.71875 0.101562 1.242188 -0.0234375 0.890625 -0.265625 C 0.539062 -0.511719 0.308594 -0.84375 0.199219 -1.261719 Z M 0.199219 -1.261719 "/>
</g>
<g id="glyph-0-9">
<path d="M 0.621094 0 L 0.621094 -6.109375 L 2.601562 -6.109375 C 3.351562 -6.109375 3.839844 -6.078125 4.066406 -6.019531 C 4.417969 -5.925781 4.710938 -5.726562 4.949219 -5.421875 C 5.183594 -5.113281 5.300781 -4.714844 5.300781 -4.230469 C 5.300781 -3.855469 5.234375 -3.539062 5.097656 -3.285156 C 4.960938 -3.027344 4.789062 -2.828125 4.578125 -2.683594 C 4.367188 -2.535156 4.15625 -2.441406 3.9375 -2.390625 C 3.644531 -2.335938 3.21875 -2.304688 2.660156 -2.304688 L 1.855469 -2.304688 L 1.855469 0 L 0.621094 0 M 1.855469 -5.078125 L 1.855469 -3.34375 L 2.53125 -3.34375 C 3.015625 -3.34375 3.339844 -3.375 3.503906 -3.4375 C 3.667969 -3.503906 3.796875 -3.601562 3.890625 -3.738281 C 3.984375 -3.875 4.03125 -4.03125 4.03125 -4.214844 C 4.03125 -4.4375 3.964844 -4.621094 3.835938 -4.765625 C 3.703125 -4.910156 3.539062 -5 3.339844 -5.035156 C 3.191406 -5.0625 2.894531 -5.078125 2.449219 -5.078125 Z M 1.855469 -5.078125 "/>
</g>
<g id="glyph-0-10">
<path d="M 1.734375 0 L 0.5625 0 L 0.5625 -4.425781 L 1.652344 -4.425781 L 1.652344 -3.796875 C 1.835938 -4.09375 2.003906 -4.289062 2.152344 -4.382812 C 2.300781 -4.480469 2.46875 -4.527344 2.660156 -4.527344 C 2.925781 -4.527344 3.183594 -4.453125 3.429688 -4.304688 L 3.066406 -3.285156 C 2.871094 -3.410156 2.6875 -3.476562 2.515625 -3.476562 C 2.351562 -3.476562 2.214844 -3.429688 2.101562 -3.339844 C 1.988281 -3.25 1.898438 -3.085938 1.832031 -2.851562 C 1.765625 -2.613281 1.734375 -2.121094 1.734375 -1.367188 Z M 1.734375 0 "/>
</g>
<g id="glyph-0-11">
<path d="M 0.339844 -2.277344 C 0.339844 -2.664062 0.4375 -3.042969 0.628906 -3.40625 C 0.820312 -3.769531 1.09375 -4.046875 1.445312 -4.238281 C 1.796875 -4.429688 2.1875 -4.527344 2.621094 -4.527344 C 3.292969 -4.527344 3.839844 -4.308594 4.269531 -3.875 C 4.695312 -3.4375 4.910156 -2.890625 4.910156 -2.226562 C 4.910156 -1.554688 4.695312 -1 4.261719 -0.5625 C 3.828125 -0.121094 3.285156 0.101562 2.628906 0.101562 C 2.222656 0.101562 1.835938 0.0078125 1.46875 -0.175781 C 1.101562 -0.359375 0.820312 -0.628906 0.628906 -0.980469 C 0.4375 -1.335938 0.339844 -1.765625 0.339844 -2.277344 M 1.542969 -2.214844 C 1.542969 -1.773438 1.644531 -1.4375 1.855469 -1.203125 C 2.0625 -0.972656 2.320312 -0.855469 2.625 -0.855469 C 2.929688 -0.855469 3.1875 -0.972656 3.394531 -1.203125 C 3.601562 -1.4375 3.707031 -1.777344 3.707031 -2.222656 C 3.707031 -2.65625 3.601562 -2.988281 3.394531 -3.222656 C 3.1875 -3.457031 2.929688 -3.570312 2.625 -3.570312 C 2.320312 -3.570312 2.0625 -3.457031 1.855469 -3.222656 C 1.644531 -2.988281 1.542969 -2.652344 1.542969 -2.214844 Z M 1.542969 -2.214844 "/>
</g>
<g id="glyph-0-12">
<path d="M 4.671875 0 L 3.585938 0 L 3.585938 -0.648438 C 3.402344 -0.398438 3.191406 -0.210938 2.945312 -0.0859375 C 2.699219 0.0390625 2.449219 0.101562 2.199219 0.101562 C 1.691406 0.101562 1.257812 -0.105469 0.894531 -0.515625 C 0.53125 -0.925781 0.351562 -1.496094 0.351562 -2.230469 C 0.351562 -2.980469 0.527344 -3.550781 0.878906 -3.941406 C 1.230469 -4.332031 1.679688 -4.527344 2.21875 -4.527344 C 2.710938 -4.527344 3.140625 -4.320312 3.5 -3.910156 L 3.5 -6.109375 L 4.671875 -6.109375 L 4.671875 0 M 1.546875 -2.308594 C 1.546875 -1.835938 1.613281 -1.496094 1.742188 -1.285156 C 1.929688 -0.976562 2.195312 -0.824219 2.535156 -0.824219 C 2.804688 -0.824219 3.03125 -0.941406 3.222656 -1.167969 C 3.410156 -1.398438 3.503906 -1.742188 3.503906 -2.195312 C 3.503906 -2.703125 3.414062 -3.070312 3.230469 -3.292969 C 3.046875 -3.519531 2.8125 -3.628906 2.527344 -3.628906 C 2.246094 -3.628906 2.015625 -3.519531 1.828125 -3.300781 C 1.640625 -3.078125 1.546875 -2.746094 1.546875 -2.308594 Z M 1.546875 -2.308594 "/>
</g>
<g id="glyph-0-13">
<path d="M 3.527344 0 L 3.527344 -0.664062 C 3.363281 -0.425781 3.152344 -0.242188 2.890625 -0.105469 C 2.628906 0.03125 2.351562 0.101562 2.058594 0.101562 C 1.761719 0.101562 1.496094 0.0351562 1.257812 -0.0976562 C 1.023438 -0.226562 0.851562 -0.410156 0.746094 -0.644531 C 0.640625 -0.882812 0.585938 -1.207031 0.585938 -1.625 L 0.585938 -4.425781 L 1.757812 -4.425781 L 1.757812 -2.390625 C 1.757812 -1.769531 1.78125 -1.386719 1.824219 -1.25 C 1.867188 -1.109375 1.945312 -0.996094 2.058594 -0.914062 C 2.171875 -0.832031 2.316406 -0.792969 2.492188 -0.792969 C 2.691406 -0.792969 2.871094 -0.847656 3.03125 -0.957031 C 3.1875 -1.066406 3.296875 -1.203125 3.355469 -1.363281 C 3.414062 -1.527344 3.441406 -1.925781 3.441406 -2.558594 L 3.441406 -4.425781 L 4.613281 -4.425781 L 4.613281 0 Z M 3.527344 0 "/>
</g>
<g id="glyph-0-14">
<path d="M 4.472656 -3.117188 L 3.316406 -2.910156 C 3.277344 -3.140625 3.191406 -3.3125 3.054688 -3.429688 C 2.914062 -3.546875 2.738281 -3.605469 2.515625 -3.605469 C 2.226562 -3.605469 1.992188 -3.503906 1.820312 -3.304688 C 1.644531 -3.101562 1.558594 -2.765625 1.558594 -2.292969 C 1.558594 -1.765625 1.648438 -1.394531 1.824219 -1.179688 C 2 -0.960938 2.238281 -0.855469 2.535156 -0.855469 C 2.757812 -0.855469 2.9375 -0.917969 3.078125 -1.042969 C 3.222656 -1.171875 3.320312 -1.386719 3.378906 -1.695312 L 4.53125 -1.5 C 4.410156 -0.972656 4.183594 -0.574219 3.84375 -0.304688 C 3.503906 -0.0351562 3.050781 0.101562 2.480469 0.101562 C 1.832031 0.101562 1.316406 -0.105469 0.929688 -0.511719 C 0.546875 -0.921875 0.355469 -1.488281 0.355469 -2.207031 C 0.355469 -2.941406 0.546875 -3.507812 0.933594 -3.914062 C 1.320312 -4.324219 1.84375 -4.527344 2.5 -4.527344 C 3.039062 -4.527344 3.46875 -4.410156 3.785156 -4.179688 C 4.105469 -3.945312 4.332031 -3.59375 4.472656 -3.117188 Z M 4.472656 -3.117188 "/>
</g>
<g id="glyph-0-15">
<path d="M 0.371094 -3.015625 C 0.371094 -3.640625 0.464844 -4.164062 0.648438 -4.585938 C 0.789062 -4.894531 0.980469 -5.175781 1.21875 -5.421875 C 1.460938 -5.667969 1.722656 -5.851562 2.007812 -5.972656 C 2.390625 -6.132812 2.828125 -6.214844 3.324219 -6.214844 C 4.226562 -6.214844 4.945312 -5.933594 5.488281 -5.375 C 6.027344 -4.816406 6.296875 -4.042969 6.296875 -3.046875 C 6.296875 -2.058594 6.03125 -1.289062 5.492188 -0.730469 C 4.957031 -0.175781 4.238281 0.105469 3.34375 0.105469 C 2.433594 0.105469 1.710938 -0.171875 1.175781 -0.726562 C 0.640625 -1.28125 0.371094 -2.046875 0.371094 -3.015625 M 1.640625 -3.058594 C 1.640625 -2.367188 1.800781 -1.84375 2.121094 -1.484375 C 2.441406 -1.128906 2.847656 -0.949219 3.339844 -0.949219 C 3.832031 -0.949219 4.234375 -1.128906 4.550781 -1.480469 C 4.863281 -1.835938 5.023438 -2.367188 5.023438 -3.074219 C 5.023438 -3.777344 4.867188 -4.296875 4.5625 -4.644531 C 4.253906 -4.988281 3.847656 -5.160156 3.339844 -5.160156 C 2.828125 -5.160156 2.421875 -4.984375 2.109375 -4.636719 C 1.796875 -4.289062 1.640625 -3.761719 1.640625 -3.058594 Z M 1.640625 -3.058594 "/>
</g>
<g id="glyph-0-16">
<path d="M 0.578125 -4.425781 L 1.671875 -4.425781 L 1.671875 -3.777344 C 1.8125 -4 2.003906 -4.179688 2.246094 -4.316406 C 2.488281 -4.457031 2.757812 -4.527344 3.050781 -4.527344 C 3.566406 -4.527344 4 -4.324219 4.359375 -3.921875 C 4.71875 -3.519531 4.898438 -2.957031 4.898438 -2.238281 C 4.898438 -1.5 4.714844 -0.925781 4.355469 -0.515625 C 3.996094 -0.105469 3.554688 0.101562 3.042969 0.101562 C 2.796875 0.101562 2.578125 0.0507812 2.378906 -0.046875 C 2.179688 -0.144531 1.96875 -0.308594 1.75 -0.546875 L 1.75 1.683594 L 0.578125 1.683594 L 0.578125 -4.425781 M 1.738281 -2.289062 C 1.738281 -1.789062 1.835938 -1.421875 2.035156 -1.1875 C 2.230469 -0.949219 2.472656 -0.828125 2.753906 -0.828125 C 3.027344 -0.828125 3.253906 -0.9375 3.433594 -1.15625 C 3.613281 -1.375 3.707031 -1.734375 3.707031 -2.230469 C 3.707031 -2.695312 3.613281 -3.039062 3.425781 -3.261719 C 3.238281 -3.488281 3.007812 -3.601562 2.734375 -3.601562 C 2.449219 -3.601562 2.210938 -3.492188 2.019531 -3.269531 C 1.832031 -3.046875 1.738281 -2.722656 1.738281 -2.289062 Z M 1.738281 -2.289062 "/>
</g>
<g id="glyph-0-17">
<path d="M 0.308594 -1.988281 L 1.507812 -2.105469 C 1.582031 -1.703125 1.726562 -1.40625 1.949219 -1.21875 C 2.167969 -1.027344 2.46875 -0.933594 2.84375 -0.933594 C 3.238281 -0.933594 3.539062 -1.019531 3.742188 -1.1875 C 3.941406 -1.355469 4.042969 -1.550781 4.042969 -1.777344 C 4.042969 -1.921875 4 -2.042969 3.914062 -2.144531 C 3.832031 -2.246094 3.683594 -2.335938 3.472656 -2.410156 C 3.328125 -2.460938 3 -2.546875 2.484375 -2.675781 C 1.824219 -2.839844 1.359375 -3.042969 1.09375 -3.28125 C 0.71875 -3.617188 0.53125 -4.027344 0.53125 -4.507812 C 0.53125 -4.820312 0.617188 -5.113281 0.792969 -5.382812 C 0.96875 -5.652344 1.226562 -5.859375 1.558594 -6 C 1.890625 -6.144531 2.289062 -6.214844 2.757812 -6.214844 C 3.527344 -6.214844 4.101562 -6.046875 4.492188 -5.710938 C 4.878906 -5.375 5.082031 -4.925781 5.101562 -4.363281 L 3.867188 -4.308594 C 3.816406 -4.625 3.703125 -4.847656 3.527344 -4.988281 C 3.355469 -5.125 3.09375 -5.191406 2.746094 -5.191406 C 2.386719 -5.191406 2.109375 -5.121094 1.90625 -4.972656 C 1.773438 -4.878906 1.707031 -4.75 1.707031 -4.59375 C 1.707031 -4.449219 1.769531 -4.324219 1.890625 -4.222656 C 2.046875 -4.089844 2.425781 -3.957031 3.027344 -3.8125 C 3.625 -3.671875 4.070312 -3.523438 4.359375 -3.375 C 4.644531 -3.222656 4.871094 -3.015625 5.03125 -2.753906 C 5.195312 -2.492188 5.277344 -2.164062 5.277344 -1.78125 C 5.277344 -1.429688 5.179688 -1.101562 4.984375 -0.796875 C 4.789062 -0.492188 4.515625 -0.261719 4.160156 -0.113281 C 3.804688 0.0351562 3.359375 0.109375 2.828125 0.109375 C 2.058594 0.109375 1.464844 -0.0703125 1.050781 -0.425781 C 0.636719 -0.785156 0.390625 -1.304688 0.308594 -1.988281 Z M 0.308594 -1.988281 "/>
</g>
<g id="glyph-0-18">
<path d="M 0.628906 0 L 0.628906 -6.109375 L 4.816406 -6.109375 L 4.816406 -5.078125 L 1.863281 -5.078125 L 1.863281 -3.628906 L 4.414062 -3.628906 L 4.414062 -2.597656 L 1.863281 -2.597656 L 1.863281 0 Z M 0.628906 0 "/>
</g>
<g id="glyph-0-19">
<path d="M 0.140625 0 L 0.140625 -0.914062 L 1.800781 -2.816406 C 2.074219 -3.128906 2.273438 -3.347656 2.40625 -3.480469 C 2.269531 -3.472656 2.089844 -3.464844 1.867188 -3.464844 L 0.304688 -3.457031 L 0.304688 -4.425781 L 3.964844 -4.425781 L 3.964844 -3.597656 L 2.273438 -1.644531 L 1.675781 -1 C 2 -1.019531 2.203125 -1.03125 2.28125 -1.03125 L 4.09375 -1.03125 L 4.09375 0 Z M 0.140625 0 "/>
</g>
<g id="glyph-1-0">
<path d="M 1.027344 0 L 1.027344 -7.875 L 2.066406 -7.875 L 2.066406 0 Z M 1.027344 0 "/>
</g>
<g id="glyph-1-1">
<path d="M 4.425781 0 L 4.425781 -0.71875 C 4.0625 -0.152344 3.53125 0.128906 2.832031 0.128906 C 2.375 0.128906 1.957031 0.00390625 1.578125 -0.246094 C 1.195312 -0.496094 0.898438 -0.847656 0.691406 -1.296875 C 0.480469 -1.746094 0.375 -2.261719 0.375 -2.847656 C 0.375 -3.414062 0.472656 -3.933594 0.660156 -4.394531 C 0.851562 -4.859375 1.136719 -5.214844 1.515625 -5.460938 C 1.894531 -5.710938 2.320312 -5.832031 2.789062 -5.832031 C 3.132812 -5.832031 3.4375 -5.761719 3.707031 -5.617188 C 3.976562 -5.46875 4.191406 -5.28125 4.359375 -5.046875 L 4.359375 -7.875 L 5.324219 -7.875 L 5.324219 0 L 4.425781 0 M 1.371094 -2.847656 C 1.371094 -2.117188 1.523438 -1.570312 1.832031 -1.207031 C 2.140625 -0.847656 2.503906 -0.664062 2.921875 -0.664062 C 3.34375 -0.664062 3.703125 -0.839844 4 -1.183594 C 4.292969 -1.53125 4.441406 -2.058594 4.441406 -2.765625 C 4.441406 -3.546875 4.292969 -4.121094 3.992188 -4.484375 C 3.691406 -4.851562 3.320312 -5.03125 2.878906 -5.03125 C 2.449219 -5.03125 2.089844 -4.855469 1.800781 -4.507812 C 1.515625 -4.15625 1.371094 -3.601562 1.371094 -2.847656 Z M 1.371094 -2.847656 "/>
</g>
<g id="glyph-1-2">
<path d="M 4.628906 -1.835938 L 5.628906 -1.714844 C 5.472656 -1.128906 5.179688 -0.675781 4.753906 -0.355469 C 4.328125 -0.03125 3.78125 0.128906 3.121094 0.128906 C 2.285156 0.128906 1.625 -0.128906 1.136719 -0.640625 C 0.648438 -1.15625 0.402344 -1.875 0.402344 -2.804688 C 0.402344 -3.761719 0.648438 -4.507812 1.144531 -5.039062 C 1.636719 -5.566406 2.277344 -5.832031 3.066406 -5.832031 C 3.828125 -5.832031 4.453125 -5.574219 4.9375 -5.054688 C 5.417969 -4.535156 5.660156 -3.804688 5.660156 -2.863281 C 5.660156 -2.804688 5.660156 -2.71875 5.65625 -2.605469 L 1.402344 -2.605469 C 1.4375 -1.976562 1.613281 -1.5 1.933594 -1.164062 C 2.253906 -0.832031 2.648438 -0.664062 3.125 -0.664062 C 3.480469 -0.664062 3.78125 -0.757812 4.035156 -0.945312 C 4.285156 -1.132812 4.484375 -1.429688 4.628906 -1.835938 M 1.457031 -3.398438 L 4.640625 -3.398438 C 4.597656 -3.878906 4.476562 -4.238281 4.273438 -4.480469 C 3.96875 -4.851562 3.566406 -5.039062 3.078125 -5.039062 C 2.632812 -5.039062 2.261719 -4.890625 1.957031 -4.59375 C 1.65625 -4.296875 1.488281 -3.898438 1.457031 -3.398438 Z M 1.457031 -3.398438 "/>
</g>
<g id="glyph-1-3">
<path d="M 4.445312 -0.703125 C 4.089844 -0.398438 3.746094 -0.183594 3.414062 -0.0585938 C 3.082031 0.0664062 2.726562 0.128906 2.347656 0.128906 C 1.71875 0.128906 1.238281 -0.0234375 0.902344 -0.332031 C 0.566406 -0.636719 0.398438 -1.027344 0.398438 -1.503906 C 0.398438 -1.78125 0.460938 -2.039062 0.589844 -2.269531 C 0.714844 -2.5 0.882812 -2.6875 1.085938 -2.824219 C 1.292969 -2.964844 1.523438 -3.070312 1.78125 -3.140625 C 1.972656 -3.191406 2.257812 -3.242188 2.640625 -3.289062 C 3.421875 -3.378906 3.996094 -3.492188 4.367188 -3.621094 C 4.371094 -3.753906 4.371094 -3.835938 4.371094 -3.871094 C 4.371094 -4.265625 4.28125 -4.542969 4.097656 -4.703125 C 3.851562 -4.921875 3.484375 -5.03125 2.996094 -5.03125 C 2.542969 -5.03125 2.207031 -4.953125 1.988281 -4.792969 C 1.773438 -4.632812 1.613281 -4.351562 1.507812 -3.949219 L 0.5625 -4.078125 C 0.648438 -4.480469 0.792969 -4.808594 0.988281 -5.058594 C 1.183594 -5.304688 1.46875 -5.496094 1.84375 -5.632812 C 2.214844 -5.765625 2.644531 -5.832031 3.136719 -5.832031 C 3.625 -5.832031 4.019531 -5.777344 4.324219 -5.660156 C 4.628906 -5.546875 4.851562 -5.402344 4.996094 -5.230469 C 5.136719 -5.054688 5.238281 -4.835938 5.296875 -4.570312 C 5.328125 -4.40625 5.34375 -4.109375 5.34375 -3.679688 L 5.34375 -2.390625 C 5.34375 -1.492188 5.363281 -0.921875 5.40625 -0.683594 C 5.445312 -0.445312 5.527344 -0.21875 5.648438 0 L 4.640625 0 C 4.539062 -0.199219 4.476562 -0.433594 4.445312 -0.703125 M 4.367188 -2.863281 C 4.015625 -2.71875 3.488281 -2.597656 2.789062 -2.496094 C 2.390625 -2.441406 2.109375 -2.375 1.945312 -2.304688 C 1.78125 -2.234375 1.652344 -2.128906 1.5625 -1.988281 C 1.472656 -1.851562 1.429688 -1.699219 1.429688 -1.53125 C 1.429688 -1.273438 1.527344 -1.058594 1.722656 -0.886719 C 1.917969 -0.714844 2.203125 -0.628906 2.578125 -0.628906 C 2.949219 -0.628906 3.28125 -0.710938 3.570312 -0.871094 C 3.863281 -1.035156 4.074219 -1.257812 4.210938 -1.542969 C 4.316406 -1.761719 4.367188 -2.082031 4.367188 -2.507812 Z M 4.367188 -2.863281 "/>
</g>
<g id="glyph-1-4">
<path d="M 0.703125 0 L 0.703125 -7.875 L 1.671875 -7.875 L 1.671875 0 Z M 0.703125 0 "/>
</g>
<g id="glyph-1-5">
</g>
<g id="glyph-1-6">
<path d="M 0.726562 2.1875 L 0.726562 -5.703125 L 1.605469 -5.703125 L 1.605469 -4.960938 C 1.8125 -5.253906 2.046875 -5.46875 2.308594 -5.617188 C 2.570312 -5.761719 2.886719 -5.832031 3.261719 -5.832031 C 3.746094 -5.832031 4.175781 -5.707031 4.550781 -5.457031 C 4.921875 -5.207031 5.203125 -4.851562 5.390625 -4.394531 C 5.582031 -3.941406 5.675781 -3.4375 5.675781 -2.894531 C 5.675781 -2.3125 5.574219 -1.785156 5.363281 -1.320312 C 5.152344 -0.851562 4.847656 -0.492188 4.449219 -0.246094 C 4.050781 0.00390625 3.632812 0.128906 3.191406 0.128906 C 2.867188 0.128906 2.578125 0.0625 2.324219 -0.0742188 C 2.066406 -0.210938 1.855469 -0.382812 1.691406 -0.589844 L 1.691406 2.1875 L 0.726562 2.1875 M 1.601562 -2.820312 C 1.601562 -2.085938 1.75 -1.542969 2.046875 -1.191406 C 2.34375 -0.839844 2.703125 -0.664062 3.125 -0.664062 C 3.554688 -0.664062 3.921875 -0.847656 4.230469 -1.210938 C 4.535156 -1.574219 4.6875 -2.136719 4.6875 -2.898438 C 4.6875 -3.628906 4.539062 -4.171875 4.242188 -4.53125 C 3.941406 -4.894531 3.585938 -5.074219 3.167969 -5.074219 C 2.757812 -5.074219 2.394531 -4.882812 2.074219 -4.5 C 1.757812 -4.113281 1.601562 -3.554688 1.601562 -2.820312 Z M 1.601562 -2.820312 "/>
</g>
<g id="glyph-1-7">
<path d="M 0.714844 0 L 0.714844 -5.703125 L 1.585938 -5.703125 L 1.585938 -4.839844 C 1.804688 -5.242188 2.011719 -5.511719 2.199219 -5.640625 C 2.386719 -5.769531 2.59375 -5.832031 2.820312 -5.832031 C 3.144531 -5.832031 3.476562 -5.730469 3.8125 -5.523438 L 3.480469 -4.625 C 3.242188 -4.765625 3.007812 -4.832031 2.773438 -4.835938 C 2.558594 -4.832031 2.371094 -4.769531 2.203125 -4.644531 C 2.035156 -4.515625 1.914062 -4.339844 1.84375 -4.113281 C 1.734375 -3.769531 1.679688 -3.394531 1.679688 -2.984375 L 1.679688 0 Z M 0.714844 0 "/>
</g>
<g id="glyph-1-8">
<path d="M 2.835938 -0.863281 L 2.976562 -0.0117188 C 2.703125 0.046875 2.460938 0.0742188 2.246094 0.0742188 C 1.894531 0.0742188 1.621094 0.0195312 1.429688 -0.0898438 C 1.234375 -0.203125 1.097656 -0.347656 1.019531 -0.527344 C 0.941406 -0.710938 0.902344 -1.089844 0.902344 -1.671875 L 0.902344 -4.953125 L 0.195312 -4.953125 L 0.195312 -5.703125 L 0.902344 -5.703125 L 0.902344 -7.117188 L 1.863281 -7.695312 L 1.863281 -5.703125 L 2.835938 -5.703125 L 2.835938 -4.953125 L 1.863281 -4.953125 L 1.863281 -1.617188 C 1.863281 -1.339844 1.878906 -1.164062 1.914062 -1.085938 C 1.949219 -1.007812 2.003906 -0.945312 2.082031 -0.898438 C 2.160156 -0.851562 2.269531 -0.828125 2.410156 -0.828125 C 2.519531 -0.828125 2.660156 -0.839844 2.835938 -0.863281 Z M 2.835938 -0.863281 "/>
</g>
<g id="glyph-1-9">
<path d="M 0.726562 0 L 0.726562 -5.703125 L 1.59375 -5.703125 L 1.59375 -4.894531 C 2.015625 -5.519531 2.621094 -5.832031 3.410156 -5.832031 C 3.753906 -5.832031 4.070312 -5.769531 4.359375 -5.648438 C 4.648438 -5.523438 4.863281 -5.363281 5.007812 -5.160156 C 5.148438 -4.960938 5.25 -4.722656 5.304688 -4.445312 C 5.34375 -4.269531 5.359375 -3.953125 5.359375 -3.507812 L 5.359375 0 L 4.394531 0 L 4.394531 -3.46875 C 4.394531 -3.863281 4.355469 -4.15625 4.28125 -4.351562 C 4.207031 -4.546875 4.070312 -4.703125 3.878906 -4.820312 C 3.6875 -4.9375 3.464844 -4.996094 3.207031 -4.996094 C 2.792969 -4.996094 2.4375 -4.863281 2.140625 -4.601562 C 1.839844 -4.339844 1.691406 -3.84375 1.691406 -3.117188 L 1.691406 0 Z M 0.726562 0 "/>
</g>
<g id="glyph-1-10">
<path d="M 0.339844 -1.703125 L 1.292969 -1.851562 C 1.347656 -1.46875 1.496094 -1.175781 1.742188 -0.972656 C 1.988281 -0.769531 2.332031 -0.664062 2.773438 -0.664062 C 3.214844 -0.664062 3.546875 -0.757812 3.757812 -0.9375 C 3.976562 -1.117188 4.082031 -1.332031 4.082031 -1.574219 C 4.082031 -1.792969 3.988281 -1.964844 3.796875 -2.089844 C 3.664062 -2.175781 3.335938 -2.285156 2.808594 -2.417969 C 2.101562 -2.597656 1.609375 -2.75 1.335938 -2.882812 C 1.0625 -3.011719 0.851562 -3.191406 0.710938 -3.425781 C 0.570312 -3.65625 0.5 -3.910156 0.5 -4.1875 C 0.5 -4.445312 0.558594 -4.679688 0.675781 -4.894531 C 0.789062 -5.113281 0.949219 -5.292969 1.148438 -5.4375 C 1.300781 -5.546875 1.503906 -5.640625 1.765625 -5.71875 C 2.023438 -5.792969 2.300781 -5.832031 2.601562 -5.832031 C 3.046875 -5.832031 3.441406 -5.769531 3.777344 -5.640625 C 4.117188 -5.511719 4.367188 -5.335938 4.527344 -5.117188 C 4.6875 -4.894531 4.800781 -4.601562 4.859375 -4.234375 L 3.914062 -4.101562 C 3.871094 -4.398438 3.75 -4.625 3.542969 -4.789062 C 3.335938 -4.957031 3.046875 -5.039062 2.667969 -5.039062 C 2.226562 -5.039062 1.910156 -4.964844 1.71875 -4.816406 C 1.527344 -4.671875 1.433594 -4.5 1.433594 -4.300781 C 1.433594 -4.175781 1.472656 -4.0625 1.550781 -3.964844 C 1.632812 -3.859375 1.753906 -3.773438 1.921875 -3.707031 C 2.019531 -3.671875 2.304688 -3.585938 2.777344 -3.460938 C 3.460938 -3.277344 3.9375 -3.125 4.207031 -3.011719 C 4.480469 -2.894531 4.691406 -2.726562 4.84375 -2.503906 C 5 -2.28125 5.074219 -2.003906 5.074219 -1.675781 C 5.074219 -1.351562 4.980469 -1.050781 4.792969 -0.765625 C 4.605469 -0.480469 4.335938 -0.261719 3.980469 -0.105469 C 3.625 0.0507812 3.222656 0.128906 2.777344 0.128906 C 2.035156 0.128906 1.472656 -0.0234375 1.082031 -0.332031 C 0.695312 -0.640625 0.445312 -1.097656 0.339844 -1.703125 Z M 0.339844 -1.703125 "/>
</g>
<g id="glyph-1-11">
<path d="M 0.957031 0 L 0.957031 -4.953125 L 0.101562 -4.953125 L 0.101562 -5.703125 L 0.957031 -5.703125 L 0.957031 -6.3125 C 0.957031 -6.695312 0.988281 -6.980469 1.058594 -7.164062 C 1.152344 -7.414062 1.316406 -7.617188 1.550781 -7.773438 C 1.785156 -7.929688 2.113281 -8.007812 2.535156 -8.007812 C 2.808594 -8.007812 3.109375 -7.976562 3.4375 -7.910156 L 3.292969 -7.070312 C 3.09375 -7.105469 2.902344 -7.121094 2.722656 -7.121094 C 2.429688 -7.121094 2.222656 -7.058594 2.101562 -6.933594 C 1.976562 -6.808594 1.917969 -6.574219 1.917969 -6.230469 L 1.917969 -5.703125 L 3.03125 -5.703125 L 3.03125 -4.953125 L 1.917969 -4.953125 L 1.917969 0 Z M 0.957031 0 "/>
</g>
<g id="glyph-1-12">
<path d="M 4.445312 -2.089844 L 5.398438 -1.964844 C 5.292969 -1.3125 5.027344 -0.796875 4.601562 -0.425781 C 4.171875 -0.0546875 3.648438 0.128906 3.023438 0.128906 C 2.242188 0.128906 1.617188 -0.125 1.140625 -0.636719 C 0.667969 -1.148438 0.429688 -1.878906 0.429688 -2.832031 C 0.429688 -3.445312 0.53125 -3.984375 0.734375 -4.445312 C 0.941406 -4.910156 1.25 -5.253906 1.667969 -5.488281 C 2.085938 -5.71875 2.539062 -5.832031 3.03125 -5.832031 C 3.648438 -5.832031 4.15625 -5.675781 4.550781 -5.363281 C 4.941406 -5.050781 5.195312 -4.605469 5.304688 -4.027344 L 4.367188 -3.882812 C 4.277344 -4.265625 4.117188 -4.554688 3.890625 -4.75 C 3.664062 -4.941406 3.390625 -5.039062 3.066406 -5.039062 C 2.578125 -5.039062 2.183594 -4.863281 1.878906 -4.515625 C 1.574219 -4.164062 1.421875 -3.613281 1.421875 -2.859375 C 1.421875 -2.089844 1.570312 -1.535156 1.863281 -1.1875 C 2.15625 -0.839844 2.539062 -0.664062 3.011719 -0.664062 C 3.394531 -0.664062 3.710938 -0.78125 3.964844 -1.015625 C 4.21875 -1.246094 4.378906 -1.605469 4.445312 -2.089844 Z M 4.445312 -2.089844 "/>
</g>
<g id="glyph-1-13">
<path d="M 0.730469 -6.761719 L 0.730469 -7.875 L 1.695312 -7.875 L 1.695312 -6.761719 L 0.730469 -6.761719 M 0.730469 0 L 0.730469 -5.703125 L 1.695312 -5.703125 L 1.695312 0 Z M 0.730469 0 "/>
</g>
<g id="glyph-1-14">
<path d="M 0.683594 2.195312 L 0.574219 1.289062 C 0.785156 1.347656 0.96875 1.375 1.128906 1.375 C 1.34375 1.375 1.515625 1.339844 1.644531 1.265625 C 1.773438 1.195312 1.878906 1.09375 1.960938 0.96875 C 2.019531 0.871094 2.121094 0.628906 2.257812 0.246094 C 2.273438 0.195312 2.300781 0.113281 2.34375 0.0117188 L 0.175781 -5.703125 L 1.21875 -5.703125 L 2.40625 -2.402344 C 2.558594 -1.980469 2.699219 -1.542969 2.820312 -1.078125 C 2.929688 -1.523438 3.0625 -1.957031 3.21875 -2.378906 L 4.4375 -5.703125 L 5.402344 -5.703125 L 3.234375 0.0976562 C 3 0.722656 2.820312 1.15625 2.691406 1.390625 C 2.519531 1.710938 2.320312 1.945312 2.101562 2.09375 C 1.878906 2.242188 1.613281 2.316406 1.304688 2.316406 C 1.117188 2.316406 0.910156 2.277344 0.683594 2.195312 Z M 0.683594 2.195312 "/>
</g>
<g id="glyph-1-15">
<path d="M 0.367188 -2.851562 C 0.367188 -3.910156 0.660156 -4.691406 1.246094 -5.199219 C 1.738281 -5.621094 2.335938 -5.832031 3.039062 -5.832031 C 3.824219 -5.832031 4.464844 -5.574219 4.960938 -5.0625 C 5.460938 -4.546875 5.710938 -3.839844 5.710938 -2.933594 C 5.710938 -2.199219 5.597656 -1.621094 5.378906 -1.199219 C 5.160156 -0.78125 4.839844 -0.453125 4.417969 -0.21875 C 3.996094 0.0117188 3.539062 0.128906 3.039062 0.128906 C 2.242188 0.128906 1.597656 -0.128906 1.105469 -0.640625 C 0.613281 -1.152344 0.367188 -1.890625 0.367188 -2.851562 M 1.359375 -2.851562 C 1.359375 -2.121094 1.519531 -1.574219 1.835938 -1.210938 C 2.15625 -0.847656 2.554688 -0.664062 3.039062 -0.664062 C 3.519531 -0.664062 3.917969 -0.847656 4.238281 -1.214844 C 4.554688 -1.578125 4.714844 -2.136719 4.714844 -2.882812 C 4.714844 -3.589844 4.554688 -4.125 4.234375 -4.488281 C 3.914062 -4.851562 3.515625 -5.03125 3.039062 -5.03125 C 2.554688 -5.03125 2.15625 -4.851562 1.835938 -4.492188 C 1.519531 -4.128906 1.359375 -3.582031 1.359375 -2.851562 Z M 1.359375 -2.851562 "/>
</g>
<g id="glyph-2-0">
<path d="M 0.59375 -3.035156 L 1.773438 -3.140625 C 1.828125 -2.667969 1.957031 -2.277344 2.164062 -1.976562 C 2.367188 -1.671875 2.683594 -1.425781 3.113281 -1.242188 C 3.542969 -1.054688 4.027344 -0.960938 4.5625 -0.960938 C 5.039062 -0.960938 5.460938 -1.03125 5.828125 -1.171875 C 6.191406 -1.316406 6.464844 -1.507812 6.640625 -1.757812 C 6.820312 -2.003906 6.910156 -2.273438 6.910156 -2.566406 C 6.910156 -2.863281 6.824219 -3.121094 6.652344 -3.34375 C 6.480469 -3.5625 6.195312 -3.75 5.800781 -3.898438 C 5.546875 -4 4.988281 -4.152344 4.117188 -4.359375 C 3.25 -4.570312 2.640625 -4.765625 2.292969 -4.949219 C 1.84375 -5.1875 1.507812 -5.480469 1.285156 -5.828125 C 1.066406 -6.179688 0.953125 -6.570312 0.953125 -7.007812 C 0.953125 -7.484375 1.089844 -7.929688 1.359375 -8.34375 C 1.628906 -8.757812 2.027344 -9.074219 2.546875 -9.289062 C 3.066406 -9.503906 3.644531 -9.609375 4.28125 -9.609375 C 4.980469 -9.609375 5.597656 -9.496094 6.132812 -9.273438 C 6.667969 -9.046875 7.078125 -8.714844 7.367188 -8.277344 C 7.65625 -7.835938 7.808594 -7.339844 7.832031 -6.785156 L 6.632812 -6.695312 C 6.566406 -7.292969 6.351562 -7.746094 5.976562 -8.050781 C 5.605469 -8.355469 5.058594 -8.507812 4.332031 -8.507812 C 3.574219 -8.507812 3.023438 -8.371094 2.679688 -8.09375 C 2.332031 -7.816406 2.160156 -7.480469 2.160156 -7.089844 C 2.160156 -6.75 2.28125 -6.472656 2.527344 -6.25 C 2.765625 -6.03125 3.394531 -5.808594 4.410156 -5.578125 C 5.429688 -5.347656 6.125 -5.148438 6.503906 -4.976562 C 7.054688 -4.722656 7.460938 -4.402344 7.722656 -4.011719 C 7.984375 -3.625 8.113281 -3.175781 8.113281 -2.667969 C 8.113281 -2.164062 7.96875 -1.691406 7.683594 -1.246094 C 7.394531 -0.800781 6.980469 -0.457031 6.441406 -0.210938 C 5.902344 0.0390625 5.296875 0.160156 4.621094 0.160156 C 3.765625 0.160156 3.050781 0.0351562 2.472656 -0.210938 C 1.894531 -0.460938 1.441406 -0.835938 1.113281 -1.335938 C 0.78125 -1.839844 0.609375 -2.402344 0.59375 -3.035156 Z M 0.59375 -3.035156 "/>
</g>
<g id="glyph-2-1">
<path d="M 5.335938 -0.84375 C 4.90625 -0.480469 4.492188 -0.222656 4.097656 -0.0703125 C 3.699219 0.078125 3.273438 0.15625 2.816406 0.15625 C 2.066406 0.15625 1.488281 -0.0273438 1.082031 -0.394531 C 0.679688 -0.765625 0.476562 -1.234375 0.476562 -1.804688 C 0.476562 -2.140625 0.554688 -2.445312 0.707031 -2.722656 C 0.859375 -3 1.058594 -3.222656 1.304688 -3.390625 C 1.550781 -3.558594 1.832031 -3.683594 2.140625 -3.769531 C 2.367188 -3.832031 2.710938 -3.886719 3.171875 -3.945312 C 4.109375 -4.054688 4.796875 -4.1875 5.238281 -4.34375 C 5.246094 -4.503906 5.246094 -4.605469 5.246094 -4.648438 C 5.246094 -5.121094 5.136719 -5.453125 4.917969 -5.644531 C 4.621094 -5.90625 4.179688 -6.039062 3.597656 -6.039062 C 3.050781 -6.039062 2.648438 -5.945312 2.386719 -5.753906 C 2.128906 -5.5625 1.9375 -5.222656 1.8125 -4.738281 L 0.675781 -4.890625 C 0.78125 -5.378906 0.949219 -5.769531 1.1875 -6.066406 C 1.421875 -6.367188 1.765625 -6.597656 2.210938 -6.757812 C 2.65625 -6.917969 3.175781 -7 3.765625 -7 C 4.347656 -7 4.824219 -6.929688 5.1875 -6.792969 C 5.554688 -6.65625 5.820312 -6.484375 5.992188 -6.273438 C 6.164062 -6.066406 6.285156 -5.804688 6.355469 -5.484375 C 6.394531 -5.289062 6.414062 -4.929688 6.414062 -4.414062 L 6.414062 -2.867188 C 6.414062 -1.789062 6.4375 -1.109375 6.488281 -0.820312 C 6.535156 -0.535156 6.632812 -0.261719 6.78125 0 L 5.570312 0 C 5.449219 -0.242188 5.371094 -0.523438 5.335938 -0.84375 M 5.238281 -3.433594 C 4.820312 -3.261719 4.1875 -3.117188 3.34375 -2.996094 C 2.867188 -2.929688 2.53125 -2.851562 2.332031 -2.765625 C 2.136719 -2.679688 1.984375 -2.554688 1.875 -2.386719 C 1.769531 -2.222656 1.714844 -2.039062 1.714844 -1.835938 C 1.714844 -1.527344 1.832031 -1.269531 2.066406 -1.0625 C 2.300781 -0.855469 2.640625 -0.753906 3.09375 -0.753906 C 3.539062 -0.753906 3.9375 -0.851562 4.285156 -1.046875 C 4.632812 -1.242188 4.890625 -1.511719 5.054688 -1.851562 C 5.175781 -2.113281 5.238281 -2.5 5.238281 -3.011719 Z M 5.238281 -3.433594 "/>
</g>
<g id="glyph-2-2">
<path d="M 0.871094 0 L 0.871094 -6.84375 L 1.914062 -6.84375 L 1.914062 -5.871094 C 2.417969 -6.625 3.144531 -7 4.09375 -7 C 4.503906 -7 4.882812 -6.925781 5.230469 -6.777344 C 5.578125 -6.628906 5.835938 -6.433594 6.007812 -6.195312 C 6.179688 -5.953125 6.300781 -5.667969 6.367188 -5.335938 C 6.410156 -5.121094 6.433594 -4.746094 6.433594 -4.207031 L 6.433594 0 L 5.273438 0 L 5.273438 -4.164062 C 5.273438 -4.636719 5.226562 -4.988281 5.136719 -5.222656 C 5.046875 -5.457031 4.886719 -5.644531 4.65625 -5.785156 C 4.425781 -5.925781 4.15625 -5.992188 3.847656 -5.992188 C 3.355469 -5.992188 2.925781 -5.835938 2.570312 -5.523438 C 2.210938 -5.210938 2.03125 -4.613281 2.03125 -3.738281 L 2.03125 0 Z M 0.871094 0 "/>
</g>
<g id="glyph-2-3">
<path d="M 0.875 0 L 0.875 -9.449219 L 2.035156 -9.449219 L 2.035156 -4.0625 L 4.78125 -6.84375 L 6.285156 -6.84375 L 3.667969 -4.304688 L 6.546875 0 L 5.117188 0 L 2.855469 -3.5 L 2.035156 -2.714844 L 2.035156 0 Z M 0.875 0 "/>
</g>
<g id="glyph-2-4">
<path d="M 5.554688 -2.203125 L 6.753906 -2.054688 C 6.566406 -1.355469 6.214844 -0.8125 5.703125 -0.425781 C 5.191406 -0.0390625 4.539062 0.15625 3.746094 0.15625 C 2.742188 0.15625 1.949219 -0.152344 1.363281 -0.769531 C 0.777344 -1.386719 0.484375 -2.25 0.484375 -3.363281 C 0.484375 -4.515625 0.78125 -5.410156 1.371094 -6.046875 C 1.964844 -6.679688 2.734375 -7 3.679688 -7 C 4.59375 -7 5.34375 -6.6875 5.921875 -6.066406 C 6.503906 -5.441406 6.792969 -4.566406 6.792969 -3.433594 C 6.792969 -3.367188 6.792969 -3.261719 6.785156 -3.125 L 1.683594 -3.125 C 1.726562 -2.375 1.9375 -1.796875 2.320312 -1.398438 C 2.703125 -1 3.179688 -0.800781 3.75 -0.800781 C 4.175781 -0.800781 4.539062 -0.910156 4.839844 -1.132812 C 5.140625 -1.359375 5.378906 -1.714844 5.554688 -2.203125 M 1.746094 -4.078125 L 5.570312 -4.078125 C 5.515625 -4.65625 5.371094 -5.085938 5.128906 -5.375 C 4.761719 -5.820312 4.28125 -6.046875 3.691406 -6.046875 C 3.160156 -6.046875 2.710938 -5.867188 2.347656 -5.511719 C 1.984375 -5.152344 1.785156 -4.675781 1.746094 -4.078125 Z M 1.746094 -4.078125 "/>
</g>
<g id="glyph-2-5">
<path d="M 0.820312 2.636719 L 0.691406 1.546875 C 0.941406 1.617188 1.164062 1.648438 1.351562 1.648438 C 1.609375 1.648438 1.816406 1.605469 1.972656 1.519531 C 2.125 1.433594 2.253906 1.316406 2.351562 1.160156 C 2.425781 1.042969 2.542969 0.757812 2.707031 0.296875 C 2.726562 0.230469 2.761719 0.136719 2.808594 0.0117188 L 0.210938 -6.84375 L 1.464844 -6.84375 L 2.886719 -2.882812 C 3.070312 -2.378906 3.238281 -1.851562 3.382812 -1.296875 C 3.515625 -1.828125 3.675781 -2.347656 3.859375 -2.855469 L 5.324219 -6.84375 L 6.484375 -6.84375 L 3.878906 0.117188 C 3.601562 0.867188 3.382812 1.386719 3.230469 1.667969 C 3.023438 2.050781 2.785156 2.332031 2.519531 2.511719 C 2.253906 2.6875 1.9375 2.777344 1.566406 2.777344 C 1.34375 2.777344 1.09375 2.730469 0.820312 2.636719 Z M 0.820312 2.636719 "/>
</g>
</g>
</defs>
<rect x="-56.1" y="-38.8" width="673.2" height="465.6" fill="rgb(100%, 100%, 100%)" fill-opacity="1"/>
<path fill-rule="nonzero" fill="rgb(78.823529%, 42.352941%, 35.686275%)" fill-opacity="0.780392" d="M 125.953125 83.667969 L 129.867188 83.714844 L 133.78125 83.855469 L 137.691406 84.085938 L 141.605469 84.402344 L 145.515625 84.804688 L 149.429688 85.289062 L 153.34375 85.855469 L 157.253906 86.5 L 161.167969 87.21875 L 165.078125 88.011719 L 168.992188 88.875 L 172.90625 89.808594 L 176.816406 90.804688 L 180.730469 91.867188 L 184.644531 92.988281 L 188.554688 94.171875 L 192.46875 95.410156 L 196.378906 96.699219 L 200.292969 98.042969 L 204.207031 99.4375 L 208.117188 100.878906 L 212.03125 102.363281 L 215.941406 103.886719 L 219.855469 105.453125 L 223.769531 107.058594 L 227.679688 108.695312 L 231.59375 110.363281 L 235.503906 112.066406 L 239.417969 113.792969 L 243.332031 115.546875 L 247.242188 117.324219 L 251.15625 119.117188 L 255.070312 120.933594 L 258.980469 122.761719 L 262.894531 124.605469 L 266.804688 126.460938 L 270.71875 128.324219 L 274.632812 130.191406 L 278.542969 132.0625 L 282.457031 133.9375 L 286.367188 135.808594 L 290.28125 137.675781 L 294.195312 139.539062 L 298.105469 141.394531 L 302.019531 143.238281 L 305.929688 145.066406 L 309.84375 146.878906 L 313.757812 148.675781 L 317.667969 150.453125 L 321.582031 152.207031 L 325.496094 153.933594 L 329.40625 155.632812 L 333.320312 157.304688 L 337.230469 158.941406 L 341.144531 160.546875 L 345.058594 162.113281 L 348.96875 163.636719 L 352.882812 165.121094 L 356.792969 166.5625 L 360.707031 167.953125 L 364.621094 169.296875 L 368.53125 170.589844 L 372.445312 171.828125 L 376.355469 173.011719 L 380.269531 174.132812 L 384.183594 175.195312 L 388.09375 176.191406 L 392.007812 177.125 L 395.921875 177.988281 L 399.832031 178.78125 L 403.746094 179.5 L 407.65625 180.144531 L 411.570312 180.710938 L 415.484375 181.195312 L 419.394531 181.597656 L 423.308594 181.914062 L 427.21875 182.144531 L 431.132812 182.28125 L 435.046875 182.332031 L 435.046875 220.277344 L 431.132812 220.230469 L 427.21875 220.089844 L 423.308594 219.859375 L 419.394531 219.542969 L 415.484375 219.140625 L 411.570312 218.65625 L 407.65625 218.089844 L 403.746094 217.445312 L 399.832031 216.726562 L 395.921875 215.933594 L 392.007812 215.070312 L 388.09375 214.140625 L 384.183594 213.140625 L 380.269531 212.078125 L 376.355469 210.957031 L 372.445312 209.773438 L 368.53125 208.535156 L 364.621094 207.246094 L 360.707031 205.902344 L 356.792969 204.507812 L 352.882812 203.070312 L 348.96875 201.585938 L 345.058594 200.058594 L 341.144531 198.492188 L 337.230469 196.890625 L 333.320312 195.25 L 329.40625 193.582031 L 325.496094 191.878906 L 321.582031 190.152344 L 317.667969 188.398438 L 313.757812 186.625 L 309.84375 184.828125 L 305.929688 183.011719 L 302.019531 181.183594 L 298.105469 179.339844 L 294.195312 177.484375 L 290.28125 175.625 L 286.367188 173.753906 L 282.457031 171.882812 L 278.542969 170.007812 L 274.632812 168.136719 L 270.71875 166.269531 L 266.804688 164.40625 L 262.894531 162.554688 L 258.980469 160.710938 L 255.070312 158.878906 L 251.15625 157.066406 L 247.242188 155.269531 L 243.332031 153.492188 L 239.417969 151.738281 L 235.503906 150.011719 L 231.59375 148.3125 L 227.679688 146.640625 L 223.769531 145.003906 L 219.855469 143.398438 L 215.941406 141.835938 L 212.03125 140.308594 L 208.117188 138.824219 L 204.207031 137.382812 L 200.292969 135.992188 L 196.378906 134.648438 L 192.46875 133.355469 L 188.554688 132.117188 L 184.644531 130.9375 L 180.730469 129.8125 L 176.816406 128.75 L 172.90625 127.753906 L 168.992188 126.820312 L 165.078125 125.957031 L 161.167969 125.164062 L 157.253906 124.445312 L 153.34375 123.800781 L 149.429688 123.238281 L 145.515625 122.75 L 141.605469 122.347656 L 137.691406 122.03125 L 133.78125 121.800781 L 129.867188 121.664062 L 125.953125 121.617188 Z M 125.953125 83.667969 "/>
<path fill-rule="nonzero" fill="rgb(72.156863%, 50.980392%, 15.686275%)" fill-opacity="0.780392" d="M 125.953125 235.457031 L 129.867188 235.417969 L 133.78125 235.3125 L 137.691406 235.136719 L 141.605469 234.890625 L 145.515625 234.582031 L 149.429688 234.207031 L 153.34375 233.773438 L 157.253906 233.277344 L 161.167969 232.726562 L 165.078125 232.113281 L 168.992188 231.449219 L 172.90625 230.734375 L 176.816406 229.964844 L 180.730469 229.148438 L 184.644531 228.285156 L 188.554688 227.378906 L 192.46875 226.425781 L 196.378906 225.429688 L 200.292969 224.398438 L 204.207031 223.324219 L 208.117188 222.21875 L 212.03125 221.078125 L 215.941406 219.902344 L 219.855469 218.699219 L 223.769531 217.464844 L 227.679688 216.203125 L 231.59375 214.921875 L 235.503906 213.613281 L 239.417969 212.28125 L 243.332031 210.933594 L 247.242188 209.566406 L 251.15625 208.1875 L 255.070312 206.789062 L 258.980469 205.382812 L 262.894531 203.964844 L 266.804688 202.539062 L 270.71875 201.105469 L 274.632812 199.667969 L 278.542969 198.230469 L 282.457031 196.789062 L 286.367188 195.347656 L 290.28125 193.910156 L 294.195312 192.476562 L 298.105469 191.050781 L 302.019531 189.632812 L 305.929688 188.226562 L 309.84375 186.832031 L 313.757812 185.449219 L 317.667969 184.082031 L 321.582031 182.734375 L 325.496094 181.40625 L 329.40625 180.097656 L 333.320312 178.8125 L 337.230469 177.550781 L 341.144531 176.320312 L 345.058594 175.113281 L 348.96875 173.941406 L 352.882812 172.800781 L 356.792969 171.691406 L 360.707031 170.621094 L 364.621094 169.585938 L 368.53125 168.59375 L 372.445312 167.640625 L 376.355469 166.730469 L 380.269531 165.867188 L 384.183594 165.050781 L 388.09375 164.285156 L 392.007812 163.566406 L 395.921875 162.902344 L 399.832031 162.292969 L 403.746094 161.738281 L 407.65625 161.246094 L 411.570312 160.808594 L 415.484375 160.4375 L 419.394531 160.125 L 423.308594 159.882812 L 427.21875 159.707031 L 431.132812 159.597656 L 435.046875 159.5625 L 435.046875 182.332031 L 431.132812 182.367188 L 427.21875 182.472656 L 423.308594 182.648438 L 419.394531 182.894531 L 415.484375 183.203125 L 411.570312 183.578125 L 407.65625 184.011719 L 403.746094 184.507812 L 399.832031 185.0625 L 395.921875 185.671875 L 392.007812 186.335938 L 388.09375 187.050781 L 384.183594 187.820312 L 380.269531 188.636719 L 376.355469 189.5 L 372.445312 190.410156 L 368.53125 191.359375 L 364.621094 192.355469 L 360.707031 193.386719 L 356.792969 194.460938 L 352.882812 195.566406 L 348.96875 196.707031 L 345.058594 197.882812 L 341.144531 199.085938 L 337.230469 200.320312 L 333.320312 201.582031 L 329.40625 202.867188 L 325.496094 204.171875 L 321.582031 205.503906 L 317.667969 206.851562 L 313.757812 208.21875 L 309.84375 209.597656 L 305.929688 210.996094 L 302.019531 212.402344 L 298.105469 213.820312 L 294.195312 215.246094 L 290.28125 216.679688 L 286.367188 218.117188 L 282.457031 219.554688 L 278.542969 220.996094 L 274.632812 222.4375 L 270.71875 223.875 L 266.804688 225.308594 L 262.894531 226.734375 L 258.980469 228.152344 L 255.070312 229.558594 L 251.15625 230.953125 L 247.242188 232.335938 L 243.332031 233.703125 L 239.417969 235.050781 L 235.503906 236.378906 L 231.59375 237.6875 L 227.679688 238.972656 L 223.769531 240.234375 L 219.855469 241.464844 L 215.941406 242.671875 L 212.03125 243.84375 L 208.117188 244.984375 L 204.207031 246.09375 L 200.292969 247.164062 L 196.378906 248.199219 L 192.46875 249.191406 L 188.554688 250.144531 L 184.644531 251.054688 L 180.730469 251.917969 L 176.816406 252.734375 L 172.90625 253.5 L 168.992188 254.21875 L 165.078125 254.882812 L 161.167969 255.492188 L 157.253906 256.046875 L 153.34375 256.542969 L 149.429688 256.976562 L 145.515625 257.347656 L 141.605469 257.660156 L 137.691406 257.902344 L 133.78125 258.078125 L 129.867188 258.1875 L 125.953125 258.222656 Z M 125.953125 235.457031 "/>
<path fill-rule="nonzero" fill="rgb(51.372549%, 57.647059%, 77.647059%)" fill-opacity="0.780392" d="M 125.953125 121.617188 L 129.867188 121.605469 L 133.78125 121.574219 L 137.691406 121.519531 L 141.605469 121.445312 L 145.515625 121.355469 L 149.429688 121.242188 L 153.34375 121.109375 L 157.253906 120.960938 L 161.167969 120.796875 L 165.078125 120.613281 L 168.992188 120.414062 L 172.90625 120.199219 L 176.816406 119.96875 L 180.730469 119.722656 L 184.644531 119.464844 L 188.554688 119.191406 L 192.46875 118.90625 L 196.378906 118.609375 L 200.292969 118.296875 L 204.207031 117.976562 L 208.117188 117.644531 L 212.03125 117.300781 L 215.941406 116.949219 L 219.855469 116.589844 L 223.769531 116.21875 L 227.679688 115.839844 L 231.59375 115.457031 L 235.503906 115.0625 L 239.417969 114.664062 L 243.332031 114.257812 L 247.242188 113.851562 L 255.070312 113.015625 L 258.980469 112.59375 L 262.894531 112.167969 L 266.804688 111.742188 L 270.71875 111.3125 L 274.632812 110.878906 L 278.542969 110.449219 L 282.457031 110.015625 L 286.367188 109.582031 L 294.195312 108.722656 L 298.105469 108.292969 L 302.019531 107.871094 L 305.929688 107.445312 L 309.84375 107.027344 L 313.757812 106.613281 L 317.667969 106.203125 L 321.582031 105.800781 L 325.496094 105.402344 L 329.40625 105.007812 L 333.320312 104.621094 L 337.230469 104.246094 L 341.144531 103.875 L 345.058594 103.515625 L 348.96875 103.160156 L 352.882812 102.820312 L 356.792969 102.488281 L 360.707031 102.164062 L 364.621094 101.855469 L 368.53125 101.558594 L 372.445312 101.269531 L 376.355469 101 L 380.269531 100.738281 L 384.183594 100.496094 L 388.09375 100.265625 L 392.007812 100.050781 L 395.921875 99.851562 L 399.832031 99.667969 L 403.746094 99.5 L 407.65625 99.351562 L 411.570312 99.222656 L 415.484375 99.109375 L 419.394531 99.015625 L 423.308594 98.945312 L 427.21875 98.890625 L 431.132812 98.859375 L 435.046875 98.847656 L 435.046875 159.5625 L 431.132812 159.574219 L 427.21875 159.605469 L 423.308594 159.660156 L 419.394531 159.730469 L 415.484375 159.824219 L 411.570312 159.9375 L 407.65625 160.066406 L 403.746094 160.214844 L 399.832031 160.382812 L 395.921875 160.5625 L 392.007812 160.761719 L 388.09375 160.980469 L 384.183594 161.207031 L 380.269531 161.453125 L 376.355469 161.714844 L 372.445312 161.984375 L 368.53125 162.269531 L 364.621094 162.570312 L 360.707031 162.878906 L 356.792969 163.199219 L 352.882812 163.535156 L 348.96875 163.875 L 345.058594 164.226562 L 341.144531 164.589844 L 337.230469 164.960938 L 333.320312 165.335938 L 329.40625 165.722656 L 325.496094 166.113281 L 317.667969 166.917969 L 313.757812 167.328125 L 309.84375 167.742188 L 305.929688 168.160156 L 302.019531 168.582031 L 298.105469 169.007812 L 294.195312 169.4375 L 286.367188 170.296875 L 282.457031 170.730469 L 278.542969 171.164062 L 274.632812 171.59375 L 270.71875 172.027344 L 266.804688 172.457031 L 262.894531 172.882812 L 258.980469 173.308594 L 255.070312 173.730469 L 251.15625 174.148438 L 247.242188 174.5625 L 243.332031 174.972656 L 239.417969 175.378906 L 235.503906 175.777344 L 231.59375 176.167969 L 227.679688 176.554688 L 223.769531 176.933594 L 219.855469 177.304688 L 215.941406 177.664062 L 212.03125 178.015625 L 208.117188 178.359375 L 204.207031 178.691406 L 200.292969 179.011719 L 196.378906 179.324219 L 192.46875 179.621094 L 188.554688 179.90625 L 184.644531 180.179688 L 180.730469 180.4375 L 176.816406 180.683594 L 172.90625 180.914062 L 168.992188 181.128906 L 165.078125 181.328125 L 161.167969 181.511719 L 157.253906 181.675781 L 153.34375 181.824219 L 149.429688 181.957031 L 145.515625 182.066406 L 141.605469 182.160156 L 137.691406 182.234375 L 133.78125 182.285156 L 129.867188 182.320312 L 125.953125 182.332031 Z M 125.953125 121.617188 "/>
<path fill-rule="nonzero" fill="rgb(54.117647%, 49.019608%, 72.156863%)" fill-opacity="0.780392" d="M 125.953125 53.3125 L 129.867188 53.449219 L 133.78125 53.855469 L 137.691406 54.527344 L 141.605469 55.457031 L 145.515625 56.632812 L 149.429688 58.050781 L 153.34375 59.703125 L 157.253906 61.585938 L 161.167969 63.6875 L 165.078125 66.003906 L 168.992188 68.527344 L 172.90625 71.253906 L 176.816406 74.171875 L 180.730469 77.273438 L 184.644531 80.554688 L 188.554688 84.007812 L 192.46875 87.628906 L 196.378906 91.40625 L 200.292969 95.332031 L 204.207031 99.40625 L 208.117188 103.613281 L 212.03125 107.953125 L 215.941406 112.414062 L 219.855469 116.988281 L 223.769531 121.675781 L 227.679688 126.464844 L 231.59375 131.347656 L 235.503906 136.316406 L 239.417969 141.367188 L 243.332031 146.492188 L 247.242188 151.683594 L 251.15625 156.933594 L 255.070312 162.238281 L 258.980469 167.585938 L 262.894531 172.972656 L 266.804688 178.394531 L 270.71875 183.835938 L 274.632812 189.300781 L 278.542969 194.769531 L 282.457031 200.246094 L 286.367188 205.71875 L 290.28125 211.179688 L 294.195312 216.625 L 298.105469 222.042969 L 302.019531 227.429688 L 305.929688 232.78125 L 309.84375 238.082031 L 313.757812 243.335938 L 317.667969 248.527344 L 321.582031 253.652344 L 325.496094 258.703125 L 329.40625 263.671875 L 333.320312 268.554688 L 337.230469 273.339844 L 341.144531 278.027344 L 345.058594 282.605469 L 348.96875 287.066406 L 352.882812 291.402344 L 356.792969 295.613281 L 360.707031 299.683594 L 364.621094 303.613281 L 368.53125 307.390625 L 372.445312 311.007812 L 376.355469 314.460938 L 380.269531 317.746094 L 384.183594 320.847656 L 388.09375 323.765625 L 392.007812 326.488281 L 395.921875 329.011719 L 399.832031 331.328125 L 403.746094 333.433594 L 407.65625 335.3125 L 411.570312 336.96875 L 415.484375 338.386719 L 419.394531 339.5625 L 423.308594 340.488281 L 427.21875 341.160156 L 431.132812 341.566406 L 435.046875 341.707031 L 435.046875 372.0625 L 431.132812 371.925781 L 427.21875 371.515625 L 423.308594 370.847656 L 419.394531 369.917969 L 415.484375 368.742188 L 411.570312 367.324219 L 407.65625 365.671875 L 403.746094 363.789062 L 399.832031 361.6875 L 395.921875 359.371094 L 392.007812 356.84375 L 388.09375 354.121094 L 384.183594 351.203125 L 380.269531 348.101562 L 376.355469 344.820312 L 372.445312 341.367188 L 368.53125 337.746094 L 364.621094 333.96875 L 360.707031 330.042969 L 356.792969 325.96875 L 352.882812 321.761719 L 348.96875 317.421875 L 345.058594 312.960938 L 341.144531 308.382812 L 337.230469 303.699219 L 333.320312 298.910156 L 329.40625 294.027344 L 325.496094 289.058594 L 321.582031 284.007812 L 317.667969 278.882812 L 313.757812 273.691406 L 309.84375 268.441406 L 305.929688 263.136719 L 302.019531 257.789062 L 298.105469 252.402344 L 294.195312 246.980469 L 290.28125 241.539062 L 286.367188 236.074219 L 282.457031 230.605469 L 278.542969 225.128906 L 274.632812 219.65625 L 270.71875 214.195312 L 266.804688 208.75 L 262.894531 203.332031 L 258.980469 197.945312 L 255.070312 192.59375 L 251.15625 187.289062 L 247.242188 182.039062 L 243.332031 176.847656 L 239.417969 171.722656 L 235.503906 166.671875 L 231.59375 161.703125 L 227.679688 156.820312 L 223.769531 152.03125 L 219.855469 147.347656 L 215.941406 142.769531 L 212.03125 138.308594 L 208.117188 133.96875 L 204.207031 129.761719 L 200.292969 125.691406 L 196.378906 121.761719 L 192.46875 117.984375 L 188.554688 114.367188 L 184.644531 110.914062 L 180.730469 107.628906 L 176.816406 104.527344 L 172.90625 101.609375 L 168.992188 98.886719 L 165.078125 96.363281 L 161.167969 94.046875 L 157.253906 91.941406 L 153.34375 90.0625 L 149.429688 88.40625 L 145.515625 86.988281 L 141.605469 85.8125 L 137.691406 84.886719 L 133.78125 84.214844 L 129.867188 83.808594 L 125.953125 83.667969 Z M 125.953125 53.3125 "/>
<path fill-rule="nonzero" fill="rgb(72.156863%, 50.980392%, 15.686275%)" fill-opacity="0.780392" d="M 125.953125 182.332031 L 129.867188 182.378906 L 133.78125 182.53125 L 137.691406 182.777344 L 141.605469 183.121094 L 145.515625 183.554688 L 149.429688 184.074219 L 153.34375 184.683594 L 157.253906 185.378906 L 161.167969 186.152344 L 165.078125 187.007812 L 168.992188 187.9375 L 172.90625 188.941406 L 176.816406 190.015625 L 180.730469 191.15625 L 184.644531 192.367188 L 188.554688 193.640625 L 192.46875 194.972656 L 196.378906 196.363281 L 200.292969 197.8125 L 204.207031 199.3125 L 208.117188 200.863281 L 212.03125 202.460938 L 215.941406 204.105469 L 219.855469 205.789062 L 223.769531 207.515625 L 227.679688 209.28125 L 231.59375 211.078125 L 235.503906 212.910156 L 239.417969 214.769531 L 243.332031 216.660156 L 247.242188 218.570312 L 251.15625 220.507812 L 255.070312 222.460938 L 258.980469 224.429688 L 262.894531 226.417969 L 266.804688 228.414062 L 270.71875 230.417969 L 274.632812 232.429688 L 278.542969 234.445312 L 282.457031 236.464844 L 286.367188 238.480469 L 290.28125 240.492188 L 294.195312 242.496094 L 298.105469 244.496094 L 302.019531 246.480469 L 305.929688 248.449219 L 309.84375 250.402344 L 313.757812 252.339844 L 317.667969 254.25 L 321.582031 256.140625 L 325.496094 258 L 329.40625 259.832031 L 333.320312 261.628906 L 337.230469 263.394531 L 341.144531 265.121094 L 345.058594 266.804688 L 348.96875 268.449219 L 352.882812 270.046875 L 356.792969 271.597656 L 360.707031 273.097656 L 364.621094 274.546875 L 368.53125 275.9375 L 372.445312 277.269531 L 376.355469 278.542969 L 380.269531 279.753906 L 384.183594 280.894531 L 388.09375 281.96875 L 392.007812 282.972656 L 395.921875 283.902344 L 399.832031 284.757812 L 403.746094 285.53125 L 407.65625 286.226562 L 411.570312 286.835938 L 415.484375 287.355469 L 419.394531 287.789062 L 423.308594 288.132812 L 427.21875 288.378906 L 431.132812 288.53125 L 435.046875 288.582031 L 435.046875 341.707031 L 431.132812 341.65625 L 427.21875 341.503906 L 423.308594 341.257812 L 419.394531 340.914062 L 415.484375 340.480469 L 411.570312 339.960938 L 407.65625 339.351562 L 403.746094 338.65625 L 399.832031 337.882812 L 395.921875 337.027344 L 392.007812 336.097656 L 388.09375 335.09375 L 384.183594 334.019531 L 380.269531 332.878906 L 376.355469 331.667969 L 372.445312 330.394531 L 368.53125 329.0625 L 364.621094 327.671875 L 360.707031 326.222656 L 356.792969 324.722656 L 352.882812 323.171875 L 348.96875 321.574219 L 345.058594 319.929688 L 341.144531 318.246094 L 337.230469 316.519531 L 333.320312 314.753906 L 329.40625 312.957031 L 325.496094 311.125 L 321.582031 309.265625 L 317.667969 307.375 L 313.757812 305.464844 L 309.84375 303.527344 L 305.929688 301.574219 L 302.019531 299.605469 L 298.105469 297.621094 L 294.195312 295.621094 L 290.28125 293.617188 L 286.367188 291.605469 L 282.457031 289.589844 L 278.542969 287.570312 L 274.632812 285.554688 L 270.71875 283.542969 L 266.804688 281.539062 L 262.894531 279.542969 L 258.980469 277.554688 L 255.070312 275.585938 L 251.15625 273.632812 L 247.242188 271.695312 L 243.332031 269.785156 L 239.417969 267.894531 L 235.503906 266.035156 L 231.59375 264.203125 L 227.679688 262.40625 L 223.769531 260.640625 L 219.855469 258.914062 L 215.941406 257.230469 L 212.03125 255.585938 L 208.117188 253.988281 L 204.207031 252.4375 L 200.292969 250.9375 L 196.378906 249.488281 L 192.46875 248.097656 L 188.554688 246.765625 L 184.644531 245.492188 L 180.730469 244.28125 L 176.816406 243.140625 L 172.90625 242.066406 L 168.992188 241.0625 L 165.078125 240.132812 L 161.167969 239.277344 L 157.253906 238.503906 L 153.34375 237.808594 L 149.429688 237.199219 L 145.515625 236.679688 L 141.605469 236.246094 L 137.691406 235.902344 L 133.78125 235.65625 L 129.867188 235.503906 L 125.953125 235.457031 Z M 125.953125 182.332031 "/>
<path fill-rule="nonzero" fill="rgb(26.666667%, 36.862745%, 27.45098%)" fill-opacity="0.780392" d="M 125.953125 326.527344 L 129.867188 326.398438 L 133.78125 326.011719 L 137.691406 325.375 L 141.605469 324.496094 L 145.515625 323.382812 L 149.429688 322.039062 L 153.34375 320.472656 L 157.253906 318.6875 L 161.167969 316.695312 L 165.078125 314.5 L 168.992188 312.109375 L 172.90625 309.53125 L 176.816406 306.765625 L 180.730469 303.828125 L 184.644531 300.71875 L 188.554688 297.445312 L 192.46875 294.015625 L 196.378906 290.4375 L 200.292969 286.71875 L 204.207031 282.859375 L 208.117188 278.875 L 212.03125 274.761719 L 215.941406 270.535156 L 219.855469 266.199219 L 223.769531 261.761719 L 227.679688 257.226562 L 231.59375 252.601562 L 235.503906 247.890625 L 239.417969 243.105469 L 243.332031 238.25 L 247.242188 233.332031 L 251.15625 228.359375 L 255.070312 223.335938 L 258.980469 218.265625 L 262.894531 213.164062 L 266.804688 208.027344 L 270.71875 202.871094 L 274.632812 197.695312 L 278.542969 192.511719 L 282.457031 187.324219 L 286.367188 182.140625 L 290.28125 176.96875 L 294.195312 171.808594 L 298.105469 166.675781 L 302.019531 161.570312 L 305.929688 156.503906 L 309.84375 151.480469 L 313.757812 146.503906 L 317.667969 141.585938 L 321.582031 136.730469 L 325.496094 131.949219 L 329.40625 127.238281 L 333.320312 122.613281 L 337.230469 118.078125 L 341.144531 113.636719 L 345.058594 109.300781 L 348.96875 105.074219 L 352.882812 100.964844 L 356.792969 96.980469 L 360.707031 93.121094 L 364.621094 89.398438 L 368.53125 85.820312 L 372.445312 82.394531 L 376.355469 79.121094 L 380.269531 76.011719 L 384.183594 73.074219 L 388.09375 70.308594 L 392.007812 67.726562 L 395.921875 65.335938 L 399.832031 63.140625 L 403.746094 61.148438 L 407.65625 59.367188 L 411.570312 57.800781 L 415.484375 56.457031 L 419.394531 55.34375 L 423.308594 54.464844 L 427.21875 53.828125 L 431.132812 53.441406 L 435.046875 53.3125 L 435.046875 98.847656 L 431.132812 98.976562 L 427.21875 99.363281 L 423.308594 100 L 419.394531 100.878906 L 415.484375 101.992188 L 411.570312 103.335938 L 407.65625 104.902344 L 403.746094 106.6875 L 399.832031 108.679688 L 395.921875 110.871094 L 392.007812 113.265625 L 388.09375 115.84375 L 384.183594 118.609375 L 380.269531 121.546875 L 376.355469 124.65625 L 372.445312 127.929688 L 368.53125 131.359375 L 364.621094 134.9375 L 360.707031 138.65625 L 356.792969 142.515625 L 352.882812 146.5 L 348.96875 150.613281 L 345.058594 154.839844 L 341.144531 159.175781 L 337.230469 163.613281 L 333.320312 168.148438 L 329.40625 172.773438 L 325.496094 177.484375 L 321.582031 182.269531 L 317.667969 187.121094 L 313.757812 192.042969 L 309.84375 197.015625 L 305.929688 202.039062 L 302.019531 207.109375 L 298.105469 212.210938 L 294.195312 217.347656 L 290.28125 222.503906 L 286.367188 227.675781 L 282.457031 232.863281 L 278.542969 238.050781 L 274.632812 243.234375 L 270.71875 248.40625 L 266.804688 253.5625 L 262.894531 258.699219 L 258.980469 263.800781 L 255.070312 268.871094 L 251.15625 273.894531 L 247.242188 278.871094 L 243.332031 283.789062 L 239.417969 288.640625 L 235.503906 293.425781 L 231.59375 298.136719 L 227.679688 302.761719 L 223.769531 307.296875 L 219.855469 311.734375 L 215.941406 316.074219 L 212.03125 320.296875 L 208.117188 324.410156 L 204.207031 328.394531 L 200.292969 332.253906 L 196.378906 335.972656 L 192.46875 339.550781 L 188.554688 342.980469 L 184.644531 346.253906 L 180.730469 349.363281 L 176.816406 352.300781 L 172.90625 355.066406 L 168.992188 357.644531 L 165.078125 360.039062 L 161.167969 362.234375 L 157.253906 364.226562 L 153.34375 366.007812 L 149.429688 367.574219 L 145.515625 368.917969 L 141.605469 370.03125 L 137.691406 370.910156 L 133.78125 371.546875 L 129.867188 371.933594 L 125.953125 372.0625 Z M 125.953125 326.527344 "/>
<path fill-rule="nonzero" fill="rgb(26.666667%, 36.862745%, 27.45098%)" fill-opacity="0.780392" d="M 125.953125 258.222656 L 129.867188 258.203125 L 133.78125 258.152344 L 137.691406 258.0625 L 141.605469 257.941406 L 145.515625 257.785156 L 149.429688 257.601562 L 153.34375 257.382812 L 157.253906 257.132812 L 161.167969 256.859375 L 165.078125 256.554688 L 168.992188 256.222656 L 172.90625 255.863281 L 176.816406 255.480469 L 180.730469 255.070312 L 184.644531 254.636719 L 188.554688 254.183594 L 192.46875 253.707031 L 196.378906 253.210938 L 200.292969 252.695312 L 204.207031 252.160156 L 208.117188 251.605469 L 212.03125 251.035156 L 215.941406 250.445312 L 219.855469 249.84375 L 223.769531 249.226562 L 227.679688 248.597656 L 231.59375 247.957031 L 235.503906 247.300781 L 239.417969 246.636719 L 243.332031 245.960938 L 247.242188 245.28125 L 251.15625 244.589844 L 255.070312 243.890625 L 258.980469 243.1875 L 262.894531 242.476562 L 266.804688 241.765625 L 274.632812 240.328125 L 278.542969 239.609375 L 282.457031 238.890625 L 286.367188 238.167969 L 290.28125 237.449219 L 294.195312 236.734375 L 298.105469 236.023438 L 302.019531 235.3125 L 305.929688 234.609375 L 309.84375 233.910156 L 313.757812 233.21875 L 317.667969 232.535156 L 321.582031 231.863281 L 325.496094 231.199219 L 329.40625 230.542969 L 333.320312 229.902344 L 337.230469 229.273438 L 341.144531 228.65625 L 345.058594 228.054688 L 348.96875 227.464844 L 352.882812 226.894531 L 356.792969 226.339844 L 360.707031 225.804688 L 364.621094 225.289062 L 368.53125 224.792969 L 372.445312 224.316406 L 376.355469 223.859375 L 380.269531 223.429688 L 384.183594 223.019531 L 388.09375 222.636719 L 392.007812 222.277344 L 395.921875 221.945312 L 399.832031 221.640625 L 403.746094 221.363281 L 407.65625 221.117188 L 411.570312 220.898438 L 415.484375 220.714844 L 419.394531 220.558594 L 423.308594 220.4375 L 427.21875 220.347656 L 431.132812 220.292969 L 435.046875 220.277344 L 435.046875 288.582031 L 431.132812 288.597656 L 427.21875 288.652344 L 423.308594 288.742188 L 419.394531 288.863281 L 415.484375 289.015625 L 411.570312 289.203125 L 407.65625 289.421875 L 403.746094 289.667969 L 399.832031 289.945312 L 395.921875 290.25 L 392.007812 290.582031 L 388.09375 290.941406 L 384.183594 291.324219 L 380.269531 291.734375 L 376.355469 292.164062 L 372.445312 292.621094 L 368.53125 293.09375 L 364.621094 293.59375 L 360.707031 294.109375 L 356.792969 294.644531 L 352.882812 295.199219 L 348.96875 295.769531 L 345.058594 296.355469 L 341.144531 296.957031 L 337.230469 297.574219 L 333.320312 298.207031 L 329.40625 298.847656 L 325.496094 299.5 L 321.582031 300.167969 L 317.667969 300.839844 L 313.757812 301.523438 L 309.84375 302.214844 L 305.929688 302.914062 L 302.019531 303.617188 L 298.105469 304.324219 L 294.195312 305.039062 L 290.28125 305.753906 L 286.367188 306.472656 L 282.457031 307.191406 L 278.542969 307.914062 L 274.632812 308.632812 L 266.804688 310.070312 L 262.894531 310.78125 L 258.980469 311.492188 L 255.070312 312.195312 L 251.15625 312.890625 L 247.242188 313.582031 L 243.332031 314.265625 L 239.417969 314.941406 L 235.503906 315.605469 L 231.59375 316.257812 L 227.679688 316.902344 L 223.769531 317.53125 L 219.855469 318.148438 L 215.941406 318.75 L 212.03125 319.335938 L 208.117188 319.90625 L 204.207031 320.460938 L 200.292969 320.996094 L 196.378906 321.515625 L 192.46875 322.011719 L 188.554688 322.488281 L 184.644531 322.941406 L 180.730469 323.375 L 176.816406 323.78125 L 172.90625 324.167969 L 168.992188 324.523438 L 165.078125 324.855469 L 161.167969 325.160156 L 157.253906 325.4375 L 153.34375 325.6875 L 149.429688 325.902344 L 145.515625 326.089844 L 141.605469 326.246094 L 137.691406 326.367188 L 133.78125 326.453125 L 129.867188 326.507812 L 125.953125 326.527344 Z M 125.953125 258.222656 "/>
<path fill-rule="nonzero" fill="rgb(83.137255%, 78.823529%, 69.019608%)" fill-opacity="1" stroke-width="1.066978" stroke-linecap="butt" stroke-linejoin="miter" stroke="rgb(98.431373%, 96.862745%, 94.117647%)" stroke-opacity="1" stroke-miterlimit="10" d="M 95.046875 372.0625 L 118.230469 372.0625 L 118.230469 258.222656 L 95.046875 258.222656 Z M 95.046875 372.0625 "/>
<path fill-rule="nonzero" fill="rgb(83.137255%, 78.823529%, 69.019608%)" fill-opacity="1" stroke-width="1.066978" stroke-linecap="butt" stroke-linejoin="miter" stroke="rgb(98.431373%, 96.862745%, 94.117647%)" stroke-opacity="1" stroke-miterlimit="10" d="M 95.046875 258.222656 L 118.230469 258.222656 L 118.230469 182.328125 L 95.046875 182.328125 Z M 95.046875 258.222656 "/>
<path fill-rule="nonzero" fill="rgb(83.137255%, 78.823529%, 69.019608%)" fill-opacity="1" stroke-width="1.066978" stroke-linecap="butt" stroke-linejoin="miter" stroke="rgb(98.431373%, 96.862745%, 94.117647%)" stroke-opacity="1" stroke-miterlimit="10" d="M 95.046875 182.332031 L 118.230469 182.332031 L 118.230469 121.617188 L 95.046875 121.617188 Z M 95.046875 182.332031 "/>
<path fill-rule="nonzero" fill="rgb(83.137255%, 78.823529%, 69.019608%)" fill-opacity="1" stroke-width="1.066978" stroke-linecap="butt" stroke-linejoin="miter" stroke="rgb(98.431373%, 96.862745%, 94.117647%)" stroke-opacity="1" stroke-miterlimit="10" d="M 95.046875 121.617188 L 118.230469 121.617188 L 118.230469 83.671875 L 95.046875 83.671875 Z M 95.046875 121.617188 "/>
<path fill-rule="nonzero" fill="rgb(83.137255%, 78.823529%, 69.019608%)" fill-opacity="1" stroke-width="1.066978" stroke-linecap="butt" stroke-linejoin="miter" stroke="rgb(98.431373%, 96.862745%, 94.117647%)" stroke-opacity="1" stroke-miterlimit="10" d="M 95.046875 83.667969 L 118.230469 83.667969 L 118.230469 53.3125 L 95.046875 53.3125 Z M 95.046875 83.667969 "/>
<path fill-rule="nonzero" fill="rgb(83.137255%, 78.823529%, 69.019608%)" fill-opacity="1" stroke-width="1.066978" stroke-linecap="butt" stroke-linejoin="miter" stroke="rgb(98.431373%, 96.862745%, 94.117647%)" stroke-opacity="1" stroke-miterlimit="10" d="M 442.773438 372.0625 L 465.957031 372.0625 L 465.957031 288.582031 L 442.773438 288.582031 Z M 442.773438 372.0625 "/>
<path fill-rule="nonzero" fill="rgb(83.137255%, 78.823529%, 69.019608%)" fill-opacity="1" stroke-width="1.066978" stroke-linecap="butt" stroke-linejoin="miter" stroke="rgb(98.431373%, 96.862745%, 94.117647%)" stroke-opacity="1" stroke-miterlimit="10" d="M 442.773438 288.582031 L 465.957031 288.582031 L 465.957031 220.277344 L 442.773438 220.277344 Z M 442.773438 288.582031 "/>
<path fill-rule="nonzero" fill="rgb(83.137255%, 78.823529%, 69.019608%)" fill-opacity="1" stroke-width="1.066978" stroke-linecap="butt" stroke-linejoin="miter" stroke="rgb(98.431373%, 96.862745%, 94.117647%)" stroke-opacity="1" stroke-miterlimit="10" d="M 442.773438 220.277344 L 465.957031 220.277344 L 465.957031 159.5625 L 442.773438 159.5625 Z M 442.773438 220.277344 "/>
<path fill-rule="nonzero" fill="rgb(83.137255%, 78.823529%, 69.019608%)" fill-opacity="1" stroke-width="1.066978" stroke-linecap="butt" stroke-linejoin="miter" stroke="rgb(98.431373%, 96.862745%, 94.117647%)" stroke-opacity="1" stroke-miterlimit="10" d="M 442.773438 159.5625 L 465.957031 159.5625 L 465.957031 98.847656 L 442.773438 98.847656 Z M 442.773438 159.5625 "/>
<path fill-rule="nonzero" fill="rgb(83.137255%, 78.823529%, 69.019608%)" fill-opacity="1" stroke-width="1.066978" stroke-linecap="butt" stroke-linejoin="miter" stroke="rgb(98.431373%, 96.862745%, 94.117647%)" stroke-opacity="1" stroke-miterlimit="10" d="M 442.773438 98.847656 L 465.957031 98.847656 L 465.957031 53.3125 L 442.773438 53.3125 Z M 442.773438 98.847656 "/>
<g fill="rgb(0%, 0%, 0%)" fill-opacity="1">
<use xlink:href="#glyph-0-0" x="58.859375" y="318.699219"/>
<use xlink:href="#glyph-0-1" x="65.023676" y="318.699219"/>
<use xlink:href="#glyph-0-2" x="67.395202" y="318.699219"/>
<use xlink:href="#glyph-0-3" x="69.766728" y="318.699219"/>
<use xlink:href="#glyph-0-4" x="74.513948" y="318.699219"/>
<use xlink:href="#glyph-0-5" x="79.727971" y="318.699219"/>
<use xlink:href="#glyph-0-3" x="82.570468" y="318.699219"/>
</g>
<g fill="rgb(0%, 0%, 0%)" fill-opacity="1">
<use xlink:href="#glyph-0-6" x="59.324219" y="223.832031"/>
<use xlink:href="#glyph-0-3" x="65.017549" y="223.832031"/>
<use xlink:href="#glyph-0-4" x="69.764769" y="223.832031"/>
<use xlink:href="#glyph-0-5" x="74.978792" y="223.832031"/>
<use xlink:href="#glyph-0-7" x="77.821289" y="223.832031"/>
<use xlink:href="#glyph-0-8" x="82.568509" y="223.832031"/>
</g>
<g fill="rgb(0%, 0%, 0%)" fill-opacity="1">
<use xlink:href="#glyph-0-9" x="49.855469" y="155.527344"/>
<use xlink:href="#glyph-0-10" x="55.548799" y="155.527344"/>
<use xlink:href="#glyph-0-11" x="58.870602" y="155.527344"/>
<use xlink:href="#glyph-0-12" x="64.084625" y="155.527344"/>
<use xlink:href="#glyph-0-13" x="69.298648" y="155.527344"/>
<use xlink:href="#glyph-0-14" x="74.512671" y="155.527344"/>
<use xlink:href="#glyph-0-5" x="79.259892" y="155.527344"/>
<use xlink:href="#glyph-0-11" x="82.102389" y="155.527344"/>
</g>
<g fill="rgb(0%, 0%, 0%)" fill-opacity="1">
<use xlink:href="#glyph-0-15" x="35.605469" y="106.199219"/>
<use xlink:href="#glyph-0-16" x="42.244908" y="106.199219"/>
<use xlink:href="#glyph-0-3" x="47.458931" y="106.199219"/>
<use xlink:href="#glyph-0-10" x="52.206151" y="106.199219"/>
<use xlink:href="#glyph-0-7" x="55.527955" y="106.199219"/>
<use xlink:href="#glyph-0-14" x="60.275175" y="106.199219"/>
<use xlink:href="#glyph-0-2" x="65.022395" y="106.199219"/>
<use xlink:href="#glyph-0-11" x="67.393921" y="106.199219"/>
<use xlink:href="#glyph-0-4" x="72.607944" y="106.199219"/>
<use xlink:href="#glyph-0-3" x="77.821967" y="106.199219"/>
<use xlink:href="#glyph-0-8" x="82.569188" y="106.199219"/>
</g>
<g fill="rgb(0%, 0%, 0%)" fill-opacity="1">
<use xlink:href="#glyph-0-17" x="55.070312" y="72.046875"/>
<use xlink:href="#glyph-0-11" x="60.763642" y="72.046875"/>
<use xlink:href="#glyph-0-16" x="65.977665" y="72.046875"/>
<use xlink:href="#glyph-0-11" x="71.191688" y="72.046875"/>
<use xlink:href="#glyph-0-10" x="76.405712" y="72.046875"/>
<use xlink:href="#glyph-0-5" x="79.727515" y="72.046875"/>
<use xlink:href="#glyph-0-3" x="82.570012" y="72.046875"/>
</g>
<g fill="rgb(0%, 0%, 0%)" fill-opacity="1">
<use xlink:href="#glyph-0-9" x="473.683594" y="333.875"/>
<use xlink:href="#glyph-0-10" x="479.376924" y="333.875"/>
<use xlink:href="#glyph-0-11" x="482.698727" y="333.875"/>
<use xlink:href="#glyph-0-12" x="487.91275" y="333.875"/>
<use xlink:href="#glyph-0-13" x="493.126773" y="333.875"/>
<use xlink:href="#glyph-0-14" x="498.340796" y="333.875"/>
<use xlink:href="#glyph-0-5" x="503.088017" y="333.875"/>
<use xlink:href="#glyph-0-11" x="505.930514" y="333.875"/>
</g>
<g fill="rgb(0%, 0%, 0%)" fill-opacity="1">
<use xlink:href="#glyph-0-6" x="473.683594" y="257.984375"/>
<use xlink:href="#glyph-0-3" x="479.376924" y="257.984375"/>
<use xlink:href="#glyph-0-4" x="484.124144" y="257.984375"/>
<use xlink:href="#glyph-0-5" x="489.338167" y="257.984375"/>
<use xlink:href="#glyph-0-7" x="492.180664" y="257.984375"/>
<use xlink:href="#glyph-0-8" x="496.927884" y="257.984375"/>
</g>
<g fill="rgb(0%, 0%, 0%)" fill-opacity="1">
<use xlink:href="#glyph-0-18" x="473.683594" y="193.472656"/>
<use xlink:href="#glyph-0-2" x="478.897617" y="193.472656"/>
<use xlink:href="#glyph-0-4" x="481.269143" y="193.472656"/>
<use xlink:href="#glyph-0-7" x="486.483166" y="193.472656"/>
<use xlink:href="#glyph-0-4" x="491.230386" y="193.472656"/>
<use xlink:href="#glyph-0-19" x="496.444409" y="193.472656"/>
<use xlink:href="#glyph-0-7" x="500.712323" y="193.472656"/>
<use xlink:href="#glyph-0-8" x="505.459543" y="193.472656"/>
</g>
<g fill="rgb(0%, 0%, 0%)" fill-opacity="1">
<use xlink:href="#glyph-0-15" x="473.683594" y="132.761719"/>
<use xlink:href="#glyph-0-16" x="480.323033" y="132.761719"/>
<use xlink:href="#glyph-0-3" x="485.537056" y="132.761719"/>
<use xlink:href="#glyph-0-10" x="490.284276" y="132.761719"/>
<use xlink:href="#glyph-0-7" x="493.60608" y="132.761719"/>
<use xlink:href="#glyph-0-14" x="498.3533" y="132.761719"/>
<use xlink:href="#glyph-0-2" x="503.10052" y="132.761719"/>
<use xlink:href="#glyph-0-11" x="505.472046" y="132.761719"/>
<use xlink:href="#glyph-0-4" x="510.686069" y="132.761719"/>
<use xlink:href="#glyph-0-3" x="515.900092" y="132.761719"/>
<use xlink:href="#glyph-0-8" x="520.647313" y="132.761719"/>
</g>
<g fill="rgb(0%, 0%, 0%)" fill-opacity="1">
<use xlink:href="#glyph-0-17" x="473.683594" y="79.636719"/>
<use xlink:href="#glyph-0-11" x="479.376924" y="79.636719"/>
<use xlink:href="#glyph-0-16" x="484.590947" y="79.636719"/>
<use xlink:href="#glyph-0-11" x="489.80497" y="79.636719"/>
<use xlink:href="#glyph-0-10" x="495.018993" y="79.636719"/>
<use xlink:href="#glyph-0-5" x="498.340796" y="79.636719"/>
<use xlink:href="#glyph-0-3" x="501.183293" y="79.636719"/>
</g>
<g fill="rgb(0%, 0%, 0%)" fill-opacity="1">
<use xlink:href="#glyph-1-0" x="0" y="34.058594"/>
<use xlink:href="#glyph-1-1" x="3.056152" y="34.058594"/>
<use xlink:href="#glyph-1-2" x="9.173828" y="34.058594"/>
<use xlink:href="#glyph-1-3" x="15.291504" y="34.058594"/>
<use xlink:href="#glyph-1-4" x="21.40918" y="34.058594"/>
<use xlink:href="#glyph-1-5" x="23.853027" y="34.058594"/>
<use xlink:href="#glyph-1-6" x="26.90918" y="34.058594"/>
<use xlink:href="#glyph-1-3" x="33.026855" y="34.058594"/>
<use xlink:href="#glyph-1-7" x="39.144531" y="34.058594"/>
<use xlink:href="#glyph-1-3" x="42.807617" y="34.058594"/>
<use xlink:href="#glyph-1-5" x="48.925293" y="34.058594"/>
<use xlink:href="#glyph-1-4" x="51.981445" y="34.058594"/>
<use xlink:href="#glyph-1-2" x="54.425293" y="34.058594"/>
<use xlink:href="#glyph-1-2" x="60.542969" y="34.058594"/>
<use xlink:href="#glyph-1-7" x="66.660645" y="34.058594"/>
<use xlink:href="#glyph-1-5" x="70.32373" y="34.058594"/>
<use xlink:href="#glyph-1-8" x="73.379883" y="34.058594"/>
<use xlink:href="#glyph-1-7" x="76.436035" y="34.058594"/>
<use xlink:href="#glyph-1-3" x="80.099121" y="34.058594"/>
<use xlink:href="#glyph-1-9" x="86.216797" y="34.058594"/>
<use xlink:href="#glyph-1-10" x="92.334473" y="34.058594"/>
<use xlink:href="#glyph-1-11" x="97.834473" y="34.058594"/>
<use xlink:href="#glyph-1-2" x="100.890625" y="34.058594"/>
<use xlink:href="#glyph-1-7" x="107.008301" y="34.058594"/>
<use xlink:href="#glyph-1-2" x="110.671387" y="34.058594"/>
<use xlink:href="#glyph-1-9" x="116.789062" y="34.058594"/>
<use xlink:href="#glyph-1-12" x="122.906738" y="34.058594"/>
<use xlink:href="#glyph-1-13" x="128.406738" y="34.058594"/>
<use xlink:href="#glyph-1-3" x="130.850586" y="34.058594"/>
<use xlink:href="#glyph-1-10" x="136.968262" y="34.058594"/>
<use xlink:href="#glyph-1-5" x="142.468262" y="34.058594"/>
<use xlink:href="#glyph-1-14" x="145.524414" y="34.058594"/>
<use xlink:href="#glyph-1-5" x="151.024414" y="34.058594"/>
<use xlink:href="#glyph-1-7" x="154.080566" y="34.058594"/>
<use xlink:href="#glyph-1-2" x="157.743652" y="34.058594"/>
<use xlink:href="#glyph-1-6" x="163.861328" y="34.058594"/>
<use xlink:href="#glyph-1-3" x="169.979004" y="34.058594"/>
<use xlink:href="#glyph-1-7" x="176.09668" y="34.058594"/>
<use xlink:href="#glyph-1-8" x="179.759766" y="34.058594"/>
<use xlink:href="#glyph-1-15" x="182.815918" y="34.058594"/>
<use xlink:href="#glyph-1-5" x="188.933594" y="34.058594"/>
<use xlink:href="#glyph-1-2" x="191.989746" y="34.058594"/>
<use xlink:href="#glyph-1-9" x="198.107422" y="34.058594"/>
<use xlink:href="#glyph-1-8" x="204.225098" y="34.058594"/>
<use xlink:href="#glyph-1-7" x="207.28125" y="34.058594"/>
<use xlink:href="#glyph-1-2" x="210.944336" y="34.058594"/>
<use xlink:href="#glyph-1-5" x="217.062012" y="34.058594"/>
<use xlink:href="#glyph-1-2" x="220.118164" y="34.058594"/>
<use xlink:href="#glyph-1-8" x="226.23584" y="34.058594"/>
<use xlink:href="#glyph-1-3" x="229.291992" y="34.058594"/>
<use xlink:href="#glyph-1-6" x="235.409668" y="34.058594"/>
<use xlink:href="#glyph-1-3" x="241.527344" y="34.058594"/>
<use xlink:href="#glyph-1-10" x="247.64502" y="34.058594"/>
</g>
<g fill="rgb(0%, 0%, 0%)" fill-opacity="1">
<use xlink:href="#glyph-2-0" x="0" y="15.929688"/>
<use xlink:href="#glyph-2-1" x="8.804297" y="15.929688"/>
<use xlink:href="#glyph-2-2" x="16.145508" y="15.929688"/>
<use xlink:href="#glyph-2-3" x="23.486719" y="15.929688"/>
<use xlink:href="#glyph-2-4" x="30.086719" y="15.929688"/>
<use xlink:href="#glyph-2-5" x="37.42793" y="15.929688"/>
</g>
</svg>
