<?xml version="1.0" encoding="UTF-8"?>
<svg xmlns="http://www.w3.org/2000/svg" xmlns:xlink="http://www.w3.org/1999/xlink" width="547pt" height="345pt" viewBox="0 0 547 345">
<defs>
<g>
<g id="glyph-0-0">
<path d="M 5.035156 -0.84375 L 5.035156 0 L 0.304688 0 C 0.296875 -0.210938 0.332031 -0.414062 0.40625 -0.609375 C 0.527344 -0.933594 0.71875 -1.25 0.984375 -1.5625 C 1.25 -1.875 1.632812 -2.234375 2.132812 -2.648438 C 2.910156 -3.285156 3.4375 -3.789062 3.710938 -4.164062 C 3.984375 -4.535156 4.121094 -4.886719 4.121094 -5.21875 C 4.121094 -5.566406 3.996094 -5.863281 3.746094 -6.101562 C 3.5 -6.339844 3.171875 -6.460938 2.773438 -6.460938 C 2.351562 -6.460938 2.011719 -6.332031 1.757812 -6.078125 C 1.503906 -5.824219 1.375 -5.472656 1.371094 -5.023438 L 0.46875 -5.117188 C 0.53125 -5.789062 0.761719 -6.304688 1.167969 -6.65625 C 1.570312 -7.011719 2.113281 -7.1875 2.792969 -7.1875 C 3.480469 -7.1875 4.023438 -6.996094 4.421875 -6.617188 C 4.824219 -6.234375 5.023438 -5.761719 5.023438 -5.199219 C 5.023438 -4.914062 4.964844 -4.632812 4.847656 -4.355469 C 4.730469 -4.078125 4.535156 -3.789062 4.265625 -3.480469 C 3.992188 -3.175781 3.542969 -2.753906 2.910156 -2.222656 C 2.382812 -1.777344 2.042969 -1.480469 1.894531 -1.320312 C 1.746094 -1.164062 1.621094 -1.003906 1.523438 -0.84375 Z M 5.035156 -0.84375 "/>
</g>
<g id="glyph-0-1">
<path d="M 0.414062 -3.53125 C 0.414062 -4.375 0.503906 -5.058594 0.675781 -5.574219 C 0.851562 -6.089844 1.109375 -6.488281 1.453125 -6.765625 C 1.796875 -7.046875 2.226562 -7.1875 2.75 -7.1875 C 3.132812 -7.1875 3.46875 -7.109375 3.757812 -6.957031 C 4.050781 -6.800781 4.289062 -6.578125 4.476562 -6.285156 C 4.667969 -5.996094 4.8125 -5.640625 4.921875 -5.222656 C 5.03125 -4.804688 5.082031 -4.238281 5.082031 -3.53125 C 5.082031 -2.691406 4.996094 -2.011719 4.824219 -1.496094 C 4.652344 -0.980469 4.394531 -0.582031 4.050781 -0.300781 C 3.707031 -0.0195312 3.273438 0.121094 2.75 0.121094 C 2.058594 0.121094 1.515625 -0.125 1.125 -0.621094 C 0.652344 -1.214844 0.414062 -2.1875 0.414062 -3.53125 M 1.320312 -3.53125 C 1.320312 -2.355469 1.457031 -1.574219 1.730469 -1.183594 C 2.007812 -0.796875 2.34375 -0.601562 2.75 -0.601562 C 3.152344 -0.601562 3.492188 -0.796875 3.765625 -1.1875 C 4.042969 -1.578125 4.179688 -2.359375 4.179688 -3.53125 C 4.179688 -4.707031 4.042969 -5.492188 3.765625 -5.878906 C 3.492188 -6.265625 3.148438 -6.460938 2.738281 -6.460938 C 2.335938 -6.460938 2.011719 -6.289062 1.773438 -5.945312 C 1.46875 -5.511719 1.320312 -4.707031 1.320312 -3.53125 Z M 1.320312 -3.53125 "/>
</g>
<g id="glyph-0-2">
<path d="M 3.234375 0 L 3.234375 -1.714844 L 0.125 -1.714844 L 0.125 -2.519531 L 3.394531 -7.15625 L 4.109375 -7.15625 L 4.109375 -2.519531 L 5.078125 -2.519531 L 5.078125 -1.714844 L 4.109375 -1.714844 L 4.109375 0 L 3.234375 0 M 3.234375 -2.519531 L 3.234375 -5.746094 L 0.992188 -2.519531 Z M 3.234375 -2.519531 "/>
</g>
<g id="glyph-0-3">
<path d="M 4.976562 -5.40625 L 4.101562 -5.335938 C 4.023438 -5.683594 3.914062 -5.933594 3.769531 -6.089844 C 3.53125 -6.339844 3.238281 -6.464844 2.890625 -6.464844 C 2.609375 -6.464844 2.363281 -6.386719 2.152344 -6.230469 C 1.875 -6.027344 1.660156 -5.734375 1.5 -5.347656 C 1.339844 -4.960938 1.257812 -4.40625 1.25 -3.691406 C 1.460938 -4.011719 1.71875 -4.253906 2.027344 -4.410156 C 2.332031 -4.566406 2.652344 -4.644531 2.988281 -4.644531 C 3.574219 -4.644531 4.074219 -4.429688 4.484375 -3.996094 C 4.898438 -3.566406 5.101562 -3.007812 5.101562 -2.324219 C 5.101562 -1.875 5.003906 -1.457031 4.8125 -1.070312 C 4.617188 -0.6875 4.351562 -0.390625 4.015625 -0.1875 C 3.675781 0.0195312 3.289062 0.121094 2.859375 0.121094 C 2.128906 0.121094 1.53125 -0.148438 1.070312 -0.6875 C 0.605469 -1.226562 0.375 -2.113281 0.375 -3.351562 C 0.375 -4.734375 0.632812 -5.738281 1.140625 -6.367188 C 1.589844 -6.914062 2.1875 -7.1875 2.945312 -7.1875 C 3.507812 -7.1875 3.96875 -7.03125 4.328125 -6.714844 C 4.6875 -6.398438 4.902344 -5.960938 4.976562 -5.40625 M 1.386719 -2.320312 C 1.386719 -2.015625 1.449219 -1.726562 1.578125 -1.449219 C 1.707031 -1.171875 1.886719 -0.960938 2.117188 -0.816406 C 2.351562 -0.671875 2.59375 -0.601562 2.847656 -0.601562 C 3.21875 -0.601562 3.535156 -0.75 3.804688 -1.050781 C 4.070312 -1.347656 4.203125 -1.757812 4.203125 -2.269531 C 4.203125 -2.765625 4.070312 -3.15625 3.808594 -3.441406 C 3.546875 -3.726562 3.210938 -3.867188 2.8125 -3.867188 C 2.414062 -3.867188 2.078125 -3.726562 1.800781 -3.441406 C 1.523438 -3.15625 1.386719 -2.78125 1.386719 -2.320312 Z M 1.386719 -2.320312 "/>
</g>
<g id="glyph-0-4">
<path d="M 1.765625 -3.882812 C 1.402344 -4.015625 1.132812 -4.207031 0.957031 -4.453125 C 0.78125 -4.699219 0.695312 -4.996094 0.695312 -5.34375 C 0.695312 -5.863281 0.878906 -6.300781 1.253906 -6.65625 C 1.628906 -7.011719 2.128906 -7.1875 2.75 -7.1875 C 3.375 -7.1875 3.875 -7.007812 4.257812 -6.644531 C 4.640625 -6.28125 4.828125 -5.839844 4.828125 -5.316406 C 4.828125 -4.984375 4.742188 -4.695312 4.566406 -4.449219 C 4.394531 -4.203125 4.128906 -4.015625 3.773438 -3.882812 C 4.214844 -3.738281 4.546875 -3.507812 4.777344 -3.1875 C 5.007812 -2.871094 5.121094 -2.488281 5.121094 -2.046875 C 5.121094 -1.433594 4.90625 -0.917969 4.472656 -0.503906 C 4.039062 -0.0859375 3.46875 0.121094 2.765625 0.121094 C 2.058594 0.121094 1.488281 -0.0859375 1.054688 -0.503906 C 0.621094 -0.921875 0.40625 -1.445312 0.40625 -2.070312 C 0.40625 -2.535156 0.523438 -2.925781 0.757812 -3.238281 C 0.996094 -3.554688 1.332031 -3.769531 1.765625 -3.882812 M 1.59375 -5.371094 C 1.59375 -5.03125 1.699219 -4.753906 1.917969 -4.539062 C 2.136719 -4.324219 2.421875 -4.21875 2.769531 -4.21875 C 3.105469 -4.21875 3.382812 -4.324219 3.601562 -4.539062 C 3.816406 -4.75 3.925781 -5.011719 3.925781 -5.320312 C 3.925781 -5.644531 3.8125 -5.914062 3.589844 -6.136719 C 3.367188 -6.355469 3.089844 -6.464844 2.757812 -6.464844 C 2.421875 -6.464844 2.144531 -6.359375 1.921875 -6.140625 C 1.703125 -5.929688 1.59375 -5.671875 1.59375 -5.371094 M 1.308594 -2.066406 C 1.308594 -1.816406 1.367188 -1.570312 1.488281 -1.335938 C 1.605469 -1.101562 1.78125 -0.921875 2.015625 -0.792969 C 2.25 -0.664062 2.503906 -0.601562 2.773438 -0.601562 C 3.195312 -0.601562 3.539062 -0.734375 3.8125 -1.007812 C 4.085938 -1.277344 4.222656 -1.621094 4.222656 -2.035156 C 4.222656 -2.460938 4.082031 -2.808594 3.800781 -3.085938 C 3.519531 -3.363281 3.167969 -3.5 2.742188 -3.5 C 2.332031 -3.5 1.988281 -3.363281 1.714844 -3.089844 C 1.445312 -2.816406 1.308594 -2.476562 1.308594 -2.066406 Z M 1.308594 -2.066406 "/>
</g>
<g id="glyph-1-0">
<path d="M 0 -2.707031 L -7.585938 0.00390625 L -7.585938 -1.65625 L -1.972656 -3.578125 L -7.585938 -5.433594 L -7.585938 -7.058594 L 0 -4.34375 Z M 0 -2.707031 "/>
</g>
<g id="glyph-1-1">
<path d="M -3.820312 -1.847656 L -4.058594 -0.527344 C -4.589844 -0.675781 -4.984375 -0.933594 -5.238281 -1.292969 C -5.492188 -1.65625 -5.621094 -2.195312 -5.621094 -2.910156 C -5.621094 -3.558594 -5.542969 -4.039062 -5.390625 -4.359375 C -5.238281 -4.675781 -5.042969 -4.898438 -4.804688 -5.027344 C -4.570312 -5.15625 -4.136719 -5.222656 -3.503906 -5.222656 L -1.804688 -5.207031 C -1.324219 -5.207031 -0.96875 -5.230469 -0.738281 -5.277344 C -0.507812 -5.324219 -0.261719 -5.410156 0 -5.539062 L 0 -4.097656 C -0.0976562 -4.0625 -0.238281 -4.015625 -0.429688 -3.960938 C -0.515625 -3.933594 -0.574219 -3.917969 -0.601562 -3.90625 C -0.359375 -3.660156 -0.175781 -3.394531 -0.0585938 -3.109375 C 0.0625 -2.828125 0.125 -2.527344 0.125 -2.203125 C 0.125 -1.640625 -0.03125 -1.191406 -0.335938 -0.867188 C -0.644531 -0.539062 -1.03125 -0.378906 -1.5 -0.378906 C -1.8125 -0.378906 -2.089844 -0.453125 -2.332031 -0.601562 C -2.574219 -0.75 -2.761719 -0.957031 -2.890625 -1.222656 C -3.019531 -1.492188 -3.132812 -1.878906 -3.230469 -2.382812 C -3.355469 -3.0625 -3.476562 -3.53125 -3.585938 -3.792969 L -3.730469 -3.792969 C -4.011719 -3.792969 -4.210938 -3.726562 -4.328125 -3.585938 C -4.449219 -3.449219 -4.507812 -3.1875 -4.507812 -2.804688 C -4.507812 -2.546875 -4.457031 -2.34375 -4.355469 -2.199219 C -4.253906 -2.054688 -4.074219 -1.9375 -3.820312 -1.847656 M -2.640625 -3.792969 C -2.578125 -3.609375 -2.503906 -3.3125 -2.417969 -2.910156 C -2.332031 -2.503906 -2.246094 -2.242188 -2.164062 -2.117188 C -2.027344 -1.925781 -1.859375 -1.832031 -1.652344 -1.832031 C -1.449219 -1.832031 -1.273438 -1.90625 -1.125 -2.058594 C -0.976562 -2.210938 -0.902344 -2.40625 -0.902344 -2.640625 C -0.902344 -2.902344 -0.988281 -3.152344 -1.160156 -3.390625 C -1.289062 -3.566406 -1.449219 -3.683594 -1.640625 -3.738281 C -1.765625 -3.773438 -2 -3.792969 -2.351562 -3.792969 Z M -2.640625 -3.792969 "/>
</g>
<g id="glyph-1-2">
<path d="M 0 -0.761719 L -7.585938 -0.761719 L -7.585938 -2.214844 L 0 -2.214844 Z M 0 -0.761719 "/>
</g>
<g id="glyph-1-3">
<path d="M -2.824219 -0.425781 C -3.308594 -0.425781 -3.777344 -0.542969 -4.230469 -0.78125 C -4.679688 -1.019531 -5.027344 -1.355469 -5.265625 -1.792969 C -5.5 -2.230469 -5.621094 -2.71875 -5.621094 -3.253906 C -5.621094 -4.085938 -5.351562 -4.769531 -4.8125 -5.300781 C -4.269531 -5.832031 -3.589844 -6.097656 -2.765625 -6.097656 C -1.933594 -6.097656 -1.242188 -5.828125 -0.695312 -5.292969 C -0.148438 -4.753906 0.125 -4.082031 0.125 -3.265625 C 0.125 -2.761719 0.0117188 -2.28125 -0.21875 -1.824219 C -0.445312 -1.367188 -0.777344 -1.019531 -1.21875 -0.78125 C -1.660156 -0.542969 -2.195312 -0.425781 -2.824219 -0.425781 M -2.75 -1.914062 C -2.203125 -1.914062 -1.785156 -2.042969 -1.496094 -2.304688 C -1.207031 -2.5625 -1.0625 -2.882812 -1.0625 -3.261719 C -1.0625 -3.640625 -1.207031 -3.957031 -1.496094 -4.214844 C -1.785156 -4.472656 -2.207031 -4.601562 -2.757812 -4.601562 C -3.296875 -4.601562 -3.710938 -4.472656 -4 -4.214844 C -4.289062 -3.957031 -4.4375 -3.640625 -4.4375 -3.261719 C -4.4375 -2.882812 -4.289062 -2.5625 -4 -2.304688 C -3.710938 -2.042969 -3.292969 -1.914062 -2.75 -1.914062 Z M -2.75 -1.914062 "/>
</g>
<g id="glyph-1-4">
<path d="M 0 -2.152344 L 0 -0.699219 L -5.496094 -0.699219 L -5.496094 -2.050781 L -4.714844 -2.050781 C -5.085938 -2.28125 -5.328125 -2.488281 -5.445312 -2.671875 C -5.5625 -2.859375 -5.621094 -3.066406 -5.621094 -3.300781 C -5.621094 -3.632812 -5.53125 -3.953125 -5.347656 -4.257812 L -4.078125 -3.808594 C -4.238281 -3.5625 -4.316406 -3.335938 -4.316406 -3.125 C -4.316406 -2.921875 -4.261719 -2.75 -4.148438 -2.609375 C -4.035156 -2.46875 -3.832031 -2.355469 -3.539062 -2.273438 C -3.246094 -2.195312 -2.632812 -2.152344 -1.699219 -2.152344 Z M 0 -2.152344 "/>
</g>
<g id="glyph-1-5">
</g>
<g id="glyph-1-6">
<path d="M -1.75 -3.945312 L -1.507812 -5.394531 C -0.976562 -5.207031 -0.570312 -4.914062 -0.292969 -4.511719 C -0.015625 -4.109375 0.125 -3.605469 0.125 -3 C 0.125 -2.046875 -0.1875 -1.339844 -0.8125 -0.878906 C -1.3125 -0.519531 -1.945312 -0.335938 -2.707031 -0.335938 C -3.617188 -0.335938 -4.332031 -0.574219 -4.847656 -1.050781 C -5.363281 -1.527344 -5.621094 -2.128906 -5.621094 -2.855469 C -5.621094 -3.675781 -5.351562 -4.320312 -4.8125 -4.792969 C -4.269531 -5.265625 -3.445312 -5.492188 -2.328125 -5.472656 L -2.328125 -1.828125 C -1.898438 -1.835938 -1.5625 -1.953125 -1.324219 -2.179688 C -1.082031 -2.402344 -0.960938 -2.683594 -0.960938 -3.015625 C -0.960938 -3.246094 -1.023438 -3.4375 -1.148438 -3.59375 C -1.273438 -3.746094 -1.472656 -3.863281 -1.75 -3.945312 M -3.21875 -4.027344 C -3.640625 -4.015625 -3.960938 -3.90625 -4.179688 -3.699219 C -4.398438 -3.492188 -4.507812 -3.242188 -4.507812 -2.945312 C -4.507812 -2.628906 -4.390625 -2.367188 -4.160156 -2.160156 C -3.929688 -1.953125 -3.617188 -1.847656 -3.21875 -1.851562 Z M -3.21875 -4.027344 "/>
</g>
<g id="glyph-1-7">
<path d="M -1.566406 -0.25 L -1.789062 -1.707031 C -1.507812 -1.769531 -1.292969 -1.894531 -1.144531 -2.085938 C -1 -2.277344 -0.925781 -2.542969 -0.925781 -2.882812 C -0.925781 -3.257812 -0.996094 -3.542969 -1.132812 -3.730469 C -1.230469 -3.859375 -1.359375 -3.921875 -1.523438 -3.921875 C -1.632812 -3.921875 -1.722656 -3.890625 -1.796875 -3.820312 C -1.863281 -3.746094 -1.929688 -3.585938 -1.988281 -3.332031 C -2.246094 -2.160156 -2.484375 -1.417969 -2.695312 -1.101562 C -2.992188 -0.667969 -3.40625 -0.449219 -3.933594 -0.449219 C -4.410156 -0.449219 -4.808594 -0.636719 -5.132812 -1.015625 C -5.457031 -1.390625 -5.621094 -1.972656 -5.621094 -2.765625 C -5.621094 -3.515625 -5.5 -4.074219 -5.253906 -4.441406 C -5.007812 -4.804688 -4.644531 -5.058594 -4.167969 -5.195312 L -3.914062 -3.824219 C -4.125 -3.765625 -4.289062 -3.65625 -4.40625 -3.492188 C -4.519531 -3.328125 -4.574219 -3.09375 -4.574219 -2.789062 C -4.574219 -2.40625 -4.523438 -2.132812 -4.414062 -1.96875 C -4.339844 -1.855469 -4.242188 -1.800781 -4.121094 -1.800781 C -4.015625 -1.800781 -3.929688 -1.847656 -3.855469 -1.945312 C -3.757812 -2.078125 -3.625 -2.53125 -3.445312 -3.304688 C -3.269531 -4.078125 -3.054688 -4.621094 -2.800781 -4.925781 C -2.542969 -5.230469 -2.179688 -5.382812 -1.71875 -5.382812 C -1.214844 -5.382812 -0.78125 -5.171875 -0.417969 -4.75 C -0.0585938 -4.332031 0.125 -3.707031 0.125 -2.882812 C 0.125 -2.132812 -0.0273438 -1.542969 -0.332031 -1.105469 C -0.636719 -0.667969 -1.046875 -0.382812 -1.566406 -0.25 Z M -1.566406 -0.25 "/>
</g>
<g id="glyph-1-8">
<path d="M -3.871094 -5.554688 L -3.613281 -4.121094 C -3.898438 -4.070312 -4.113281 -3.960938 -4.257812 -3.792969 C -4.40625 -3.621094 -4.476562 -3.398438 -4.476562 -3.125 C -4.476562 -2.765625 -4.351562 -2.476562 -4.101562 -2.257812 C -3.851562 -2.042969 -3.433594 -1.9375 -2.847656 -1.9375 C -2.195312 -1.9375 -1.734375 -2.046875 -1.464844 -2.265625 C -1.195312 -2.484375 -1.0625 -2.777344 -1.0625 -3.148438 C -1.0625 -3.421875 -1.140625 -3.648438 -1.296875 -3.824219 C -1.453125 -4 -1.722656 -4.125 -2.105469 -4.199219 L -1.863281 -5.625 C -1.207031 -5.476562 -0.710938 -5.191406 -0.378906 -4.773438 C -0.0429688 -4.351562 0.125 -3.785156 0.125 -3.078125 C 0.125 -2.277344 -0.128906 -1.632812 -0.636719 -1.15625 C -1.144531 -0.679688 -1.847656 -0.441406 -2.742188 -0.441406 C -3.652344 -0.441406 -4.355469 -0.679688 -4.863281 -1.160156 C -5.367188 -1.640625 -5.621094 -2.289062 -5.621094 -3.105469 C -5.621094 -3.773438 -5.476562 -4.308594 -5.1875 -4.703125 C -4.902344 -5.097656 -4.460938 -5.382812 -3.871094 -5.554688 Z M -3.871094 -5.554688 "/>
</g>
<g id="glyph-1-9">
<path d="M 0 -5.800781 L 0 -4.453125 L -0.808594 -4.453125 C -0.492188 -4.226562 -0.257812 -3.960938 -0.105469 -3.65625 C 0.046875 -3.351562 0.125 -3.042969 0.125 -2.734375 C 0.125 -2.101562 -0.128906 -1.558594 -0.640625 -1.109375 C -1.148438 -0.660156 -1.859375 -0.433594 -2.769531 -0.433594 C -3.699219 -0.433594 -4.410156 -0.652344 -4.894531 -1.09375 C -5.378906 -1.53125 -5.621094 -2.085938 -5.621094 -2.753906 C -5.621094 -3.367188 -5.367188 -3.898438 -4.855469 -4.347656 L -7.585938 -4.347656 L -7.585938 -5.800781 L 0 -5.800781 M -2.867188 -1.921875 C -2.28125 -1.921875 -1.855469 -2 -1.59375 -2.164062 C -1.214844 -2.398438 -1.023438 -2.726562 -1.023438 -3.148438 C -1.023438 -3.480469 -1.167969 -3.765625 -1.453125 -4 C -1.738281 -4.234375 -2.160156 -4.351562 -2.726562 -4.351562 C -3.359375 -4.351562 -3.8125 -4.238281 -4.089844 -4.011719 C -4.371094 -3.785156 -4.507812 -3.492188 -4.507812 -3.136719 C -4.507812 -2.792969 -4.371094 -2.503906 -4.097656 -2.269531 C -3.824219 -2.035156 -3.414062 -1.921875 -2.867188 -1.921875 Z M -2.867188 -1.921875 "/>
</g>
<g id="glyph-2-0">
<path d="M 5.703125 -2.433594 L 6.621094 -2.203125 C 6.429688 -1.449219 6.082031 -0.871094 5.582031 -0.476562 C 5.082031 -0.078125 4.46875 0.117188 3.746094 0.117188 C 3 0.117188 2.390625 -0.0351562 1.921875 -0.339844 C 1.453125 -0.644531 1.09375 -1.085938 0.851562 -1.664062 C 0.605469 -2.242188 0.484375 -2.859375 0.484375 -3.523438 C 0.484375 -4.246094 0.621094 -4.878906 0.898438 -5.414062 C 1.171875 -5.953125 1.566406 -6.363281 2.078125 -6.644531 C 2.585938 -6.921875 3.148438 -7.0625 3.761719 -7.0625 C 4.457031 -7.0625 5.039062 -6.886719 5.511719 -6.53125 C 5.988281 -6.179688 6.316406 -5.679688 6.503906 -5.039062 L 5.597656 -4.828125 C 5.4375 -5.332031 5.203125 -5.699219 4.898438 -5.929688 C 4.589844 -6.160156 4.207031 -6.277344 3.742188 -6.277344 C 3.207031 -6.277344 2.761719 -6.148438 2.402344 -5.890625 C 2.046875 -5.636719 1.792969 -5.292969 1.648438 -4.863281 C 1.503906 -4.429688 1.429688 -3.988281 1.429688 -3.527344 C 1.429688 -2.9375 1.515625 -2.421875 1.6875 -1.980469 C 1.859375 -1.542969 2.128906 -1.210938 2.492188 -0.996094 C 2.855469 -0.777344 3.246094 -0.667969 3.671875 -0.667969 C 4.183594 -0.667969 4.621094 -0.816406 4.976562 -1.113281 C 5.335938 -1.410156 5.578125 -1.851562 5.703125 -2.433594 Z M 5.703125 -2.433594 "/>
</g>
<g id="glyph-2-1">
<path d="M 0.320312 -2.515625 C 0.320312 -3.445312 0.582031 -4.136719 1.097656 -4.585938 C 1.53125 -4.957031 2.058594 -5.144531 2.679688 -5.144531 C 3.371094 -5.144531 3.9375 -4.917969 4.375 -4.464844 C 4.816406 -4.011719 5.035156 -3.386719 5.035156 -2.585938 C 5.035156 -1.9375 4.9375 -1.429688 4.742188 -1.058594 C 4.550781 -0.6875 4.265625 -0.398438 3.894531 -0.195312 C 3.523438 0.0117188 3.121094 0.113281 2.679688 0.113281 C 1.976562 0.113281 1.40625 -0.113281 0.972656 -0.5625 C 0.539062 -1.015625 0.320312 -1.664062 0.320312 -2.515625 M 1.199219 -2.515625 C 1.199219 -1.871094 1.339844 -1.386719 1.621094 -1.066406 C 1.902344 -0.746094 2.253906 -0.585938 2.679688 -0.585938 C 3.105469 -0.585938 3.457031 -0.75 3.738281 -1.070312 C 4.019531 -1.390625 4.160156 -1.882812 4.160156 -2.542969 C 4.160156 -3.164062 4.015625 -3.636719 3.734375 -3.957031 C 3.453125 -4.277344 3.101562 -4.4375 2.679688 -4.4375 C 2.253906 -4.4375 1.902344 -4.277344 1.621094 -3.960938 C 1.339844 -3.640625 1.199219 -3.160156 1.199219 -2.515625 Z M 1.199219 -2.515625 "/>
</g>
<g id="glyph-2-2">
<path d="M 0.640625 0 L 0.640625 -5.03125 L 1.40625 -5.03125 L 1.40625 -4.316406 C 1.777344 -4.867188 2.308594 -5.144531 3.007812 -5.144531 C 3.3125 -5.144531 3.589844 -5.089844 3.84375 -4.980469 C 4.097656 -4.871094 4.289062 -4.726562 4.414062 -4.550781 C 4.539062 -4.375 4.628906 -4.164062 4.679688 -3.921875 C 4.710938 -3.765625 4.726562 -3.488281 4.726562 -3.09375 L 4.726562 0 L 3.875 0 L 3.875 -3.058594 C 3.875 -3.40625 3.839844 -3.667969 3.773438 -3.839844 C 3.707031 -4.011719 3.589844 -4.148438 3.421875 -4.25 C 3.253906 -4.351562 3.054688 -4.40625 2.828125 -4.40625 C 2.464844 -4.40625 2.152344 -4.289062 1.886719 -4.058594 C 1.625 -3.828125 1.492188 -3.390625 1.492188 -2.746094 L 1.492188 0 Z M 0.640625 0 "/>
</g>
<g id="glyph-2-3">
<path d="M 0.296875 -1.5 L 1.140625 -1.632812 C 1.1875 -1.296875 1.320312 -1.039062 1.535156 -0.855469 C 1.753906 -0.675781 2.054688 -0.585938 2.445312 -0.585938 C 2.835938 -0.585938 3.125 -0.667969 3.316406 -0.828125 C 3.503906 -0.984375 3.597656 -1.171875 3.597656 -1.386719 C 3.597656 -1.582031 3.515625 -1.730469 3.347656 -1.84375 C 3.230469 -1.917969 2.941406 -2.015625 2.476562 -2.132812 C 1.851562 -2.289062 1.417969 -2.425781 1.175781 -2.542969 C 0.933594 -2.65625 0.753906 -2.816406 0.628906 -3.019531 C 0.503906 -3.222656 0.441406 -3.449219 0.441406 -3.695312 C 0.441406 -3.917969 0.492188 -4.125 0.59375 -4.316406 C 0.695312 -4.507812 0.835938 -4.667969 1.011719 -4.792969 C 1.144531 -4.890625 1.328125 -4.972656 1.554688 -5.042969 C 1.785156 -5.109375 2.03125 -5.144531 2.292969 -5.144531 C 2.6875 -5.144531 3.035156 -5.085938 3.332031 -4.972656 C 3.628906 -4.859375 3.851562 -4.707031 3.992188 -4.511719 C 4.136719 -4.316406 4.234375 -4.058594 4.285156 -3.730469 L 3.453125 -3.617188 C 3.414062 -3.878906 3.304688 -4.078125 3.125 -4.226562 C 2.941406 -4.371094 2.683594 -4.441406 2.355469 -4.441406 C 1.960938 -4.441406 1.683594 -4.378906 1.515625 -4.25 C 1.347656 -4.117188 1.265625 -3.96875 1.265625 -3.792969 C 1.265625 -3.683594 1.300781 -3.582031 1.367188 -3.496094 C 1.4375 -3.402344 1.546875 -3.328125 1.695312 -3.269531 C 1.78125 -3.238281 2.03125 -3.164062 2.449219 -3.050781 C 3.050781 -2.890625 3.472656 -2.757812 3.710938 -2.65625 C 3.949219 -2.550781 4.136719 -2.402344 4.273438 -2.207031 C 4.40625 -2.011719 4.476562 -1.769531 4.476562 -1.476562 C 4.476562 -1.195312 4.394531 -0.925781 4.226562 -0.675781 C 4.0625 -0.425781 3.820312 -0.230469 3.507812 -0.09375 C 3.195312 0.046875 2.84375 0.113281 2.449219 0.113281 C 1.796875 0.113281 1.296875 -0.0234375 0.953125 -0.292969 C 0.613281 -0.566406 0.394531 -0.96875 0.296875 -1.5 Z M 0.296875 -1.5 "/>
</g>
<g id="glyph-2-4">
<path d="M 3.9375 0 L 3.9375 -0.738281 C 3.542969 -0.171875 3.011719 0.113281 2.339844 0.113281 C 2.042969 0.113281 1.765625 0.0585938 1.507812 -0.0585938 C 1.25 -0.171875 1.058594 -0.3125 0.933594 -0.484375 C 0.8125 -0.65625 0.722656 -0.867188 0.671875 -1.117188 C 0.636719 -1.285156 0.621094 -1.550781 0.621094 -1.914062 L 0.621094 -5.03125 L 1.472656 -5.03125 L 1.472656 -2.242188 C 1.472656 -1.796875 1.492188 -1.496094 1.523438 -1.339844 C 1.578125 -1.117188 1.691406 -0.941406 1.867188 -0.8125 C 2.039062 -0.683594 2.253906 -0.621094 2.511719 -0.621094 C 2.765625 -0.621094 3.007812 -0.6875 3.230469 -0.816406 C 3.453125 -0.949219 3.613281 -1.125 3.707031 -1.351562 C 3.800781 -1.578125 3.847656 -1.90625 3.847656 -2.335938 L 3.847656 -5.03125 L 4.699219 -5.03125 L 4.699219 0 Z M 3.9375 0 "/>
</g>
<g id="glyph-2-5">
<path d="M 0.640625 0 L 0.640625 -5.03125 L 1.402344 -5.03125 L 1.402344 -4.324219 C 1.558594 -4.570312 1.769531 -4.769531 2.03125 -4.917969 C 2.292969 -5.070312 2.59375 -5.144531 2.925781 -5.144531 C 3.300781 -5.144531 3.605469 -5.066406 3.84375 -4.910156 C 4.082031 -4.757812 4.25 -4.539062 4.347656 -4.261719 C 4.746094 -4.851562 5.261719 -5.144531 5.902344 -5.144531 C 6.398438 -5.144531 6.785156 -5.003906 7.050781 -4.730469 C 7.320312 -4.453125 7.453125 -4.027344 7.453125 -3.453125 L 7.453125 0 L 6.605469 0 L 6.605469 -3.167969 C 6.605469 -3.507812 6.578125 -3.753906 6.523438 -3.90625 C 6.46875 -4.054688 6.367188 -4.175781 6.222656 -4.265625 C 6.078125 -4.359375 5.90625 -4.40625 5.710938 -4.40625 C 5.359375 -4.40625 5.066406 -4.289062 4.832031 -4.050781 C 4.597656 -3.816406 4.480469 -3.441406 4.480469 -2.921875 L 4.480469 0 L 3.628906 0 L 3.628906 -3.269531 C 3.628906 -3.648438 3.558594 -3.929688 3.417969 -4.121094 C 3.28125 -4.308594 3.054688 -4.40625 2.738281 -4.40625 C 2.496094 -4.40625 2.277344 -4.339844 2.070312 -4.214844 C 1.867188 -4.089844 1.722656 -3.90625 1.628906 -3.660156 C 1.539062 -3.417969 1.492188 -3.066406 1.492188 -2.609375 L 1.492188 0 Z M 0.640625 0 "/>
</g>
<g id="glyph-2-6">
<path d="M -0.015625 0 L 2.652344 -6.945312 L 3.640625 -6.945312 L 6.484375 0 L 5.4375 0 L 4.628906 -2.101562 L 1.722656 -2.101562 L 0.960938 0 L -0.015625 0 M 1.988281 -2.851562 L 4.34375 -2.851562 L 3.617188 -4.773438 C 3.398438 -5.359375 3.234375 -5.839844 3.125 -6.214844 C 3.039062 -5.769531 2.914062 -5.328125 2.75 -4.886719 Z M 1.988281 -2.851562 "/>
</g>
<g id="glyph-2-7">
<path d="M 0.640625 0 L 0.640625 -6.945312 L 1.492188 -6.945312 L 1.492188 -4.453125 C 1.890625 -4.914062 2.390625 -5.144531 3 -5.144531 C 3.371094 -5.144531 3.695312 -5.070312 3.96875 -4.921875 C 4.242188 -4.777344 4.441406 -4.574219 4.558594 -4.316406 C 4.675781 -4.054688 4.734375 -3.679688 4.734375 -3.1875 L 4.734375 0 L 3.882812 0 L 3.882812 -3.1875 C 3.882812 -3.613281 3.792969 -3.925781 3.605469 -4.117188 C 3.421875 -4.3125 3.160156 -4.410156 2.824219 -4.410156 C 2.570312 -4.410156 2.332031 -4.34375 2.109375 -4.214844 C 1.886719 -4.082031 1.730469 -3.90625 1.632812 -3.679688 C 1.539062 -3.457031 1.492188 -3.148438 1.492188 -2.75 L 1.492188 0 Z M 0.640625 0 "/>
</g>
<g id="glyph-2-8">
<path d="M 0.628906 0 L 0.628906 -5.03125 L 1.398438 -5.03125 L 1.398438 -4.265625 C 1.59375 -4.625 1.773438 -4.859375 1.941406 -4.972656 C 2.105469 -5.085938 2.289062 -5.144531 2.488281 -5.144531 C 2.773438 -5.144531 3.066406 -5.050781 3.363281 -4.867188 L 3.070312 -4.078125 C 2.859375 -4.199219 2.652344 -4.261719 2.445312 -4.261719 C 2.257812 -4.261719 2.089844 -4.207031 1.941406 -4.09375 C 1.792969 -3.984375 1.6875 -3.828125 1.625 -3.628906 C 1.53125 -3.324219 1.484375 -2.992188 1.484375 -2.632812 L 1.484375 0 Z M 0.628906 0 "/>
</g>
<g id="glyph-2-9">
<path d="M 0.75 0 L 0.75 -6.945312 L 3.140625 -6.945312 C 3.679688 -6.945312 4.09375 -6.910156 4.375 -6.84375 C 4.773438 -6.753906 5.113281 -6.585938 5.394531 -6.347656 C 5.761719 -6.039062 6.035156 -5.640625 6.214844 -5.160156 C 6.398438 -4.679688 6.488281 -4.128906 6.488281 -3.507812 C 6.488281 -2.980469 6.425781 -2.515625 6.304688 -2.109375 C 6.179688 -1.699219 6.023438 -1.363281 5.832031 -1.097656 C 5.636719 -0.828125 5.425781 -0.621094 5.199219 -0.464844 C 4.96875 -0.3125 4.691406 -0.199219 4.371094 -0.117188 C 4.046875 -0.0390625 3.671875 0 3.253906 0 L 0.75 0 M 1.667969 -0.820312 L 3.148438 -0.820312 C 3.609375 -0.820312 3.964844 -0.863281 4.226562 -0.945312 C 4.488281 -1.03125 4.695312 -1.152344 4.851562 -1.308594 C 5.066406 -1.523438 5.238281 -1.816406 5.359375 -2.1875 C 5.480469 -2.554688 5.542969 -3 5.542969 -3.523438 C 5.542969 -4.25 5.421875 -4.808594 5.183594 -5.199219 C 4.945312 -5.589844 4.65625 -5.847656 4.316406 -5.980469 C 4.070312 -6.078125 3.671875 -6.125 3.125 -6.125 L 1.667969 -6.125 Z M 1.667969 -0.820312 "/>
</g>
<g id="glyph-2-10">
<path d="M 4.082031 -1.621094 L 4.964844 -1.511719 C 4.824219 -0.996094 4.566406 -0.597656 4.191406 -0.3125 C 3.816406 -0.0273438 3.335938 0.113281 2.75 0.113281 C 2.015625 0.113281 1.433594 -0.113281 1 -0.566406 C 0.570312 -1.019531 0.355469 -1.65625 0.355469 -2.472656 C 0.355469 -3.320312 0.574219 -3.976562 1.007812 -4.441406 C 1.445312 -4.910156 2.011719 -5.144531 2.703125 -5.144531 C 3.378906 -5.144531 3.925781 -4.914062 4.351562 -4.457031 C 4.777344 -4 4.992188 -3.355469 4.992188 -2.523438 C 4.992188 -2.472656 4.992188 -2.398438 4.988281 -2.296875 L 1.234375 -2.296875 C 1.269531 -1.746094 1.425781 -1.320312 1.703125 -1.027344 C 1.984375 -0.734375 2.335938 -0.585938 2.757812 -0.585938 C 3.070312 -0.585938 3.335938 -0.667969 3.558594 -0.832031 C 3.777344 -0.996094 3.953125 -1.261719 4.082031 -1.621094 M 1.285156 -3 L 4.09375 -3 C 4.054688 -3.421875 3.945312 -3.738281 3.769531 -3.949219 C 3.5 -4.277344 3.148438 -4.441406 2.714844 -4.441406 C 2.324219 -4.441406 1.992188 -4.3125 1.726562 -4.050781 C 1.460938 -3.789062 1.3125 -3.4375 1.285156 -3 Z M 1.285156 -3 "/>
</g>
<g id="glyph-2-11">
<path d="M 0.640625 1.925781 L 0.640625 -5.03125 L 1.417969 -5.03125 L 1.417969 -4.375 C 1.597656 -4.632812 1.804688 -4.824219 2.035156 -4.953125 C 2.265625 -5.078125 2.546875 -5.144531 2.875 -5.144531 C 3.304688 -5.144531 3.683594 -5.03125 4.011719 -4.8125 C 4.339844 -4.589844 4.589844 -4.277344 4.753906 -3.875 C 4.921875 -3.472656 5.007812 -3.03125 5.007812 -2.554688 C 5.007812 -2.039062 4.914062 -1.574219 4.730469 -1.164062 C 4.542969 -0.75 4.277344 -0.433594 3.925781 -0.214844 C 3.570312 0.00390625 3.203125 0.113281 2.8125 0.113281 C 2.527344 0.113281 2.273438 0.0546875 2.046875 -0.0664062 C 1.824219 -0.1875 1.636719 -0.335938 1.492188 -0.519531 L 1.492188 1.925781 L 0.640625 1.925781 M 1.410156 -2.488281 C 1.410156 -1.839844 1.542969 -1.359375 1.804688 -1.050781 C 2.066406 -0.742188 2.382812 -0.585938 2.757812 -0.585938 C 3.136719 -0.585938 3.460938 -0.746094 3.730469 -1.066406 C 4 -1.386719 4.136719 -1.886719 4.136719 -2.558594 C 4.136719 -3.199219 4.003906 -3.679688 3.738281 -3.996094 C 3.476562 -4.316406 3.160156 -4.476562 2.792969 -4.476562 C 2.429688 -4.476562 2.109375 -4.304688 1.832031 -3.964844 C 1.550781 -3.628906 1.410156 -3.132812 1.410156 -2.488281 Z M 1.410156 -2.488281 "/>
</g>
<g id="glyph-2-12">
<path d="M 0.621094 0 L 0.621094 -6.945312 L 1.472656 -6.945312 L 1.472656 0 Z M 0.621094 0 "/>
</g>
<g id="glyph-3-0">
<path d="M 0.757812 0 L 0.757812 -7.300781 L 2.210938 -7.300781 L 3.941406 -2.132812 C 4.097656 -1.648438 4.214844 -1.289062 4.289062 -1.050781 C 4.371094 -1.316406 4.5 -1.707031 4.675781 -2.222656 L 6.425781 -7.300781 L 7.726562 -7.300781 L 7.726562 0 L 6.792969 0 L 6.792969 -6.109375 L 4.671875 0 L 3.800781 0 L 1.6875 -6.214844 L 1.6875 0 Z M 0.757812 0 "/>
</g>
<g id="glyph-3-1">
<path d="M 4.292969 -1.703125 L 5.21875 -1.589844 C 5.074219 -1.046875 4.804688 -0.628906 4.40625 -0.328125 C 4.011719 -0.03125 3.507812 0.121094 2.894531 0.121094 C 2.121094 0.121094 1.507812 -0.117188 1.054688 -0.59375 C 0.601562 -1.070312 0.375 -1.738281 0.375 -2.601562 C 0.375 -3.488281 0.601562 -4.179688 1.0625 -4.671875 C 1.519531 -5.164062 2.113281 -5.410156 2.84375 -5.410156 C 3.550781 -5.410156 4.128906 -5.167969 4.578125 -4.6875 C 5.023438 -4.207031 5.25 -3.527344 5.25 -2.65625 C 5.25 -2.601562 5.246094 -2.523438 5.246094 -2.414062 L 1.300781 -2.414062 C 1.332031 -1.835938 1.496094 -1.390625 1.792969 -1.082031 C 2.089844 -0.773438 2.457031 -0.617188 2.898438 -0.617188 C 3.226562 -0.617188 3.507812 -0.703125 3.742188 -0.875 C 3.972656 -1.050781 4.15625 -1.324219 4.292969 -1.703125 M 1.351562 -3.152344 L 4.304688 -3.152344 C 4.261719 -3.597656 4.148438 -3.929688 3.964844 -4.152344 C 3.679688 -4.5 3.308594 -4.671875 2.855469 -4.671875 C 2.441406 -4.671875 2.097656 -4.535156 1.816406 -4.257812 C 1.535156 -3.984375 1.378906 -3.613281 1.351562 -3.152344 Z M 1.351562 -3.152344 "/>
</g>
<g id="glyph-3-2">
<path d="M 0.667969 -6.261719 L 0.667969 -7.300781 L 1.5625 -7.300781 L 1.5625 -6.261719 L 0.667969 -6.261719 M -0.46875 2.050781 L -0.296875 1.289062 C -0.121094 1.335938 0.0234375 1.359375 0.125 1.359375 C 0.308594 1.359375 0.441406 1.300781 0.53125 1.179688 C 0.621094 1.058594 0.667969 0.753906 0.667969 0.269531 L 0.667969 -5.289062 L 1.5625 -5.289062 L 1.5625 0.289062 C 1.5625 0.941406 1.480469 1.394531 1.308594 1.648438 C 1.09375 1.980469 0.734375 2.148438 0.234375 2.148438 C -0.0078125 2.148438 -0.242188 2.113281 -0.46875 2.050781 Z M -0.46875 2.050781 "/>
</g>
<g id="glyph-3-3">
<path d="M 0.339844 -2.644531 C 0.339844 -3.625 0.609375 -4.347656 1.15625 -4.820312 C 1.609375 -5.210938 2.164062 -5.410156 2.820312 -5.410156 C 3.546875 -5.410156 4.140625 -5.171875 4.601562 -4.695312 C 5.0625 -4.21875 5.292969 -3.558594 5.292969 -2.71875 C 5.292969 -2.039062 5.191406 -1.503906 4.988281 -1.113281 C 4.785156 -0.722656 4.488281 -0.421875 4.097656 -0.203125 C 3.707031 0.0117188 3.28125 0.121094 2.820312 0.121094 C 2.078125 0.121094 1.480469 -0.117188 1.023438 -0.59375 C 0.566406 -1.066406 0.339844 -1.75 0.339844 -2.644531 M 1.261719 -2.644531 C 1.261719 -1.96875 1.40625 -1.460938 1.703125 -1.125 C 2 -0.785156 2.371094 -0.617188 2.820312 -0.617188 C 3.265625 -0.617188 3.632812 -0.785156 3.929688 -1.125 C 4.226562 -1.464844 4.371094 -1.980469 4.371094 -2.675781 C 4.371094 -3.328125 4.222656 -3.824219 3.925781 -4.160156 C 3.628906 -4.5 3.261719 -4.667969 2.820312 -4.667969 C 2.371094 -4.667969 2 -4.5 1.703125 -4.164062 C 1.40625 -3.828125 1.261719 -3.320312 1.261719 -2.644531 Z M 1.261719 -2.644531 "/>
</g>
<g id="glyph-3-4">
<path d="M 0.664062 0 L 0.664062 -5.289062 L 1.46875 -5.289062 L 1.46875 -4.488281 C 1.675781 -4.863281 1.863281 -5.109375 2.039062 -5.230469 C 2.214844 -5.347656 2.40625 -5.410156 2.613281 -5.410156 C 2.917969 -5.410156 3.222656 -5.3125 3.535156 -5.121094 L 3.226562 -4.289062 C 3.007812 -4.417969 2.789062 -4.480469 2.570312 -4.484375 C 2.375 -4.480469 2.199219 -4.421875 2.042969 -4.304688 C 1.886719 -4.1875 1.773438 -4.023438 1.707031 -3.816406 C 1.609375 -3.496094 1.558594 -3.148438 1.558594 -2.769531 L 1.558594 0 Z M 0.664062 0 "/>
</g>
<g id="glyph-3-5">
</g>
<g id="glyph-3-6">
<path d="M 4.125 -1.9375 L 5.003906 -1.824219 C 4.910156 -1.214844 4.664062 -0.738281 4.265625 -0.394531 C 3.867188 -0.0507812 3.382812 0.121094 2.804688 0.121094 C 2.082031 0.121094 1.5 -0.117188 1.058594 -0.589844 C 0.617188 -1.0625 0.398438 -1.742188 0.398438 -2.625 C 0.398438 -3.195312 0.492188 -3.695312 0.683594 -4.125 C 0.871094 -4.550781 1.160156 -4.875 1.546875 -5.085938 C 1.933594 -5.300781 2.355469 -5.410156 2.808594 -5.410156 C 3.382812 -5.410156 3.851562 -5.261719 4.21875 -4.972656 C 4.582031 -4.683594 4.816406 -4.269531 4.921875 -3.734375 L 4.050781 -3.601562 C 3.964844 -3.957031 3.820312 -4.222656 3.609375 -4.402344 C 3.398438 -4.582031 3.144531 -4.671875 2.84375 -4.671875 C 2.390625 -4.671875 2.023438 -4.511719 1.742188 -4.1875 C 1.460938 -3.863281 1.320312 -3.351562 1.320312 -2.648438 C 1.320312 -1.9375 1.457031 -1.421875 1.726562 -1.101562 C 2 -0.777344 2.355469 -0.617188 2.792969 -0.617188 C 3.144531 -0.617188 3.441406 -0.726562 3.675781 -0.941406 C 3.910156 -1.15625 4.0625 -1.488281 4.125 -1.9375 Z M 4.125 -1.9375 "/>
</g>
<g id="glyph-3-7">
<path d="M 4.140625 0 L 4.140625 -0.777344 C 3.726562 -0.179688 3.167969 0.121094 2.460938 0.121094 C 2.148438 0.121094 1.855469 0.0585938 1.585938 -0.0585938 C 1.316406 -0.179688 1.113281 -0.328125 0.984375 -0.511719 C 0.851562 -0.691406 0.761719 -0.914062 0.707031 -1.175781 C 0.671875 -1.351562 0.652344 -1.628906 0.652344 -2.011719 L 0.652344 -5.289062 L 1.550781 -5.289062 L 1.550781 -2.355469 C 1.550781 -1.886719 1.566406 -1.570312 1.605469 -1.410156 C 1.660156 -1.171875 1.78125 -0.988281 1.960938 -0.855469 C 2.144531 -0.71875 2.371094 -0.652344 2.640625 -0.652344 C 2.910156 -0.652344 3.160156 -0.722656 3.398438 -0.859375 C 3.632812 -0.996094 3.800781 -1.183594 3.898438 -1.421875 C 3.996094 -1.660156 4.042969 -2.003906 4.042969 -2.457031 L 4.042969 -5.289062 L 4.941406 -5.289062 L 4.941406 0 Z M 4.140625 0 "/>
</g>
<g id="glyph-3-8">
<path d="M 4.125 -0.652344 C 3.792969 -0.371094 3.472656 -0.171875 3.164062 -0.0546875 C 2.859375 0.0625 2.527344 0.121094 2.175781 0.121094 C 1.59375 0.121094 1.148438 -0.0234375 0.835938 -0.304688 C 0.523438 -0.589844 0.367188 -0.953125 0.367188 -1.394531 C 0.367188 -1.652344 0.425781 -1.890625 0.546875 -2.105469 C 0.664062 -2.320312 0.816406 -2.492188 1.007812 -2.621094 C 1.199219 -2.75 1.414062 -2.847656 1.652344 -2.914062 C 1.828125 -2.960938 2.09375 -3.003906 2.449219 -3.046875 C 3.175781 -3.132812 3.707031 -3.238281 4.050781 -3.355469 C 4.050781 -3.480469 4.054688 -3.558594 4.054688 -3.589844 C 4.054688 -3.957031 3.96875 -4.214844 3.800781 -4.363281 C 3.570312 -4.566406 3.230469 -4.667969 2.777344 -4.667969 C 2.355469 -4.667969 2.046875 -4.59375 1.84375 -4.445312 C 1.644531 -4.296875 1.496094 -4.035156 1.398438 -3.660156 L 0.523438 -3.78125 C 0.601562 -4.15625 0.734375 -4.457031 0.917969 -4.6875 C 1.097656 -4.917969 1.363281 -5.097656 1.707031 -5.222656 C 2.054688 -5.347656 2.453125 -5.410156 2.910156 -5.410156 C 3.359375 -5.410156 3.726562 -5.355469 4.007812 -5.25 C 4.292969 -5.144531 4.5 -5.007812 4.632812 -4.847656 C 4.765625 -4.6875 4.859375 -4.484375 4.910156 -4.238281 C 4.941406 -4.085938 4.957031 -3.808594 4.957031 -3.410156 L 4.957031 -2.214844 C 4.957031 -1.382812 4.976562 -0.855469 5.011719 -0.636719 C 5.050781 -0.414062 5.125 -0.203125 5.238281 0 L 4.304688 0 C 4.210938 -0.1875 4.148438 -0.402344 4.125 -0.652344 M 4.050781 -2.65625 C 3.722656 -2.523438 3.234375 -2.410156 2.585938 -2.316406 C 2.214844 -2.261719 1.957031 -2.203125 1.804688 -2.136719 C 1.648438 -2.070312 1.53125 -1.972656 1.449219 -1.84375 C 1.367188 -1.71875 1.324219 -1.574219 1.324219 -1.417969 C 1.324219 -1.179688 1.414062 -0.980469 1.597656 -0.820312 C 1.777344 -0.664062 2.042969 -0.582031 2.390625 -0.582031 C 2.734375 -0.582031 3.042969 -0.660156 3.3125 -0.808594 C 3.582031 -0.960938 3.777344 -1.167969 3.90625 -1.429688 C 4 -1.632812 4.050781 -1.929688 4.050781 -2.324219 Z M 4.050781 -2.65625 "/>
</g>
<g id="glyph-3-9">
<path d="M 0.671875 0 L 0.671875 -5.289062 L 1.480469 -5.289062 L 1.480469 -4.539062 C 1.867188 -5.117188 2.429688 -5.410156 3.164062 -5.410156 C 3.480469 -5.410156 3.773438 -5.351562 4.042969 -5.238281 C 4.308594 -5.121094 4.507812 -4.972656 4.640625 -4.785156 C 4.773438 -4.601562 4.867188 -4.378906 4.921875 -4.125 C 4.953125 -3.957031 4.96875 -3.667969 4.96875 -3.253906 L 4.96875 0 L 4.074219 0 L 4.074219 -3.21875 C 4.074219 -3.582031 4.039062 -3.855469 3.96875 -4.035156 C 3.898438 -4.21875 3.777344 -4.363281 3.597656 -4.46875 C 3.421875 -4.578125 3.210938 -4.632812 2.972656 -4.632812 C 2.589844 -4.632812 2.261719 -4.511719 1.984375 -4.269531 C 1.707031 -4.027344 1.570312 -3.566406 1.570312 -2.890625 L 1.570312 0 Z M 0.671875 0 "/>
</g>
<g id="glyph-3-10">
<path d="M 4.105469 0 L 4.105469 -0.667969 C 3.769531 -0.144531 3.277344 0.121094 2.625 0.121094 C 2.203125 0.121094 1.816406 0.00390625 1.460938 -0.230469 C 1.109375 -0.460938 0.835938 -0.785156 0.640625 -1.203125 C 0.445312 -1.621094 0.347656 -2.097656 0.347656 -2.640625 C 0.347656 -3.167969 0.4375 -3.648438 0.613281 -4.078125 C 0.789062 -4.507812 1.050781 -4.835938 1.40625 -5.066406 C 1.757812 -5.292969 2.148438 -5.410156 2.585938 -5.410156 C 2.902344 -5.410156 3.1875 -5.339844 3.4375 -5.207031 C 3.683594 -5.074219 3.886719 -4.898438 4.042969 -4.679688 L 4.042969 -7.300781 L 4.9375 -7.300781 L 4.9375 0 L 4.105469 0 M 1.269531 -2.640625 C 1.269531 -1.960938 1.414062 -1.457031 1.699219 -1.121094 C 1.984375 -0.785156 2.320312 -0.617188 2.710938 -0.617188 C 3.101562 -0.617188 3.433594 -0.777344 3.707031 -1.097656 C 3.980469 -1.417969 4.117188 -1.90625 4.117188 -2.566406 C 4.117188 -3.289062 3.980469 -3.820312 3.699219 -4.160156 C 3.421875 -4.496094 3.078125 -4.667969 2.667969 -4.667969 C 2.269531 -4.667969 1.9375 -4.503906 1.671875 -4.179688 C 1.402344 -3.851562 1.269531 -3.339844 1.269531 -2.640625 Z M 1.269531 -2.640625 "/>
</g>
<g id="glyph-3-11">
<path d="M 0.652344 0 L 0.652344 -7.300781 L 1.550781 -7.300781 L 1.550781 0 Z M 0.652344 0 "/>
</g>
<g id="glyph-3-12">
<path d="M 0.886719 0 L 0.886719 -4.59375 L 0.09375 -4.59375 L 0.09375 -5.289062 L 0.886719 -5.289062 L 0.886719 -5.851562 C 0.886719 -6.207031 0.917969 -6.472656 0.980469 -6.644531 C 1.066406 -6.875 1.21875 -7.066406 1.4375 -7.210938 C 1.65625 -7.355469 1.957031 -7.425781 2.351562 -7.425781 C 2.601562 -7.425781 2.882812 -7.394531 3.1875 -7.335938 L 3.054688 -6.554688 C 2.867188 -6.585938 2.691406 -6.605469 2.523438 -6.605469 C 2.253906 -6.605469 2.058594 -6.546875 1.949219 -6.429688 C 1.835938 -6.3125 1.777344 -6.097656 1.777344 -5.777344 L 1.777344 -5.289062 L 2.808594 -5.289062 L 2.808594 -4.59375 L 1.777344 -4.59375 L 1.777344 0 Z M 0.886719 0 "/>
</g>
<g id="glyph-3-13">
<path d="M 0.3125 -1.578125 L 1.199219 -1.71875 C 1.25 -1.363281 1.390625 -1.089844 1.617188 -0.902344 C 1.84375 -0.710938 2.160156 -0.617188 2.570312 -0.617188 C 2.980469 -0.617188 3.285156 -0.703125 3.484375 -0.867188 C 3.683594 -1.035156 3.785156 -1.234375 3.785156 -1.460938 C 3.785156 -1.660156 3.695312 -1.820312 3.519531 -1.9375 C 3.398438 -2.015625 3.09375 -2.117188 2.605469 -2.242188 C 1.949219 -2.40625 1.492188 -2.550781 1.238281 -2.671875 C 0.984375 -2.792969 0.792969 -2.960938 0.660156 -3.175781 C 0.527344 -3.390625 0.464844 -3.625 0.464844 -3.882812 C 0.464844 -4.121094 0.515625 -4.339844 0.625 -4.539062 C 0.734375 -4.742188 0.878906 -4.90625 1.066406 -5.039062 C 1.207031 -5.144531 1.394531 -5.230469 1.636719 -5.300781 C 1.875 -5.375 2.136719 -5.410156 2.410156 -5.410156 C 2.824219 -5.410156 3.191406 -5.347656 3.503906 -5.230469 C 3.816406 -5.109375 4.050781 -4.949219 4.199219 -4.742188 C 4.347656 -4.539062 4.449219 -4.265625 4.507812 -3.925781 L 3.628906 -3.804688 C 3.589844 -4.078125 3.476562 -4.289062 3.285156 -4.441406 C 3.09375 -4.59375 2.824219 -4.671875 2.476562 -4.671875 C 2.0625 -4.671875 1.769531 -4.605469 1.59375 -4.46875 C 1.417969 -4.332031 1.328125 -4.171875 1.328125 -3.988281 C 1.328125 -3.875 1.367188 -3.769531 1.4375 -3.675781 C 1.511719 -3.578125 1.625 -3.5 1.78125 -3.4375 C 1.871094 -3.402344 2.136719 -3.328125 2.574219 -3.207031 C 3.210938 -3.039062 3.652344 -2.898438 3.902344 -2.792969 C 4.152344 -2.683594 4.347656 -2.527344 4.492188 -2.320312 C 4.636719 -2.113281 4.707031 -1.859375 4.707031 -1.554688 C 4.707031 -1.253906 4.621094 -0.972656 4.445312 -0.710938 C 4.269531 -0.445312 4.019531 -0.242188 3.691406 -0.0976562 C 3.363281 0.046875 2.988281 0.121094 2.574219 0.121094 C 1.886719 0.121094 1.363281 -0.0234375 1.003906 -0.308594 C 0.644531 -0.59375 0.414062 -1.019531 0.3125 -1.578125 Z M 0.3125 -1.578125 "/>
</g>
<g id="glyph-3-14">
<path d="M 2.628906 -0.800781 L 2.757812 -0.0117188 C 2.507812 0.0429688 2.28125 0.0703125 2.082031 0.0703125 C 1.757812 0.0703125 1.503906 0.0195312 1.324219 -0.0859375 C 1.144531 -0.1875 1.019531 -0.324219 0.945312 -0.492188 C 0.875 -0.660156 0.835938 -1.011719 0.835938 -1.550781 L 0.835938 -4.59375 L 0.179688 -4.59375 L 0.179688 -5.289062 L 0.835938 -5.289062 L 0.835938 -6.597656 L 1.726562 -7.136719 L 1.726562 -5.289062 L 2.628906 -5.289062 L 2.628906 -4.59375 L 1.726562 -4.59375 L 1.726562 -1.5 C 1.726562 -1.242188 1.742188 -1.078125 1.777344 -1.007812 C 1.808594 -0.933594 1.859375 -0.875 1.929688 -0.832031 C 2 -0.789062 2.101562 -0.765625 2.234375 -0.765625 C 2.335938 -0.765625 2.46875 -0.777344 2.628906 -0.800781 Z M 2.628906 -0.800781 "/>
</g>
<g id="glyph-3-15">
<path d="M 4.125 -0.652344 C 3.792969 -0.371094 3.472656 -0.171875 3.164062 -0.0546875 C 2.859375 0.0625 2.527344 0.121094 2.175781 0.121094 C 1.59375 0.121094 1.148438 -0.0234375 0.835938 -0.304688 C 0.523438 -0.589844 0.367188 -0.953125 0.367188 -1.394531 C 0.367188 -1.652344 0.425781 -1.890625 0.546875 -2.105469 C 0.664062 -2.320312 0.816406 -2.492188 1.007812 -2.621094 C 1.199219 -2.75 1.414062 -2.847656 1.652344 -2.914062 C 1.828125 -2.960938 2.09375 -3.003906 2.449219 -3.046875 C 3.175781 -3.132812 3.707031 -3.238281 4.050781 -3.355469 C 4.050781 -3.480469 4.054688 -3.558594 4.054688 -3.589844 C 4.054688 -3.957031 3.96875 -4.214844 3.800781 -4.363281 C 3.570312 -4.566406 3.230469 -4.667969 2.777344 -4.667969 C 2.355469 -4.667969 2.046875 -4.59375 1.84375 -4.445312 C 1.644531 -4.296875 1.496094 -4.035156 1.398438 -3.660156 L 0.523438 -3.78125 C 0.601562 -4.15625 0.734375 -4.457031 0.917969 -4.6875 C 1.097656 -4.917969 1.363281 -5.097656 1.707031 -5.222656 C 2.054688 -5.347656 2.453125 -5.410156 2.910156 -5.410156 C 3.359375 -5.410156 3.726562 -5.355469 4.007812 -5.25 C 4.292969 -5.144531 4.5 -5.007812 4.632812 -4.847656 C 4.765625 -4.6875 4.859375 -4.484375 4.910156 -4.238281 C 4.941406 -4.085938 4.957031 -3.808594 4.957031 -3.410156 L 4.957031 -2.214844 C 4.957031 -1.382812 4.976562 -0.855469 5.011719 -0.636719 C 5.050781 -0.414062 5.125 -0.203125 5.238281 0 L 4.304688 0 C 4.210938 -0.1875 4.148438 -0.402344 4.125 -0.652344 M 4.050781 -2.65625 C 3.722656 -2.523438 3.234375 -2.410156 2.585938 -2.316406 C 2.214844 -2.261719 1.957031 -2.203125 1.804688 -2.136719 C 1.648438 -2.070312 1.53125 -1.972656 1.449219 -1.84375 C 1.367188 -1.71875 1.324219 -1.574219 1.324219 -1.417969 C 1.324219 -1.179688 1.414062 -0.980469 1.597656 -0.820312 C 1.777344 -0.664062 2.042969 -0.582031 2.390625 -0.582031 C 2.734375 -0.582031 3.042969 -0.660156 3.3125 -0.808594 C 3.582031 -0.960938 3.777344 -1.167969 3.90625 -1.429688 C 4 -1.632812 4.050781 -1.929688 4.050781 -2.324219 L 4.050781 -2.65625 M 2.304688 -5.945312 L 2.96875 -7.339844 L 4.144531 -7.339844 L 3.046875 -5.945312 Z M 2.304688 -5.945312 "/>
</g>
<g id="glyph-3-16">
<path d="M 0.671875 0 L 0.671875 -5.289062 L 1.472656 -5.289062 L 1.472656 -4.546875 C 1.640625 -4.804688 1.859375 -5.015625 2.136719 -5.171875 C 2.414062 -5.328125 2.726562 -5.410156 3.078125 -5.410156 C 3.46875 -5.410156 3.789062 -5.328125 4.042969 -5.164062 C 4.292969 -5.003906 4.46875 -4.773438 4.570312 -4.484375 C 4.992188 -5.101562 5.535156 -5.410156 6.207031 -5.410156 C 6.730469 -5.410156 7.132812 -5.261719 7.414062 -4.972656 C 7.699219 -4.683594 7.839844 -4.234375 7.839844 -3.628906 L 7.839844 0 L 6.949219 0 L 6.949219 -3.332031 C 6.949219 -3.691406 6.917969 -3.949219 6.859375 -4.105469 C 6.800781 -4.265625 6.695312 -4.390625 6.542969 -4.488281 C 6.390625 -4.582031 6.210938 -4.632812 6.007812 -4.632812 C 5.632812 -4.632812 5.324219 -4.507812 5.078125 -4.261719 C 4.835938 -4.011719 4.710938 -3.617188 4.710938 -3.074219 L 4.710938 0 L 3.816406 0 L 3.816406 -3.4375 C 3.816406 -3.835938 3.742188 -4.132812 3.597656 -4.332031 C 3.449219 -4.53125 3.210938 -4.632812 2.878906 -4.632812 C 2.625 -4.632812 2.394531 -4.566406 2.179688 -4.433594 C 1.964844 -4.300781 1.808594 -4.105469 1.714844 -3.851562 C 1.617188 -3.59375 1.570312 -3.226562 1.570312 -2.746094 L 1.570312 0 Z M 0.671875 0 "/>
</g>
<g id="glyph-3-17">
<path d="M 0.671875 2.027344 L 0.671875 -5.289062 L 1.488281 -5.289062 L 1.488281 -4.601562 C 1.683594 -4.871094 1.898438 -5.074219 2.140625 -5.207031 C 2.382812 -5.339844 2.679688 -5.410156 3.023438 -5.410156 C 3.476562 -5.410156 3.875 -5.292969 4.21875 -5.058594 C 4.5625 -4.828125 4.824219 -4.5 5 -4.078125 C 5.175781 -3.652344 5.265625 -3.1875 5.265625 -2.683594 C 5.265625 -2.144531 5.167969 -1.65625 4.972656 -1.222656 C 4.777344 -0.789062 4.496094 -0.457031 4.125 -0.226562 C 3.757812 0.00390625 3.367188 0.121094 2.957031 0.121094 C 2.660156 0.121094 2.390625 0.0546875 2.152344 -0.0703125 C 1.917969 -0.195312 1.722656 -0.355469 1.570312 -0.546875 L 1.570312 2.027344 L 0.671875 2.027344 M 1.484375 -2.613281 C 1.484375 -1.933594 1.621094 -1.429688 1.898438 -1.105469 C 2.171875 -0.78125 2.507812 -0.617188 2.898438 -0.617188 C 3.296875 -0.617188 3.636719 -0.785156 3.921875 -1.125 C 4.207031 -1.460938 4.347656 -1.980469 4.347656 -2.6875 C 4.347656 -3.363281 4.210938 -3.867188 3.933594 -4.203125 C 3.65625 -4.539062 3.324219 -4.707031 2.9375 -4.707031 C 2.554688 -4.707031 2.21875 -4.527344 1.925781 -4.171875 C 1.632812 -3.8125 1.484375 -3.296875 1.484375 -2.613281 Z M 1.484375 -2.613281 "/>
</g>
<g id="glyph-3-18">
<path d="M 0.632812 2.035156 L 0.53125 1.195312 C 0.730469 1.25 0.898438 1.273438 1.046875 1.273438 C 1.246094 1.273438 1.40625 1.242188 1.523438 1.175781 C 1.644531 1.109375 1.742188 1.015625 1.816406 0.894531 C 1.875 0.808594 1.964844 0.585938 2.09375 0.230469 C 2.109375 0.179688 2.136719 0.105469 2.171875 0.0117188 L 0.164062 -5.289062 L 1.128906 -5.289062 L 2.230469 -2.226562 C 2.375 -1.835938 2.5 -1.429688 2.613281 -1 C 2.71875 -1.414062 2.839844 -1.816406 2.984375 -2.207031 L 4.113281 -5.289062 L 5.011719 -5.289062 L 3 0.0898438 C 2.78125 0.671875 2.613281 1.070312 2.496094 1.289062 C 2.335938 1.585938 2.152344 1.800781 1.949219 1.941406 C 1.742188 2.078125 1.496094 2.148438 1.210938 2.148438 C 1.039062 2.148438 0.84375 2.109375 0.632812 2.035156 Z M 0.632812 2.035156 "/>
</g>
<g id="glyph-3-19">
<path d="M 0.675781 -6.269531 L 0.675781 -7.300781 L 1.574219 -7.300781 L 1.574219 -6.269531 L 0.675781 -6.269531 M 0.675781 0 L 0.675781 -5.289062 L 1.574219 -5.289062 L 1.574219 0 Z M 0.675781 0 "/>
</g>
<g id="glyph-4-0">
<path d="M 8.207031 -3.023438 L 7.882812 0 L 0.242188 0 L 0.242188 -0.234375 L 0.527344 -0.234375 C 0.777344 -0.234375 0.976562 -0.28125 1.128906 -0.367188 C 1.238281 -0.425781 1.324219 -0.527344 1.382812 -0.671875 C 1.429688 -0.773438 1.453125 -1.039062 1.453125 -1.472656 L 1.453125 -7.132812 C 1.453125 -7.574219 1.429688 -7.851562 1.382812 -7.960938 C 1.335938 -8.070312 1.242188 -8.167969 1.101562 -8.25 C 0.960938 -8.332031 0.769531 -8.371094 0.527344 -8.371094 L 0.242188 -8.371094 L 0.242188 -8.609375 L 4.832031 -8.609375 L 4.832031 -8.371094 L 4.457031 -8.371094 C 4.207031 -8.371094 4.003906 -8.328125 3.851562 -8.238281 C 3.742188 -8.179688 3.65625 -8.078125 3.59375 -7.933594 C 3.546875 -7.832031 3.523438 -7.566406 3.523438 -7.132812 L 3.523438 -1.648438 C 3.523438 -1.210938 3.546875 -0.929688 3.597656 -0.808594 C 3.648438 -0.6875 3.75 -0.597656 3.898438 -0.539062 C 4.003906 -0.5 4.257812 -0.484375 4.664062 -0.484375 L 5.382812 -0.484375 C 5.839844 -0.484375 6.21875 -0.5625 6.523438 -0.722656 C 6.828125 -0.882812 7.09375 -1.136719 7.316406 -1.484375 C 7.539062 -1.832031 7.75 -2.34375 7.945312 -3.023438 Z M 8.207031 -3.023438 "/>
</g>
<g id="glyph-4-1">
<path d="M 1.867188 -8.8125 C 2.140625 -8.8125 2.375 -8.714844 2.5625 -8.523438 C 2.753906 -8.328125 2.851562 -8.097656 2.851562 -7.828125 C 2.851562 -7.554688 2.753906 -7.324219 2.5625 -7.132812 C 2.367188 -6.945312 2.136719 -6.847656 1.867188 -6.847656 C 1.59375 -6.847656 1.363281 -6.945312 1.175781 -7.132812 C 0.984375 -7.324219 0.890625 -7.554688 0.890625 -7.828125 C 0.890625 -8.097656 0.984375 -8.328125 1.175781 -8.523438 C 1.363281 -8.714844 1.59375 -8.8125 1.867188 -8.8125 M 2.753906 -5.933594 L 2.753906 -1.230469 C 2.753906 -0.8125 2.804688 -0.542969 2.902344 -0.429688 C 3 -0.3125 3.1875 -0.246094 3.472656 -0.226562 L 3.472656 0 L 0.265625 0 L 0.265625 -0.226562 C 0.527344 -0.238281 0.722656 -0.3125 0.851562 -0.457031 C 0.933594 -0.554688 0.976562 -0.8125 0.976562 -1.230469 L 0.976562 -4.695312 C 0.976562 -5.117188 0.929688 -5.382812 0.832031 -5.5 C 0.734375 -5.617188 0.546875 -5.683594 0.265625 -5.699219 L 0.265625 -5.933594 Z M 2.753906 -5.933594 "/>
</g>
<g id="glyph-4-2">
<path d="M 2.863281 -5.933594 L 2.863281 -5.167969 C 3.167969 -5.496094 3.460938 -5.738281 3.738281 -5.886719 C 4.019531 -6.039062 4.320312 -6.113281 4.640625 -6.113281 C 5.023438 -6.113281 5.34375 -6.007812 5.597656 -5.792969 C 5.851562 -5.578125 6.023438 -5.3125 6.105469 -4.996094 C 6.175781 -4.753906 6.207031 -4.289062 6.207031 -3.605469 L 6.207031 -1.296875 C 6.207031 -0.835938 6.25 -0.554688 6.332031 -0.441406 C 6.414062 -0.328125 6.585938 -0.257812 6.847656 -0.226562 L 6.847656 0 L 3.847656 0 L 3.847656 -0.226562 C 4.070312 -0.257812 4.230469 -0.351562 4.328125 -0.507812 C 4.398438 -0.613281 4.429688 -0.875 4.429688 -1.296875 L 4.429688 -3.9375 C 4.429688 -4.421875 4.410156 -4.730469 4.375 -4.855469 C 4.335938 -4.984375 4.269531 -5.082031 4.179688 -5.152344 C 4.089844 -5.222656 3.988281 -5.253906 3.878906 -5.257812 C 3.515625 -5.253906 3.175781 -4.996094 2.863281 -4.476562 L 2.863281 -1.296875 C 2.863281 -0.851562 2.902344 -0.570312 2.988281 -0.449219 C 3.070312 -0.332031 3.222656 -0.257812 3.445312 -0.226562 L 3.445312 0 L 0.445312 0 L 0.445312 -0.226562 C 0.695312 -0.253906 0.871094 -0.335938 0.976562 -0.46875 C 1.050781 -0.5625 1.085938 -0.835938 1.085938 -1.296875 L 1.085938 -4.648438 C 1.085938 -5.09375 1.042969 -5.375 0.960938 -5.484375 C 0.878906 -5.59375 0.707031 -5.667969 0.445312 -5.699219 L 0.445312 -5.933594 Z M 2.863281 -5.933594 "/>
</g>
<g id="glyph-4-3">
<path d="M 5.464844 -3.179688 L 2.210938 -3.179688 C 2.246094 -2.394531 2.457031 -1.769531 2.835938 -1.3125 C 3.128906 -0.960938 3.480469 -0.789062 3.890625 -0.789062 C 4.144531 -0.789062 4.375 -0.859375 4.582031 -1 C 4.789062 -1.140625 5.011719 -1.398438 5.25 -1.765625 L 5.464844 -1.625 C 5.144531 -0.96875 4.789062 -0.503906 4.398438 -0.230469 C 4.007812 0.0429688 3.558594 0.179688 3.046875 0.179688 C 2.167969 0.179688 1.5 -0.160156 1.046875 -0.835938 C 0.683594 -1.382812 0.5 -2.0625 0.5 -2.867188 C 0.5 -3.859375 0.769531 -4.648438 1.304688 -5.234375 C 1.839844 -5.820312 2.46875 -6.113281 3.1875 -6.113281 C 3.789062 -6.113281 4.308594 -5.867188 4.75 -5.375 C 5.195312 -4.878906 5.429688 -4.148438 5.464844 -3.179688 M 3.902344 -3.605469 C 3.902344 -4.285156 3.867188 -4.753906 3.792969 -5.007812 C 3.71875 -5.261719 3.601562 -5.453125 3.445312 -5.585938 C 3.359375 -5.664062 3.238281 -5.699219 3.089844 -5.699219 C 2.871094 -5.699219 2.691406 -5.59375 2.550781 -5.375 C 2.300781 -5 2.175781 -4.484375 2.175781 -3.828125 L 2.175781 -3.605469 Z M 3.902344 -3.605469 "/>
</g>
<g id="glyph-4-4">
</g>
<g id="glyph-4-5">
<path d="M 2.734375 -0.601562 L 2.734375 1.605469 C 2.734375 1.910156 2.761719 2.117188 2.808594 2.226562 C 2.859375 2.339844 2.933594 2.417969 3.035156 2.46875 C 3.136719 2.519531 3.335938 2.546875 3.632812 2.546875 L 3.632812 2.78125 L 0.246094 2.78125 L 0.246094 2.546875 C 0.511719 2.535156 0.703125 2.460938 0.832031 2.324219 C 0.917969 2.226562 0.957031 1.972656 0.957031 1.566406 L 0.957031 -4.695312 C 0.957031 -5.117188 0.910156 -5.382812 0.8125 -5.5 C 0.714844 -5.617188 0.527344 -5.683594 0.246094 -5.699219 L 0.246094 -5.933594 L 2.734375 -5.933594 L 2.734375 -5.15625 C 2.941406 -5.460938 3.15625 -5.679688 3.371094 -5.8125 C 3.679688 -6.011719 4.015625 -6.113281 4.378906 -6.113281 C 4.816406 -6.113281 5.210938 -5.976562 5.570312 -5.699219 C 5.925781 -5.425781 6.199219 -5.046875 6.386719 -4.5625 C 6.570312 -4.078125 6.664062 -3.554688 6.664062 -2.996094 C 6.664062 -2.394531 6.570312 -1.847656 6.375 -1.347656 C 6.183594 -0.851562 5.90625 -0.472656 5.539062 -0.210938 C 5.171875 0.046875 4.765625 0.179688 4.316406 0.179688 C 3.992188 0.179688 3.6875 0.105469 3.402344 -0.0390625 C 3.191406 -0.148438 2.96875 -0.335938 2.734375 -0.601562 M 2.734375 -1.242188 C 3.101562 -0.726562 3.488281 -0.46875 3.902344 -0.46875 C 4.132812 -0.46875 4.320312 -0.589844 4.46875 -0.832031 C 4.6875 -1.1875 4.796875 -1.863281 4.796875 -2.863281 C 4.796875 -3.886719 4.679688 -4.585938 4.4375 -4.964844 C 4.277344 -5.214844 4.058594 -5.339844 3.789062 -5.339844 C 3.363281 -5.339844 3.011719 -5.03125 2.734375 -4.410156 Z M 2.734375 -1.242188 "/>
</g>
<g id="glyph-4-6">
<path d="M 2.761719 -8.609375 L 2.761719 -1.230469 C 2.761719 -0.8125 2.808594 -0.542969 2.90625 -0.429688 C 3.003906 -0.3125 3.195312 -0.246094 3.476562 -0.226562 L 3.476562 0 L 0.273438 0 L 0.273438 -0.226562 C 0.535156 -0.238281 0.730469 -0.3125 0.855469 -0.457031 C 0.941406 -0.554688 0.984375 -0.8125 0.984375 -1.230469 L 0.984375 -7.375 C 0.984375 -7.789062 0.933594 -8.054688 0.835938 -8.171875 C 0.742188 -8.289062 0.550781 -8.355469 0.273438 -8.371094 L 0.273438 -8.609375 Z M 2.761719 -8.609375 "/>
</g>
<g id="glyph-4-7">
<path d="M 3.238281 -6.113281 C 3.753906 -6.113281 4.234375 -5.980469 4.679688 -5.710938 C 5.121094 -5.445312 5.460938 -5.066406 5.691406 -4.578125 C 5.921875 -4.085938 6.035156 -3.546875 6.035156 -2.964844 C 6.035156 -2.121094 5.824219 -1.417969 5.394531 -0.851562 C 4.878906 -0.164062 4.167969 0.179688 3.257812 0.179688 C 2.363281 0.179688 1.675781 -0.136719 1.195312 -0.761719 C 0.710938 -1.386719 0.46875 -2.113281 0.46875 -2.9375 C 0.46875 -3.789062 0.714844 -4.53125 1.210938 -5.164062 C 1.703125 -5.796875 2.378906 -6.113281 3.238281 -6.113281 M 3.261719 -5.664062 C 3.046875 -5.664062 2.863281 -5.582031 2.707031 -5.417969 C 2.554688 -5.253906 2.453125 -4.933594 2.402344 -4.453125 C 2.355469 -3.972656 2.328125 -3.304688 2.328125 -2.449219 C 2.328125 -1.996094 2.359375 -1.574219 2.417969 -1.179688 C 2.464844 -0.878906 2.5625 -0.652344 2.71875 -0.496094 C 2.867188 -0.339844 3.042969 -0.261719 3.238281 -0.261719 C 3.429688 -0.261719 3.585938 -0.3125 3.714844 -0.417969 C 3.878906 -0.5625 3.988281 -0.765625 4.042969 -1.023438 C 4.128906 -1.425781 4.171875 -2.238281 4.171875 -3.460938 C 4.171875 -4.179688 4.128906 -4.671875 4.050781 -4.941406 C 3.96875 -5.210938 3.851562 -5.40625 3.695312 -5.527344 C 3.585938 -5.617188 3.441406 -5.664062 3.261719 -5.664062 Z M 3.261719 -5.664062 "/>
</g>
<g id="glyph-4-8">
<path d="M 2.792969 -8.105469 L 2.792969 -5.933594 L 4.203125 -5.933594 L 4.203125 -5.304688 L 2.792969 -5.304688 L 2.792969 -1.644531 C 2.792969 -1.300781 2.808594 -1.082031 2.839844 -0.980469 C 2.871094 -0.882812 2.929688 -0.800781 3.007812 -0.738281 C 3.089844 -0.679688 3.164062 -0.648438 3.230469 -0.648438 C 3.507812 -0.648438 3.765625 -0.855469 4.011719 -1.277344 L 4.203125 -1.136719 C 3.859375 -0.324219 3.304688 0.0820312 2.53125 0.0820312 C 2.15625 0.0820312 1.835938 -0.0234375 1.578125 -0.230469 C 1.316406 -0.441406 1.152344 -0.675781 1.078125 -0.933594 C 1.035156 -1.078125 1.015625 -1.464844 1.015625 -2.101562 L 1.015625 -5.304688 L 0.242188 -5.304688 L 0.242188 -5.527344 C 0.773438 -5.90625 1.226562 -6.300781 1.601562 -6.714844 C 1.976562 -7.128906 2.304688 -7.59375 2.582031 -8.105469 Z M 2.792969 -8.105469 "/>
</g>
<g id="glyph-4-9">
<path d="M 2.902344 -5.933594 L 2.902344 -5.15625 C 3.226562 -5.507812 3.527344 -5.757812 3.804688 -5.898438 C 4.082031 -6.042969 4.386719 -6.113281 4.714844 -6.113281 C 5.097656 -6.113281 5.417969 -6.023438 5.675781 -5.847656 C 5.933594 -5.667969 6.132812 -5.398438 6.273438 -5.035156 C 6.609375 -5.414062 6.933594 -5.691406 7.246094 -5.859375 C 7.558594 -6.027344 7.882812 -6.113281 8.21875 -6.113281 C 8.628906 -6.113281 8.957031 -6.019531 9.199219 -5.832031 C 9.445312 -5.640625 9.613281 -5.402344 9.707031 -5.113281 C 9.804688 -4.824219 9.851562 -4.359375 9.851562 -3.726562 L 9.851562 -1.296875 C 9.851562 -0.835938 9.894531 -0.554688 9.976562 -0.445312 C 10.058594 -0.335938 10.230469 -0.261719 10.492188 -0.226562 L 10.492188 0 L 7.425781 0 L 7.425781 -0.226562 C 7.667969 -0.25 7.84375 -0.34375 7.960938 -0.507812 C 8.035156 -0.621094 8.074219 -0.882812 8.074219 -1.296875 L 8.074219 -3.847656 C 8.074219 -4.375 8.054688 -4.710938 8.011719 -4.855469 C 7.96875 -5 7.902344 -5.105469 7.8125 -5.175781 C 7.71875 -5.246094 7.613281 -5.28125 7.492188 -5.28125 C 7.308594 -5.28125 7.125 -5.214844 6.9375 -5.082031 C 6.75 -4.949219 6.5625 -4.75 6.375 -4.480469 L 6.375 -1.296875 C 6.375 -0.867188 6.410156 -0.597656 6.480469 -0.488281 C 6.578125 -0.332031 6.765625 -0.246094 7.039062 -0.226562 L 7.039062 0 L 3.96875 0 L 3.96875 -0.226562 C 4.132812 -0.238281 4.261719 -0.277344 4.359375 -0.351562 C 4.453125 -0.425781 4.515625 -0.515625 4.546875 -0.617188 C 4.578125 -0.722656 4.59375 -0.949219 4.59375 -1.296875 L 4.59375 -3.847656 C 4.59375 -4.382812 4.574219 -4.71875 4.53125 -4.855469 C 4.488281 -4.992188 4.417969 -5.097656 4.320312 -5.171875 C 4.21875 -5.25 4.113281 -5.289062 4 -5.289062 C 3.828125 -5.289062 3.675781 -5.242188 3.535156 -5.15625 C 3.335938 -5.023438 3.125 -4.796875 2.902344 -4.480469 L 2.902344 -1.296875 C 2.902344 -0.875 2.941406 -0.601562 3.023438 -0.464844 C 3.105469 -0.332031 3.28125 -0.253906 3.542969 -0.226562 L 3.542969 0 L 0.484375 0 L 0.484375 -0.226562 C 0.730469 -0.253906 0.910156 -0.335938 1.015625 -0.46875 C 1.085938 -0.5625 1.125 -0.835938 1.125 -1.296875 L 1.125 -4.648438 C 1.125 -5.09375 1.082031 -5.375 1 -5.484375 C 0.917969 -5.59375 0.746094 -5.667969 0.484375 -5.699219 L 0.484375 -5.933594 Z M 2.902344 -5.933594 "/>
</g>
<g id="glyph-4-10">
<path d="M 6.171875 -5.933594 L 6.171875 -1.289062 C 6.167969 -0.835938 6.210938 -0.554688 6.296875 -0.441406 C 6.382812 -0.328125 6.554688 -0.257812 6.8125 -0.226562 L 6.8125 0 L 4.390625 0 L 4.390625 -0.792969 C 4.109375 -0.453125 3.824219 -0.207031 3.542969 -0.0546875 C 3.257812 0.101562 2.941406 0.179688 2.589844 0.179688 C 2.253906 0.179688 1.957031 0.0742188 1.699219 -0.128906 C 1.4375 -0.335938 1.261719 -0.574219 1.175781 -0.851562 C 1.085938 -1.125 1.039062 -1.605469 1.039062 -2.292969 L 1.039062 -4.648438 C 1.039062 -5.09375 1 -5.375 0.917969 -5.484375 C 0.835938 -5.59375 0.664062 -5.667969 0.398438 -5.699219 L 0.398438 -5.933594 L 2.820312 -5.933594 L 2.820312 -1.878906 C 2.816406 -1.457031 2.839844 -1.183594 2.878906 -1.058594 C 2.917969 -0.9375 2.980469 -0.84375 3.070312 -0.78125 C 3.15625 -0.71875 3.257812 -0.683594 3.371094 -0.6875 C 3.523438 -0.683594 3.660156 -0.726562 3.78125 -0.804688 C 3.953125 -0.917969 4.15625 -1.136719 4.390625 -1.472656 L 4.390625 -4.648438 C 4.390625 -5.09375 4.351562 -5.375 4.269531 -5.484375 C 4.1875 -5.59375 4.015625 -5.667969 3.75 -5.699219 L 3.75 -5.933594 L 6.171875 -5.933594 M 5.515625 -8.898438 L 3.414062 -6.695312 L 2.867188 -6.695312 L 3.605469 -8.898438 Z M 5.515625 -8.898438 "/>
</g>
</g>
<clipPath id="clip-0">
<path clip-rule="nonzero" d="M 47.300781 90.957031 L 533.054688 90.957031 L 533.054688 312.117188 L 47.300781 312.117188 Z M 47.300781 90.957031 "/>
</clipPath>
<clipPath id="clip-1">
<path clip-rule="nonzero" d="M 47.300781 263 L 533.054688 263 L 533.054688 265 L 47.300781 265 Z M 47.300781 263 "/>
</clipPath>
<clipPath id="clip-2">
<path clip-rule="nonzero" d="M 47.300781 213 L 533.054688 213 L 533.054688 215 L 47.300781 215 Z M 47.300781 213 "/>
</clipPath>
<clipPath id="clip-3">
<path clip-rule="nonzero" d="M 47.300781 163 L 533.054688 163 L 533.054688 165 L 47.300781 165 Z M 47.300781 163 "/>
</clipPath>
<clipPath id="clip-4">
<path clip-rule="nonzero" d="M 47.300781 113 L 533.054688 113 L 533.054688 115 L 47.300781 115 Z M 47.300781 113 "/>
</clipPath>
<clipPath id="clip-5">
<path clip-rule="nonzero" d="M 68 90.957031 L 70 90.957031 L 70 312.117188 L 68 312.117188 Z M 68 90.957031 "/>
</clipPath>
<clipPath id="clip-6">
<path clip-rule="nonzero" d="M 248 90.957031 L 250 90.957031 L 250 312.117188 L 248 312.117188 Z M 248 90.957031 "/>
</clipPath>
<clipPath id="clip-7">
<path clip-rule="nonzero" d="M 428 90.957031 L 430 90.957031 L 430 312.117188 L 428 312.117188 Z M 428 90.957031 "/>
</clipPath>
</defs>
<rect x="-54.7" y="-34.5" width="656.4" height="414" fill="rgb(100%, 100%, 100%)" fill-opacity="1"/>
<rect x="-54.7" y="-34.5" width="656.4" height="414" fill="rgb(98.431373%, 96.862745%, 94.117647%)" fill-opacity="1"/>
<g clip-path="url(#clip-0)">
<path fill-rule="nonzero" fill="rgb(98.431373%, 96.862745%, 94.117647%)" fill-opacity="1" d="M 47.300781 312.117188 L 533.054688 312.117188 L 533.054688 90.957031 L 47.300781 90.957031 Z M 47.300781 312.117188 "/>
</g>
<g clip-path="url(#clip-1)">
<path fill="none" stroke-width="0.853583" stroke-linecap="butt" stroke-linejoin="round" stroke="rgb(89.019608%, 84.705882%, 78.431373%)" stroke-opacity="1" stroke-miterlimit="10" d="M 47.300781 264.367188 L 533.050781 264.367188 "/>
</g>
<g clip-path="url(#clip-2)">
<path fill="none" stroke-width="0.853583" stroke-linecap="butt" stroke-linejoin="round" stroke="rgb(89.019608%, 84.705882%, 78.431373%)" stroke-opacity="1" stroke-miterlimit="10" d="M 47.300781 214.105469 L 533.050781 214.105469 "/>
</g>
<g clip-path="url(#clip-3)">
<path fill="none" stroke-width="0.853583" stroke-linecap="butt" stroke-linejoin="round" stroke="rgb(89.019608%, 84.705882%, 78.431373%)" stroke-opacity="1" stroke-miterlimit="10" d="M 47.300781 163.839844 L 533.050781 163.839844 "/>
</g>
<g clip-path="url(#clip-4)">
<path fill="none" stroke-width="0.853583" stroke-linecap="butt" stroke-linejoin="round" stroke="rgb(89.019608%, 84.705882%, 78.431373%)" stroke-opacity="1" stroke-miterlimit="10" d="M 47.300781 113.578125 L 533.050781 113.578125 "/>
</g>
<g clip-path="url(#clip-5)">
<path fill="none" stroke-width="0.853583" stroke-linecap="butt" stroke-linejoin="round" stroke="rgb(89.019608%, 84.705882%, 78.431373%)" stroke-opacity="1" stroke-miterlimit="10" d="M 69.378906 312.117188 L 69.378906 90.957031 "/>
</g>
<g clip-path="url(#clip-6)">
<path fill="none" stroke-width="0.853583" stroke-linecap="butt" stroke-linejoin="round" stroke="rgb(89.019608%, 84.705882%, 78.431373%)" stroke-opacity="1" stroke-miterlimit="10" d="M 249.113281 312.117188 L 249.113281 90.957031 "/>
</g>
<g clip-path="url(#clip-7)">
<path fill="none" stroke-width="0.853583" stroke-linecap="butt" stroke-linejoin="round" stroke="rgb(89.019608%, 84.705882%, 78.431373%)" stroke-opacity="1" stroke-miterlimit="10" d="M 428.605469 312.117188 L 428.605469 90.957031 "/>
</g>
<path fill="none" stroke-width="2.027259" stroke-linecap="butt" stroke-linejoin="round" stroke="rgb(26.666667%, 36.862745%, 27.45098%)" stroke-opacity="1" stroke-miterlimit="10" d="M 69.378906 264.367188 L 77 257.285156 L 84.132812 251.734375 L 91.753906 252.96875 L 99.128906 249.90625 L 106.753906 246.859375 L 114.128906 245.164062 L 121.75 242.226562 L 129.375 235.191406 L 136.75 234.746094 L 144.371094 233.554688 L 151.75 229.921875 L 159.371094 227.292969 L 166.992188 225.714844 L 173.878906 226.378906 L 181.5 225.261719 L 188.875 221.410156 L 196.496094 220.269531 L 203.875 219.300781 L 211.496094 216.222656 L 219.117188 224.289062 L 226.496094 207.871094 L 234.117188 211.269531 L 241.492188 212.964844 L 249.113281 210.734375 L 256.738281 207.039062 L 263.621094 205.453125 L 271.242188 199.726562 L 278.621094 201.632812 L 286.242188 198.652344 L 293.617188 193.433594 L 301.242188 191.660156 L 308.863281 192.542969 L 316.238281 189.210938 L 323.859375 186.777344 L 331.238281 182.320312 L 338.859375 180.617188 L 346.480469 180.382812 L 353.367188 175.136719 L 360.988281 173.238281 L 368.363281 172.640625 L 375.988281 168.402344 L 383.363281 163.402344 L 390.984375 155.316406 L 398.609375 155.277344 L 405.984375 154.378906 L 413.605469 149.851562 L 420.980469 147.367188 L 428.605469 142.484375 L 436.226562 139.765625 L 443.355469 135.046875 L 450.980469 133.988281 L 458.355469 127.726562 L 465.976562 129.070312 L 473.355469 123.050781 L 480.976562 120.183594 L 488.597656 114.472656 L 495.972656 109.984375 L 503.597656 106.121094 L 510.972656 101.011719 "/>
<path fill="none" stroke-width="2.027259" stroke-linecap="butt" stroke-linejoin="round" stroke="rgb(72.156863%, 50.980392%, 15.686275%)" stroke-opacity="1" stroke-miterlimit="10" d="M 69.378906 269.953125 L 77 279.585938 L 84.132812 284.402344 L 91.753906 276.375 L 99.128906 277.980469 L 106.753906 277.980469 L 114.128906 273.164062 L 121.75 273.164062 L 129.375 284.402344 L 136.75 282.796875 L 144.371094 284.402344 L 151.75 289.21875 L 159.371094 279.585938 L 166.992188 277.980469 L 173.878906 271.558594 L 181.5 276.375 L 188.875 284.402344 L 196.496094 284.402344 L 203.875 266.742188 L 211.496094 247.472656 L 219.117188 244.261719 L 226.496094 302.066406 L 234.117188 290.824219 L 241.492188 284.402344 L 249.113281 258.714844 L 256.738281 263.53125 L 263.621094 261.925781 L 271.242188 263.53125 L 278.621094 252.289062 L 286.242188 253.894531 L 293.617188 268.347656 L 301.242188 269.953125 L 308.863281 265.136719 L 323.859375 265.136719 L 331.238281 268.347656 L 338.859375 268.347656 L 346.480469 266.742188 L 353.367188 271.558594 L 360.988281 271.558594 L 368.363281 263.53125 L 375.988281 266.742188 L 383.363281 255.5 L 390.984375 260.320312 L 398.609375 273.164062 L 405.984375 271.558594 L 413.605469 269.953125 L 420.980469 269.953125 L 428.605469 276.375 L 436.226562 276.375 L 443.355469 277.980469 L 450.980469 271.558594 L 458.355469 271.558594 L 465.976562 263.53125 L 473.355469 271.558594 L 480.976562 273.164062 L 488.597656 282.796875 L 495.972656 284.402344 L 503.597656 290.824219 L 510.972656 245.867188 "/>
<path fill="none" stroke-width="2.027259" stroke-linecap="butt" stroke-linejoin="round" stroke="rgb(51.372549%, 57.647059%, 77.647059%)" stroke-opacity="1" stroke-miterlimit="10" d="M 69.378906 284.222656 L 77 280.738281 L 84.132812 283.644531 L 91.753906 289.5 L 99.128906 283.0625 L 106.753906 285.550781 L 114.128906 283.316406 L 121.75 280.855469 L 129.375 286.152344 L 136.75 288.269531 L 144.371094 285.828125 L 151.75 285.945312 L 159.371094 276.902344 L 166.992188 275.371094 L 173.878906 274.160156 L 181.5 271.140625 L 188.875 272.1875 L 196.496094 266.191406 L 203.875 263.890625 L 211.496094 253.222656 L 219.117188 250.898438 L 226.496094 238.070312 L 234.117188 230.890625 L 241.492188 224.964844 L 249.113281 226.730469 L 256.738281 225.964844 L 263.621094 223.894531 L 271.242188 217.039062 L 278.621094 221.6875 L 286.242188 221.828125 L 293.617188 221.894531 L 301.242188 223.894531 L 308.863281 225.125 L 316.238281 223.824219 L 323.859375 218.875 L 331.238281 216.085938 L 338.859375 218.875 L 346.480469 216.597656 L 353.367188 217.292969 L 360.988281 211.390625 L 368.363281 208.71875 L 375.988281 201.539062 L 383.363281 207.464844 L 390.984375 210.136719 L 398.609375 209.554688 L 405.984375 213.949219 L 413.605469 217.574219 L 420.980469 223.59375 L 428.605469 222.359375 L 436.226562 227.078125 L 443.355469 219.546875 L 450.980469 227.007812 L 458.355469 226.03125 L 465.976562 224.3125 L 473.355469 227.796875 L 480.976562 231.191406 L 488.597656 232.65625 L 495.972656 229.542969 L 503.597656 232.539062 L 510.972656 232.492188 "/>
<g fill="rgb(17.254902%, 14.117647%, 8.627451%)" fill-opacity="1">
<use xlink:href="#glyph-0-0" x="28.503906" y="268.445312"/>
<use xlink:href="#glyph-0-1" x="34.06543" y="268.445312"/>
</g>
<g fill="rgb(17.254902%, 14.117647%, 8.627451%)" fill-opacity="1">
<use xlink:href="#glyph-0-2" x="28.503906" y="218.183594"/>
<use xlink:href="#glyph-0-1" x="34.06543" y="218.183594"/>
</g>
<g fill="rgb(17.254902%, 14.117647%, 8.627451%)" fill-opacity="1">
<use xlink:href="#glyph-0-3" x="28.503906" y="167.917969"/>
<use xlink:href="#glyph-0-1" x="34.06543" y="167.917969"/>
</g>
<g fill="rgb(17.254902%, 14.117647%, 8.627451%)" fill-opacity="1">
<use xlink:href="#glyph-0-4" x="28.503906" y="117.65625"/>
<use xlink:href="#glyph-0-1" x="34.06543" y="117.65625"/>
</g>
<path fill="none" stroke-width="1.066978" stroke-linecap="butt" stroke-linejoin="round" stroke="rgb(89.019608%, 84.705882%, 78.431373%)" stroke-opacity="1" stroke-miterlimit="10" d="M 44.558594 264.367188 L 47.300781 264.367188 "/>
<path fill="none" stroke-width="1.066978" stroke-linecap="butt" stroke-linejoin="round" stroke="rgb(89.019608%, 84.705882%, 78.431373%)" stroke-opacity="1" stroke-miterlimit="10" d="M 44.558594 214.105469 L 47.300781 214.105469 "/>
<path fill="none" stroke-width="1.066978" stroke-linecap="butt" stroke-linejoin="round" stroke="rgb(89.019608%, 84.705882%, 78.431373%)" stroke-opacity="1" stroke-miterlimit="10" d="M 44.558594 163.839844 L 47.300781 163.839844 "/>
<path fill="none" stroke-width="1.066978" stroke-linecap="butt" stroke-linejoin="round" stroke="rgb(89.019608%, 84.705882%, 78.431373%)" stroke-opacity="1" stroke-miterlimit="10" d="M 44.558594 113.578125 L 47.300781 113.578125 "/>
<path fill="none" stroke-width="1.066978" stroke-linecap="butt" stroke-linejoin="round" stroke="rgb(89.019608%, 84.705882%, 78.431373%)" stroke-opacity="1" stroke-miterlimit="10" d="M 69.378906 314.859375 L 69.378906 312.117188 "/>
<path fill="none" stroke-width="1.066978" stroke-linecap="butt" stroke-linejoin="round" stroke="rgb(89.019608%, 84.705882%, 78.431373%)" stroke-opacity="1" stroke-miterlimit="10" d="M 249.113281 314.859375 L 249.113281 312.117188 "/>
<path fill="none" stroke-width="1.066978" stroke-linecap="butt" stroke-linejoin="round" stroke="rgb(89.019608%, 84.705882%, 78.431373%)" stroke-opacity="1" stroke-miterlimit="10" d="M 428.605469 314.859375 L 428.605469 312.117188 "/>
<g fill="rgb(17.254902%, 14.117647%, 8.627451%)" fill-opacity="1">
<use xlink:href="#glyph-0-0" x="58.253906" y="327.949219"/>
<use xlink:href="#glyph-0-1" x="63.81543" y="327.949219"/>
<use xlink:href="#glyph-0-1" x="69.376953" y="327.949219"/>
<use xlink:href="#glyph-0-1" x="74.938477" y="327.949219"/>
</g>
<g fill="rgb(17.254902%, 14.117647%, 8.627451%)" fill-opacity="1">
<use xlink:href="#glyph-0-0" x="237.988281" y="327.949219"/>
<use xlink:href="#glyph-0-1" x="243.549805" y="327.949219"/>
<use xlink:href="#glyph-0-1" x="249.111328" y="327.949219"/>
<use xlink:href="#glyph-0-0" x="254.672852" y="327.949219"/>
</g>
<g fill="rgb(17.254902%, 14.117647%, 8.627451%)" fill-opacity="1">
<use xlink:href="#glyph-0-0" x="417.480469" y="327.949219"/>
<use xlink:href="#glyph-0-1" x="423.041992" y="327.949219"/>
<use xlink:href="#glyph-0-1" x="428.603516" y="327.949219"/>
<use xlink:href="#glyph-0-2" x="434.165039" y="327.949219"/>
</g>
<g fill="rgb(43.529412%, 36.078431%, 21.176471%)" fill-opacity="1">
<use xlink:href="#glyph-1-0" x="22.535156" y="243.960938"/>
<use xlink:href="#glyph-1-1" x="22.535156" y="236.89082"/>
<use xlink:href="#glyph-1-2" x="22.535156" y="230.995605"/>
<use xlink:href="#glyph-1-3" x="22.535156" y="228.050586"/>
<use xlink:href="#glyph-1-4" x="22.535156" y="221.575684"/>
<use xlink:href="#glyph-1-5" x="22.535156" y="217.450586"/>
<use xlink:href="#glyph-1-4" x="22.535156" y="214.505566"/>
<use xlink:href="#glyph-1-6" x="22.535156" y="210.380469"/>
<use xlink:href="#glyph-1-6" x="22.535156" y="204.485254"/>
<use xlink:href="#glyph-1-7" x="22.535156" y="198.590039"/>
<use xlink:href="#glyph-1-8" x="22.535156" y="192.694824"/>
<use xlink:href="#glyph-1-1" x="22.535156" y="186.799609"/>
<use xlink:href="#glyph-1-2" x="22.535156" y="180.904395"/>
<use xlink:href="#glyph-1-1" x="22.535156" y="177.959375"/>
<use xlink:href="#glyph-1-9" x="22.535156" y="172.06416"/>
<use xlink:href="#glyph-1-3" x="22.535156" y="165.589258"/>
</g>
<path fill-rule="nonzero" fill="rgb(98.431373%, 96.862745%, 94.117647%)" fill-opacity="1" d="M 185.230469 80 L 395.117188 80 L 395.117188 51.761719 L 185.230469 51.761719 Z M 185.230469 80 "/>
<path fill-rule="nonzero" fill="rgb(98.431373%, 96.862745%, 94.117647%)" fill-opacity="1" d="M 190.710938 74.519531 L 207.992188 74.519531 L 207.992188 57.238281 L 190.710938 57.238281 Z M 190.710938 74.519531 "/>
<path fill="none" stroke-width="2.027259" stroke-linecap="butt" stroke-linejoin="round" stroke="rgb(26.666667%, 36.862745%, 27.45098%)" stroke-opacity="1" stroke-miterlimit="10" d="M 192.441406 65.878906 L 206.265625 65.878906 "/>
<path fill-rule="nonzero" fill="rgb(98.431373%, 96.862745%, 94.117647%)" fill-opacity="1" d="M 260.464844 74.519531 L 277.746094 74.519531 L 277.746094 57.238281 L 260.464844 57.238281 Z M 260.464844 74.519531 "/>
<path fill="none" stroke-width="2.027259" stroke-linecap="butt" stroke-linejoin="round" stroke="rgb(72.156863%, 50.980392%, 15.686275%)" stroke-opacity="1" stroke-miterlimit="10" d="M 262.191406 65.878906 L 276.015625 65.878906 "/>
<path fill-rule="nonzero" fill="rgb(98.431373%, 96.862745%, 94.117647%)" fill-opacity="1" d="M 317.816406 74.519531 L 335.097656 74.519531 L 335.097656 57.238281 L 317.816406 57.238281 Z M 317.816406 74.519531 "/>
<path fill="none" stroke-width="2.027259" stroke-linecap="butt" stroke-linejoin="round" stroke="rgb(51.372549%, 57.647059%, 77.647059%)" stroke-opacity="1" stroke-miterlimit="10" d="M 319.546875 65.878906 L 333.371094 65.878906 "/>
<g fill="rgb(17.254902%, 14.117647%, 8.627451%)" fill-opacity="1">
<use xlink:href="#glyph-2-0" x="213.472656" y="69.851562"/>
<use xlink:href="#glyph-2-1" x="220.477686" y="69.851562"/>
<use xlink:href="#glyph-2-2" x="225.872363" y="69.851562"/>
<use xlink:href="#glyph-2-3" x="231.267041" y="69.851562"/>
<use xlink:href="#glyph-2-4" x="236.117041" y="69.851562"/>
<use xlink:href="#glyph-2-5" x="241.511719" y="69.851562"/>
<use xlink:href="#glyph-2-1" x="249.591895" y="69.851562"/>
</g>
<g fill="rgb(17.254902%, 14.117647%, 8.627451%)" fill-opacity="1">
<use xlink:href="#glyph-2-6" x="283.222656" y="69.851562"/>
<use xlink:href="#glyph-2-7" x="289.69248" y="69.851562"/>
<use xlink:href="#glyph-2-1" x="295.087158" y="69.851562"/>
<use xlink:href="#glyph-2-8" x="300.481836" y="69.851562"/>
<use xlink:href="#glyph-2-8" x="303.712012" y="69.851562"/>
<use xlink:href="#glyph-2-1" x="306.942188" y="69.851562"/>
</g>
<g fill="rgb(17.254902%, 14.117647%, 8.627451%)" fill-opacity="1">
<use xlink:href="#glyph-2-9" x="340.578125" y="69.851562"/>
<use xlink:href="#glyph-2-10" x="347.583154" y="69.851562"/>
<use xlink:href="#glyph-2-3" x="352.977832" y="69.851562"/>
<use xlink:href="#glyph-2-10" x="357.827832" y="69.851562"/>
<use xlink:href="#glyph-2-5" x="363.22251" y="69.851562"/>
<use xlink:href="#glyph-2-11" x="371.302686" y="69.851562"/>
<use xlink:href="#glyph-2-12" x="376.697363" y="69.851562"/>
<use xlink:href="#glyph-2-10" x="378.852393" y="69.851562"/>
<use xlink:href="#glyph-2-1" x="384.24707" y="69.851562"/>
</g>
<g fill="rgb(43.529412%, 36.078431%, 21.176471%)" fill-opacity="1">
<use xlink:href="#glyph-3-0" x="47.300781" y="40.644531"/>
<use xlink:href="#glyph-3-1" x="55.797461" y="40.644531"/>
<use xlink:href="#glyph-3-2" x="61.470215" y="40.644531"/>
<use xlink:href="#glyph-3-3" x="63.736328" y="40.644531"/>
<use xlink:href="#glyph-3-4" x="69.409082" y="40.644531"/>
<use xlink:href="#glyph-3-5" x="72.805762" y="40.644531"/>
<use xlink:href="#glyph-3-6" x="75.639648" y="40.644531"/>
<use xlink:href="#glyph-3-7" x="80.739648" y="40.644531"/>
<use xlink:href="#glyph-3-8" x="86.412402" y="40.644531"/>
<use xlink:href="#glyph-3-9" x="92.085156" y="40.644531"/>
<use xlink:href="#glyph-3-10" x="97.75791" y="40.644531"/>
<use xlink:href="#glyph-3-3" x="103.430664" y="40.644531"/>
<use xlink:href="#glyph-3-5" x="109.103418" y="40.644531"/>
<use xlink:href="#glyph-3-1" x="111.937305" y="40.644531"/>
<use xlink:href="#glyph-3-11" x="117.610059" y="40.644531"/>
<use xlink:href="#glyph-3-5" x="119.876172" y="40.644531"/>
<use xlink:href="#glyph-3-12" x="122.710059" y="40.644531"/>
<use xlink:href="#glyph-3-3" x="125.543945" y="40.644531"/>
<use xlink:href="#glyph-3-6" x="131.216699" y="40.644531"/>
<use xlink:href="#glyph-3-3" x="136.316699" y="40.644531"/>
<use xlink:href="#glyph-3-5" x="141.989453" y="40.644531"/>
<use xlink:href="#glyph-3-1" x="144.82334" y="40.644531"/>
<use xlink:href="#glyph-3-13" x="150.496094" y="40.644531"/>
<use xlink:href="#glyph-3-14" x="155.596094" y="40.644531"/>
<use xlink:href="#glyph-3-15" x="158.42998" y="40.644531"/>
<use xlink:href="#glyph-3-5" x="164.102734" y="40.644531"/>
<use xlink:href="#glyph-3-1" x="166.936621" y="40.644531"/>
<use xlink:href="#glyph-3-9" x="172.609375" y="40.644531"/>
<use xlink:href="#glyph-3-5" x="178.282129" y="40.644531"/>
<use xlink:href="#glyph-3-6" x="181.116016" y="40.644531"/>
<use xlink:href="#glyph-3-3" x="186.216016" y="40.644531"/>
<use xlink:href="#glyph-3-16" x="191.88877" y="40.644531"/>
<use xlink:href="#glyph-3-17" x="200.385449" y="40.644531"/>
<use xlink:href="#glyph-3-8" x="206.058203" y="40.644531"/>
<use xlink:href="#glyph-3-4" x="211.730957" y="40.644531"/>
<use xlink:href="#glyph-3-8" x="215.127637" y="40.644531"/>
<use xlink:href="#glyph-3-4" x="220.800391" y="40.644531"/>
<use xlink:href="#glyph-3-5" x="224.19707" y="40.644531"/>
<use xlink:href="#glyph-3-14" x="227.030957" y="40.644531"/>
<use xlink:href="#glyph-3-4" x="229.864844" y="40.644531"/>
<use xlink:href="#glyph-3-8" x="233.261523" y="40.644531"/>
<use xlink:href="#glyph-3-18" x="238.934277" y="40.644531"/>
<use xlink:href="#glyph-3-1" x="244.034277" y="40.644531"/>
<use xlink:href="#glyph-3-6" x="249.707031" y="40.644531"/>
<use xlink:href="#glyph-3-14" x="254.807031" y="40.644531"/>
<use xlink:href="#glyph-3-3" x="257.640918" y="40.644531"/>
<use xlink:href="#glyph-3-4" x="263.313672" y="40.644531"/>
<use xlink:href="#glyph-3-19" x="266.710352" y="40.644531"/>
<use xlink:href="#glyph-3-8" x="268.976465" y="40.644531"/>
<use xlink:href="#glyph-3-13" x="274.649219" y="40.644531"/>
</g>
<g fill="rgb(12.156863%, 10.196078%, 7.45098%)" fill-opacity="1">
<use xlink:href="#glyph-4-0" x="47.300781" y="23.554688"/>
<use xlink:href="#glyph-4-1" x="55.97168" y="23.554688"/>
<use xlink:href="#glyph-4-2" x="59.583496" y="23.554688"/>
<use xlink:href="#glyph-4-3" x="66.813477" y="23.554688"/>
<use xlink:href="#glyph-4-4" x="72.583496" y="23.554688"/>
<use xlink:href="#glyph-4-5" x="75.833496" y="23.554688"/>
<use xlink:href="#glyph-4-6" x="83.063477" y="23.554688"/>
<use xlink:href="#glyph-4-7" x="86.675293" y="23.554688"/>
<use xlink:href="#glyph-4-8" x="93.175293" y="23.554688"/>
<use xlink:href="#glyph-4-4" x="97.504395" y="23.554688"/>
<use xlink:href="#glyph-4-9" x="100.754395" y="23.554688"/>
<use xlink:href="#glyph-4-10" x="111.583496" y="23.554688"/>
<use xlink:href="#glyph-4-6" x="118.813477" y="23.554688"/>
<use xlink:href="#glyph-4-8" x="122.425293" y="23.554688"/>
<use xlink:href="#glyph-4-1" x="126.754395" y="23.554688"/>
<use xlink:href="#glyph-4-5" x="130.366211" y="23.554688"/>
<use xlink:href="#glyph-4-6" x="137.596191" y="23.554688"/>
<use xlink:href="#glyph-4-3" x="141.208008" y="23.554688"/>
</g>
</svg>
